M48
METRIC
T1C0.300
T2C0.500
T3C0.600
T4C0.650
T5C0.800
T6C1.000
T7C1.100
T8C0.650
T9C2.390
T10C3.450
%
G90
G05
T1
X97.274Y-71.851
X97.274Y-89.351
X98.274Y-63.851
X102.524Y-84.101
X102.774Y-116.351
X109.774Y-78.851
X109.774Y-97.851
X109.774Y-121.851
X113.474Y-84.501
X114.174Y-88.701
X114.974Y-87.001
X115.774Y-119.851
X121.999Y-114.626
X122.424Y-102.351
X123.424Y-114.851
X124.324Y-106.901
X126.774Y-116.851
X126.824Y-101.251
X127.224Y-104.701
X128.924Y-107.0
X131.024Y-110.551
X136.524Y-109.251
X137.774Y-88.751
X138.174Y-105.351
X141.074Y-88.801
X141.374Y-106.151
X143.624Y-108.601
X146.124Y-105.401
X146.674Y-86.751
X146.724Y-91.051
X147.224Y-105.701
X147.274Y-88.351
X148.374Y-88.601
X148.524Y-90.102
X149.724Y-107.401
X152.174Y-83.451
X152.624Y-105.201
X153.824Y-105.551
X156.474Y-91.501
X157.024Y-95.201
X157.124Y-96.851
X157.524Y-93.232
X158.174Y-93.751
X163.374Y-90.951
X163.424Y-95.651
X169.124Y-109.201
X184.586Y-59.034
X189.274Y-75.901
X190.874Y-54.201
X194.024Y-71.101
X195.174Y-110.751
X195.424Y-114.351
X196.874Y-119.901
X200.974Y-101.501
X201.674Y-57.851
X203.224Y-97.101
X208.024Y-101.101
X210.074Y-57.801
X211.524Y-82.051
X221.824Y-57.401
X224.074Y-74.001
X224.54Y-85.679
X226.318Y-73.995
X227.842Y-75.595
T2
X136.91Y-87.445
X138.81Y-87.445
T4
X117.454Y-116.819
X117.454Y-118.089
X118.724Y-116.819
X118.724Y-118.089
X119.994Y-116.819
X119.994Y-118.089
X121.264Y-116.819
X121.264Y-118.089
X122.534Y-116.819
X122.534Y-118.089
X123.804Y-116.819
X123.804Y-118.089
X125.074Y-116.819
X125.074Y-118.089
T5
X100.334Y-98.201
X100.334Y-100.741
X100.334Y-103.281
X100.334Y-105.821
X134.02Y-94.854
X134.02Y-99.734
T6
X105.287Y-76.052
X105.287Y-78.592
X105.287Y-81.132
X105.287Y-83.672
X105.287Y-86.212
X107.827Y-76.052
X107.827Y-78.592
X107.827Y-81.132
X107.827Y-83.672
X107.827Y-86.212
X151.574Y-112.001
X164.274Y-112.001
T7
X176.356Y-115.626
X181.436Y-115.626
X186.516Y-115.626
X228.858Y-81.219
X228.858Y-86.299
X228.858Y-91.379
T8
X202.598Y-54.971
X208.378Y-54.971
T9
X103.894Y-50.881
T10
X112.404Y-66.881
X167.644Y-50.881
T3
X201.168Y-51.621G85X201.168Y-51.021
G05
X201.168Y-56.051G85X201.168Y-54.951
G05
X209.808Y-51.621G85X209.808Y-51.021
G05
X209.808Y-56.051G85X209.808Y-54.951
G05
M30
