G04 #@! TF.GenerationSoftware,KiCad,Pcbnew,9.0.6*
G04 #@! TF.CreationDate,2025-12-06T23:46:01+01:00*
G04 #@! TF.ProjectId,Aramkortervezes_projekt,4172616d-6b6f-4727-9465-7276657a6573,rev?*
G04 #@! TF.SameCoordinates,Original*
G04 #@! TF.FileFunction,Copper,L2,Bot*
G04 #@! TF.FilePolarity,Positive*
%FSLAX46Y46*%
G04 Gerber Fmt 4.6, Leading zero omitted, Abs format (unit mm)*
G04 Created by KiCad (PCBNEW 9.0.6) date 2025-12-06 23:46:01*
%MOMM*%
%LPD*%
G01*
G04 APERTURE LIST*
G04 #@! TA.AperFunction,ComponentPad*
%ADD10R,1.500000X1.500000*%
G04 #@! TD*
G04 #@! TA.AperFunction,ComponentPad*
%ADD11C,1.500000*%
G04 #@! TD*
G04 #@! TA.AperFunction,ComponentPad*
%ADD12C,2.000000*%
G04 #@! TD*
G04 #@! TA.AperFunction,ComponentPad*
%ADD13R,2.000000X2.000000*%
G04 #@! TD*
G04 #@! TA.AperFunction,HeatsinkPad*
%ADD14O,1.000000X2.100000*%
G04 #@! TD*
G04 #@! TA.AperFunction,HeatsinkPad*
%ADD15O,1.000000X1.600000*%
G04 #@! TD*
G04 #@! TA.AperFunction,ComponentPad*
%ADD16C,1.000000*%
G04 #@! TD*
G04 #@! TA.AperFunction,ComponentPad*
%ADD17R,1.000000X1.000000*%
G04 #@! TD*
G04 #@! TA.AperFunction,ComponentPad*
%ADD18R,1.700000X1.700000*%
G04 #@! TD*
G04 #@! TA.AperFunction,ComponentPad*
%ADD19C,1.700000*%
G04 #@! TD*
G04 #@! TA.AperFunction,ViaPad*
%ADD20C,0.600000*%
G04 #@! TD*
G04 #@! TA.AperFunction,Conductor*
%ADD21C,0.500000*%
G04 #@! TD*
G04 #@! TA.AperFunction,Conductor*
%ADD22C,0.300000*%
G04 #@! TD*
G04 APERTURE END LIST*
D10*
X100334000Y-98201200D03*
D11*
X100334000Y-100741200D03*
X100334000Y-103281200D03*
X100334000Y-105821200D03*
D12*
X164274000Y-112001000D03*
X151574000Y-112001000D03*
D13*
X228858000Y-81219000D03*
D12*
X228858000Y-86299000D03*
X228858000Y-91379000D03*
D14*
X209808000Y-55501000D03*
D15*
X209808000Y-51321000D03*
D14*
X201168000Y-55501000D03*
D15*
X201168000Y-51321000D03*
D16*
X138810000Y-87445000D03*
X136910000Y-87445000D03*
D17*
X117453600Y-118089400D03*
D16*
X117453600Y-116819400D03*
X118723600Y-118089400D03*
X118723600Y-116819400D03*
X119993600Y-118089400D03*
X119993600Y-116819400D03*
X121263600Y-118089400D03*
X121263600Y-116819400D03*
X122533600Y-118089400D03*
X122533600Y-116819400D03*
X123803600Y-118089400D03*
X123803600Y-116819400D03*
X125073600Y-118089400D03*
X125073600Y-116819400D03*
D11*
X134020000Y-99734000D03*
X134020000Y-94854000D03*
D18*
X105287000Y-76052400D03*
D19*
X107827000Y-76052400D03*
X105287000Y-78592400D03*
X107827000Y-78592400D03*
X105287000Y-81132400D03*
X107827000Y-81132400D03*
X105287000Y-83672400D03*
X107827000Y-83672400D03*
X105287000Y-86212400D03*
X107827000Y-86212400D03*
D13*
X176356200Y-115625600D03*
D12*
X181436200Y-115625600D03*
X186516200Y-115625600D03*
D20*
X153824000Y-105551000D03*
X147274000Y-88351000D03*
X147224000Y-105701000D03*
X109774000Y-97851000D03*
X157524001Y-93231762D03*
X149724000Y-107401000D03*
X152174000Y-83451000D03*
X115774000Y-119851000D03*
X143624000Y-108601000D03*
X141374000Y-106151000D03*
X136524000Y-109251000D03*
X138174000Y-105351000D03*
X137774000Y-88751000D03*
X141074000Y-88801000D03*
X195424000Y-114351000D03*
X195174000Y-110751000D03*
X121999000Y-114626000D03*
X123424000Y-114851000D03*
X156474000Y-91501000D03*
X157124000Y-96851000D03*
X148524000Y-90102000D03*
X114174000Y-88701000D03*
X158174000Y-93751000D03*
X114974000Y-87001000D03*
X128924000Y-107000000D03*
X102524000Y-84101000D03*
X124324000Y-106901000D03*
X113474000Y-84501000D03*
X122424000Y-102351000D03*
X127224000Y-104701000D03*
X169124000Y-109201000D03*
X148374000Y-88601000D03*
X203224000Y-97101000D03*
X208024000Y-101101000D03*
X163374000Y-90951000D03*
X109774000Y-121851000D03*
X102774000Y-116351000D03*
X146724000Y-91051000D03*
X163424000Y-95651000D03*
X109774000Y-78851000D03*
X211524000Y-82051000D03*
X196874000Y-119901000D03*
X131024000Y-110551000D03*
X194024000Y-71101000D03*
X189274000Y-75901000D03*
X157024000Y-95201000D03*
X126824000Y-101251000D03*
X152624000Y-105201000D03*
X201674000Y-57851000D03*
X190874000Y-54201000D03*
X210074000Y-57801000D03*
X146674000Y-86751000D03*
X126774000Y-116851000D03*
X97274000Y-71851000D03*
X146124000Y-105401000D03*
X221824000Y-57401000D03*
X200974000Y-101501000D03*
X98274000Y-63851000D03*
X97274000Y-89351000D03*
X224074000Y-74001000D03*
X184585800Y-59034400D03*
X224540000Y-85679000D03*
X227842000Y-75595000D03*
X226318000Y-73995000D03*
D21*
X152174000Y-83451000D02*
X147274000Y-88351000D01*
X148024000Y-105701000D02*
X149724000Y-107401000D01*
X147224000Y-105701000D02*
X148024000Y-105701000D01*
X114774000Y-119851000D02*
X109774000Y-114851000D01*
X115774000Y-119851000D02*
X114774000Y-119851000D01*
X109774000Y-114851000D02*
X109774000Y-97851000D01*
X143624000Y-108401000D02*
X141374000Y-106151000D01*
X143624000Y-108601000D02*
X143624000Y-108401000D01*
X138174000Y-105351000D02*
X136524000Y-107001000D01*
X136524000Y-107001000D02*
X136524000Y-109251000D01*
D22*
X141074000Y-88751000D02*
X137774000Y-88751000D01*
X141074000Y-88751000D02*
X141074000Y-88801000D01*
X195174000Y-110751000D02*
X195174000Y-114101000D01*
X195174000Y-114101000D02*
X195424000Y-114351000D01*
X122224000Y-114851000D02*
X123424000Y-114851000D01*
X121999000Y-114626000D02*
X122224000Y-114851000D01*
X156474000Y-93101000D02*
X156474000Y-91501000D01*
X130616480Y-120352000D02*
X160331520Y-120352000D01*
X128973000Y-118708520D02*
X130616480Y-120352000D01*
X158175000Y-94802000D02*
X156474000Y-93101000D01*
X119993600Y-116819400D02*
X119993600Y-115710746D01*
X166425000Y-108693480D02*
X160375000Y-102643480D01*
X160331520Y-120352000D02*
X166425000Y-114258520D01*
X160375000Y-97543479D02*
X158175000Y-95343480D01*
X122052346Y-113652000D02*
X126616480Y-113652000D01*
X166425000Y-114258520D02*
X166425000Y-108693480D01*
X119993600Y-115710746D02*
X122052346Y-113652000D01*
X160375000Y-102643480D02*
X160375000Y-97543479D01*
X126616480Y-113652000D02*
X128973000Y-116008520D01*
X158175000Y-95343480D02*
X158175000Y-94802000D01*
X128973000Y-116008520D02*
X128973000Y-118708520D01*
X165924000Y-108901000D02*
X165924000Y-114051000D01*
X129474000Y-115801000D02*
X126824000Y-113151000D01*
X157124000Y-96851000D02*
X159874000Y-99601000D01*
X159874000Y-102851000D02*
X165924000Y-108901000D01*
X121844826Y-113151000D02*
X118723600Y-116272226D01*
X165924000Y-114051000D02*
X160124000Y-119851000D01*
X118723600Y-116272226D02*
X118723600Y-116819400D01*
X159874000Y-99601000D02*
X159874000Y-102851000D01*
X129474000Y-118501000D02*
X129474000Y-115801000D01*
X126824000Y-113151000D02*
X121844826Y-113151000D01*
X130824000Y-119851000D02*
X129474000Y-118501000D01*
X160124000Y-119851000D02*
X130824000Y-119851000D01*
X148524000Y-90102000D02*
X115575000Y-90102000D01*
X115575000Y-90102000D02*
X114174000Y-88701000D01*
X156225000Y-89452000D02*
X158174000Y-91401000D01*
X114974000Y-87001000D02*
X117425000Y-89452000D01*
X117425000Y-89452000D02*
X156225000Y-89452000D01*
X158174000Y-91401000D02*
X158174000Y-93751000D01*
X128375000Y-107000000D02*
X128723000Y-107000000D01*
X102524000Y-84101000D02*
X102524000Y-88551000D01*
X111024000Y-89701000D02*
X112973000Y-91650000D01*
X123673000Y-107170654D02*
X124054346Y-107552000D01*
X112973000Y-91650000D02*
X112973000Y-96258520D01*
X102524000Y-88551000D02*
X103674000Y-89701000D01*
X124054346Y-107552000D02*
X127823000Y-107552000D01*
X123673000Y-106958520D02*
X123673000Y-107170654D01*
X127823000Y-107552000D02*
X128375000Y-107000000D01*
X103674000Y-89701000D02*
X111024000Y-89701000D01*
X112973000Y-96258520D02*
X123673000Y-106958520D01*
X113474000Y-96051000D02*
X124324000Y-106901000D01*
X113474000Y-84501000D02*
X113474000Y-96051000D01*
X124774000Y-104701000D02*
X127224000Y-104701000D01*
X122424000Y-102351000D02*
X124774000Y-104701000D01*
X169924000Y-108401000D02*
X169924000Y-90851000D01*
X148424000Y-88551000D02*
X148374000Y-88601000D01*
X169124000Y-109201000D02*
X169924000Y-108401000D01*
X169924000Y-90851000D02*
X167624000Y-88551000D01*
X167624000Y-88551000D02*
X148424000Y-88551000D01*
X197895400Y-59034400D02*
X184585800Y-59034400D01*
X224540000Y-85679000D02*
X197895400Y-59034400D01*
X226318000Y-73995000D02*
X226318000Y-74071000D01*
X226318000Y-74071000D02*
X227842000Y-75595000D01*
G04 #@! TA.AperFunction,Conductor*
G36*
X120960749Y-116944845D02*
G01*
X121003536Y-117018954D01*
X121064046Y-117079464D01*
X121138155Y-117122251D01*
X121139888Y-117122715D01*
X120827660Y-117434942D01*
X120828621Y-117444698D01*
X120828621Y-117464105D01*
X120827660Y-117473854D01*
X121139890Y-117786084D01*
X121138155Y-117786549D01*
X121064046Y-117829336D01*
X121003536Y-117889846D01*
X120960749Y-117963955D01*
X120960284Y-117965690D01*
X120648054Y-117653460D01*
X120638305Y-117654421D01*
X120636007Y-117653917D01*
X120618898Y-117654421D01*
X120609142Y-117653460D01*
X120296915Y-117965688D01*
X120296451Y-117963955D01*
X120253664Y-117889846D01*
X120193154Y-117829336D01*
X120119045Y-117786549D01*
X120117309Y-117786084D01*
X120371375Y-117532019D01*
X120386368Y-117519713D01*
X120503889Y-117441189D01*
X120615389Y-117329689D01*
X120693913Y-117212168D01*
X120706218Y-117197175D01*
X120960283Y-116943109D01*
X120960749Y-116944845D01*
G37*
G04 #@! TD.AperFunction*
G04 #@! TA.AperFunction,Conductor*
G36*
X121820981Y-117197177D02*
G01*
X121833292Y-117212178D01*
X121869491Y-117266353D01*
X121911811Y-117329689D01*
X122023311Y-117441189D01*
X122140827Y-117519710D01*
X122155822Y-117532017D01*
X122409889Y-117786084D01*
X122408155Y-117786549D01*
X122334046Y-117829336D01*
X122273536Y-117889846D01*
X122230749Y-117963955D01*
X122230284Y-117965690D01*
X121918054Y-117653460D01*
X121908305Y-117654421D01*
X121899330Y-117652452D01*
X121888898Y-117654421D01*
X121879142Y-117653460D01*
X121566915Y-117965688D01*
X121566451Y-117963955D01*
X121523664Y-117889846D01*
X121463154Y-117829336D01*
X121389045Y-117786549D01*
X121387308Y-117786083D01*
X121699537Y-117473855D01*
X121698577Y-117464107D01*
X121698577Y-117444696D01*
X121699537Y-117434942D01*
X121387310Y-117122715D01*
X121389045Y-117122251D01*
X121463154Y-117079464D01*
X121523664Y-117018954D01*
X121566451Y-116944845D01*
X121566915Y-116943110D01*
X121820981Y-117197177D01*
G37*
G04 #@! TD.AperFunction*
G04 #@! TA.AperFunction,Conductor*
G36*
X235898691Y-44018907D02*
G01*
X235934655Y-44068407D01*
X235939500Y-44099000D01*
X235939500Y-127834500D01*
X235920593Y-127892691D01*
X235871093Y-127928655D01*
X235840500Y-127933500D01*
X92099000Y-127933500D01*
X92040809Y-127914593D01*
X92004845Y-127865093D01*
X92000000Y-127834500D01*
X92000000Y-105722312D01*
X99330000Y-105722312D01*
X99330000Y-105920087D01*
X99368582Y-106114054D01*
X99444266Y-106296771D01*
X99538215Y-106437377D01*
X99975438Y-106000153D01*
X100013920Y-106066806D01*
X100088394Y-106141280D01*
X100155043Y-106179760D01*
X99717821Y-106616983D01*
X99858428Y-106710933D01*
X100041145Y-106786617D01*
X100235112Y-106825199D01*
X100235116Y-106825200D01*
X100432884Y-106825200D01*
X100432887Y-106825199D01*
X100626854Y-106786617D01*
X100809570Y-106710933D01*
X100950177Y-106616983D01*
X100512954Y-106179760D01*
X100579606Y-106141280D01*
X100654080Y-106066806D01*
X100692560Y-106000154D01*
X101129783Y-106437377D01*
X101223733Y-106296770D01*
X101299417Y-106114054D01*
X101337999Y-105920087D01*
X101338000Y-105920083D01*
X101338000Y-105722316D01*
X101337999Y-105722312D01*
X101299417Y-105528345D01*
X101223733Y-105345628D01*
X101129783Y-105205021D01*
X100692560Y-105642243D01*
X100654080Y-105575594D01*
X100579606Y-105501120D01*
X100512953Y-105462638D01*
X100950177Y-105025415D01*
X100809571Y-104931466D01*
X100626854Y-104855782D01*
X100432887Y-104817200D01*
X100235112Y-104817200D01*
X100041145Y-104855782D01*
X99858428Y-104931466D01*
X99717821Y-105025415D01*
X100155045Y-105462639D01*
X100088394Y-105501120D01*
X100013920Y-105575594D01*
X99975439Y-105642245D01*
X99538215Y-105205021D01*
X99444266Y-105345628D01*
X99368582Y-105528345D01*
X99330000Y-105722312D01*
X92000000Y-105722312D01*
X92000000Y-103182312D01*
X99330000Y-103182312D01*
X99330000Y-103380087D01*
X99368582Y-103574054D01*
X99444266Y-103756771D01*
X99538215Y-103897377D01*
X99975438Y-103460153D01*
X100013920Y-103526806D01*
X100088394Y-103601280D01*
X100155043Y-103639760D01*
X99717821Y-104076983D01*
X99858428Y-104170933D01*
X100041145Y-104246617D01*
X100235112Y-104285199D01*
X100235116Y-104285200D01*
X100432884Y-104285200D01*
X100432887Y-104285199D01*
X100626854Y-104246617D01*
X100809570Y-104170933D01*
X100950177Y-104076983D01*
X100512954Y-103639760D01*
X100579606Y-103601280D01*
X100654080Y-103526806D01*
X100692560Y-103460154D01*
X101129783Y-103897377D01*
X101223733Y-103756770D01*
X101299417Y-103574054D01*
X101337999Y-103380087D01*
X101338000Y-103380083D01*
X101338000Y-103182316D01*
X101337999Y-103182312D01*
X101299417Y-102988345D01*
X101223733Y-102805628D01*
X101129783Y-102665021D01*
X100692560Y-103102243D01*
X100654080Y-103035594D01*
X100579606Y-102961120D01*
X100512953Y-102922638D01*
X100950177Y-102485415D01*
X100809571Y-102391466D01*
X100626854Y-102315782D01*
X100432887Y-102277200D01*
X100235112Y-102277200D01*
X100041145Y-102315782D01*
X99858428Y-102391466D01*
X99717821Y-102485415D01*
X100155045Y-102922639D01*
X100088394Y-102961120D01*
X100013920Y-103035594D01*
X99975439Y-103102245D01*
X99538215Y-102665021D01*
X99444266Y-102805628D01*
X99368582Y-102988345D01*
X99330000Y-103182312D01*
X92000000Y-103182312D01*
X92000000Y-100637732D01*
X99283500Y-100637732D01*
X99283500Y-100844667D01*
X99323869Y-101047618D01*
X99403058Y-101238797D01*
X99403059Y-101238798D01*
X99518023Y-101410855D01*
X99664345Y-101557177D01*
X99836402Y-101672141D01*
X100027580Y-101751330D01*
X100230535Y-101791700D01*
X100230536Y-101791700D01*
X100437464Y-101791700D01*
X100437465Y-101791700D01*
X100640420Y-101751330D01*
X100831598Y-101672141D01*
X101003655Y-101557177D01*
X101149977Y-101410855D01*
X101264941Y-101238798D01*
X101344130Y-101047620D01*
X101384500Y-100844665D01*
X101384500Y-100637735D01*
X101344130Y-100434780D01*
X101264941Y-100243602D01*
X101149977Y-100071545D01*
X101003655Y-99925223D01*
X100831598Y-99810259D01*
X100831599Y-99810259D01*
X100831597Y-99810258D01*
X100640418Y-99731069D01*
X100437467Y-99690700D01*
X100437465Y-99690700D01*
X100230535Y-99690700D01*
X100230532Y-99690700D01*
X100027581Y-99731069D01*
X99836402Y-99810258D01*
X99664348Y-99925220D01*
X99518020Y-100071548D01*
X99403058Y-100243602D01*
X99323869Y-100434781D01*
X99283500Y-100637732D01*
X92000000Y-100637732D01*
X92000000Y-97406330D01*
X99283500Y-97406330D01*
X99283500Y-98996060D01*
X99283501Y-98996063D01*
X99286414Y-99021190D01*
X99311756Y-99078585D01*
X99331794Y-99123965D01*
X99411235Y-99203406D01*
X99514009Y-99248785D01*
X99539135Y-99251700D01*
X101128864Y-99251699D01*
X101153991Y-99248785D01*
X101256765Y-99203406D01*
X101336206Y-99123965D01*
X101381585Y-99021191D01*
X101384500Y-98996065D01*
X101384499Y-97771943D01*
X109173500Y-97771943D01*
X109173500Y-97930057D01*
X109200782Y-98031875D01*
X109214423Y-98082785D01*
X109215963Y-98086501D01*
X109223500Y-98124389D01*
X109223500Y-114923477D01*
X109234619Y-114964972D01*
X109234619Y-114964973D01*
X109234620Y-114964973D01*
X109234620Y-114964974D01*
X109261016Y-115063485D01*
X109333490Y-115189015D01*
X114435985Y-120291510D01*
X114561515Y-120363984D01*
X114701525Y-120401500D01*
X114701526Y-120401500D01*
X114846474Y-120401500D01*
X115500610Y-120401500D01*
X115538495Y-120409036D01*
X115542210Y-120410575D01*
X115542214Y-120410576D01*
X115542216Y-120410577D01*
X115694943Y-120451500D01*
X115694945Y-120451500D01*
X115853055Y-120451500D01*
X115853057Y-120451500D01*
X116005784Y-120410577D01*
X116142716Y-120331520D01*
X116254520Y-120219716D01*
X116333577Y-120082784D01*
X116374500Y-119930057D01*
X116374500Y-119771943D01*
X116333577Y-119619216D01*
X116254520Y-119482284D01*
X116142716Y-119370480D01*
X116005784Y-119291423D01*
X115853057Y-119250500D01*
X115694943Y-119250500D01*
X115623371Y-119269677D01*
X115542210Y-119291424D01*
X115538495Y-119292964D01*
X115500610Y-119300500D01*
X115043033Y-119300500D01*
X114984842Y-119281593D01*
X114973029Y-119271504D01*
X110353496Y-114651971D01*
X110325719Y-114597454D01*
X110324500Y-114581967D01*
X110324500Y-111898644D01*
X150273500Y-111898644D01*
X150273500Y-112103355D01*
X150305521Y-112305529D01*
X150368780Y-112500219D01*
X150461712Y-112682609D01*
X150461714Y-112682613D01*
X150582029Y-112848213D01*
X150582031Y-112848215D01*
X150582034Y-112848219D01*
X150726781Y-112992966D01*
X150726784Y-112992968D01*
X150726786Y-112992970D01*
X150892386Y-113113285D01*
X150892390Y-113113287D01*
X151074781Y-113206220D01*
X151269466Y-113269477D01*
X151269467Y-113269477D01*
X151269470Y-113269478D01*
X151471645Y-113301500D01*
X151471648Y-113301500D01*
X151676355Y-113301500D01*
X151878529Y-113269478D01*
X151878530Y-113269477D01*
X151878534Y-113269477D01*
X152073219Y-113206220D01*
X152255610Y-113113287D01*
X152421219Y-112992966D01*
X152565966Y-112848219D01*
X152686287Y-112682610D01*
X152779220Y-112500219D01*
X152842477Y-112305534D01*
X152874500Y-112103352D01*
X152874500Y-111898648D01*
X152874500Y-111898644D01*
X152842478Y-111696470D01*
X152842477Y-111696466D01*
X152779220Y-111501781D01*
X152686287Y-111319390D01*
X152686285Y-111319386D01*
X152565970Y-111153786D01*
X152565967Y-111153783D01*
X152565966Y-111153781D01*
X152421219Y-111009034D01*
X152421215Y-111009031D01*
X152421213Y-111009029D01*
X152255613Y-110888714D01*
X152255609Y-110888712D01*
X152073219Y-110795780D01*
X151878529Y-110732521D01*
X151676355Y-110700500D01*
X151676352Y-110700500D01*
X151471648Y-110700500D01*
X151471645Y-110700500D01*
X151269470Y-110732521D01*
X151074780Y-110795780D01*
X150892390Y-110888712D01*
X150892386Y-110888714D01*
X150726786Y-111009029D01*
X150582029Y-111153786D01*
X150461714Y-111319386D01*
X150461712Y-111319390D01*
X150368780Y-111501780D01*
X150305521Y-111696470D01*
X150273500Y-111898644D01*
X110324500Y-111898644D01*
X110324500Y-109171943D01*
X135923500Y-109171943D01*
X135923500Y-109330057D01*
X135964423Y-109482784D01*
X136043480Y-109619716D01*
X136155284Y-109731520D01*
X136292216Y-109810577D01*
X136444943Y-109851500D01*
X136444945Y-109851500D01*
X136603055Y-109851500D01*
X136603057Y-109851500D01*
X136755784Y-109810577D01*
X136892716Y-109731520D01*
X137004520Y-109619716D01*
X137083577Y-109482784D01*
X137124500Y-109330057D01*
X137124500Y-109171943D01*
X137083577Y-109019216D01*
X137083576Y-109019214D01*
X137083575Y-109019210D01*
X137082036Y-109015495D01*
X137074500Y-108977610D01*
X137074500Y-107270032D01*
X137093407Y-107211841D01*
X137103490Y-107200034D01*
X138231580Y-106071943D01*
X140773500Y-106071943D01*
X140773500Y-106230057D01*
X140814423Y-106382784D01*
X140893480Y-106519716D01*
X141005284Y-106631520D01*
X141142216Y-106710577D01*
X141142225Y-106710579D01*
X141145935Y-106712117D01*
X141178052Y-106733577D01*
X142994504Y-108550028D01*
X143022281Y-108604545D01*
X143023500Y-108620032D01*
X143023500Y-108680057D01*
X143064423Y-108832784D01*
X143143480Y-108969716D01*
X143255284Y-109081520D01*
X143392216Y-109160577D01*
X143544943Y-109201500D01*
X143544945Y-109201500D01*
X143703055Y-109201500D01*
X143703057Y-109201500D01*
X143855784Y-109160577D01*
X143992716Y-109081520D01*
X144104520Y-108969716D01*
X144183577Y-108832784D01*
X144224500Y-108680057D01*
X144224500Y-108521943D01*
X144183577Y-108369216D01*
X144183576Y-108369214D01*
X144183575Y-108369210D01*
X144182036Y-108365495D01*
X144175945Y-108334879D01*
X144175347Y-108334958D01*
X144174500Y-108328527D01*
X144174500Y-108328525D01*
X144136984Y-108188515D01*
X144136982Y-108188512D01*
X144136982Y-108188510D01*
X144064512Y-108062989D01*
X144064508Y-108062984D01*
X143962015Y-107960490D01*
X143962015Y-107960491D01*
X141956577Y-105955052D01*
X141935117Y-105922935D01*
X141933579Y-105919225D01*
X141933577Y-105919216D01*
X141854520Y-105782284D01*
X141742716Y-105670480D01*
X141658647Y-105621943D01*
X146623500Y-105621943D01*
X146623500Y-105780057D01*
X146664423Y-105932784D01*
X146743480Y-106069716D01*
X146855284Y-106181520D01*
X146992216Y-106260577D01*
X147144943Y-106301500D01*
X147144945Y-106301500D01*
X147303055Y-106301500D01*
X147303057Y-106301500D01*
X147455784Y-106260577D01*
X147455786Y-106260575D01*
X147455789Y-106260575D01*
X147459505Y-106259036D01*
X147497390Y-106251500D01*
X147754967Y-106251500D01*
X147813158Y-106270407D01*
X147824971Y-106280496D01*
X149141421Y-107596946D01*
X149162878Y-107629057D01*
X149164419Y-107632777D01*
X149164422Y-107632783D01*
X149164423Y-107632784D01*
X149243480Y-107769716D01*
X149355284Y-107881520D01*
X149492216Y-107960577D01*
X149644943Y-108001500D01*
X149644945Y-108001500D01*
X149803055Y-108001500D01*
X149803057Y-108001500D01*
X149955784Y-107960577D01*
X150092716Y-107881520D01*
X150204520Y-107769716D01*
X150283577Y-107632784D01*
X150324500Y-107480057D01*
X150324500Y-107321943D01*
X150283577Y-107169216D01*
X150204520Y-107032284D01*
X150092716Y-106920480D01*
X149955784Y-106841423D01*
X149955783Y-106841422D01*
X149955777Y-106841419D01*
X149952057Y-106839878D01*
X149919946Y-106818421D01*
X149283044Y-106181519D01*
X148573468Y-105471943D01*
X153223500Y-105471943D01*
X153223500Y-105630057D01*
X153264423Y-105782784D01*
X153343480Y-105919716D01*
X153455284Y-106031520D01*
X153592216Y-106110577D01*
X153744943Y-106151500D01*
X153744945Y-106151500D01*
X153903055Y-106151500D01*
X153903057Y-106151500D01*
X154055784Y-106110577D01*
X154192716Y-106031520D01*
X154304520Y-105919716D01*
X154383577Y-105782784D01*
X154424500Y-105630057D01*
X154424500Y-105471943D01*
X154383577Y-105319216D01*
X154304520Y-105182284D01*
X154192716Y-105070480D01*
X154055784Y-104991423D01*
X153903057Y-104950500D01*
X153744943Y-104950500D01*
X153592216Y-104991423D01*
X153455284Y-105070480D01*
X153343480Y-105182284D01*
X153264423Y-105319216D01*
X153223500Y-105471943D01*
X148573468Y-105471943D01*
X148362015Y-105260490D01*
X148236485Y-105188016D01*
X148236482Y-105188015D01*
X148212242Y-105181519D01*
X148212242Y-105181520D01*
X148096475Y-105150500D01*
X148096474Y-105150500D01*
X147497390Y-105150500D01*
X147459505Y-105142964D01*
X147455789Y-105141424D01*
X147378810Y-105120798D01*
X147303057Y-105100500D01*
X147144943Y-105100500D01*
X146992216Y-105141423D01*
X146855284Y-105220480D01*
X146743480Y-105332284D01*
X146664423Y-105469216D01*
X146623500Y-105621943D01*
X141658647Y-105621943D01*
X141605784Y-105591423D01*
X141453057Y-105550500D01*
X141294943Y-105550500D01*
X141142216Y-105591423D01*
X141005284Y-105670480D01*
X140893480Y-105782284D01*
X140814423Y-105919216D01*
X140773500Y-106071943D01*
X138231580Y-106071943D01*
X138369949Y-105933574D01*
X138402070Y-105912115D01*
X138405780Y-105910578D01*
X138405779Y-105910578D01*
X138405784Y-105910577D01*
X138542716Y-105831520D01*
X138654520Y-105719716D01*
X138733577Y-105582784D01*
X138774500Y-105430057D01*
X138774500Y-105271943D01*
X138733577Y-105119216D01*
X138654520Y-104982284D01*
X138542716Y-104870480D01*
X138405784Y-104791423D01*
X138253057Y-104750500D01*
X138094943Y-104750500D01*
X137984635Y-104780057D01*
X137942216Y-104791423D01*
X137805284Y-104870480D01*
X137693480Y-104982284D01*
X137614419Y-105119222D01*
X137612881Y-105122936D01*
X137591423Y-105155050D01*
X136449705Y-106296770D01*
X136083490Y-106662985D01*
X136022736Y-106768216D01*
X136011016Y-106788515D01*
X136001186Y-106825200D01*
X135973500Y-106928525D01*
X135973500Y-108977610D01*
X135969798Y-108996218D01*
X135970169Y-109003075D01*
X135967112Y-109014557D01*
X135964423Y-109019216D01*
X135923500Y-109171943D01*
X110324500Y-109171943D01*
X110324500Y-98124389D01*
X110332037Y-98086501D01*
X110333576Y-98082785D01*
X110333577Y-98082784D01*
X110374500Y-97930057D01*
X110374500Y-97771943D01*
X110333577Y-97619216D01*
X110254520Y-97482284D01*
X110142716Y-97370480D01*
X110005784Y-97291423D01*
X109853057Y-97250500D01*
X109694943Y-97250500D01*
X109542216Y-97291423D01*
X109405284Y-97370480D01*
X109293480Y-97482284D01*
X109214423Y-97619216D01*
X109173500Y-97771943D01*
X101384499Y-97771943D01*
X101384499Y-97406336D01*
X101381585Y-97381209D01*
X101336206Y-97278435D01*
X101256765Y-97198994D01*
X101153991Y-97153615D01*
X101153990Y-97153614D01*
X101153988Y-97153614D01*
X101128868Y-97150700D01*
X99539139Y-97150700D01*
X99539136Y-97150701D01*
X99514009Y-97153614D01*
X99411235Y-97198994D01*
X99331794Y-97278435D01*
X99286414Y-97381211D01*
X99283500Y-97406330D01*
X92000000Y-97406330D01*
X92000000Y-84021943D01*
X101923500Y-84021943D01*
X101923500Y-84180057D01*
X101964423Y-84332784D01*
X102043480Y-84469716D01*
X102044505Y-84470741D01*
X102044977Y-84471668D01*
X102047431Y-84474866D01*
X102046838Y-84475320D01*
X102072281Y-84525256D01*
X102073500Y-84540743D01*
X102073500Y-88610309D01*
X102078136Y-88627609D01*
X102078137Y-88627613D01*
X102104202Y-88724891D01*
X102163507Y-88827609D01*
X102163508Y-88827610D01*
X102163509Y-88827611D01*
X102163511Y-88827614D01*
X103397386Y-90061490D01*
X103500114Y-90120799D01*
X103614691Y-90151500D01*
X110796389Y-90151500D01*
X110854580Y-90170407D01*
X110866393Y-90180496D01*
X112493504Y-91807607D01*
X112521281Y-91862124D01*
X112522500Y-91877611D01*
X112522500Y-96317828D01*
X112536608Y-96370480D01*
X112553202Y-96432411D01*
X112612507Y-96535129D01*
X112612509Y-96535131D01*
X112612511Y-96535134D01*
X123193505Y-107116128D01*
X123221281Y-107170643D01*
X123222500Y-107186130D01*
X123222500Y-107229962D01*
X123246360Y-107319009D01*
X123246359Y-107319009D01*
X123253201Y-107344542D01*
X123253202Y-107344544D01*
X123312507Y-107447263D01*
X123312511Y-107447268D01*
X123777732Y-107912490D01*
X123880459Y-107971799D01*
X123904666Y-107978284D01*
X123904671Y-107978287D01*
X123904672Y-107978286D01*
X123995034Y-108002499D01*
X123995036Y-108002500D01*
X123995037Y-108002500D01*
X127882309Y-108002500D01*
X127972669Y-107978287D01*
X127972672Y-107978287D01*
X127985903Y-107974741D01*
X127996887Y-107971799D01*
X128099614Y-107912489D01*
X128486543Y-107525558D01*
X128541058Y-107497782D01*
X128601490Y-107507353D01*
X128606027Y-107509816D01*
X128692216Y-107559577D01*
X128844943Y-107600500D01*
X128844945Y-107600500D01*
X129003055Y-107600500D01*
X129003057Y-107600500D01*
X129155784Y-107559577D01*
X129292716Y-107480520D01*
X129404520Y-107368716D01*
X129483577Y-107231784D01*
X129524500Y-107079057D01*
X129524500Y-106920943D01*
X129483577Y-106768216D01*
X129404520Y-106631284D01*
X129292716Y-106519480D01*
X129155784Y-106440423D01*
X129003057Y-106399500D01*
X128844943Y-106399500D01*
X128692216Y-106440423D01*
X128555284Y-106519480D01*
X128554258Y-106520505D01*
X128553331Y-106520977D01*
X128550134Y-106523431D01*
X128549679Y-106522838D01*
X128499744Y-106548281D01*
X128484257Y-106549500D01*
X128315691Y-106549500D01*
X128236203Y-106570799D01*
X128236202Y-106570798D01*
X128201111Y-106580201D01*
X128201109Y-106580202D01*
X128098390Y-106639507D01*
X128098385Y-106639511D01*
X127665392Y-107072504D01*
X127610876Y-107100281D01*
X127595389Y-107101500D01*
X125020979Y-107101500D01*
X124962788Y-107082593D01*
X124926824Y-107033093D01*
X124925607Y-106986746D01*
X124923653Y-106986489D01*
X124924500Y-106980056D01*
X124924500Y-106821944D01*
X124915034Y-106786617D01*
X124883577Y-106669216D01*
X124804520Y-106532284D01*
X124692716Y-106420480D01*
X124555784Y-106341423D01*
X124403057Y-106300500D01*
X124403055Y-106300500D01*
X124401611Y-106300500D01*
X124400626Y-106300180D01*
X124396623Y-106299653D01*
X124396720Y-106298911D01*
X124343420Y-106281593D01*
X124331607Y-106271504D01*
X120332046Y-102271943D01*
X121823500Y-102271943D01*
X121823500Y-102430057D01*
X121864423Y-102582784D01*
X121943480Y-102719716D01*
X122055284Y-102831520D01*
X122192216Y-102910577D01*
X122344943Y-102951500D01*
X122346389Y-102951500D01*
X122347373Y-102951819D01*
X122351377Y-102952347D01*
X122351279Y-102953088D01*
X122404580Y-102970407D01*
X122416393Y-102980496D01*
X124497386Y-105061489D01*
X124497388Y-105061490D01*
X124497389Y-105061491D01*
X124497390Y-105061492D01*
X124600107Y-105120796D01*
X124600109Y-105120797D01*
X124600113Y-105120799D01*
X124624322Y-105127284D01*
X124624325Y-105127287D01*
X124624326Y-105127286D01*
X124714688Y-105151499D01*
X124714690Y-105151500D01*
X124714691Y-105151500D01*
X126784257Y-105151500D01*
X126842448Y-105170407D01*
X126854254Y-105180490D01*
X126855284Y-105181520D01*
X126992216Y-105260577D01*
X127144943Y-105301500D01*
X127144945Y-105301500D01*
X127303055Y-105301500D01*
X127303057Y-105301500D01*
X127455784Y-105260577D01*
X127592716Y-105181520D01*
X127704520Y-105069716D01*
X127783577Y-104932784D01*
X127824500Y-104780057D01*
X127824500Y-104621943D01*
X127783577Y-104469216D01*
X127704520Y-104332284D01*
X127592716Y-104220480D01*
X127455784Y-104141423D01*
X127303057Y-104100500D01*
X127144943Y-104100500D01*
X126992216Y-104141423D01*
X126855284Y-104220480D01*
X126854258Y-104221505D01*
X126853331Y-104221977D01*
X126850134Y-104224431D01*
X126849679Y-104223838D01*
X126799744Y-104249281D01*
X126784257Y-104250500D01*
X125001611Y-104250500D01*
X124943420Y-104231593D01*
X124931607Y-104221504D01*
X123053496Y-102343393D01*
X123025719Y-102288876D01*
X123024500Y-102273389D01*
X123024500Y-102271944D01*
X123024500Y-102271943D01*
X122983577Y-102119216D01*
X122904520Y-101982284D01*
X122792716Y-101870480D01*
X122655784Y-101791423D01*
X122503057Y-101750500D01*
X122344943Y-101750500D01*
X122192216Y-101791423D01*
X122055284Y-101870480D01*
X121943480Y-101982284D01*
X121864423Y-102119216D01*
X121823500Y-102271943D01*
X120332046Y-102271943D01*
X117690635Y-99630532D01*
X132969500Y-99630532D01*
X132969500Y-99837467D01*
X133009869Y-100040418D01*
X133089058Y-100231597D01*
X133204020Y-100403651D01*
X133204023Y-100403655D01*
X133350345Y-100549977D01*
X133522402Y-100664941D01*
X133713580Y-100744130D01*
X133916535Y-100784500D01*
X133916536Y-100784500D01*
X134123464Y-100784500D01*
X134123465Y-100784500D01*
X134326420Y-100744130D01*
X134517598Y-100664941D01*
X134689655Y-100549977D01*
X134835977Y-100403655D01*
X134950941Y-100231598D01*
X135030130Y-100040420D01*
X135070500Y-99837465D01*
X135070500Y-99630535D01*
X135030130Y-99427580D01*
X134950941Y-99236402D01*
X134835977Y-99064345D01*
X134689655Y-98918023D01*
X134580956Y-98845393D01*
X134517597Y-98803058D01*
X134326418Y-98723869D01*
X134123467Y-98683500D01*
X134123465Y-98683500D01*
X133916535Y-98683500D01*
X133916532Y-98683500D01*
X133713581Y-98723869D01*
X133522402Y-98803058D01*
X133350348Y-98918020D01*
X133204020Y-99064348D01*
X133089058Y-99236402D01*
X133009869Y-99427581D01*
X132969500Y-99630532D01*
X117690635Y-99630532D01*
X113953496Y-95893393D01*
X113925719Y-95838876D01*
X113924500Y-95823389D01*
X113924500Y-94750532D01*
X132969500Y-94750532D01*
X132969500Y-94957467D01*
X133009869Y-95160418D01*
X133089058Y-95351597D01*
X133199825Y-95517372D01*
X133204023Y-95523655D01*
X133350345Y-95669977D01*
X133522402Y-95784941D01*
X133713580Y-95864130D01*
X133916535Y-95904500D01*
X133916536Y-95904500D01*
X134123464Y-95904500D01*
X134123465Y-95904500D01*
X134326420Y-95864130D01*
X134517598Y-95784941D01*
X134689655Y-95669977D01*
X134835977Y-95523655D01*
X134950941Y-95351598D01*
X135030130Y-95160420D01*
X135070500Y-94957465D01*
X135070500Y-94750535D01*
X135030130Y-94547580D01*
X134950941Y-94356402D01*
X134835977Y-94184345D01*
X134689655Y-94038023D01*
X134689651Y-94038020D01*
X134517597Y-93923058D01*
X134326418Y-93843869D01*
X134123467Y-93803500D01*
X134123465Y-93803500D01*
X133916535Y-93803500D01*
X133916532Y-93803500D01*
X133713581Y-93843869D01*
X133522402Y-93923058D01*
X133350348Y-94038020D01*
X133204020Y-94184348D01*
X133089058Y-94356402D01*
X133009869Y-94547581D01*
X132969500Y-94750532D01*
X113924500Y-94750532D01*
X113924500Y-89384849D01*
X113932458Y-89360354D01*
X113937866Y-89335171D01*
X113941781Y-89331659D01*
X113943407Y-89326658D01*
X113964248Y-89311515D01*
X113983421Y-89294325D01*
X113988446Y-89293934D01*
X113992907Y-89290694D01*
X114044284Y-89288055D01*
X114046707Y-89288575D01*
X114094943Y-89301500D01*
X114106899Y-89301500D01*
X114117173Y-89303706D01*
X114134988Y-89314041D01*
X114154580Y-89320407D01*
X114166393Y-89330496D01*
X115298386Y-90462489D01*
X115298388Y-90462490D01*
X115298389Y-90462491D01*
X115298390Y-90462492D01*
X115401107Y-90521796D01*
X115401109Y-90521797D01*
X115401113Y-90521799D01*
X115425322Y-90528284D01*
X115425325Y-90528287D01*
X115425326Y-90528286D01*
X115515688Y-90552499D01*
X115515690Y-90552500D01*
X115515691Y-90552500D01*
X148084257Y-90552500D01*
X148142448Y-90571407D01*
X148154254Y-90581490D01*
X148155284Y-90582520D01*
X148292216Y-90661577D01*
X148444943Y-90702500D01*
X148444945Y-90702500D01*
X148603055Y-90702500D01*
X148603057Y-90702500D01*
X148755784Y-90661577D01*
X148892716Y-90582520D01*
X149004520Y-90470716D01*
X149083577Y-90333784D01*
X149124500Y-90181057D01*
X149124500Y-90022943D01*
X149124500Y-90022942D01*
X149123653Y-90016509D01*
X149126192Y-90016174D01*
X149128826Y-89966013D01*
X149167336Y-89918467D01*
X149221247Y-89902500D01*
X155997389Y-89902500D01*
X156055580Y-89921407D01*
X156067393Y-89931496D01*
X157694504Y-91558607D01*
X157722281Y-91613124D01*
X157723500Y-91628611D01*
X157723500Y-92534515D01*
X157704593Y-92592706D01*
X157655093Y-92628670D01*
X157609786Y-92629858D01*
X157609490Y-92632109D01*
X157603058Y-92631262D01*
X157444944Y-92631262D01*
X157292217Y-92672185D01*
X157155285Y-92751242D01*
X157093501Y-92813025D01*
X157038987Y-92840801D01*
X156978555Y-92831230D01*
X156935290Y-92787965D01*
X156924500Y-92743020D01*
X156924500Y-91940743D01*
X156943407Y-91882552D01*
X156953490Y-91870745D01*
X156954520Y-91869716D01*
X157033577Y-91732784D01*
X157074500Y-91580057D01*
X157074500Y-91421943D01*
X157033577Y-91269216D01*
X156954520Y-91132284D01*
X156842716Y-91020480D01*
X156705784Y-90941423D01*
X156553057Y-90900500D01*
X156394943Y-90900500D01*
X156242216Y-90941423D01*
X156105284Y-91020480D01*
X155993480Y-91132284D01*
X155914423Y-91269216D01*
X155873500Y-91421943D01*
X155873500Y-91580057D01*
X155914423Y-91732784D01*
X155993480Y-91869716D01*
X155994505Y-91870741D01*
X155994977Y-91871668D01*
X155997431Y-91874866D01*
X155996838Y-91875320D01*
X156022281Y-91925256D01*
X156023500Y-91940743D01*
X156023500Y-93160309D01*
X156047713Y-93250673D01*
X156047712Y-93250673D01*
X156054200Y-93274886D01*
X156054202Y-93274890D01*
X156113507Y-93377609D01*
X156113509Y-93377611D01*
X156113511Y-93377614D01*
X157695505Y-94959608D01*
X157723281Y-95014123D01*
X157724500Y-95029610D01*
X157724500Y-95402788D01*
X157743787Y-95474771D01*
X157743788Y-95474773D01*
X157743789Y-95474775D01*
X157755201Y-95517367D01*
X157755202Y-95517369D01*
X157755203Y-95517372D01*
X157814507Y-95620089D01*
X157814509Y-95620091D01*
X157814511Y-95620094D01*
X158966361Y-96771943D01*
X159895504Y-97701086D01*
X159923281Y-97755603D01*
X159924500Y-97771090D01*
X159924500Y-98775389D01*
X159905593Y-98833580D01*
X159856093Y-98869544D01*
X159794907Y-98869544D01*
X159755496Y-98845393D01*
X157753496Y-96843393D01*
X157725719Y-96788876D01*
X157724500Y-96773389D01*
X157724500Y-96771944D01*
X157724500Y-96771943D01*
X157683577Y-96619216D01*
X157604520Y-96482284D01*
X157492716Y-96370480D01*
X157355784Y-96291423D01*
X157203057Y-96250500D01*
X157044943Y-96250500D01*
X156892216Y-96291423D01*
X156755284Y-96370480D01*
X156643480Y-96482284D01*
X156564423Y-96619216D01*
X156523500Y-96771943D01*
X156523500Y-96930057D01*
X156564423Y-97082784D01*
X156643480Y-97219716D01*
X156755284Y-97331520D01*
X156892216Y-97410577D01*
X157044943Y-97451500D01*
X157046389Y-97451500D01*
X157047373Y-97451819D01*
X157051377Y-97452347D01*
X157051279Y-97453088D01*
X157104580Y-97470407D01*
X157116393Y-97480496D01*
X159394504Y-99758607D01*
X159422281Y-99813124D01*
X159423500Y-99828611D01*
X159423500Y-102910309D01*
X159447713Y-103000673D01*
X159447712Y-103000673D01*
X159454200Y-103024886D01*
X159454202Y-103024890D01*
X159513507Y-103127609D01*
X159513509Y-103127611D01*
X159513511Y-103127614D01*
X165444505Y-109058608D01*
X165472281Y-109113123D01*
X165473500Y-109128610D01*
X165473500Y-111134736D01*
X165454593Y-111192927D01*
X165405093Y-111228891D01*
X165343907Y-111228891D01*
X165294407Y-111192927D01*
X165281568Y-111175256D01*
X165265966Y-111153781D01*
X165121219Y-111009034D01*
X165121215Y-111009031D01*
X165121213Y-111009029D01*
X164955613Y-110888714D01*
X164955609Y-110888712D01*
X164773219Y-110795780D01*
X164578529Y-110732521D01*
X164376355Y-110700500D01*
X164376352Y-110700500D01*
X164171648Y-110700500D01*
X164171645Y-110700500D01*
X163969470Y-110732521D01*
X163774780Y-110795780D01*
X163592390Y-110888712D01*
X163592386Y-110888714D01*
X163426786Y-111009029D01*
X163282029Y-111153786D01*
X163161714Y-111319386D01*
X163161712Y-111319390D01*
X163068780Y-111501780D01*
X163005521Y-111696470D01*
X162973500Y-111898644D01*
X162973500Y-112103355D01*
X163005521Y-112305529D01*
X163068780Y-112500219D01*
X163161712Y-112682609D01*
X163161714Y-112682613D01*
X163282029Y-112848213D01*
X163282031Y-112848215D01*
X163282034Y-112848219D01*
X163426781Y-112992966D01*
X163426784Y-112992968D01*
X163426786Y-112992970D01*
X163592386Y-113113285D01*
X163592390Y-113113287D01*
X163774781Y-113206220D01*
X163969466Y-113269477D01*
X163969467Y-113269477D01*
X163969470Y-113269478D01*
X164171645Y-113301500D01*
X164171648Y-113301500D01*
X164376355Y-113301500D01*
X164578529Y-113269478D01*
X164578530Y-113269477D01*
X164578534Y-113269477D01*
X164773219Y-113206220D01*
X164955610Y-113113287D01*
X165121219Y-112992966D01*
X165265966Y-112848219D01*
X165294407Y-112809072D01*
X165343906Y-112773109D01*
X165405092Y-112773108D01*
X165454592Y-112809071D01*
X165473500Y-112867262D01*
X165473500Y-113823388D01*
X165454593Y-113881579D01*
X165444504Y-113893392D01*
X159966393Y-119371504D01*
X159911876Y-119399281D01*
X159896389Y-119400500D01*
X131051611Y-119400500D01*
X130993420Y-119381593D01*
X130981607Y-119371504D01*
X129953496Y-118343393D01*
X129925719Y-118288876D01*
X129924500Y-118273389D01*
X129924500Y-115741692D01*
X129920818Y-115727952D01*
X129893799Y-115627114D01*
X129893799Y-115627113D01*
X129893799Y-115627112D01*
X129834492Y-115524390D01*
X129834490Y-115524388D01*
X129834489Y-115524386D01*
X127100614Y-112790511D01*
X127100611Y-112790509D01*
X127100609Y-112790507D01*
X126997890Y-112731202D01*
X126997886Y-112731200D01*
X126973673Y-112724712D01*
X126973673Y-112724713D01*
X126883309Y-112700500D01*
X121785517Y-112700500D01*
X121740334Y-112712606D01*
X121695151Y-112724713D01*
X121695150Y-112724712D01*
X121670938Y-112731201D01*
X121670935Y-112731202D01*
X121568216Y-112790507D01*
X118363107Y-115995616D01*
X118303802Y-116098336D01*
X118303802Y-116098337D01*
X118303801Y-116098339D01*
X118303801Y-116098340D01*
X118300778Y-116109622D01*
X118267451Y-116160935D01*
X118260155Y-116166309D01*
X118213312Y-116197609D01*
X118158603Y-116252318D01*
X118104086Y-116280095D01*
X118043654Y-116270523D01*
X118018596Y-116252318D01*
X117963892Y-116197614D01*
X117963889Y-116197611D01*
X117892377Y-116149828D01*
X117832785Y-116110009D01*
X117832774Y-116110003D01*
X117687097Y-116049663D01*
X117532444Y-116018900D01*
X117532442Y-116018900D01*
X117374758Y-116018900D01*
X117374755Y-116018900D01*
X117220103Y-116049663D01*
X117220101Y-116049663D01*
X117074425Y-116110003D01*
X117074414Y-116110009D01*
X116943311Y-116197611D01*
X116943307Y-116197614D01*
X116831814Y-116309107D01*
X116831811Y-116309111D01*
X116744209Y-116440214D01*
X116744203Y-116440225D01*
X116683863Y-116585901D01*
X116683863Y-116585903D01*
X116653100Y-116740555D01*
X116653100Y-116898244D01*
X116683863Y-117052896D01*
X116683863Y-117052898D01*
X116744204Y-117198576D01*
X116769260Y-117236074D01*
X116785869Y-117294962D01*
X116764692Y-117352366D01*
X116756949Y-117361079D01*
X116701395Y-117416633D01*
X116656014Y-117519411D01*
X116653100Y-117544530D01*
X116653100Y-118634260D01*
X116653101Y-118634263D01*
X116656014Y-118659390D01*
X116678886Y-118711189D01*
X116701394Y-118762165D01*
X116780835Y-118841606D01*
X116883609Y-118886985D01*
X116908735Y-118889900D01*
X117998464Y-118889899D01*
X118023591Y-118886985D01*
X118126365Y-118841606D01*
X118181921Y-118786049D01*
X118236436Y-118758274D01*
X118296868Y-118767845D01*
X118306923Y-118773738D01*
X118344421Y-118798794D01*
X118490103Y-118859137D01*
X118644758Y-118889900D01*
X118644759Y-118889900D01*
X118802441Y-118889900D01*
X118802442Y-118889900D01*
X118957097Y-118859137D01*
X119102779Y-118798794D01*
X119233889Y-118711189D01*
X119345389Y-118599689D01*
X119423913Y-118482168D01*
X119436219Y-118467175D01*
X119690284Y-118213109D01*
X119690749Y-118214845D01*
X119733536Y-118288954D01*
X119794046Y-118349464D01*
X119868155Y-118392251D01*
X119869888Y-118392715D01*
X119557661Y-118704943D01*
X119636449Y-118757587D01*
X119773665Y-118814423D01*
X119919335Y-118843399D01*
X119919339Y-118843400D01*
X120067861Y-118843400D01*
X120067864Y-118843399D01*
X120213533Y-118814423D01*
X120213535Y-118814423D01*
X120350750Y-118757587D01*
X120429537Y-118704943D01*
X120117309Y-118392715D01*
X120119045Y-118392251D01*
X120193154Y-118349464D01*
X120253664Y-118288954D01*
X120296451Y-118214845D01*
X120296915Y-118213110D01*
X120609142Y-118525337D01*
X120618896Y-118524377D01*
X120638307Y-118524377D01*
X120648055Y-118525337D01*
X120960283Y-118213108D01*
X120960749Y-118214845D01*
X121003536Y-118288954D01*
X121064046Y-118349464D01*
X121138155Y-118392251D01*
X121139888Y-118392715D01*
X120827661Y-118704943D01*
X120906449Y-118757587D01*
X121043665Y-118814423D01*
X121189335Y-118843399D01*
X121189339Y-118843400D01*
X121337861Y-118843400D01*
X121337864Y-118843399D01*
X121483533Y-118814423D01*
X121483535Y-118814423D01*
X121620750Y-118757587D01*
X121699537Y-118704943D01*
X121387309Y-118392715D01*
X121389045Y-118392251D01*
X121463154Y-118349464D01*
X121523664Y-118288954D01*
X121566451Y-118214845D01*
X121566915Y-118213110D01*
X121879142Y-118525337D01*
X121888896Y-118524377D01*
X121908307Y-118524377D01*
X121918055Y-118525337D01*
X122230283Y-118213108D01*
X122230749Y-118214845D01*
X122273536Y-118288954D01*
X122334046Y-118349464D01*
X122408155Y-118392251D01*
X122409888Y-118392715D01*
X122097661Y-118704943D01*
X122176449Y-118757587D01*
X122313665Y-118814423D01*
X122459335Y-118843399D01*
X122459339Y-118843400D01*
X122607861Y-118843400D01*
X122607864Y-118843399D01*
X122753533Y-118814423D01*
X122753535Y-118814423D01*
X122890750Y-118757587D01*
X122969537Y-118704943D01*
X122657309Y-118392715D01*
X122659045Y-118392251D01*
X122733154Y-118349464D01*
X122793664Y-118288954D01*
X122836451Y-118214845D01*
X122836915Y-118213110D01*
X123090979Y-118467174D01*
X123103290Y-118482175D01*
X123139334Y-118536118D01*
X123181811Y-118599689D01*
X123293311Y-118711189D01*
X123363779Y-118758274D01*
X123424414Y-118798790D01*
X123424425Y-118798796D01*
X123462153Y-118814423D01*
X123570103Y-118859137D01*
X123724758Y-118889900D01*
X123724759Y-118889900D01*
X123882441Y-118889900D01*
X123882442Y-118889900D01*
X124037097Y-118859137D01*
X124182779Y-118798794D01*
X124313889Y-118711189D01*
X124368596Y-118656482D01*
X124423112Y-118628704D01*
X124483544Y-118638275D01*
X124508604Y-118656482D01*
X124563302Y-118711181D01*
X124563306Y-118711184D01*
X124563311Y-118711189D01*
X124633779Y-118758274D01*
X124694414Y-118798790D01*
X124694425Y-118798796D01*
X124732153Y-118814423D01*
X124840103Y-118859137D01*
X124994758Y-118889900D01*
X124994759Y-118889900D01*
X125152441Y-118889900D01*
X125152442Y-118889900D01*
X125307097Y-118859137D01*
X125452779Y-118798794D01*
X125583889Y-118711189D01*
X125695389Y-118599689D01*
X125782994Y-118468579D01*
X125843337Y-118322897D01*
X125874100Y-118168242D01*
X125874100Y-118010558D01*
X125843337Y-117855903D01*
X125782994Y-117710221D01*
X125782993Y-117710219D01*
X125782990Y-117710214D01*
X125722643Y-117619900D01*
X125695389Y-117579111D01*
X125583889Y-117467611D01*
X125507595Y-117416633D01*
X125466375Y-117389090D01*
X125451374Y-117376779D01*
X125197310Y-117122715D01*
X125199045Y-117122251D01*
X125273154Y-117079464D01*
X125333664Y-117018954D01*
X125376451Y-116944845D01*
X125376915Y-116943109D01*
X125689143Y-117255337D01*
X125741787Y-117176550D01*
X125798623Y-117039335D01*
X125798623Y-117039333D01*
X125827599Y-116893664D01*
X125827600Y-116893660D01*
X125827600Y-116745139D01*
X125827599Y-116745135D01*
X125798623Y-116599466D01*
X125798623Y-116599464D01*
X125741787Y-116462249D01*
X125689143Y-116383461D01*
X125376915Y-116695688D01*
X125376451Y-116693955D01*
X125333664Y-116619846D01*
X125273154Y-116559336D01*
X125199045Y-116516549D01*
X125197308Y-116516083D01*
X125509537Y-116203855D01*
X125430750Y-116151212D01*
X125293534Y-116094376D01*
X125147864Y-116065400D01*
X124999335Y-116065400D01*
X124853666Y-116094376D01*
X124853664Y-116094376D01*
X124716449Y-116151212D01*
X124637661Y-116203855D01*
X124949890Y-116516084D01*
X124948155Y-116516549D01*
X124874046Y-116559336D01*
X124813536Y-116619846D01*
X124770749Y-116693955D01*
X124770284Y-116695689D01*
X124516217Y-116441622D01*
X124510788Y-116433349D01*
X124503908Y-116426623D01*
X124425389Y-116309111D01*
X124313889Y-116197611D01*
X124242377Y-116149828D01*
X124182785Y-116110009D01*
X124182774Y-116110003D01*
X124037097Y-116049663D01*
X123882444Y-116018900D01*
X123882442Y-116018900D01*
X123724758Y-116018900D01*
X123724755Y-116018900D01*
X123570103Y-116049663D01*
X123570101Y-116049663D01*
X123424425Y-116110003D01*
X123424414Y-116110009D01*
X123293311Y-116197611D01*
X123293307Y-116197614D01*
X123238604Y-116252318D01*
X123184087Y-116280095D01*
X123123655Y-116270524D01*
X123098596Y-116252318D01*
X123043892Y-116197614D01*
X123043889Y-116197611D01*
X122972377Y-116149828D01*
X122912785Y-116110009D01*
X122912774Y-116110003D01*
X122767097Y-116049663D01*
X122612444Y-116018900D01*
X122612442Y-116018900D01*
X122454758Y-116018900D01*
X122454755Y-116018900D01*
X122300103Y-116049663D01*
X122300101Y-116049663D01*
X122154425Y-116110003D01*
X122154414Y-116110009D01*
X122023311Y-116197611D01*
X122023307Y-116197614D01*
X121911810Y-116309111D01*
X121833290Y-116426623D01*
X121820979Y-116441624D01*
X121566915Y-116695688D01*
X121566451Y-116693955D01*
X121523664Y-116619846D01*
X121463154Y-116559336D01*
X121389045Y-116516549D01*
X121387308Y-116516083D01*
X121699537Y-116203855D01*
X121620750Y-116151212D01*
X121483534Y-116094376D01*
X121337864Y-116065400D01*
X121189335Y-116065400D01*
X121043666Y-116094376D01*
X121043664Y-116094376D01*
X120906449Y-116151212D01*
X120827661Y-116203855D01*
X121139890Y-116516084D01*
X121138155Y-116516549D01*
X121064046Y-116559336D01*
X121003536Y-116619846D01*
X120960749Y-116693955D01*
X120960284Y-116695689D01*
X120706217Y-116441622D01*
X120700788Y-116433349D01*
X120693908Y-116426623D01*
X120615389Y-116309111D01*
X120503889Y-116197611D01*
X120503887Y-116197609D01*
X120488097Y-116187058D01*
X120477222Y-116173263D01*
X120463007Y-116162935D01*
X120458748Y-116149828D01*
X120450218Y-116139007D01*
X120444100Y-116104744D01*
X120444100Y-115938356D01*
X120463007Y-115880165D01*
X120473090Y-115868358D01*
X121364387Y-114977060D01*
X121418902Y-114949285D01*
X121479334Y-114958856D01*
X121512966Y-114990770D01*
X121514531Y-114989570D01*
X121518474Y-114994709D01*
X121518478Y-114994713D01*
X121518480Y-114994716D01*
X121630284Y-115106520D01*
X121767216Y-115185577D01*
X121919943Y-115226500D01*
X121946859Y-115226500D01*
X121988641Y-115235749D01*
X121992588Y-115237586D01*
X122050113Y-115270799D01*
X122074326Y-115277286D01*
X122164688Y-115301499D01*
X122164690Y-115301500D01*
X122164691Y-115301500D01*
X122984257Y-115301500D01*
X123042448Y-115320407D01*
X123054254Y-115330490D01*
X123055284Y-115331520D01*
X123192216Y-115410577D01*
X123344943Y-115451500D01*
X123344945Y-115451500D01*
X123503055Y-115451500D01*
X123503057Y-115451500D01*
X123655784Y-115410577D01*
X123792716Y-115331520D01*
X123904520Y-115219716D01*
X123983577Y-115082784D01*
X124024500Y-114930057D01*
X124024500Y-114771943D01*
X123983577Y-114619216D01*
X123904520Y-114482284D01*
X123792716Y-114370480D01*
X123655784Y-114291423D01*
X123655781Y-114291422D01*
X123650164Y-114288179D01*
X123651398Y-114286041D01*
X123612977Y-114253225D01*
X123598695Y-114193730D01*
X123622112Y-114137202D01*
X123674282Y-114105235D01*
X123697390Y-114102500D01*
X126388869Y-114102500D01*
X126447060Y-114121407D01*
X126458873Y-114131496D01*
X128493504Y-116166127D01*
X128521281Y-116220644D01*
X128522500Y-116236131D01*
X128522500Y-118767831D01*
X128542268Y-118841603D01*
X128542269Y-118841607D01*
X128553199Y-118882401D01*
X128553203Y-118882412D01*
X128612507Y-118985129D01*
X128612508Y-118985130D01*
X128612509Y-118985131D01*
X128612511Y-118985134D01*
X130339866Y-120712490D01*
X130442593Y-120771799D01*
X130466800Y-120778284D01*
X130466805Y-120778287D01*
X130466806Y-120778286D01*
X130557168Y-120802499D01*
X130557170Y-120802500D01*
X130557171Y-120802500D01*
X160390829Y-120802500D01*
X160481189Y-120778287D01*
X160481192Y-120778287D01*
X160494423Y-120774741D01*
X160505407Y-120771799D01*
X160608134Y-120712489D01*
X166739893Y-114580730D01*
X175055700Y-114580730D01*
X175055700Y-116670460D01*
X175055701Y-116670463D01*
X175058614Y-116695590D01*
X175083956Y-116752985D01*
X175103994Y-116798365D01*
X175183435Y-116877806D01*
X175286209Y-116923185D01*
X175311335Y-116926100D01*
X177401064Y-116926099D01*
X177426191Y-116923185D01*
X177528965Y-116877806D01*
X177608406Y-116798365D01*
X177653785Y-116695591D01*
X177656700Y-116670465D01*
X177656699Y-115523244D01*
X180135700Y-115523244D01*
X180135700Y-115727955D01*
X180167721Y-115930129D01*
X180230980Y-116124819D01*
X180323912Y-116307209D01*
X180323914Y-116307213D01*
X180444229Y-116472813D01*
X180444231Y-116472815D01*
X180444234Y-116472819D01*
X180588981Y-116617566D01*
X180588984Y-116617568D01*
X180588986Y-116617570D01*
X180754586Y-116737885D01*
X180754590Y-116737887D01*
X180936981Y-116830820D01*
X181131666Y-116894077D01*
X181131667Y-116894077D01*
X181131670Y-116894078D01*
X181333845Y-116926100D01*
X181333848Y-116926100D01*
X181538555Y-116926100D01*
X181740729Y-116894078D01*
X181740730Y-116894077D01*
X181740734Y-116894077D01*
X181935419Y-116830820D01*
X182117810Y-116737887D01*
X182283419Y-116617566D01*
X182428166Y-116472819D01*
X182508380Y-116362413D01*
X182548485Y-116307213D01*
X182548487Y-116307210D01*
X182641420Y-116124819D01*
X182704677Y-115930134D01*
X182704678Y-115930129D01*
X182736700Y-115727955D01*
X182736700Y-115526904D01*
X185262200Y-115526904D01*
X185262200Y-115724295D01*
X185293075Y-115919241D01*
X185354071Y-116106966D01*
X185443682Y-116282838D01*
X185443684Y-116282842D01*
X185542854Y-116419338D01*
X186047830Y-115914361D01*
X186076090Y-115963308D01*
X186178492Y-116065710D01*
X186227436Y-116093967D01*
X185722460Y-116598944D01*
X185858957Y-116698115D01*
X185858961Y-116698117D01*
X186034833Y-116787728D01*
X186222558Y-116848724D01*
X186417505Y-116879600D01*
X186614895Y-116879600D01*
X186809841Y-116848724D01*
X186997566Y-116787728D01*
X187173436Y-116698118D01*
X187309937Y-116598943D01*
X186804962Y-116093968D01*
X186853908Y-116065710D01*
X186956310Y-115963308D01*
X186984568Y-115914362D01*
X187489543Y-116419337D01*
X187588718Y-116282836D01*
X187678328Y-116106966D01*
X187739324Y-115919241D01*
X187770200Y-115724295D01*
X187770200Y-115526904D01*
X187739324Y-115331958D01*
X187678328Y-115144233D01*
X187588717Y-114968361D01*
X187588715Y-114968357D01*
X187489544Y-114831860D01*
X186984567Y-115336836D01*
X186956310Y-115287892D01*
X186853908Y-115185490D01*
X186804961Y-115157230D01*
X187309938Y-114652254D01*
X187173442Y-114553084D01*
X187173438Y-114553082D01*
X186997566Y-114463471D01*
X186809841Y-114402475D01*
X186614895Y-114371600D01*
X186417505Y-114371600D01*
X186222558Y-114402475D01*
X186034833Y-114463471D01*
X185858962Y-114553082D01*
X185722460Y-114652254D01*
X186227437Y-115157231D01*
X186178492Y-115185490D01*
X186076090Y-115287892D01*
X186047831Y-115336837D01*
X185542854Y-114831860D01*
X185443682Y-114968362D01*
X185354071Y-115144233D01*
X185293075Y-115331958D01*
X185262200Y-115526904D01*
X182736700Y-115526904D01*
X182736700Y-115523244D01*
X182704678Y-115321070D01*
X182704463Y-115320407D01*
X182641420Y-115126381D01*
X182548487Y-114943990D01*
X182548485Y-114943986D01*
X182428170Y-114778386D01*
X182428168Y-114778384D01*
X182428166Y-114778381D01*
X182283419Y-114633634D01*
X182283415Y-114633631D01*
X182283413Y-114633629D01*
X182117813Y-114513314D01*
X182117809Y-114513312D01*
X181935419Y-114420380D01*
X181740729Y-114357121D01*
X181538555Y-114325100D01*
X181538552Y-114325100D01*
X181333848Y-114325100D01*
X181333845Y-114325100D01*
X181131670Y-114357121D01*
X180936980Y-114420380D01*
X180754590Y-114513312D01*
X180754586Y-114513314D01*
X180588986Y-114633629D01*
X180444229Y-114778386D01*
X180323914Y-114943986D01*
X180323912Y-114943990D01*
X180230980Y-115126380D01*
X180167721Y-115321070D01*
X180135700Y-115523244D01*
X177656699Y-115523244D01*
X177656699Y-114580736D01*
X177653785Y-114555609D01*
X177608406Y-114452835D01*
X177528965Y-114373394D01*
X177426191Y-114328015D01*
X177426190Y-114328014D01*
X177426188Y-114328014D01*
X177401068Y-114325100D01*
X175311339Y-114325100D01*
X175311336Y-114325101D01*
X175286209Y-114328014D01*
X175183435Y-114373394D01*
X175103994Y-114452835D01*
X175058614Y-114555611D01*
X175055700Y-114580730D01*
X166739893Y-114580730D01*
X166785489Y-114535134D01*
X166798088Y-114513313D01*
X166844797Y-114432410D01*
X166844798Y-114432408D01*
X166844799Y-114432407D01*
X166855032Y-114394216D01*
X166875500Y-114317829D01*
X166875500Y-110671943D01*
X194573500Y-110671943D01*
X194573500Y-110830057D01*
X194614423Y-110982784D01*
X194693480Y-111119716D01*
X194694505Y-111120741D01*
X194694977Y-111121668D01*
X194697431Y-111124866D01*
X194696838Y-111125320D01*
X194722281Y-111175256D01*
X194723500Y-111190743D01*
X194723500Y-114160308D01*
X194738585Y-114216608D01*
X194738586Y-114216611D01*
X194740804Y-114224887D01*
X194754201Y-114274887D01*
X194812445Y-114375768D01*
X194814302Y-114379769D01*
X194815920Y-114393155D01*
X194823500Y-114421442D01*
X194823500Y-114430057D01*
X194864423Y-114582784D01*
X194943480Y-114719716D01*
X195055284Y-114831520D01*
X195192216Y-114910577D01*
X195344943Y-114951500D01*
X195344945Y-114951500D01*
X195503055Y-114951500D01*
X195503057Y-114951500D01*
X195655784Y-114910577D01*
X195792716Y-114831520D01*
X195904520Y-114719716D01*
X195983577Y-114582784D01*
X196024500Y-114430057D01*
X196024500Y-114271943D01*
X195983577Y-114119216D01*
X195904520Y-113982284D01*
X195792716Y-113870480D01*
X195792713Y-113870478D01*
X195674000Y-113801939D01*
X195633059Y-113756470D01*
X195624500Y-113716203D01*
X195624500Y-111190743D01*
X195643407Y-111132552D01*
X195653490Y-111120745D01*
X195654520Y-111119716D01*
X195733577Y-110982784D01*
X195774500Y-110830057D01*
X195774500Y-110671943D01*
X195733577Y-110519216D01*
X195654520Y-110382284D01*
X195542716Y-110270480D01*
X195405784Y-110191423D01*
X195253057Y-110150500D01*
X195094943Y-110150500D01*
X194942216Y-110191423D01*
X194805284Y-110270480D01*
X194693480Y-110382284D01*
X194614423Y-110519216D01*
X194573500Y-110671943D01*
X166875500Y-110671943D01*
X166875500Y-108634171D01*
X166850404Y-108540511D01*
X166844799Y-108519593D01*
X166844797Y-108519589D01*
X166785492Y-108416870D01*
X166785491Y-108416869D01*
X166785490Y-108416868D01*
X166785489Y-108416866D01*
X160854496Y-102485873D01*
X160826719Y-102431356D01*
X160825500Y-102415869D01*
X160825500Y-97484171D01*
X160824994Y-97482284D01*
X160794799Y-97369593D01*
X160794799Y-97369592D01*
X160794799Y-97369591D01*
X160735492Y-97266869D01*
X160735491Y-97266868D01*
X160735490Y-97266867D01*
X160735489Y-97266865D01*
X158654496Y-95185872D01*
X158626719Y-95131355D01*
X158625500Y-95115868D01*
X158625500Y-94742692D01*
X158625500Y-94742691D01*
X158594799Y-94628114D01*
X158569731Y-94584696D01*
X158535489Y-94525386D01*
X158535486Y-94525383D01*
X158443060Y-94432956D01*
X158415283Y-94378440D01*
X158424855Y-94318007D01*
X158463561Y-94277219D01*
X158542716Y-94231520D01*
X158654520Y-94119716D01*
X158733577Y-93982784D01*
X158774500Y-93830057D01*
X158774500Y-93671943D01*
X158733577Y-93519216D01*
X158654520Y-93382284D01*
X158654517Y-93382281D01*
X158654516Y-93382279D01*
X158653490Y-93381253D01*
X158653016Y-93380324D01*
X158650569Y-93377134D01*
X158651160Y-93376680D01*
X158625717Y-93326734D01*
X158624500Y-93311256D01*
X158624500Y-91341692D01*
X158607070Y-91276644D01*
X158593799Y-91227114D01*
X158593799Y-91227113D01*
X158593799Y-91227112D01*
X158534492Y-91124390D01*
X158534490Y-91124388D01*
X158534489Y-91124386D01*
X156580604Y-89170501D01*
X156552829Y-89115987D01*
X156562400Y-89055555D01*
X156605665Y-89012290D01*
X156650610Y-89001500D01*
X167396389Y-89001500D01*
X167454580Y-89020407D01*
X167466393Y-89030496D01*
X169444504Y-91008607D01*
X169472281Y-91063124D01*
X169473500Y-91078611D01*
X169473500Y-108173389D01*
X169454593Y-108231580D01*
X169444504Y-108243392D01*
X169116394Y-108571503D01*
X169061877Y-108599281D01*
X169046390Y-108600500D01*
X169044943Y-108600500D01*
X168892216Y-108641423D01*
X168755284Y-108720480D01*
X168643480Y-108832284D01*
X168564423Y-108969216D01*
X168523500Y-109121943D01*
X168523500Y-109280057D01*
X168564423Y-109432784D01*
X168643480Y-109569716D01*
X168755284Y-109681520D01*
X168892216Y-109760577D01*
X169044943Y-109801500D01*
X169044945Y-109801500D01*
X169203055Y-109801500D01*
X169203057Y-109801500D01*
X169355784Y-109760577D01*
X169492716Y-109681520D01*
X169604520Y-109569716D01*
X169683577Y-109432784D01*
X169724500Y-109280057D01*
X169724500Y-109278611D01*
X169724819Y-109277626D01*
X169725347Y-109273623D01*
X169726088Y-109273720D01*
X169743407Y-109220420D01*
X169753496Y-109208607D01*
X169992887Y-108969216D01*
X170284490Y-108677614D01*
X170343799Y-108574887D01*
X170357985Y-108521943D01*
X170374500Y-108460309D01*
X170374500Y-91276644D01*
X227557500Y-91276644D01*
X227557500Y-91481355D01*
X227589521Y-91683529D01*
X227652780Y-91878219D01*
X227745712Y-92060609D01*
X227745714Y-92060613D01*
X227866029Y-92226213D01*
X227866031Y-92226215D01*
X227866034Y-92226219D01*
X228010781Y-92370966D01*
X228010784Y-92370968D01*
X228010786Y-92370970D01*
X228176386Y-92491285D01*
X228176390Y-92491287D01*
X228358781Y-92584220D01*
X228553466Y-92647477D01*
X228553467Y-92647477D01*
X228553470Y-92647478D01*
X228755645Y-92679500D01*
X228755648Y-92679500D01*
X228960355Y-92679500D01*
X229162529Y-92647478D01*
X229162530Y-92647477D01*
X229162534Y-92647477D01*
X229357219Y-92584220D01*
X229539610Y-92491287D01*
X229705219Y-92370966D01*
X229849966Y-92226219D01*
X229970287Y-92060610D01*
X230063220Y-91878219D01*
X230126477Y-91683534D01*
X230137629Y-91613124D01*
X230158500Y-91481355D01*
X230158500Y-91276644D01*
X230126478Y-91074470D01*
X230122880Y-91063397D01*
X230063220Y-90879781D01*
X229970287Y-90697390D01*
X229970285Y-90697386D01*
X229849970Y-90531786D01*
X229849968Y-90531784D01*
X229849966Y-90531781D01*
X229705219Y-90387034D01*
X229705215Y-90387031D01*
X229705213Y-90387029D01*
X229539613Y-90266714D01*
X229539609Y-90266712D01*
X229357219Y-90173780D01*
X229162529Y-90110521D01*
X228960355Y-90078500D01*
X228960352Y-90078500D01*
X228755648Y-90078500D01*
X228755645Y-90078500D01*
X228553470Y-90110521D01*
X228358780Y-90173780D01*
X228176390Y-90266712D01*
X228176386Y-90266714D01*
X228010786Y-90387029D01*
X227866029Y-90531786D01*
X227745714Y-90697386D01*
X227745712Y-90697390D01*
X227652780Y-90879780D01*
X227589521Y-91074470D01*
X227557500Y-91276644D01*
X170374500Y-91276644D01*
X170374500Y-90791691D01*
X170343799Y-90677114D01*
X170343799Y-90677113D01*
X170343799Y-90677112D01*
X170284492Y-90574390D01*
X170284490Y-90574388D01*
X170284489Y-90574386D01*
X167900614Y-88190511D01*
X167900611Y-88190509D01*
X167900609Y-88190507D01*
X167797890Y-88131202D01*
X167797886Y-88131200D01*
X167773673Y-88124712D01*
X167773673Y-88124713D01*
X167683309Y-88100500D01*
X167683307Y-88100500D01*
X148734636Y-88100500D01*
X148691504Y-88090610D01*
X148688255Y-88089037D01*
X148605784Y-88041423D01*
X148570164Y-88031878D01*
X148561719Y-88027791D01*
X148546086Y-88012785D01*
X148527914Y-88000984D01*
X148524484Y-87992049D01*
X148517579Y-87985421D01*
X148513752Y-87964091D01*
X148505987Y-87943863D01*
X148508464Y-87934617D01*
X148506774Y-87925197D01*
X148516213Y-87905694D01*
X148521822Y-87884762D01*
X148533065Y-87870876D01*
X148533430Y-87870124D01*
X148533863Y-87869892D01*
X148534842Y-87868682D01*
X152369949Y-84033574D01*
X152402070Y-84012115D01*
X152405780Y-84010578D01*
X152405779Y-84010578D01*
X152405784Y-84010577D01*
X152542716Y-83931520D01*
X152654520Y-83819716D01*
X152733577Y-83682784D01*
X152774500Y-83530057D01*
X152774500Y-83371943D01*
X152733577Y-83219216D01*
X152654520Y-83082284D01*
X152542716Y-82970480D01*
X152405784Y-82891423D01*
X152253057Y-82850500D01*
X152094943Y-82850500D01*
X151942216Y-82891423D01*
X151805284Y-82970480D01*
X151693480Y-83082284D01*
X151614419Y-83219222D01*
X151612881Y-83222936D01*
X151591423Y-83255050D01*
X147078050Y-87768423D01*
X147045936Y-87789881D01*
X147042222Y-87791419D01*
X146908407Y-87868677D01*
X146905284Y-87870480D01*
X146793480Y-87982284D01*
X146714423Y-88119216D01*
X146673500Y-88271943D01*
X146673500Y-88430057D01*
X146714423Y-88582784D01*
X146793480Y-88719716D01*
X146905284Y-88831520D01*
X146905286Y-88831521D01*
X146906261Y-88832496D01*
X146934038Y-88887013D01*
X146924467Y-88947445D01*
X146881202Y-88990710D01*
X146836257Y-89001500D01*
X141770979Y-89001500D01*
X141712788Y-88982593D01*
X141676824Y-88933093D01*
X141675607Y-88886746D01*
X141673653Y-88886489D01*
X141674500Y-88880056D01*
X141674500Y-88721944D01*
X141664518Y-88684690D01*
X141633577Y-88569216D01*
X141554520Y-88432284D01*
X141442716Y-88320480D01*
X141305784Y-88241423D01*
X141153057Y-88200500D01*
X140994943Y-88200500D01*
X140842216Y-88241423D01*
X140762862Y-88287237D01*
X140713364Y-88300500D01*
X139296875Y-88300500D01*
X139238684Y-88281593D01*
X139202720Y-88232093D01*
X139202720Y-88170907D01*
X139238684Y-88121407D01*
X139241873Y-88119185D01*
X139251463Y-88112777D01*
X139320289Y-88066789D01*
X139431789Y-87955289D01*
X139519394Y-87824179D01*
X139579737Y-87678497D01*
X139610500Y-87523842D01*
X139610500Y-87366158D01*
X139579737Y-87211503D01*
X139529390Y-87089953D01*
X139519396Y-87065825D01*
X139519390Y-87065814D01*
X139470999Y-86993393D01*
X139431789Y-86934711D01*
X139320289Y-86823211D01*
X139239480Y-86769216D01*
X139189185Y-86735609D01*
X139189174Y-86735603D01*
X139043497Y-86675263D01*
X138888844Y-86644500D01*
X138888842Y-86644500D01*
X138731158Y-86644500D01*
X138731155Y-86644500D01*
X138576503Y-86675263D01*
X138576501Y-86675263D01*
X138430825Y-86735603D01*
X138430814Y-86735609D01*
X138299711Y-86823211D01*
X138299707Y-86823214D01*
X138188214Y-86934707D01*
X138188211Y-86934711D01*
X138100609Y-87065814D01*
X138100603Y-87065825D01*
X138040263Y-87211501D01*
X138040263Y-87211503D01*
X138009500Y-87366155D01*
X138009500Y-87523844D01*
X138040263Y-87678496D01*
X138040263Y-87678498D01*
X138100603Y-87824174D01*
X138100609Y-87824185D01*
X138131543Y-87870480D01*
X138188211Y-87955289D01*
X138299711Y-88066789D01*
X138363743Y-88109574D01*
X138378127Y-88119185D01*
X138379383Y-88120779D01*
X138381316Y-88121407D01*
X138398219Y-88144672D01*
X138416006Y-88167235D01*
X138416085Y-88169263D01*
X138417280Y-88170907D01*
X138417280Y-88199653D01*
X138418408Y-88228373D01*
X138417280Y-88230061D01*
X138417280Y-88232093D01*
X138400379Y-88255353D01*
X138384415Y-88279247D01*
X138382509Y-88279949D01*
X138381316Y-88281593D01*
X138353980Y-88290474D01*
X138327011Y-88300424D01*
X138323125Y-88300500D01*
X138213743Y-88300500D01*
X138155552Y-88281593D01*
X138143745Y-88271509D01*
X138142716Y-88270480D01*
X138005784Y-88191423D01*
X137853057Y-88150500D01*
X137694943Y-88150500D01*
X137562291Y-88186044D01*
X137501189Y-88182841D01*
X137453639Y-88144336D01*
X137437804Y-88085235D01*
X137459731Y-88028114D01*
X137466665Y-88020413D01*
X137531781Y-87955297D01*
X137531789Y-87955289D01*
X137619394Y-87824179D01*
X137679737Y-87678497D01*
X137710500Y-87523842D01*
X137710500Y-87366158D01*
X137679737Y-87211503D01*
X137629390Y-87089953D01*
X137619396Y-87065825D01*
X137619390Y-87065814D01*
X137570999Y-86993393D01*
X137531789Y-86934711D01*
X137420289Y-86823211D01*
X137339480Y-86769216D01*
X137289185Y-86735609D01*
X137289174Y-86735603D01*
X137143497Y-86675263D01*
X136988844Y-86644500D01*
X136988842Y-86644500D01*
X136831158Y-86644500D01*
X136831155Y-86644500D01*
X136676503Y-86675263D01*
X136676501Y-86675263D01*
X136530825Y-86735603D01*
X136530814Y-86735609D01*
X136399711Y-86823211D01*
X136399707Y-86823214D01*
X136288214Y-86934707D01*
X136288211Y-86934711D01*
X136200609Y-87065814D01*
X136200603Y-87065825D01*
X136140263Y-87211501D01*
X136140263Y-87211503D01*
X136109500Y-87366155D01*
X136109500Y-87523844D01*
X136140263Y-87678496D01*
X136140263Y-87678498D01*
X136200603Y-87824174D01*
X136200609Y-87824185D01*
X136231543Y-87870480D01*
X136288211Y-87955289D01*
X136399711Y-88066789D01*
X136463743Y-88109574D01*
X136530814Y-88154390D01*
X136530825Y-88154396D01*
X136561822Y-88167235D01*
X136676503Y-88214737D01*
X136831158Y-88245500D01*
X136831159Y-88245500D01*
X136988841Y-88245500D01*
X136988842Y-88245500D01*
X137143497Y-88214737D01*
X137225735Y-88180672D01*
X137286730Y-88175872D01*
X137338899Y-88207841D01*
X137362314Y-88264369D01*
X137348031Y-88323864D01*
X137333623Y-88342140D01*
X137293482Y-88382281D01*
X137293480Y-88382283D01*
X137293480Y-88382284D01*
X137214423Y-88519216D01*
X137173500Y-88671943D01*
X137173500Y-88830057D01*
X137186045Y-88876879D01*
X137182844Y-88937978D01*
X137144338Y-88985528D01*
X137090419Y-89001500D01*
X117652611Y-89001500D01*
X117594420Y-88982593D01*
X117582607Y-88972504D01*
X115603496Y-86993393D01*
X115575719Y-86938876D01*
X115574500Y-86923389D01*
X115574500Y-86921944D01*
X115574500Y-86921943D01*
X115533577Y-86769216D01*
X115454520Y-86632284D01*
X115342716Y-86520480D01*
X115205784Y-86441423D01*
X115053057Y-86400500D01*
X114894943Y-86400500D01*
X114742216Y-86441423D01*
X114605284Y-86520480D01*
X114493480Y-86632284D01*
X114414423Y-86769216D01*
X114373500Y-86921943D01*
X114373500Y-87080057D01*
X114414423Y-87232784D01*
X114493480Y-87369716D01*
X114605284Y-87481520D01*
X114742216Y-87560577D01*
X114894943Y-87601500D01*
X114896389Y-87601500D01*
X114897373Y-87601819D01*
X114901377Y-87602347D01*
X114901279Y-87603088D01*
X114954580Y-87620407D01*
X114966393Y-87630496D01*
X116818393Y-89482496D01*
X116846170Y-89537013D01*
X116836599Y-89597445D01*
X116793334Y-89640710D01*
X116748389Y-89651500D01*
X115802611Y-89651500D01*
X115744420Y-89632593D01*
X115732607Y-89622504D01*
X114803496Y-88693393D01*
X114775719Y-88638876D01*
X114774500Y-88623389D01*
X114774500Y-88621944D01*
X114774500Y-88621943D01*
X114733577Y-88469216D01*
X114654520Y-88332284D01*
X114542716Y-88220480D01*
X114405784Y-88141423D01*
X114253057Y-88100500D01*
X114094943Y-88100500D01*
X114094940Y-88100500D01*
X114049121Y-88112777D01*
X113988020Y-88109574D01*
X113940471Y-88071068D01*
X113924500Y-88017150D01*
X113924500Y-84940743D01*
X113943407Y-84882552D01*
X113953490Y-84870745D01*
X113954520Y-84869716D01*
X114033577Y-84732784D01*
X114074500Y-84580057D01*
X114074500Y-84421943D01*
X114033577Y-84269216D01*
X113954520Y-84132284D01*
X113842716Y-84020480D01*
X113705784Y-83941423D01*
X113553057Y-83900500D01*
X113394943Y-83900500D01*
X113242216Y-83941423D01*
X113105284Y-84020480D01*
X112993480Y-84132284D01*
X112914423Y-84269216D01*
X112873500Y-84421943D01*
X112873500Y-84580057D01*
X112914423Y-84732784D01*
X112993480Y-84869716D01*
X112994505Y-84870741D01*
X112994977Y-84871668D01*
X112997431Y-84874866D01*
X112996838Y-84875320D01*
X113022281Y-84925256D01*
X113023500Y-84940743D01*
X113023500Y-90824389D01*
X113004593Y-90882580D01*
X112955093Y-90918544D01*
X112893907Y-90918544D01*
X112854496Y-90894393D01*
X112080901Y-90120798D01*
X111300614Y-89340511D01*
X111300611Y-89340509D01*
X111300610Y-89340508D01*
X111300609Y-89340507D01*
X111197890Y-89281202D01*
X111197886Y-89281200D01*
X111173673Y-89274712D01*
X111173673Y-89274713D01*
X111083309Y-89250500D01*
X111083307Y-89250500D01*
X103901612Y-89250500D01*
X103843421Y-89231593D01*
X103831608Y-89221504D01*
X103003496Y-88393392D01*
X102975719Y-88338875D01*
X102974500Y-88323388D01*
X102974500Y-86121850D01*
X104136500Y-86121850D01*
X104136500Y-86302949D01*
X104164828Y-86481806D01*
X104220788Y-86654037D01*
X104294252Y-86798219D01*
X104303004Y-86815394D01*
X104409447Y-86961901D01*
X104537499Y-87089953D01*
X104684006Y-87196396D01*
X104845361Y-87278611D01*
X105017591Y-87334571D01*
X105089136Y-87345902D01*
X105196451Y-87362900D01*
X105196454Y-87362900D01*
X105377549Y-87362900D01*
X105466977Y-87348735D01*
X105556409Y-87334571D01*
X105728639Y-87278611D01*
X105889994Y-87196396D01*
X106036501Y-87089953D01*
X106164553Y-86961901D01*
X106270996Y-86815394D01*
X106353211Y-86654039D01*
X106409171Y-86481809D01*
X106437500Y-86302946D01*
X106437500Y-86121854D01*
X106437500Y-86121850D01*
X106676500Y-86121850D01*
X106676500Y-86302949D01*
X106704828Y-86481806D01*
X106760788Y-86654037D01*
X106834252Y-86798219D01*
X106843004Y-86815394D01*
X106949447Y-86961901D01*
X107077499Y-87089953D01*
X107224006Y-87196396D01*
X107385361Y-87278611D01*
X107557591Y-87334571D01*
X107629136Y-87345902D01*
X107736451Y-87362900D01*
X107736454Y-87362900D01*
X107917549Y-87362900D01*
X108006977Y-87348735D01*
X108096409Y-87334571D01*
X108268639Y-87278611D01*
X108429994Y-87196396D01*
X108576501Y-87089953D01*
X108704553Y-86961901D01*
X108810996Y-86815394D01*
X108893211Y-86654039D01*
X108949171Y-86481809D01*
X108977500Y-86302946D01*
X108977500Y-86121854D01*
X108977500Y-86121850D01*
X108949171Y-85942993D01*
X108949171Y-85942991D01*
X108893211Y-85770761D01*
X108810996Y-85609406D01*
X108704553Y-85462899D01*
X108576501Y-85334847D01*
X108429994Y-85228404D01*
X108429993Y-85228403D01*
X108429991Y-85228402D01*
X108268637Y-85146188D01*
X108096406Y-85090228D01*
X107917549Y-85061900D01*
X107917546Y-85061900D01*
X107736454Y-85061900D01*
X107736451Y-85061900D01*
X107557593Y-85090228D01*
X107385362Y-85146188D01*
X107224008Y-85228402D01*
X107150752Y-85281625D01*
X107077499Y-85334847D01*
X106949447Y-85462899D01*
X106896225Y-85536152D01*
X106843002Y-85609408D01*
X106760788Y-85770762D01*
X106704828Y-85942993D01*
X106676500Y-86121850D01*
X106437500Y-86121850D01*
X106409171Y-85942993D01*
X106409171Y-85942991D01*
X106353211Y-85770761D01*
X106270996Y-85609406D01*
X106164553Y-85462899D01*
X106036501Y-85334847D01*
X105889994Y-85228404D01*
X105889993Y-85228403D01*
X105889991Y-85228402D01*
X105728637Y-85146188D01*
X105556406Y-85090228D01*
X105377549Y-85061900D01*
X105377546Y-85061900D01*
X105196454Y-85061900D01*
X105196451Y-85061900D01*
X105017593Y-85090228D01*
X104845362Y-85146188D01*
X104684008Y-85228402D01*
X104610752Y-85281625D01*
X104537499Y-85334847D01*
X104409447Y-85462899D01*
X104356225Y-85536152D01*
X104303002Y-85609408D01*
X104220788Y-85770762D01*
X104164828Y-85942993D01*
X104136500Y-86121850D01*
X102974500Y-86121850D01*
X102974500Y-84540743D01*
X102993407Y-84482552D01*
X103003490Y-84470745D01*
X103004520Y-84469716D01*
X103083577Y-84332784D01*
X103124500Y-84180057D01*
X103124500Y-84021943D01*
X103083577Y-83869216D01*
X103004520Y-83732284D01*
X102892716Y-83620480D01*
X102825806Y-83581850D01*
X104136500Y-83581850D01*
X104136500Y-83762949D01*
X104164828Y-83941806D01*
X104164829Y-83941809D01*
X104220789Y-84114039D01*
X104303004Y-84275394D01*
X104409447Y-84421901D01*
X104537499Y-84549953D01*
X104684006Y-84656396D01*
X104845361Y-84738611D01*
X105017591Y-84794571D01*
X105089136Y-84805902D01*
X105196451Y-84822900D01*
X105196454Y-84822900D01*
X105377549Y-84822900D01*
X105466977Y-84808735D01*
X105556409Y-84794571D01*
X105728639Y-84738611D01*
X105889994Y-84656396D01*
X106036501Y-84549953D01*
X106164553Y-84421901D01*
X106270996Y-84275394D01*
X106353211Y-84114039D01*
X106409171Y-83941809D01*
X106437500Y-83762946D01*
X106437500Y-83581854D01*
X106437500Y-83581850D01*
X106676500Y-83581850D01*
X106676500Y-83762949D01*
X106704828Y-83941806D01*
X106704829Y-83941809D01*
X106760789Y-84114039D01*
X106843004Y-84275394D01*
X106949447Y-84421901D01*
X107077499Y-84549953D01*
X107224006Y-84656396D01*
X107385361Y-84738611D01*
X107557591Y-84794571D01*
X107629136Y-84805902D01*
X107736451Y-84822900D01*
X107736454Y-84822900D01*
X107917549Y-84822900D01*
X108006977Y-84808735D01*
X108096409Y-84794571D01*
X108268639Y-84738611D01*
X108429994Y-84656396D01*
X108576501Y-84549953D01*
X108704553Y-84421901D01*
X108810996Y-84275394D01*
X108893211Y-84114039D01*
X108949171Y-83941809D01*
X108977500Y-83762946D01*
X108977500Y-83581854D01*
X108977500Y-83581850D01*
X108949171Y-83402993D01*
X108949171Y-83402991D01*
X108893211Y-83230761D01*
X108810996Y-83069406D01*
X108704553Y-82922899D01*
X108576501Y-82794847D01*
X108429994Y-82688404D01*
X108429993Y-82688403D01*
X108429991Y-82688402D01*
X108268637Y-82606188D01*
X108096406Y-82550228D01*
X107917549Y-82521900D01*
X107917546Y-82521900D01*
X107736454Y-82521900D01*
X107736451Y-82521900D01*
X107557593Y-82550228D01*
X107385362Y-82606188D01*
X107224008Y-82688402D01*
X107150752Y-82741625D01*
X107077499Y-82794847D01*
X106949447Y-82922899D01*
X106914878Y-82970480D01*
X106843002Y-83069408D01*
X106760788Y-83230762D01*
X106704828Y-83402993D01*
X106676500Y-83581850D01*
X106437500Y-83581850D01*
X106409171Y-83402993D01*
X106409171Y-83402991D01*
X106353211Y-83230761D01*
X106270996Y-83069406D01*
X106164553Y-82922899D01*
X106036501Y-82794847D01*
X105889994Y-82688404D01*
X105889993Y-82688403D01*
X105889991Y-82688402D01*
X105728637Y-82606188D01*
X105556406Y-82550228D01*
X105377549Y-82521900D01*
X105377546Y-82521900D01*
X105196454Y-82521900D01*
X105196451Y-82521900D01*
X105017593Y-82550228D01*
X104845362Y-82606188D01*
X104684008Y-82688402D01*
X104610752Y-82741625D01*
X104537499Y-82794847D01*
X104409447Y-82922899D01*
X104374878Y-82970480D01*
X104303002Y-83069408D01*
X104220788Y-83230762D01*
X104164828Y-83402993D01*
X104136500Y-83581850D01*
X102825806Y-83581850D01*
X102755784Y-83541423D01*
X102603057Y-83500500D01*
X102444943Y-83500500D01*
X102292216Y-83541423D01*
X102155284Y-83620480D01*
X102043480Y-83732284D01*
X101964423Y-83869216D01*
X101923500Y-84021943D01*
X92000000Y-84021943D01*
X92000000Y-81041850D01*
X104136500Y-81041850D01*
X104136500Y-81222949D01*
X104164828Y-81401806D01*
X104164829Y-81401809D01*
X104220789Y-81574039D01*
X104303004Y-81735394D01*
X104409447Y-81881901D01*
X104537499Y-82009953D01*
X104684006Y-82116396D01*
X104845361Y-82198611D01*
X105017591Y-82254571D01*
X105076297Y-82263869D01*
X105196451Y-82282900D01*
X105196454Y-82282900D01*
X105377549Y-82282900D01*
X105466977Y-82268735D01*
X105556409Y-82254571D01*
X105728639Y-82198611D01*
X105889994Y-82116396D01*
X106036501Y-82009953D01*
X106164553Y-81881901D01*
X106270996Y-81735394D01*
X106353211Y-81574039D01*
X106409171Y-81401809D01*
X106437500Y-81222946D01*
X106437500Y-81041854D01*
X106437500Y-81041850D01*
X106676500Y-81041850D01*
X106676500Y-81222949D01*
X106704828Y-81401806D01*
X106704829Y-81401809D01*
X106760789Y-81574039D01*
X106843004Y-81735394D01*
X106949447Y-81881901D01*
X107077499Y-82009953D01*
X107224006Y-82116396D01*
X107385361Y-82198611D01*
X107557591Y-82254571D01*
X107616297Y-82263869D01*
X107736451Y-82282900D01*
X107736454Y-82282900D01*
X107917549Y-82282900D01*
X108006977Y-82268735D01*
X108096409Y-82254571D01*
X108268639Y-82198611D01*
X108429994Y-82116396D01*
X108576501Y-82009953D01*
X108704553Y-81881901D01*
X108810996Y-81735394D01*
X108893211Y-81574039D01*
X108949171Y-81401809D01*
X108977500Y-81222946D01*
X108977500Y-81041854D01*
X108977500Y-81041850D01*
X108949171Y-80862993D01*
X108949171Y-80862991D01*
X108893211Y-80690761D01*
X108810996Y-80529406D01*
X108704553Y-80382899D01*
X108576501Y-80254847D01*
X108429994Y-80148404D01*
X108429993Y-80148403D01*
X108429991Y-80148402D01*
X108268637Y-80066188D01*
X108096406Y-80010228D01*
X107917549Y-79981900D01*
X107917546Y-79981900D01*
X107736454Y-79981900D01*
X107736451Y-79981900D01*
X107557593Y-80010228D01*
X107385362Y-80066188D01*
X107224008Y-80148402D01*
X107150752Y-80201625D01*
X107077499Y-80254847D01*
X106949447Y-80382899D01*
X106896225Y-80456152D01*
X106843002Y-80529408D01*
X106760788Y-80690762D01*
X106704828Y-80862993D01*
X106676500Y-81041850D01*
X106437500Y-81041850D01*
X106409171Y-80862993D01*
X106409171Y-80862991D01*
X106353211Y-80690761D01*
X106270996Y-80529406D01*
X106164553Y-80382899D01*
X106036501Y-80254847D01*
X105889994Y-80148404D01*
X105889993Y-80148403D01*
X105889991Y-80148402D01*
X105728637Y-80066188D01*
X105556406Y-80010228D01*
X105377549Y-79981900D01*
X105377546Y-79981900D01*
X105196454Y-79981900D01*
X105196451Y-79981900D01*
X105017593Y-80010228D01*
X104845362Y-80066188D01*
X104684008Y-80148402D01*
X104610752Y-80201625D01*
X104537499Y-80254847D01*
X104409447Y-80382899D01*
X104356225Y-80456152D01*
X104303002Y-80529408D01*
X104220788Y-80690762D01*
X104164828Y-80862993D01*
X104136500Y-81041850D01*
X92000000Y-81041850D01*
X92000000Y-78501850D01*
X104136500Y-78501850D01*
X104136500Y-78682949D01*
X104164828Y-78861806D01*
X104220788Y-79034037D01*
X104250525Y-79092400D01*
X104303004Y-79195394D01*
X104409447Y-79341901D01*
X104537499Y-79469953D01*
X104684006Y-79576396D01*
X104845361Y-79658611D01*
X105017591Y-79714571D01*
X105089136Y-79725902D01*
X105196451Y-79742900D01*
X105196454Y-79742900D01*
X105377549Y-79742900D01*
X105466977Y-79728735D01*
X105556409Y-79714571D01*
X105728639Y-79658611D01*
X105889994Y-79576396D01*
X106036501Y-79469953D01*
X106164553Y-79341901D01*
X106270996Y-79195394D01*
X106353211Y-79034039D01*
X106409171Y-78861809D01*
X106437500Y-78682946D01*
X106437500Y-78505509D01*
X106723000Y-78505509D01*
X106723000Y-78679290D01*
X106750182Y-78850916D01*
X106803883Y-79016189D01*
X106882772Y-79171019D01*
X106961043Y-79278749D01*
X107395233Y-78844557D01*
X107426901Y-78899407D01*
X107519993Y-78992499D01*
X107574839Y-79024164D01*
X107140649Y-79458355D01*
X107140649Y-79458356D01*
X107248372Y-79536622D01*
X107248378Y-79536626D01*
X107403210Y-79615516D01*
X107568483Y-79669217D01*
X107740110Y-79696400D01*
X107913890Y-79696400D01*
X108085516Y-79669217D01*
X108250789Y-79615516D01*
X108405621Y-79536626D01*
X108405627Y-79536622D01*
X108513349Y-79458356D01*
X108513349Y-79458355D01*
X108079159Y-79024165D01*
X108134007Y-78992499D01*
X108227099Y-78899407D01*
X108258765Y-78844559D01*
X108692955Y-79278749D01*
X108692956Y-79278749D01*
X108771222Y-79171027D01*
X108771226Y-79171021D01*
X108850116Y-79016189D01*
X108903817Y-78850916D01*
X108931000Y-78679290D01*
X108931000Y-78505509D01*
X108903817Y-78333883D01*
X108850116Y-78168610D01*
X108771226Y-78013778D01*
X108771222Y-78013772D01*
X108692956Y-77906049D01*
X108692955Y-77906049D01*
X108258764Y-78340239D01*
X108227099Y-78285393D01*
X108134007Y-78192301D01*
X108079157Y-78160633D01*
X108513349Y-77726443D01*
X108405619Y-77648172D01*
X108250789Y-77569283D01*
X108085516Y-77515582D01*
X107913890Y-77488400D01*
X107740110Y-77488400D01*
X107568483Y-77515582D01*
X107403210Y-77569283D01*
X107248378Y-77648173D01*
X107248374Y-77648175D01*
X107140649Y-77726442D01*
X107574841Y-78160634D01*
X107519993Y-78192301D01*
X107426901Y-78285393D01*
X107395234Y-78340241D01*
X106961042Y-77906049D01*
X106882775Y-78013774D01*
X106882773Y-78013778D01*
X106803883Y-78168610D01*
X106750182Y-78333883D01*
X106723000Y-78505509D01*
X106437500Y-78505509D01*
X106437500Y-78501854D01*
X106437500Y-78501850D01*
X106409171Y-78322993D01*
X106409171Y-78322991D01*
X106353211Y-78150761D01*
X106270996Y-77989406D01*
X106164553Y-77842899D01*
X106036501Y-77714847D01*
X105889994Y-77608404D01*
X105889993Y-77608403D01*
X105889991Y-77608402D01*
X105728637Y-77526188D01*
X105556406Y-77470228D01*
X105377549Y-77441900D01*
X105377546Y-77441900D01*
X105196454Y-77441900D01*
X105196451Y-77441900D01*
X105017593Y-77470228D01*
X104845362Y-77526188D01*
X104684008Y-77608402D01*
X104610752Y-77661625D01*
X104537499Y-77714847D01*
X104409447Y-77842899D01*
X104363566Y-77906049D01*
X104303002Y-77989408D01*
X104220788Y-78150762D01*
X104164828Y-78322993D01*
X104136500Y-78501850D01*
X92000000Y-78501850D01*
X92000000Y-75157530D01*
X104136500Y-75157530D01*
X104136500Y-76947260D01*
X104136501Y-76947263D01*
X104139414Y-76972390D01*
X104164756Y-77029785D01*
X104184794Y-77075165D01*
X104264235Y-77154606D01*
X104367009Y-77199985D01*
X104392135Y-77202900D01*
X106181864Y-77202899D01*
X106206991Y-77199985D01*
X106309765Y-77154606D01*
X106389206Y-77075165D01*
X106434585Y-76972391D01*
X106437500Y-76947265D01*
X106437499Y-75965509D01*
X106723000Y-75965509D01*
X106723000Y-76139290D01*
X106750182Y-76310916D01*
X106803883Y-76476189D01*
X106882772Y-76631019D01*
X106961043Y-76738749D01*
X107395233Y-76304557D01*
X107426901Y-76359407D01*
X107519993Y-76452499D01*
X107574839Y-76484164D01*
X107140649Y-76918355D01*
X107140649Y-76918356D01*
X107248372Y-76996622D01*
X107248378Y-76996626D01*
X107403210Y-77075516D01*
X107568483Y-77129217D01*
X107740110Y-77156400D01*
X107913890Y-77156400D01*
X108085516Y-77129217D01*
X108250789Y-77075516D01*
X108405621Y-76996626D01*
X108405627Y-76996622D01*
X108513349Y-76918356D01*
X108513349Y-76918355D01*
X108079159Y-76484165D01*
X108134007Y-76452499D01*
X108227099Y-76359407D01*
X108258765Y-76304559D01*
X108692955Y-76738749D01*
X108692956Y-76738749D01*
X108771222Y-76631027D01*
X108771226Y-76631021D01*
X108850116Y-76476189D01*
X108903817Y-76310916D01*
X108931000Y-76139290D01*
X108931000Y-75965509D01*
X108903817Y-75793883D01*
X108850116Y-75628610D01*
X108771226Y-75473778D01*
X108771222Y-75473772D01*
X108692956Y-75366049D01*
X108692955Y-75366049D01*
X108258764Y-75800239D01*
X108227099Y-75745393D01*
X108134007Y-75652301D01*
X108079157Y-75620633D01*
X108513349Y-75186443D01*
X108405619Y-75108172D01*
X108250789Y-75029283D01*
X108085516Y-74975582D01*
X107913890Y-74948400D01*
X107740110Y-74948400D01*
X107568483Y-74975582D01*
X107403210Y-75029283D01*
X107248378Y-75108173D01*
X107248374Y-75108175D01*
X107140649Y-75186442D01*
X107574841Y-75620634D01*
X107519993Y-75652301D01*
X107426901Y-75745393D01*
X107395234Y-75800241D01*
X106961042Y-75366049D01*
X106882775Y-75473774D01*
X106882773Y-75473778D01*
X106803883Y-75628610D01*
X106750182Y-75793883D01*
X106723000Y-75965509D01*
X106437499Y-75965509D01*
X106437499Y-75157536D01*
X106434585Y-75132409D01*
X106389206Y-75029635D01*
X106309765Y-74950194D01*
X106206991Y-74904815D01*
X106206990Y-74904814D01*
X106206988Y-74904814D01*
X106181868Y-74901900D01*
X104392139Y-74901900D01*
X104392136Y-74901901D01*
X104367009Y-74904814D01*
X104264235Y-74950194D01*
X104184794Y-75029635D01*
X104139414Y-75132411D01*
X104136500Y-75157530D01*
X92000000Y-75157530D01*
X92000000Y-66751519D01*
X110428500Y-66751519D01*
X110428500Y-67010481D01*
X110462301Y-67267228D01*
X110498805Y-67403463D01*
X110529324Y-67517365D01*
X110628423Y-67756611D01*
X110628426Y-67756616D01*
X110757907Y-67980884D01*
X110915553Y-68186333D01*
X111098667Y-68369447D01*
X111304116Y-68527093D01*
X111528384Y-68656574D01*
X111528385Y-68656574D01*
X111528388Y-68656576D01*
X111767634Y-68755675D01*
X112017772Y-68822699D01*
X112274519Y-68856500D01*
X112274520Y-68856500D01*
X112533480Y-68856500D01*
X112533481Y-68856500D01*
X112790228Y-68822699D01*
X113040366Y-68755675D01*
X113279616Y-68656574D01*
X113503884Y-68527093D01*
X113709333Y-68369447D01*
X113892447Y-68186333D01*
X114050093Y-67980884D01*
X114179574Y-67756616D01*
X114278675Y-67517366D01*
X114345699Y-67267228D01*
X114379500Y-67010481D01*
X114379500Y-66751519D01*
X114345699Y-66494772D01*
X114278675Y-66244634D01*
X114179574Y-66005384D01*
X114050093Y-65781116D01*
X113892447Y-65575667D01*
X113709333Y-65392553D01*
X113503884Y-65234907D01*
X113279616Y-65105426D01*
X113279611Y-65105423D01*
X113040365Y-65006324D01*
X112926463Y-64975805D01*
X112790228Y-64939301D01*
X112790221Y-64939300D01*
X112533482Y-64905500D01*
X112533481Y-64905500D01*
X112274519Y-64905500D01*
X112274517Y-64905500D01*
X112017778Y-64939300D01*
X112017776Y-64939300D01*
X112017772Y-64939301D01*
X111923226Y-64964634D01*
X111767634Y-65006324D01*
X111528388Y-65105423D01*
X111304112Y-65234909D01*
X111098670Y-65392550D01*
X110915550Y-65575670D01*
X110757909Y-65781112D01*
X110628423Y-66005388D01*
X110529324Y-66244634D01*
X110487634Y-66400226D01*
X110462301Y-66494772D01*
X110428500Y-66751519D01*
X92000000Y-66751519D01*
X92000000Y-58955343D01*
X183985300Y-58955343D01*
X183985300Y-59113457D01*
X184026223Y-59266184D01*
X184105280Y-59403116D01*
X184217084Y-59514920D01*
X184354016Y-59593977D01*
X184506743Y-59634900D01*
X184506745Y-59634900D01*
X184664855Y-59634900D01*
X184664857Y-59634900D01*
X184817584Y-59593977D01*
X184954516Y-59514920D01*
X184955541Y-59513894D01*
X184956468Y-59513422D01*
X184959666Y-59510969D01*
X184960120Y-59511561D01*
X185010056Y-59486119D01*
X185025543Y-59484900D01*
X197667789Y-59484900D01*
X197725980Y-59503807D01*
X197737793Y-59513896D01*
X223910504Y-85686607D01*
X223938281Y-85741124D01*
X223939500Y-85756611D01*
X223939500Y-85758057D01*
X223980423Y-85910784D01*
X224059480Y-86047716D01*
X224171284Y-86159520D01*
X224308216Y-86238577D01*
X224460943Y-86279500D01*
X224460945Y-86279500D01*
X224619055Y-86279500D01*
X224619057Y-86279500D01*
X224771784Y-86238577D01*
X224844415Y-86196644D01*
X227557500Y-86196644D01*
X227557500Y-86401355D01*
X227589521Y-86603529D01*
X227652780Y-86798219D01*
X227745712Y-86980609D01*
X227745714Y-86980613D01*
X227866029Y-87146213D01*
X227866031Y-87146215D01*
X227866034Y-87146219D01*
X228010781Y-87290966D01*
X228010784Y-87290968D01*
X228010786Y-87290970D01*
X228176386Y-87411285D01*
X228176390Y-87411287D01*
X228358781Y-87504220D01*
X228553466Y-87567477D01*
X228553467Y-87567477D01*
X228553470Y-87567478D01*
X228755645Y-87599500D01*
X228755648Y-87599500D01*
X228960355Y-87599500D01*
X229162529Y-87567478D01*
X229162530Y-87567477D01*
X229162534Y-87567477D01*
X229357219Y-87504220D01*
X229539610Y-87411287D01*
X229705219Y-87290966D01*
X229849966Y-87146219D01*
X229970287Y-86980610D01*
X230063220Y-86798219D01*
X230126477Y-86603534D01*
X230145757Y-86481809D01*
X230158500Y-86401355D01*
X230158500Y-86196644D01*
X230126478Y-85994470D01*
X230109752Y-85942993D01*
X230063220Y-85799781D01*
X229970287Y-85617390D01*
X229970285Y-85617386D01*
X229849970Y-85451786D01*
X229849968Y-85451784D01*
X229849966Y-85451781D01*
X229705219Y-85307034D01*
X229705215Y-85307031D01*
X229705213Y-85307029D01*
X229539613Y-85186714D01*
X229539609Y-85186712D01*
X229357219Y-85093780D01*
X229162529Y-85030521D01*
X228960355Y-84998500D01*
X228960352Y-84998500D01*
X228755648Y-84998500D01*
X228755645Y-84998500D01*
X228553470Y-85030521D01*
X228358780Y-85093780D01*
X228176390Y-85186712D01*
X228176386Y-85186714D01*
X228010786Y-85307029D01*
X227866029Y-85451786D01*
X227745714Y-85617386D01*
X227745712Y-85617390D01*
X227652780Y-85799780D01*
X227589521Y-85994470D01*
X227557500Y-86196644D01*
X224844415Y-86196644D01*
X224908716Y-86159520D01*
X225020520Y-86047716D01*
X225099577Y-85910784D01*
X225140500Y-85758057D01*
X225140500Y-85599943D01*
X225099577Y-85447216D01*
X225020520Y-85310284D01*
X224908716Y-85198480D01*
X224771784Y-85119423D01*
X224619057Y-85078500D01*
X224619055Y-85078500D01*
X224617612Y-85078500D01*
X224616628Y-85078180D01*
X224612623Y-85077653D01*
X224612720Y-85076910D01*
X224559421Y-85059593D01*
X224547608Y-85049504D01*
X219739384Y-80241280D01*
X219672234Y-80174130D01*
X227557500Y-80174130D01*
X227557500Y-82263860D01*
X227557501Y-82263863D01*
X227560414Y-82288990D01*
X227585756Y-82346385D01*
X227605794Y-82391765D01*
X227685235Y-82471206D01*
X227788009Y-82516585D01*
X227813135Y-82519500D01*
X229902864Y-82519499D01*
X229927991Y-82516585D01*
X230030765Y-82471206D01*
X230110206Y-82391765D01*
X230155585Y-82288991D01*
X230158500Y-82263865D01*
X230158499Y-80174136D01*
X230155585Y-80149009D01*
X230110206Y-80046235D01*
X230030765Y-79966794D01*
X229927991Y-79921415D01*
X229927990Y-79921414D01*
X229927988Y-79921414D01*
X229902868Y-79918500D01*
X227813139Y-79918500D01*
X227813136Y-79918501D01*
X227788009Y-79921414D01*
X227685235Y-79966794D01*
X227605794Y-80046235D01*
X227560414Y-80149011D01*
X227557500Y-80174130D01*
X219672234Y-80174130D01*
X216627321Y-77129217D01*
X213414047Y-73915943D01*
X225717500Y-73915943D01*
X225717500Y-74074057D01*
X225758423Y-74226784D01*
X225837480Y-74363716D01*
X225949284Y-74475520D01*
X226086216Y-74554577D01*
X226167494Y-74576355D01*
X226211875Y-74601978D01*
X227212504Y-75602607D01*
X227240281Y-75657124D01*
X227241500Y-75672611D01*
X227241500Y-75674057D01*
X227282423Y-75826784D01*
X227361480Y-75963716D01*
X227473284Y-76075520D01*
X227610216Y-76154577D01*
X227762943Y-76195500D01*
X227762945Y-76195500D01*
X227921055Y-76195500D01*
X227921057Y-76195500D01*
X228073784Y-76154577D01*
X228210716Y-76075520D01*
X228322520Y-75963716D01*
X228401577Y-75826784D01*
X228442500Y-75674057D01*
X228442500Y-75515943D01*
X228401577Y-75363216D01*
X228322520Y-75226284D01*
X228210716Y-75114480D01*
X228073784Y-75035423D01*
X227921057Y-74994500D01*
X227921055Y-74994500D01*
X227919611Y-74994500D01*
X227918626Y-74994180D01*
X227914623Y-74993653D01*
X227914720Y-74992911D01*
X227861420Y-74975593D01*
X227849607Y-74965504D01*
X226947496Y-74063393D01*
X226919719Y-74008876D01*
X226918500Y-73993389D01*
X226918500Y-73915944D01*
X226918500Y-73915943D01*
X226877577Y-73763216D01*
X226798520Y-73626284D01*
X226686716Y-73514480D01*
X226549784Y-73435423D01*
X226397057Y-73394500D01*
X226238943Y-73394500D01*
X226086216Y-73435423D01*
X225949284Y-73514480D01*
X225837480Y-73626284D01*
X225758423Y-73763216D01*
X225717500Y-73915943D01*
X213414047Y-73915943D01*
X198172014Y-58673911D01*
X198172011Y-58673909D01*
X198172010Y-58673908D01*
X198172009Y-58673907D01*
X198069290Y-58614602D01*
X198069286Y-58614600D01*
X198045073Y-58608112D01*
X198045073Y-58608113D01*
X197954709Y-58583900D01*
X197954707Y-58583900D01*
X185025543Y-58583900D01*
X184967352Y-58564993D01*
X184955545Y-58554909D01*
X184954516Y-58553880D01*
X184817584Y-58474823D01*
X184664857Y-58433900D01*
X184506743Y-58433900D01*
X184354016Y-58474823D01*
X184217084Y-58553880D01*
X184105280Y-58665684D01*
X184026223Y-58802616D01*
X183985300Y-58955343D01*
X92000000Y-58955343D01*
X92000000Y-54876735D01*
X200414000Y-54876735D01*
X200414000Y-55373999D01*
X200414001Y-55374000D01*
X200868000Y-55374000D01*
X200868000Y-55628000D01*
X200414001Y-55628000D01*
X200414000Y-55628001D01*
X200414000Y-56125264D01*
X200442976Y-56270933D01*
X200442976Y-56270935D01*
X200499811Y-56408148D01*
X200499817Y-56408160D01*
X200582330Y-56531646D01*
X200582333Y-56531650D01*
X200687349Y-56636666D01*
X200687353Y-56636669D01*
X200810839Y-56719182D01*
X200810851Y-56719188D01*
X200948064Y-56776023D01*
X200948067Y-56776024D01*
X201040999Y-56794508D01*
X201041000Y-56794508D01*
X201041000Y-56324087D01*
X201052204Y-56330556D01*
X201128504Y-56351000D01*
X201207496Y-56351000D01*
X201283796Y-56330556D01*
X201295000Y-56324087D01*
X201295000Y-56794508D01*
X201387932Y-56776024D01*
X201387935Y-56776023D01*
X201525148Y-56719188D01*
X201525160Y-56719182D01*
X201648646Y-56636669D01*
X201648650Y-56636666D01*
X201753666Y-56531650D01*
X201753669Y-56531646D01*
X201836182Y-56408160D01*
X201836188Y-56408148D01*
X201893023Y-56270935D01*
X201893023Y-56270933D01*
X201921999Y-56125264D01*
X201922000Y-56125260D01*
X201922000Y-55628001D01*
X201921999Y-55628000D01*
X201468000Y-55628000D01*
X201468000Y-55374000D01*
X201921999Y-55374000D01*
X201922000Y-55373999D01*
X201922000Y-55320607D01*
X201940907Y-55262416D01*
X201990407Y-55226452D01*
X202051593Y-55226452D01*
X202101093Y-55262416D01*
X202106731Y-55271097D01*
X202137485Y-55324365D01*
X202244635Y-55431515D01*
X202244637Y-55431516D01*
X202244639Y-55431518D01*
X202375861Y-55507279D01*
X202375859Y-55507279D01*
X202375863Y-55507280D01*
X202375865Y-55507281D01*
X202522234Y-55546500D01*
X202522236Y-55546500D01*
X202673764Y-55546500D01*
X202673766Y-55546500D01*
X202820135Y-55507281D01*
X202820137Y-55507279D01*
X202820139Y-55507279D01*
X202951360Y-55431518D01*
X202951360Y-55431517D01*
X202951365Y-55431515D01*
X203058515Y-55324365D01*
X203089264Y-55271107D01*
X203134279Y-55193139D01*
X203134279Y-55193137D01*
X203134281Y-55193135D01*
X203173500Y-55046766D01*
X203173500Y-54895234D01*
X207802500Y-54895234D01*
X207802500Y-55046766D01*
X207837086Y-55175847D01*
X207841720Y-55193139D01*
X207917481Y-55324360D01*
X207917483Y-55324362D01*
X207917485Y-55324365D01*
X208024635Y-55431515D01*
X208024637Y-55431516D01*
X208024639Y-55431518D01*
X208155861Y-55507279D01*
X208155859Y-55507279D01*
X208155863Y-55507280D01*
X208155865Y-55507281D01*
X208302234Y-55546500D01*
X208302236Y-55546500D01*
X208453764Y-55546500D01*
X208453766Y-55546500D01*
X208600135Y-55507281D01*
X208731365Y-55431515D01*
X208838515Y-55324365D01*
X208869264Y-55271105D01*
X208914733Y-55230166D01*
X208975583Y-55223770D01*
X209028571Y-55254363D01*
X209053458Y-55310258D01*
X209054000Y-55320607D01*
X209054000Y-55373999D01*
X209054001Y-55374000D01*
X209508000Y-55374000D01*
X209508000Y-55628000D01*
X209054001Y-55628000D01*
X209054000Y-55628001D01*
X209054000Y-56125264D01*
X209082976Y-56270933D01*
X209082976Y-56270935D01*
X209139811Y-56408148D01*
X209139817Y-56408160D01*
X209222330Y-56531646D01*
X209222333Y-56531650D01*
X209327349Y-56636666D01*
X209327353Y-56636669D01*
X209450839Y-56719182D01*
X209450851Y-56719188D01*
X209588064Y-56776023D01*
X209588067Y-56776024D01*
X209680999Y-56794508D01*
X209681000Y-56794508D01*
X209681000Y-56324087D01*
X209692204Y-56330556D01*
X209768504Y-56351000D01*
X209847496Y-56351000D01*
X209923796Y-56330556D01*
X209935000Y-56324087D01*
X209935000Y-56794508D01*
X210027932Y-56776024D01*
X210027935Y-56776023D01*
X210165148Y-56719188D01*
X210165160Y-56719182D01*
X210288646Y-56636669D01*
X210288650Y-56636666D01*
X210393666Y-56531650D01*
X210393669Y-56531646D01*
X210476182Y-56408160D01*
X210476188Y-56408148D01*
X210533023Y-56270935D01*
X210533023Y-56270933D01*
X210561999Y-56125264D01*
X210562000Y-56125260D01*
X210562000Y-55628001D01*
X210561999Y-55628000D01*
X210108000Y-55628000D01*
X210108000Y-55374000D01*
X210561999Y-55374000D01*
X210562000Y-55373999D01*
X210562000Y-54876739D01*
X210561999Y-54876735D01*
X210533023Y-54731066D01*
X210533023Y-54731064D01*
X210476188Y-54593851D01*
X210476182Y-54593839D01*
X210393669Y-54470353D01*
X210393666Y-54470349D01*
X210288650Y-54365333D01*
X210288646Y-54365330D01*
X210165160Y-54282817D01*
X210165148Y-54282811D01*
X210027934Y-54225976D01*
X209935000Y-54207490D01*
X209935000Y-54677912D01*
X209923796Y-54671444D01*
X209847496Y-54651000D01*
X209768504Y-54651000D01*
X209692204Y-54671444D01*
X209681000Y-54677912D01*
X209681000Y-54207490D01*
X209588066Y-54225976D01*
X209588064Y-54225976D01*
X209450851Y-54282811D01*
X209450839Y-54282817D01*
X209327353Y-54365330D01*
X209327349Y-54365333D01*
X209222333Y-54470349D01*
X209222330Y-54470353D01*
X209139817Y-54593839D01*
X209139813Y-54593848D01*
X209085037Y-54726089D01*
X209045300Y-54772615D01*
X208985805Y-54786898D01*
X208929277Y-54763483D01*
X208907837Y-54737704D01*
X208838515Y-54617635D01*
X208731365Y-54510485D01*
X208731362Y-54510483D01*
X208731360Y-54510481D01*
X208600138Y-54434720D01*
X208600140Y-54434720D01*
X208543347Y-54419503D01*
X208453766Y-54395500D01*
X208302234Y-54395500D01*
X208212652Y-54419503D01*
X208155860Y-54434720D01*
X208024639Y-54510481D01*
X207917481Y-54617639D01*
X207841720Y-54748860D01*
X207835355Y-54772615D01*
X207802500Y-54895234D01*
X203173500Y-54895234D01*
X203134281Y-54748865D01*
X203134279Y-54748862D01*
X203134279Y-54748860D01*
X203058518Y-54617639D01*
X203058516Y-54617637D01*
X203058515Y-54617635D01*
X202951365Y-54510485D01*
X202951362Y-54510483D01*
X202951360Y-54510481D01*
X202820138Y-54434720D01*
X202820140Y-54434720D01*
X202763347Y-54419503D01*
X202673766Y-54395500D01*
X202522234Y-54395500D01*
X202432652Y-54419503D01*
X202375860Y-54434720D01*
X202244639Y-54510481D01*
X202137483Y-54617637D01*
X202068162Y-54737704D01*
X202022692Y-54778644D01*
X201961842Y-54785039D01*
X201908854Y-54754446D01*
X201890962Y-54726088D01*
X201836188Y-54593851D01*
X201836182Y-54593839D01*
X201753669Y-54470353D01*
X201753666Y-54470349D01*
X201648650Y-54365333D01*
X201648646Y-54365330D01*
X201525160Y-54282817D01*
X201525148Y-54282811D01*
X201387934Y-54225976D01*
X201295000Y-54207490D01*
X201295000Y-54677912D01*
X201283796Y-54671444D01*
X201207496Y-54651000D01*
X201128504Y-54651000D01*
X201052204Y-54671444D01*
X201041000Y-54677912D01*
X201041000Y-54207490D01*
X200948066Y-54225976D01*
X200948064Y-54225976D01*
X200810851Y-54282811D01*
X200810839Y-54282817D01*
X200687353Y-54365330D01*
X200687349Y-54365333D01*
X200582333Y-54470349D01*
X200582330Y-54470353D01*
X200499817Y-54593839D01*
X200499811Y-54593851D01*
X200442976Y-54731064D01*
X200442976Y-54731066D01*
X200414000Y-54876735D01*
X92000000Y-54876735D01*
X92000000Y-50767233D01*
X102448500Y-50767233D01*
X102448500Y-50994766D01*
X102484091Y-51219484D01*
X102554402Y-51435879D01*
X102595921Y-51517366D01*
X102657697Y-51638607D01*
X102791434Y-51822680D01*
X102952320Y-51983566D01*
X103136393Y-52117303D01*
X103339121Y-52220598D01*
X103555511Y-52290907D01*
X103555512Y-52290907D01*
X103555515Y-52290908D01*
X103780234Y-52326500D01*
X103780237Y-52326500D01*
X104007766Y-52326500D01*
X104232484Y-52290908D01*
X104232485Y-52290907D01*
X104232489Y-52290907D01*
X104448879Y-52220598D01*
X104651607Y-52117303D01*
X104835680Y-51983566D01*
X104996566Y-51822680D01*
X105130303Y-51638607D01*
X105233598Y-51435879D01*
X105303907Y-51219489D01*
X105307944Y-51193999D01*
X105339500Y-50994766D01*
X105339500Y-50767232D01*
X105338950Y-50763759D01*
X105338950Y-50763758D01*
X105337012Y-50751519D01*
X165668500Y-50751519D01*
X165668500Y-51010481D01*
X165702301Y-51267228D01*
X165738805Y-51403463D01*
X165769324Y-51517365D01*
X165868423Y-51756611D01*
X165868426Y-51756616D01*
X165997907Y-51980884D01*
X166155553Y-52186333D01*
X166338667Y-52369447D01*
X166544116Y-52527093D01*
X166768384Y-52656574D01*
X166768385Y-52656574D01*
X166768388Y-52656576D01*
X167007634Y-52755675D01*
X167257772Y-52822699D01*
X167514519Y-52856500D01*
X167514520Y-52856500D01*
X167773480Y-52856500D01*
X167773481Y-52856500D01*
X168030228Y-52822699D01*
X168280366Y-52755675D01*
X168519616Y-52656574D01*
X168743884Y-52527093D01*
X168949333Y-52369447D01*
X169132447Y-52186333D01*
X169290093Y-51980884D01*
X169419574Y-51756616D01*
X169518675Y-51517366D01*
X169585699Y-51267228D01*
X169619500Y-51010481D01*
X169619500Y-50946735D01*
X200414000Y-50946735D01*
X200414000Y-51193999D01*
X200414001Y-51194000D01*
X200868000Y-51194000D01*
X200868000Y-51448000D01*
X200414001Y-51448000D01*
X200414000Y-51448001D01*
X200414000Y-51695264D01*
X200442976Y-51840933D01*
X200442976Y-51840935D01*
X200499811Y-51978148D01*
X200499817Y-51978160D01*
X200582330Y-52101646D01*
X200582333Y-52101650D01*
X200687349Y-52206666D01*
X200687353Y-52206669D01*
X200810839Y-52289182D01*
X200810851Y-52289188D01*
X200948064Y-52346023D01*
X200948067Y-52346024D01*
X201040999Y-52364508D01*
X201041000Y-52364508D01*
X201041000Y-51894087D01*
X201052204Y-51900556D01*
X201128504Y-51921000D01*
X201207496Y-51921000D01*
X201283796Y-51900556D01*
X201295000Y-51894087D01*
X201295000Y-52364508D01*
X201387932Y-52346024D01*
X201387935Y-52346023D01*
X201525148Y-52289188D01*
X201525160Y-52289182D01*
X201648646Y-52206669D01*
X201648650Y-52206666D01*
X201753666Y-52101650D01*
X201753669Y-52101646D01*
X201836182Y-51978160D01*
X201836188Y-51978148D01*
X201893023Y-51840935D01*
X201893023Y-51840933D01*
X201921999Y-51695264D01*
X201922000Y-51695260D01*
X201922000Y-51448001D01*
X201921999Y-51448000D01*
X201468000Y-51448000D01*
X201468000Y-51194000D01*
X201921999Y-51194000D01*
X201922000Y-51193999D01*
X201922000Y-50946739D01*
X201921999Y-50946735D01*
X209054000Y-50946735D01*
X209054000Y-51193999D01*
X209054001Y-51194000D01*
X209508000Y-51194000D01*
X209508000Y-51448000D01*
X209054001Y-51448000D01*
X209054000Y-51448001D01*
X209054000Y-51695264D01*
X209082976Y-51840933D01*
X209082976Y-51840935D01*
X209139811Y-51978148D01*
X209139817Y-51978160D01*
X209222330Y-52101646D01*
X209222333Y-52101650D01*
X209327349Y-52206666D01*
X209327353Y-52206669D01*
X209450839Y-52289182D01*
X209450851Y-52289188D01*
X209588064Y-52346023D01*
X209588067Y-52346024D01*
X209680999Y-52364508D01*
X209681000Y-52364508D01*
X209681000Y-51894087D01*
X209692204Y-51900556D01*
X209768504Y-51921000D01*
X209847496Y-51921000D01*
X209923796Y-51900556D01*
X209935000Y-51894087D01*
X209935000Y-52364508D01*
X210027932Y-52346024D01*
X210027935Y-52346023D01*
X210165148Y-52289188D01*
X210165160Y-52289182D01*
X210288646Y-52206669D01*
X210288650Y-52206666D01*
X210393666Y-52101650D01*
X210393669Y-52101646D01*
X210476182Y-51978160D01*
X210476188Y-51978148D01*
X210533023Y-51840935D01*
X210533023Y-51840933D01*
X210561999Y-51695264D01*
X210562000Y-51695260D01*
X210562000Y-51448001D01*
X210561999Y-51448000D01*
X210108000Y-51448000D01*
X210108000Y-51194000D01*
X210561999Y-51194000D01*
X210562000Y-51193999D01*
X210562000Y-50946739D01*
X210561999Y-50946735D01*
X210533023Y-50801066D01*
X210533023Y-50801064D01*
X210476188Y-50663851D01*
X210476182Y-50663839D01*
X210393669Y-50540353D01*
X210393666Y-50540349D01*
X210288650Y-50435333D01*
X210288646Y-50435330D01*
X210165160Y-50352817D01*
X210165148Y-50352811D01*
X210027934Y-50295976D01*
X209935000Y-50277490D01*
X209935000Y-50747912D01*
X209923796Y-50741444D01*
X209847496Y-50721000D01*
X209768504Y-50721000D01*
X209692204Y-50741444D01*
X209681000Y-50747912D01*
X209681000Y-50277490D01*
X209588066Y-50295976D01*
X209588064Y-50295976D01*
X209450851Y-50352811D01*
X209450839Y-50352817D01*
X209327353Y-50435330D01*
X209327349Y-50435333D01*
X209222333Y-50540349D01*
X209222330Y-50540353D01*
X209139817Y-50663839D01*
X209139811Y-50663851D01*
X209082976Y-50801064D01*
X209082976Y-50801066D01*
X209054000Y-50946735D01*
X201921999Y-50946735D01*
X201893023Y-50801066D01*
X201893023Y-50801064D01*
X201836188Y-50663851D01*
X201836182Y-50663839D01*
X201753669Y-50540353D01*
X201753666Y-50540349D01*
X201648650Y-50435333D01*
X201648646Y-50435330D01*
X201525160Y-50352817D01*
X201525148Y-50352811D01*
X201387934Y-50295976D01*
X201295000Y-50277490D01*
X201295000Y-50747912D01*
X201283796Y-50741444D01*
X201207496Y-50721000D01*
X201128504Y-50721000D01*
X201052204Y-50741444D01*
X201041000Y-50747912D01*
X201041000Y-50277490D01*
X200948066Y-50295976D01*
X200948064Y-50295976D01*
X200810851Y-50352811D01*
X200810839Y-50352817D01*
X200687353Y-50435330D01*
X200687349Y-50435333D01*
X200582333Y-50540349D01*
X200582330Y-50540353D01*
X200499817Y-50663839D01*
X200499811Y-50663851D01*
X200442976Y-50801064D01*
X200442976Y-50801066D01*
X200414000Y-50946735D01*
X169619500Y-50946735D01*
X169619500Y-50751519D01*
X169585699Y-50494772D01*
X169518675Y-50244634D01*
X169419574Y-50005384D01*
X169290093Y-49781116D01*
X169132447Y-49575667D01*
X168949333Y-49392553D01*
X168743884Y-49234907D01*
X168519616Y-49105426D01*
X168519611Y-49105423D01*
X168280365Y-49006324D01*
X168166463Y-48975805D01*
X168030228Y-48939301D01*
X168030221Y-48939300D01*
X167773482Y-48905500D01*
X167773481Y-48905500D01*
X167514519Y-48905500D01*
X167514517Y-48905500D01*
X167257778Y-48939300D01*
X167257776Y-48939300D01*
X167257772Y-48939301D01*
X167163226Y-48964634D01*
X167007634Y-49006324D01*
X166768388Y-49105423D01*
X166544112Y-49234909D01*
X166338670Y-49392550D01*
X166155550Y-49575670D01*
X165997909Y-49781112D01*
X165868423Y-50005388D01*
X165769324Y-50244634D01*
X165727634Y-50400226D01*
X165702301Y-50494772D01*
X165702300Y-50494776D01*
X165702300Y-50494778D01*
X165680042Y-50663851D01*
X165668500Y-50751519D01*
X105337012Y-50751519D01*
X105303908Y-50542515D01*
X105303206Y-50540353D01*
X105233598Y-50326121D01*
X105130303Y-50123393D01*
X104996566Y-49939320D01*
X104835680Y-49778434D01*
X104651607Y-49644697D01*
X104651606Y-49644696D01*
X104651604Y-49644695D01*
X104448879Y-49541402D01*
X104232484Y-49471091D01*
X104007766Y-49435500D01*
X104007763Y-49435500D01*
X103780237Y-49435500D01*
X103780234Y-49435500D01*
X103555515Y-49471091D01*
X103339120Y-49541402D01*
X103136395Y-49644695D01*
X102952321Y-49778433D01*
X102791433Y-49939321D01*
X102657695Y-50123395D01*
X102554402Y-50326120D01*
X102484091Y-50542515D01*
X102448500Y-50767233D01*
X92000000Y-50767233D01*
X92000000Y-44099000D01*
X92018907Y-44040809D01*
X92068407Y-44004845D01*
X92099000Y-44000000D01*
X235840500Y-44000000D01*
X235898691Y-44018907D01*
G37*
G04 #@! TD.AperFunction*
M02*
