G04 #@! TF.GenerationSoftware,KiCad,Pcbnew,9.0.6*
G04 #@! TF.CreationDate,2025-12-06T23:46:01+01:00*
G04 #@! TF.ProjectId,Aramkortervezes_projekt,4172616d-6b6f-4727-9465-7276657a6573,rev?*
G04 #@! TF.SameCoordinates,Original*
G04 #@! TF.FileFunction,Paste,Top*
G04 #@! TF.FilePolarity,Positive*
%FSLAX46Y46*%
G04 Gerber Fmt 4.6, Leading zero omitted, Abs format (unit mm)*
G04 Created by KiCad (PCBNEW 9.0.6) date 2025-12-06 23:46:01*
%MOMM*%
%LPD*%
G01*
G04 APERTURE LIST*
G04 Aperture macros list*
%AMRoundRect*
0 Rectangle with rounded corners*
0 $1 Rounding radius*
0 $2 $3 $4 $5 $6 $7 $8 $9 X,Y pos of 4 corners*
0 Add a 4 corners polygon primitive as box body*
4,1,4,$2,$3,$4,$5,$6,$7,$8,$9,$2,$3,0*
0 Add four circle primitives for the rounded corners*
1,1,$1+$1,$2,$3*
1,1,$1+$1,$4,$5*
1,1,$1+$1,$6,$7*
1,1,$1+$1,$8,$9*
0 Add four rect primitives between the rounded corners*
20,1,$1+$1,$2,$3,$4,$5,0*
20,1,$1+$1,$4,$5,$6,$7,0*
20,1,$1+$1,$6,$7,$8,$9,0*
20,1,$1+$1,$8,$9,$2,$3,0*%
G04 Aperture macros list end*
%ADD10RoundRect,0.249999X1.075001X-0.450001X1.075001X0.450001X-1.075001X0.450001X-1.075001X-0.450001X0*%
%ADD11RoundRect,0.250000X-0.412500X-0.650000X0.412500X-0.650000X0.412500X0.650000X-0.412500X0.650000X0*%
%ADD12RoundRect,0.100000X-0.100000X0.650000X-0.100000X-0.650000X0.100000X-0.650000X0.100000X0.650000X0*%
%ADD13RoundRect,0.249999X-2.450001X0.737501X-2.450001X-0.737501X2.450001X-0.737501X2.450001X0.737501X0*%
%ADD14RoundRect,0.250000X-0.650000X0.412500X-0.650000X-0.412500X0.650000X-0.412500X0.650000X0.412500X0*%
%ADD15RoundRect,0.249999X0.450001X1.075001X-0.450001X1.075001X-0.450001X-1.075001X0.450001X-1.075001X0*%
%ADD16RoundRect,0.250000X1.125000X-1.275000X1.125000X1.275000X-1.125000X1.275000X-1.125000X-1.275000X0*%
%ADD17RoundRect,0.250000X0.350000X-0.850000X0.350000X0.850000X-0.350000X0.850000X-0.350000X-0.850000X0*%
%ADD18RoundRect,0.249999X0.737501X2.450001X-0.737501X2.450001X-0.737501X-2.450001X0.737501X-2.450001X0*%
%ADD19RoundRect,0.250000X0.412500X0.650000X-0.412500X0.650000X-0.412500X-0.650000X0.412500X-0.650000X0*%
%ADD20RoundRect,0.249999X-1.075001X0.450001X-1.075001X-0.450001X1.075001X-0.450001X1.075001X0.450001X0*%
%ADD21RoundRect,0.249999X-0.450001X-1.075001X0.450001X-1.075001X0.450001X1.075001X-0.450001X1.075001X0*%
%ADD22R,1.000000X0.900000*%
%ADD23RoundRect,0.250001X0.624999X-0.462499X0.624999X0.462499X-0.624999X0.462499X-0.624999X-0.462499X0*%
%ADD24RoundRect,0.250000X0.650000X-0.412500X0.650000X0.412500X-0.650000X0.412500X-0.650000X-0.412500X0*%
%ADD25RoundRect,0.250000X0.625000X-0.400000X0.625000X0.400000X-0.625000X0.400000X-0.625000X-0.400000X0*%
%ADD26RoundRect,0.250000X0.400000X0.625000X-0.400000X0.625000X-0.400000X-0.625000X0.400000X-0.625000X0*%
%ADD27R,0.600000X1.450000*%
%ADD28R,0.300000X1.450000*%
%ADD29RoundRect,0.250000X-0.625000X0.400000X-0.625000X-0.400000X0.625000X-0.400000X0.625000X0.400000X0*%
%ADD30RoundRect,0.162500X0.617500X0.162500X-0.617500X0.162500X-0.617500X-0.162500X0.617500X-0.162500X0*%
%ADD31RoundRect,0.249999X-0.737501X-2.450001X0.737501X-2.450001X0.737501X2.450001X-0.737501X2.450001X0*%
%ADD32RoundRect,0.250003X-3.499997X-2.999997X3.499997X-2.999997X3.499997X2.999997X-3.499997X2.999997X0*%
%ADD33RoundRect,0.250000X-0.400000X-0.625000X0.400000X-0.625000X0.400000X0.625000X-0.400000X0.625000X0*%
%ADD34RoundRect,0.100000X-0.650000X-0.100000X0.650000X-0.100000X0.650000X0.100000X-0.650000X0.100000X0*%
%ADD35RoundRect,0.075000X-0.700000X-0.075000X0.700000X-0.075000X0.700000X0.075000X-0.700000X0.075000X0*%
%ADD36RoundRect,0.075000X-0.075000X-0.700000X0.075000X-0.700000X0.075000X0.700000X-0.075000X0.700000X0*%
G04 APERTURE END LIST*
D10*
X206633000Y-90648500D03*
X206633000Y-85848500D03*
D11*
X142305500Y-86548000D03*
X145430500Y-86548000D03*
D12*
X194487500Y-72478000D03*
X193837500Y-72478000D03*
X193187500Y-72478000D03*
X193187500Y-75138000D03*
X193837500Y-75138000D03*
X194487500Y-75138000D03*
D13*
X145224000Y-111268500D03*
X145224000Y-116543500D03*
X197362000Y-95839000D03*
X197362000Y-101114000D03*
X157545000Y-81725000D03*
X157545000Y-87000000D03*
D14*
X138874000Y-111171000D03*
X138874000Y-114296000D03*
D15*
X116437600Y-111231400D03*
X111637600Y-111231400D03*
D16*
X218398200Y-113591400D03*
X221448200Y-113591400D03*
X218398200Y-110241400D03*
X221448200Y-110241400D03*
D17*
X217643200Y-118216400D03*
X219923200Y-118216400D03*
X222203200Y-118216400D03*
D18*
X194398500Y-64216000D03*
X189123500Y-64216000D03*
D19*
X168036000Y-96046500D03*
X164911000Y-96046500D03*
D20*
X97032000Y-73350400D03*
X97032000Y-78150400D03*
D21*
X190644000Y-56596000D03*
X195444000Y-56596000D03*
D20*
X132693600Y-113543400D03*
X132693600Y-118343400D03*
D19*
X168036000Y-102396500D03*
X164911000Y-102396500D03*
D22*
X109325600Y-116783400D03*
X109325600Y-120883400D03*
X107725600Y-116783400D03*
X107725600Y-120883400D03*
D15*
X220209000Y-57231000D03*
X215409000Y-57231000D03*
D23*
X197438200Y-117798900D03*
X197438200Y-114823900D03*
D13*
X208233200Y-112726900D03*
X208233200Y-118001900D03*
D24*
X212983000Y-76065500D03*
X212983000Y-72940500D03*
D20*
X114812000Y-75890400D03*
X114812000Y-80690400D03*
D25*
X187570000Y-75672000D03*
X187570000Y-72572000D03*
D26*
X201528200Y-109326400D03*
X198428200Y-109326400D03*
D20*
X139074000Y-90051000D03*
X139074000Y-94851000D03*
D14*
X102175600Y-117563400D03*
X102175600Y-120688400D03*
D27*
X208738000Y-56416000D03*
X207938000Y-56416000D03*
D28*
X206738000Y-56416000D03*
X205738000Y-56416000D03*
X205238000Y-56416000D03*
X204238000Y-56416000D03*
D27*
X203038000Y-56416000D03*
X202238000Y-56416000D03*
X202238000Y-56416000D03*
X203038000Y-56416000D03*
D28*
X203738000Y-56416000D03*
X204738000Y-56416000D03*
X206238000Y-56416000D03*
X207238000Y-56416000D03*
D27*
X207938000Y-56416000D03*
X208738000Y-56416000D03*
D19*
X129867500Y-94908000D03*
X126742500Y-94908000D03*
D14*
X165165000Y-82165000D03*
X165165000Y-85290000D03*
D23*
X230763000Y-74974500D03*
X230763000Y-71999500D03*
D10*
X107674600Y-100702800D03*
X107674600Y-95902800D03*
D29*
X187570000Y-79811000D03*
X187570000Y-82911000D03*
D26*
X207802000Y-102853500D03*
X204702000Y-102853500D03*
D30*
X222461000Y-74945000D03*
X222461000Y-73995000D03*
X222461000Y-73045000D03*
X219761000Y-73045000D03*
X219761000Y-74945000D03*
D10*
X139074000Y-102701000D03*
X139074000Y-97901000D03*
D31*
X201442500Y-74376000D03*
X206717500Y-74376000D03*
D10*
X169124000Y-118801000D03*
X169124000Y-114001000D03*
X97032000Y-87675400D03*
X97032000Y-82875400D03*
D15*
X127473600Y-111231400D03*
X122673600Y-111231400D03*
D18*
X218795500Y-101046000D03*
X213520500Y-101046000D03*
D21*
X213123000Y-81869000D03*
X217923000Y-81869000D03*
D32*
X100334000Y-58881000D03*
X179714000Y-58881000D03*
D19*
X133274000Y-86551000D03*
X130149000Y-86551000D03*
D33*
X212703000Y-92058500D03*
X215803000Y-92058500D03*
D19*
X167997500Y-90712500D03*
X164872500Y-90712500D03*
D21*
X193819000Y-82631000D03*
X198619000Y-82631000D03*
D33*
X220577000Y-65359000D03*
X223677000Y-65359000D03*
D34*
X204735000Y-96025000D03*
X204735000Y-96675000D03*
X204735000Y-97325000D03*
X207395000Y-97325000D03*
X207395000Y-96675000D03*
X207395000Y-96025000D03*
D21*
X118863600Y-123169400D03*
X123663600Y-123169400D03*
D19*
X129867500Y-99734000D03*
X126742500Y-99734000D03*
D35*
X143935000Y-94375000D03*
X143935000Y-94875000D03*
X143935000Y-95375000D03*
X143935000Y-95875000D03*
X143935000Y-96375000D03*
X143935000Y-96875000D03*
X143935000Y-97375000D03*
X143935000Y-97875000D03*
X143935000Y-98375000D03*
X143935000Y-98875000D03*
X143935000Y-99375000D03*
X143935000Y-99875000D03*
X143935000Y-100375000D03*
X143935000Y-100875000D03*
X143935000Y-101375000D03*
X143935000Y-101875000D03*
D36*
X145860000Y-103800000D03*
X146360000Y-103800000D03*
X146860000Y-103800000D03*
X147360000Y-103800000D03*
X147860000Y-103800000D03*
X148360000Y-103800000D03*
X148860000Y-103800000D03*
X149360000Y-103800000D03*
X149860000Y-103800000D03*
X150360000Y-103800000D03*
X150860000Y-103800000D03*
X151360000Y-103800000D03*
X151860000Y-103800000D03*
X152360000Y-103800000D03*
X152860000Y-103800000D03*
X153360000Y-103800000D03*
D35*
X155285000Y-101875000D03*
X155285000Y-101375000D03*
X155285000Y-100875000D03*
X155285000Y-100375000D03*
X155285000Y-99875000D03*
X155285000Y-99375000D03*
X155285000Y-98875000D03*
X155285000Y-98375000D03*
X155285000Y-97875000D03*
X155285000Y-97375000D03*
X155285000Y-96875000D03*
X155285000Y-96375000D03*
X155285000Y-95875000D03*
X155285000Y-95375000D03*
X155285000Y-94875000D03*
X155285000Y-94375000D03*
D36*
X153360000Y-92450000D03*
X152860000Y-92450000D03*
X152360000Y-92450000D03*
X151860000Y-92450000D03*
X151360000Y-92450000D03*
X150860000Y-92450000D03*
X150360000Y-92450000D03*
X149860000Y-92450000D03*
X149360000Y-92450000D03*
X148860000Y-92450000D03*
X148360000Y-92450000D03*
X147860000Y-92450000D03*
X147360000Y-92450000D03*
X146860000Y-92450000D03*
X146360000Y-92450000D03*
X145860000Y-92450000D03*
M02*
