G04 #@! TF.GenerationSoftware,KiCad,Pcbnew,9.0.6*
G04 #@! TF.CreationDate,2025-12-06T23:46:01+01:00*
G04 #@! TF.ProjectId,Aramkortervezes_projekt,4172616d-6b6f-4727-9465-7276657a6573,rev?*
G04 #@! TF.SameCoordinates,Original*
G04 #@! TF.FileFunction,Legend,Top*
G04 #@! TF.FilePolarity,Positive*
%FSLAX46Y46*%
G04 Gerber Fmt 4.6, Leading zero omitted, Abs format (unit mm)*
G04 Created by KiCad (PCBNEW 9.0.6) date 2025-12-06 23:46:01*
%MOMM*%
%LPD*%
G01*
G04 APERTURE LIST*
%ADD10C,0.150000*%
%ADD11C,0.300000*%
%ADD12C,0.120000*%
%ADD13C,0.000000*%
G04 APERTURE END LIST*
D10*
X180144112Y-111597009D02*
X180286969Y-111644628D01*
X180286969Y-111644628D02*
X180334588Y-111692247D01*
X180334588Y-111692247D02*
X180382207Y-111787485D01*
X180382207Y-111787485D02*
X180382207Y-111930342D01*
X180382207Y-111930342D02*
X180334588Y-112025580D01*
X180334588Y-112025580D02*
X180286969Y-112073200D01*
X180286969Y-112073200D02*
X180191731Y-112120819D01*
X180191731Y-112120819D02*
X179810779Y-112120819D01*
X179810779Y-112120819D02*
X179810779Y-111120819D01*
X179810779Y-111120819D02*
X180144112Y-111120819D01*
X180144112Y-111120819D02*
X180239350Y-111168438D01*
X180239350Y-111168438D02*
X180286969Y-111216057D01*
X180286969Y-111216057D02*
X180334588Y-111311295D01*
X180334588Y-111311295D02*
X180334588Y-111406533D01*
X180334588Y-111406533D02*
X180286969Y-111501771D01*
X180286969Y-111501771D02*
X180239350Y-111549390D01*
X180239350Y-111549390D02*
X180144112Y-111597009D01*
X180144112Y-111597009D02*
X179810779Y-111597009D01*
X180953636Y-112120819D02*
X180858398Y-112073200D01*
X180858398Y-112073200D02*
X180810779Y-112025580D01*
X180810779Y-112025580D02*
X180763160Y-111930342D01*
X180763160Y-111930342D02*
X180763160Y-111644628D01*
X180763160Y-111644628D02*
X180810779Y-111549390D01*
X180810779Y-111549390D02*
X180858398Y-111501771D01*
X180858398Y-111501771D02*
X180953636Y-111454152D01*
X180953636Y-111454152D02*
X181096493Y-111454152D01*
X181096493Y-111454152D02*
X181191731Y-111501771D01*
X181191731Y-111501771D02*
X181239350Y-111549390D01*
X181239350Y-111549390D02*
X181286969Y-111644628D01*
X181286969Y-111644628D02*
X181286969Y-111930342D01*
X181286969Y-111930342D02*
X181239350Y-112025580D01*
X181239350Y-112025580D02*
X181191731Y-112073200D01*
X181191731Y-112073200D02*
X181096493Y-112120819D01*
X181096493Y-112120819D02*
X180953636Y-112120819D01*
X181858398Y-112120819D02*
X181763160Y-112073200D01*
X181763160Y-112073200D02*
X181715541Y-112025580D01*
X181715541Y-112025580D02*
X181667922Y-111930342D01*
X181667922Y-111930342D02*
X181667922Y-111644628D01*
X181667922Y-111644628D02*
X181715541Y-111549390D01*
X181715541Y-111549390D02*
X181763160Y-111501771D01*
X181763160Y-111501771D02*
X181858398Y-111454152D01*
X181858398Y-111454152D02*
X182001255Y-111454152D01*
X182001255Y-111454152D02*
X182096493Y-111501771D01*
X182096493Y-111501771D02*
X182144112Y-111549390D01*
X182144112Y-111549390D02*
X182191731Y-111644628D01*
X182191731Y-111644628D02*
X182191731Y-111930342D01*
X182191731Y-111930342D02*
X182144112Y-112025580D01*
X182144112Y-112025580D02*
X182096493Y-112073200D01*
X182096493Y-112073200D02*
X182001255Y-112120819D01*
X182001255Y-112120819D02*
X181858398Y-112120819D01*
X182477446Y-111454152D02*
X182858398Y-111454152D01*
X182620303Y-111120819D02*
X182620303Y-111977961D01*
X182620303Y-111977961D02*
X182667922Y-112073200D01*
X182667922Y-112073200D02*
X182763160Y-112120819D01*
X182763160Y-112120819D02*
X182858398Y-112120819D01*
D11*
X173757082Y-88665484D02*
X173971368Y-88736912D01*
X173971368Y-88736912D02*
X174328510Y-88736912D01*
X174328510Y-88736912D02*
X174471368Y-88665484D01*
X174471368Y-88665484D02*
X174542796Y-88594055D01*
X174542796Y-88594055D02*
X174614225Y-88451198D01*
X174614225Y-88451198D02*
X174614225Y-88308341D01*
X174614225Y-88308341D02*
X174542796Y-88165484D01*
X174542796Y-88165484D02*
X174471368Y-88094055D01*
X174471368Y-88094055D02*
X174328510Y-88022626D01*
X174328510Y-88022626D02*
X174042796Y-87951198D01*
X174042796Y-87951198D02*
X173899939Y-87879769D01*
X173899939Y-87879769D02*
X173828510Y-87808341D01*
X173828510Y-87808341D02*
X173757082Y-87665484D01*
X173757082Y-87665484D02*
X173757082Y-87522626D01*
X173757082Y-87522626D02*
X173828510Y-87379769D01*
X173828510Y-87379769D02*
X173899939Y-87308341D01*
X173899939Y-87308341D02*
X174042796Y-87236912D01*
X174042796Y-87236912D02*
X174399939Y-87236912D01*
X174399939Y-87236912D02*
X174614225Y-87308341D01*
X175471367Y-88736912D02*
X175328510Y-88665484D01*
X175328510Y-88665484D02*
X175257081Y-88594055D01*
X175257081Y-88594055D02*
X175185653Y-88451198D01*
X175185653Y-88451198D02*
X175185653Y-88022626D01*
X175185653Y-88022626D02*
X175257081Y-87879769D01*
X175257081Y-87879769D02*
X175328510Y-87808341D01*
X175328510Y-87808341D02*
X175471367Y-87736912D01*
X175471367Y-87736912D02*
X175685653Y-87736912D01*
X175685653Y-87736912D02*
X175828510Y-87808341D01*
X175828510Y-87808341D02*
X175899939Y-87879769D01*
X175899939Y-87879769D02*
X175971367Y-88022626D01*
X175971367Y-88022626D02*
X175971367Y-88451198D01*
X175971367Y-88451198D02*
X175899939Y-88594055D01*
X175899939Y-88594055D02*
X175828510Y-88665484D01*
X175828510Y-88665484D02*
X175685653Y-88736912D01*
X175685653Y-88736912D02*
X175471367Y-88736912D01*
X176614224Y-88736912D02*
X176614224Y-87736912D01*
X176614224Y-87879769D02*
X176685653Y-87808341D01*
X176685653Y-87808341D02*
X176828510Y-87736912D01*
X176828510Y-87736912D02*
X177042796Y-87736912D01*
X177042796Y-87736912D02*
X177185653Y-87808341D01*
X177185653Y-87808341D02*
X177257082Y-87951198D01*
X177257082Y-87951198D02*
X177257082Y-88736912D01*
X177257082Y-87951198D02*
X177328510Y-87808341D01*
X177328510Y-87808341D02*
X177471367Y-87736912D01*
X177471367Y-87736912D02*
X177685653Y-87736912D01*
X177685653Y-87736912D02*
X177828510Y-87808341D01*
X177828510Y-87808341D02*
X177899939Y-87951198D01*
X177899939Y-87951198D02*
X177899939Y-88736912D01*
X178828510Y-88736912D02*
X178685653Y-88665484D01*
X178685653Y-88665484D02*
X178614224Y-88594055D01*
X178614224Y-88594055D02*
X178542796Y-88451198D01*
X178542796Y-88451198D02*
X178542796Y-88022626D01*
X178542796Y-88022626D02*
X178614224Y-87879769D01*
X178614224Y-87879769D02*
X178685653Y-87808341D01*
X178685653Y-87808341D02*
X178828510Y-87736912D01*
X178828510Y-87736912D02*
X179042796Y-87736912D01*
X179042796Y-87736912D02*
X179185653Y-87808341D01*
X179185653Y-87808341D02*
X179257082Y-87879769D01*
X179257082Y-87879769D02*
X179328510Y-88022626D01*
X179328510Y-88022626D02*
X179328510Y-88451198D01*
X179328510Y-88451198D02*
X179257082Y-88594055D01*
X179257082Y-88594055D02*
X179185653Y-88665484D01*
X179185653Y-88665484D02*
X179042796Y-88736912D01*
X179042796Y-88736912D02*
X178828510Y-88736912D01*
X180614225Y-87736912D02*
X180614225Y-88951198D01*
X180614225Y-88951198D02*
X180542796Y-89094055D01*
X180542796Y-89094055D02*
X180471367Y-89165484D01*
X180471367Y-89165484D02*
X180328510Y-89236912D01*
X180328510Y-89236912D02*
X180114225Y-89236912D01*
X180114225Y-89236912D02*
X179971367Y-89165484D01*
X180614225Y-88665484D02*
X180471367Y-88736912D01*
X180471367Y-88736912D02*
X180185653Y-88736912D01*
X180185653Y-88736912D02*
X180042796Y-88665484D01*
X180042796Y-88665484D02*
X179971367Y-88594055D01*
X179971367Y-88594055D02*
X179899939Y-88451198D01*
X179899939Y-88451198D02*
X179899939Y-88022626D01*
X179899939Y-88022626D02*
X179971367Y-87879769D01*
X179971367Y-87879769D02*
X180042796Y-87808341D01*
X180042796Y-87808341D02*
X180185653Y-87736912D01*
X180185653Y-87736912D02*
X180471367Y-87736912D01*
X180471367Y-87736912D02*
X180614225Y-87808341D01*
X181185653Y-87736912D02*
X181542796Y-88736912D01*
X181899939Y-87736912D02*
X181542796Y-88736912D01*
X181542796Y-88736912D02*
X181399939Y-89094055D01*
X181399939Y-89094055D02*
X181328510Y-89165484D01*
X181328510Y-89165484D02*
X181185653Y-89236912D01*
X182471367Y-88736912D02*
X182471367Y-87736912D01*
X182471367Y-87236912D02*
X182399939Y-87308341D01*
X182399939Y-87308341D02*
X182471367Y-87379769D01*
X182471367Y-87379769D02*
X182542796Y-87308341D01*
X182542796Y-87308341D02*
X182471367Y-87236912D01*
X182471367Y-87236912D02*
X182471367Y-87379769D01*
X184114225Y-87236912D02*
X184971368Y-87236912D01*
X184542796Y-88736912D02*
X184542796Y-87236912D01*
X186114225Y-88736912D02*
X186114225Y-87951198D01*
X186114225Y-87951198D02*
X186042796Y-87808341D01*
X186042796Y-87808341D02*
X185899939Y-87736912D01*
X185899939Y-87736912D02*
X185614225Y-87736912D01*
X185614225Y-87736912D02*
X185471367Y-87808341D01*
X186114225Y-88665484D02*
X185971367Y-88736912D01*
X185971367Y-88736912D02*
X185614225Y-88736912D01*
X185614225Y-88736912D02*
X185471367Y-88665484D01*
X185471367Y-88665484D02*
X185399939Y-88522626D01*
X185399939Y-88522626D02*
X185399939Y-88379769D01*
X185399939Y-88379769D02*
X185471367Y-88236912D01*
X185471367Y-88236912D02*
X185614225Y-88165484D01*
X185614225Y-88165484D02*
X185971367Y-88165484D01*
X185971367Y-88165484D02*
X186114225Y-88094055D01*
X186828510Y-88736912D02*
X186828510Y-87736912D01*
X186828510Y-87879769D02*
X186899939Y-87808341D01*
X186899939Y-87808341D02*
X187042796Y-87736912D01*
X187042796Y-87736912D02*
X187257082Y-87736912D01*
X187257082Y-87736912D02*
X187399939Y-87808341D01*
X187399939Y-87808341D02*
X187471368Y-87951198D01*
X187471368Y-87951198D02*
X187471368Y-88736912D01*
X187471368Y-87951198D02*
X187542796Y-87808341D01*
X187542796Y-87808341D02*
X187685653Y-87736912D01*
X187685653Y-87736912D02*
X187899939Y-87736912D01*
X187899939Y-87736912D02*
X188042796Y-87808341D01*
X188042796Y-87808341D02*
X188114225Y-87951198D01*
X188114225Y-87951198D02*
X188114225Y-88736912D01*
X189471368Y-88736912D02*
X189471368Y-87951198D01*
X189471368Y-87951198D02*
X189399939Y-87808341D01*
X189399939Y-87808341D02*
X189257082Y-87736912D01*
X189257082Y-87736912D02*
X188971368Y-87736912D01*
X188971368Y-87736912D02*
X188828510Y-87808341D01*
X189471368Y-88665484D02*
X189328510Y-88736912D01*
X189328510Y-88736912D02*
X188971368Y-88736912D01*
X188971368Y-88736912D02*
X188828510Y-88665484D01*
X188828510Y-88665484D02*
X188757082Y-88522626D01*
X188757082Y-88522626D02*
X188757082Y-88379769D01*
X188757082Y-88379769D02*
X188828510Y-88236912D01*
X188828510Y-88236912D02*
X188971368Y-88165484D01*
X188971368Y-88165484D02*
X189328510Y-88165484D01*
X189328510Y-88165484D02*
X189471368Y-88094055D01*
X189257082Y-87165484D02*
X189042796Y-87379769D01*
X190114225Y-88665484D02*
X190257082Y-88736912D01*
X190257082Y-88736912D02*
X190542796Y-88736912D01*
X190542796Y-88736912D02*
X190685653Y-88665484D01*
X190685653Y-88665484D02*
X190757082Y-88522626D01*
X190757082Y-88522626D02*
X190757082Y-88451198D01*
X190757082Y-88451198D02*
X190685653Y-88308341D01*
X190685653Y-88308341D02*
X190542796Y-88236912D01*
X190542796Y-88236912D02*
X190328511Y-88236912D01*
X190328511Y-88236912D02*
X190185653Y-88165484D01*
X190185653Y-88165484D02*
X190114225Y-88022626D01*
X190114225Y-88022626D02*
X190114225Y-87951198D01*
X190114225Y-87951198D02*
X190185653Y-87808341D01*
X190185653Y-87808341D02*
X190328511Y-87736912D01*
X190328511Y-87736912D02*
X190542796Y-87736912D01*
X190542796Y-87736912D02*
X190685653Y-87808341D01*
X173757082Y-91080400D02*
X173971368Y-91151828D01*
X173971368Y-91151828D02*
X174328510Y-91151828D01*
X174328510Y-91151828D02*
X174471368Y-91080400D01*
X174471368Y-91080400D02*
X174542796Y-91008971D01*
X174542796Y-91008971D02*
X174614225Y-90866114D01*
X174614225Y-90866114D02*
X174614225Y-90723257D01*
X174614225Y-90723257D02*
X174542796Y-90580400D01*
X174542796Y-90580400D02*
X174471368Y-90508971D01*
X174471368Y-90508971D02*
X174328510Y-90437542D01*
X174328510Y-90437542D02*
X174042796Y-90366114D01*
X174042796Y-90366114D02*
X173899939Y-90294685D01*
X173899939Y-90294685D02*
X173828510Y-90223257D01*
X173828510Y-90223257D02*
X173757082Y-90080400D01*
X173757082Y-90080400D02*
X173757082Y-89937542D01*
X173757082Y-89937542D02*
X173828510Y-89794685D01*
X173828510Y-89794685D02*
X173899939Y-89723257D01*
X173899939Y-89723257D02*
X174042796Y-89651828D01*
X174042796Y-89651828D02*
X174399939Y-89651828D01*
X174399939Y-89651828D02*
X174614225Y-89723257D01*
X175114224Y-90151828D02*
X175899939Y-90151828D01*
X175899939Y-90151828D02*
X175114224Y-91151828D01*
X175114224Y-91151828D02*
X175899939Y-91151828D01*
X176471367Y-91151828D02*
X176471367Y-90151828D01*
X176471367Y-89651828D02*
X176399939Y-89723257D01*
X176399939Y-89723257D02*
X176471367Y-89794685D01*
X176471367Y-89794685D02*
X176542796Y-89723257D01*
X176542796Y-89723257D02*
X176471367Y-89651828D01*
X176471367Y-89651828D02*
X176471367Y-89794685D01*
X177399939Y-91151828D02*
X177257082Y-91080400D01*
X177257082Y-91080400D02*
X177185653Y-90937542D01*
X177185653Y-90937542D02*
X177185653Y-89651828D01*
X178614225Y-91151828D02*
X178614225Y-90366114D01*
X178614225Y-90366114D02*
X178542796Y-90223257D01*
X178542796Y-90223257D02*
X178399939Y-90151828D01*
X178399939Y-90151828D02*
X178114225Y-90151828D01*
X178114225Y-90151828D02*
X177971367Y-90223257D01*
X178614225Y-91080400D02*
X178471367Y-91151828D01*
X178471367Y-91151828D02*
X178114225Y-91151828D01*
X178114225Y-91151828D02*
X177971367Y-91080400D01*
X177971367Y-91080400D02*
X177899939Y-90937542D01*
X177899939Y-90937542D02*
X177899939Y-90794685D01*
X177899939Y-90794685D02*
X177971367Y-90651828D01*
X177971367Y-90651828D02*
X178114225Y-90580400D01*
X178114225Y-90580400D02*
X178471367Y-90580400D01*
X178471367Y-90580400D02*
X178614225Y-90508971D01*
X178399939Y-89580400D02*
X178185653Y-89794685D01*
X179971368Y-90151828D02*
X179971368Y-91366114D01*
X179971368Y-91366114D02*
X179899939Y-91508971D01*
X179899939Y-91508971D02*
X179828510Y-91580400D01*
X179828510Y-91580400D02*
X179685653Y-91651828D01*
X179685653Y-91651828D02*
X179471368Y-91651828D01*
X179471368Y-91651828D02*
X179328510Y-91580400D01*
X179971368Y-91080400D02*
X179828510Y-91151828D01*
X179828510Y-91151828D02*
X179542796Y-91151828D01*
X179542796Y-91151828D02*
X179399939Y-91080400D01*
X179399939Y-91080400D02*
X179328510Y-91008971D01*
X179328510Y-91008971D02*
X179257082Y-90866114D01*
X179257082Y-90866114D02*
X179257082Y-90437542D01*
X179257082Y-90437542D02*
X179328510Y-90294685D01*
X179328510Y-90294685D02*
X179399939Y-90223257D01*
X179399939Y-90223257D02*
X179542796Y-90151828D01*
X179542796Y-90151828D02*
X179828510Y-90151828D01*
X179828510Y-90151828D02*
X179971368Y-90223257D01*
X180542796Y-90151828D02*
X180899939Y-91151828D01*
X181257082Y-90151828D02*
X180899939Y-91151828D01*
X180899939Y-91151828D02*
X180757082Y-91508971D01*
X180757082Y-91508971D02*
X180685653Y-91580400D01*
X180685653Y-91580400D02*
X180542796Y-91651828D01*
X181828510Y-91151828D02*
X181828510Y-90151828D01*
X181828510Y-89651828D02*
X181757082Y-89723257D01*
X181757082Y-89723257D02*
X181828510Y-89794685D01*
X181828510Y-89794685D02*
X181899939Y-89723257D01*
X181899939Y-89723257D02*
X181828510Y-89651828D01*
X181828510Y-89651828D02*
X181828510Y-89794685D01*
X183685653Y-91151828D02*
X183685653Y-89651828D01*
X183685653Y-89651828D02*
X184257082Y-89651828D01*
X184257082Y-89651828D02*
X184399939Y-89723257D01*
X184399939Y-89723257D02*
X184471368Y-89794685D01*
X184471368Y-89794685D02*
X184542796Y-89937542D01*
X184542796Y-89937542D02*
X184542796Y-90151828D01*
X184542796Y-90151828D02*
X184471368Y-90294685D01*
X184471368Y-90294685D02*
X184399939Y-90366114D01*
X184399939Y-90366114D02*
X184257082Y-90437542D01*
X184257082Y-90437542D02*
X183685653Y-90437542D01*
X185757082Y-91080400D02*
X185614225Y-91151828D01*
X185614225Y-91151828D02*
X185328511Y-91151828D01*
X185328511Y-91151828D02*
X185185653Y-91080400D01*
X185185653Y-91080400D02*
X185114225Y-90937542D01*
X185114225Y-90937542D02*
X185114225Y-90366114D01*
X185114225Y-90366114D02*
X185185653Y-90223257D01*
X185185653Y-90223257D02*
X185328511Y-90151828D01*
X185328511Y-90151828D02*
X185614225Y-90151828D01*
X185614225Y-90151828D02*
X185757082Y-90223257D01*
X185757082Y-90223257D02*
X185828511Y-90366114D01*
X185828511Y-90366114D02*
X185828511Y-90508971D01*
X185828511Y-90508971D02*
X185114225Y-90651828D01*
X185614225Y-89580400D02*
X185399939Y-89794685D01*
X186257082Y-90151828D02*
X186828510Y-90151828D01*
X186471367Y-89651828D02*
X186471367Y-90937542D01*
X186471367Y-90937542D02*
X186542796Y-91080400D01*
X186542796Y-91080400D02*
X186685653Y-91151828D01*
X186685653Y-91151828D02*
X186828510Y-91151828D01*
X187899939Y-91080400D02*
X187757082Y-91151828D01*
X187757082Y-91151828D02*
X187471368Y-91151828D01*
X187471368Y-91151828D02*
X187328510Y-91080400D01*
X187328510Y-91080400D02*
X187257082Y-90937542D01*
X187257082Y-90937542D02*
X187257082Y-90366114D01*
X187257082Y-90366114D02*
X187328510Y-90223257D01*
X187328510Y-90223257D02*
X187471368Y-90151828D01*
X187471368Y-90151828D02*
X187757082Y-90151828D01*
X187757082Y-90151828D02*
X187899939Y-90223257D01*
X187899939Y-90223257D02*
X187971368Y-90366114D01*
X187971368Y-90366114D02*
X187971368Y-90508971D01*
X187971368Y-90508971D02*
X187257082Y-90651828D01*
X188614224Y-91151828D02*
X188614224Y-90151828D01*
X188614224Y-90437542D02*
X188685653Y-90294685D01*
X188685653Y-90294685D02*
X188757082Y-90223257D01*
X188757082Y-90223257D02*
X188899939Y-90151828D01*
X188899939Y-90151828D02*
X189042796Y-90151828D01*
D10*
X136570112Y-45546009D02*
X136712969Y-45593628D01*
X136712969Y-45593628D02*
X136760588Y-45641247D01*
X136760588Y-45641247D02*
X136808207Y-45736485D01*
X136808207Y-45736485D02*
X136808207Y-45879342D01*
X136808207Y-45879342D02*
X136760588Y-45974580D01*
X136760588Y-45974580D02*
X136712969Y-46022200D01*
X136712969Y-46022200D02*
X136617731Y-46069819D01*
X136617731Y-46069819D02*
X136236779Y-46069819D01*
X136236779Y-46069819D02*
X136236779Y-45069819D01*
X136236779Y-45069819D02*
X136570112Y-45069819D01*
X136570112Y-45069819D02*
X136665350Y-45117438D01*
X136665350Y-45117438D02*
X136712969Y-45165057D01*
X136712969Y-45165057D02*
X136760588Y-45260295D01*
X136760588Y-45260295D02*
X136760588Y-45355533D01*
X136760588Y-45355533D02*
X136712969Y-45450771D01*
X136712969Y-45450771D02*
X136665350Y-45498390D01*
X136665350Y-45498390D02*
X136570112Y-45546009D01*
X136570112Y-45546009D02*
X136236779Y-45546009D01*
X137665350Y-46069819D02*
X137665350Y-45546009D01*
X137665350Y-45546009D02*
X137617731Y-45450771D01*
X137617731Y-45450771D02*
X137522493Y-45403152D01*
X137522493Y-45403152D02*
X137332017Y-45403152D01*
X137332017Y-45403152D02*
X137236779Y-45450771D01*
X137665350Y-46022200D02*
X137570112Y-46069819D01*
X137570112Y-46069819D02*
X137332017Y-46069819D01*
X137332017Y-46069819D02*
X137236779Y-46022200D01*
X137236779Y-46022200D02*
X137189160Y-45926961D01*
X137189160Y-45926961D02*
X137189160Y-45831723D01*
X137189160Y-45831723D02*
X137236779Y-45736485D01*
X137236779Y-45736485D02*
X137332017Y-45688866D01*
X137332017Y-45688866D02*
X137570112Y-45688866D01*
X137570112Y-45688866D02*
X137665350Y-45641247D01*
X137998684Y-45403152D02*
X138379636Y-45403152D01*
X138141541Y-45069819D02*
X138141541Y-45926961D01*
X138141541Y-45926961D02*
X138189160Y-46022200D01*
X138189160Y-46022200D02*
X138284398Y-46069819D01*
X138284398Y-46069819D02*
X138379636Y-46069819D01*
X138570113Y-45403152D02*
X138951065Y-45403152D01*
X138712970Y-45069819D02*
X138712970Y-45926961D01*
X138712970Y-45926961D02*
X138760589Y-46022200D01*
X138760589Y-46022200D02*
X138855827Y-46069819D01*
X138855827Y-46069819D02*
X138951065Y-46069819D01*
X139665351Y-46022200D02*
X139570113Y-46069819D01*
X139570113Y-46069819D02*
X139379637Y-46069819D01*
X139379637Y-46069819D02*
X139284399Y-46022200D01*
X139284399Y-46022200D02*
X139236780Y-45926961D01*
X139236780Y-45926961D02*
X139236780Y-45546009D01*
X139236780Y-45546009D02*
X139284399Y-45450771D01*
X139284399Y-45450771D02*
X139379637Y-45403152D01*
X139379637Y-45403152D02*
X139570113Y-45403152D01*
X139570113Y-45403152D02*
X139665351Y-45450771D01*
X139665351Y-45450771D02*
X139712970Y-45546009D01*
X139712970Y-45546009D02*
X139712970Y-45641247D01*
X139712970Y-45641247D02*
X139236780Y-45736485D01*
X140141542Y-46069819D02*
X140141542Y-45403152D01*
X140141542Y-45593628D02*
X140189161Y-45498390D01*
X140189161Y-45498390D02*
X140236780Y-45450771D01*
X140236780Y-45450771D02*
X140332018Y-45403152D01*
X140332018Y-45403152D02*
X140427256Y-45403152D01*
X140665352Y-45403152D02*
X140903447Y-46069819D01*
X141141542Y-45403152D02*
X140903447Y-46069819D01*
X140903447Y-46069819D02*
X140808209Y-46307914D01*
X140808209Y-46307914D02*
X140760590Y-46355533D01*
X140760590Y-46355533D02*
X140665352Y-46403152D01*
X233048580Y-76042792D02*
X233096200Y-76090411D01*
X233096200Y-76090411D02*
X233143819Y-76233268D01*
X233143819Y-76233268D02*
X233143819Y-76328506D01*
X233143819Y-76328506D02*
X233096200Y-76471363D01*
X233096200Y-76471363D02*
X233000961Y-76566601D01*
X233000961Y-76566601D02*
X232905723Y-76614220D01*
X232905723Y-76614220D02*
X232715247Y-76661839D01*
X232715247Y-76661839D02*
X232572390Y-76661839D01*
X232572390Y-76661839D02*
X232381914Y-76614220D01*
X232381914Y-76614220D02*
X232286676Y-76566601D01*
X232286676Y-76566601D02*
X232191438Y-76471363D01*
X232191438Y-76471363D02*
X232143819Y-76328506D01*
X232143819Y-76328506D02*
X232143819Y-76233268D01*
X232143819Y-76233268D02*
X232191438Y-76090411D01*
X232191438Y-76090411D02*
X232239057Y-76042792D01*
X233143819Y-75614220D02*
X232143819Y-75614220D01*
X233143819Y-75185649D02*
X232620009Y-75185649D01*
X232620009Y-75185649D02*
X232524771Y-75233268D01*
X232524771Y-75233268D02*
X232477152Y-75328506D01*
X232477152Y-75328506D02*
X232477152Y-75471363D01*
X232477152Y-75471363D02*
X232524771Y-75566601D01*
X232524771Y-75566601D02*
X232572390Y-75614220D01*
X233143819Y-74280887D02*
X232620009Y-74280887D01*
X232620009Y-74280887D02*
X232524771Y-74328506D01*
X232524771Y-74328506D02*
X232477152Y-74423744D01*
X232477152Y-74423744D02*
X232477152Y-74614220D01*
X232477152Y-74614220D02*
X232524771Y-74709458D01*
X233096200Y-74280887D02*
X233143819Y-74376125D01*
X233143819Y-74376125D02*
X233143819Y-74614220D01*
X233143819Y-74614220D02*
X233096200Y-74709458D01*
X233096200Y-74709458D02*
X233000961Y-74757077D01*
X233000961Y-74757077D02*
X232905723Y-74757077D01*
X232905723Y-74757077D02*
X232810485Y-74709458D01*
X232810485Y-74709458D02*
X232762866Y-74614220D01*
X232762866Y-74614220D02*
X232762866Y-74376125D01*
X232762866Y-74376125D02*
X232715247Y-74280887D01*
X233143819Y-73804696D02*
X232477152Y-73804696D01*
X232667628Y-73804696D02*
X232572390Y-73757077D01*
X232572390Y-73757077D02*
X232524771Y-73709458D01*
X232524771Y-73709458D02*
X232477152Y-73614220D01*
X232477152Y-73614220D02*
X232477152Y-73518982D01*
X232477152Y-72757077D02*
X233286676Y-72757077D01*
X233286676Y-72757077D02*
X233381914Y-72804696D01*
X233381914Y-72804696D02*
X233429533Y-72852315D01*
X233429533Y-72852315D02*
X233477152Y-72947553D01*
X233477152Y-72947553D02*
X233477152Y-73090410D01*
X233477152Y-73090410D02*
X233429533Y-73185648D01*
X233096200Y-72757077D02*
X233143819Y-72852315D01*
X233143819Y-72852315D02*
X233143819Y-73042791D01*
X233143819Y-73042791D02*
X233096200Y-73138029D01*
X233096200Y-73138029D02*
X233048580Y-73185648D01*
X233048580Y-73185648D02*
X232953342Y-73233267D01*
X232953342Y-73233267D02*
X232667628Y-73233267D01*
X232667628Y-73233267D02*
X232572390Y-73185648D01*
X232572390Y-73185648D02*
X232524771Y-73138029D01*
X232524771Y-73138029D02*
X232477152Y-73042791D01*
X232477152Y-73042791D02*
X232477152Y-72852315D01*
X232477152Y-72852315D02*
X232524771Y-72757077D01*
X233143819Y-72280886D02*
X232477152Y-72280886D01*
X232143819Y-72280886D02*
X232191438Y-72328505D01*
X232191438Y-72328505D02*
X232239057Y-72280886D01*
X232239057Y-72280886D02*
X232191438Y-72233267D01*
X232191438Y-72233267D02*
X232143819Y-72280886D01*
X232143819Y-72280886D02*
X232239057Y-72280886D01*
X232477152Y-71804696D02*
X233143819Y-71804696D01*
X232572390Y-71804696D02*
X232524771Y-71757077D01*
X232524771Y-71757077D02*
X232477152Y-71661839D01*
X232477152Y-71661839D02*
X232477152Y-71518982D01*
X232477152Y-71518982D02*
X232524771Y-71423744D01*
X232524771Y-71423744D02*
X232620009Y-71376125D01*
X232620009Y-71376125D02*
X233143819Y-71376125D01*
X232477152Y-70471363D02*
X233286676Y-70471363D01*
X233286676Y-70471363D02*
X233381914Y-70518982D01*
X233381914Y-70518982D02*
X233429533Y-70566601D01*
X233429533Y-70566601D02*
X233477152Y-70661839D01*
X233477152Y-70661839D02*
X233477152Y-70804696D01*
X233477152Y-70804696D02*
X233429533Y-70899934D01*
X233096200Y-70471363D02*
X233143819Y-70566601D01*
X233143819Y-70566601D02*
X233143819Y-70757077D01*
X233143819Y-70757077D02*
X233096200Y-70852315D01*
X233096200Y-70852315D02*
X233048580Y-70899934D01*
X233048580Y-70899934D02*
X232953342Y-70947553D01*
X232953342Y-70947553D02*
X232667628Y-70947553D01*
X232667628Y-70947553D02*
X232572390Y-70899934D01*
X232572390Y-70899934D02*
X232524771Y-70852315D01*
X232524771Y-70852315D02*
X232477152Y-70757077D01*
X232477152Y-70757077D02*
X232477152Y-70566601D01*
X232477152Y-70566601D02*
X232524771Y-70471363D01*
X104643819Y-104514220D02*
X103643819Y-104514220D01*
X103643819Y-104514220D02*
X103643819Y-104276125D01*
X103643819Y-104276125D02*
X103691438Y-104133268D01*
X103691438Y-104133268D02*
X103786676Y-104038030D01*
X103786676Y-104038030D02*
X103881914Y-103990411D01*
X103881914Y-103990411D02*
X104072390Y-103942792D01*
X104072390Y-103942792D02*
X104215247Y-103942792D01*
X104215247Y-103942792D02*
X104405723Y-103990411D01*
X104405723Y-103990411D02*
X104500961Y-104038030D01*
X104500961Y-104038030D02*
X104596200Y-104133268D01*
X104596200Y-104133268D02*
X104643819Y-104276125D01*
X104643819Y-104276125D02*
X104643819Y-104514220D01*
X104643819Y-103514220D02*
X103643819Y-103514220D01*
X104120009Y-103514220D02*
X104120009Y-102942792D01*
X104643819Y-102942792D02*
X103643819Y-102942792D01*
X103643819Y-102609458D02*
X103643819Y-102038030D01*
X104643819Y-102323744D02*
X103643819Y-102323744D01*
X103739057Y-101752315D02*
X103691438Y-101704696D01*
X103691438Y-101704696D02*
X103643819Y-101609458D01*
X103643819Y-101609458D02*
X103643819Y-101371363D01*
X103643819Y-101371363D02*
X103691438Y-101276125D01*
X103691438Y-101276125D02*
X103739057Y-101228506D01*
X103739057Y-101228506D02*
X103834295Y-101180887D01*
X103834295Y-101180887D02*
X103929533Y-101180887D01*
X103929533Y-101180887D02*
X104072390Y-101228506D01*
X104072390Y-101228506D02*
X104643819Y-101799934D01*
X104643819Y-101799934D02*
X104643819Y-101180887D01*
X103739057Y-100799934D02*
X103691438Y-100752315D01*
X103691438Y-100752315D02*
X103643819Y-100657077D01*
X103643819Y-100657077D02*
X103643819Y-100418982D01*
X103643819Y-100418982D02*
X103691438Y-100323744D01*
X103691438Y-100323744D02*
X103739057Y-100276125D01*
X103739057Y-100276125D02*
X103834295Y-100228506D01*
X103834295Y-100228506D02*
X103929533Y-100228506D01*
X103929533Y-100228506D02*
X104072390Y-100276125D01*
X104072390Y-100276125D02*
X104643819Y-100847553D01*
X104643819Y-100847553D02*
X104643819Y-100228506D01*
X199843819Y-118314220D02*
X198843819Y-118314220D01*
X198843819Y-118314220D02*
X198843819Y-117933268D01*
X198843819Y-117933268D02*
X198891438Y-117838030D01*
X198891438Y-117838030D02*
X198939057Y-117790411D01*
X198939057Y-117790411D02*
X199034295Y-117742792D01*
X199034295Y-117742792D02*
X199177152Y-117742792D01*
X199177152Y-117742792D02*
X199272390Y-117790411D01*
X199272390Y-117790411D02*
X199320009Y-117838030D01*
X199320009Y-117838030D02*
X199367628Y-117933268D01*
X199367628Y-117933268D02*
X199367628Y-118314220D01*
X199843819Y-117171363D02*
X199796200Y-117266601D01*
X199796200Y-117266601D02*
X199748580Y-117314220D01*
X199748580Y-117314220D02*
X199653342Y-117361839D01*
X199653342Y-117361839D02*
X199367628Y-117361839D01*
X199367628Y-117361839D02*
X199272390Y-117314220D01*
X199272390Y-117314220D02*
X199224771Y-117266601D01*
X199224771Y-117266601D02*
X199177152Y-117171363D01*
X199177152Y-117171363D02*
X199177152Y-117028506D01*
X199177152Y-117028506D02*
X199224771Y-116933268D01*
X199224771Y-116933268D02*
X199272390Y-116885649D01*
X199272390Y-116885649D02*
X199367628Y-116838030D01*
X199367628Y-116838030D02*
X199653342Y-116838030D01*
X199653342Y-116838030D02*
X199748580Y-116885649D01*
X199748580Y-116885649D02*
X199796200Y-116933268D01*
X199796200Y-116933268D02*
X199843819Y-117028506D01*
X199843819Y-117028506D02*
X199843819Y-117171363D01*
X199177152Y-116504696D02*
X199843819Y-116314220D01*
X199843819Y-116314220D02*
X199367628Y-116123744D01*
X199367628Y-116123744D02*
X199843819Y-115933268D01*
X199843819Y-115933268D02*
X199177152Y-115742792D01*
X199796200Y-114980887D02*
X199843819Y-115076125D01*
X199843819Y-115076125D02*
X199843819Y-115266601D01*
X199843819Y-115266601D02*
X199796200Y-115361839D01*
X199796200Y-115361839D02*
X199700961Y-115409458D01*
X199700961Y-115409458D02*
X199320009Y-115409458D01*
X199320009Y-115409458D02*
X199224771Y-115361839D01*
X199224771Y-115361839D02*
X199177152Y-115266601D01*
X199177152Y-115266601D02*
X199177152Y-115076125D01*
X199177152Y-115076125D02*
X199224771Y-114980887D01*
X199224771Y-114980887D02*
X199320009Y-114933268D01*
X199320009Y-114933268D02*
X199415247Y-114933268D01*
X199415247Y-114933268D02*
X199510485Y-115409458D01*
X199843819Y-114504696D02*
X199177152Y-114504696D01*
X199367628Y-114504696D02*
X199272390Y-114457077D01*
X199272390Y-114457077D02*
X199224771Y-114409458D01*
X199224771Y-114409458D02*
X199177152Y-114314220D01*
X199177152Y-114314220D02*
X199177152Y-114218982D01*
X204210779Y-58020819D02*
X204210779Y-58830342D01*
X204210779Y-58830342D02*
X204258398Y-58925580D01*
X204258398Y-58925580D02*
X204306017Y-58973200D01*
X204306017Y-58973200D02*
X204401255Y-59020819D01*
X204401255Y-59020819D02*
X204591731Y-59020819D01*
X204591731Y-59020819D02*
X204686969Y-58973200D01*
X204686969Y-58973200D02*
X204734588Y-58925580D01*
X204734588Y-58925580D02*
X204782207Y-58830342D01*
X204782207Y-58830342D02*
X204782207Y-58020819D01*
X205210779Y-58973200D02*
X205353636Y-59020819D01*
X205353636Y-59020819D02*
X205591731Y-59020819D01*
X205591731Y-59020819D02*
X205686969Y-58973200D01*
X205686969Y-58973200D02*
X205734588Y-58925580D01*
X205734588Y-58925580D02*
X205782207Y-58830342D01*
X205782207Y-58830342D02*
X205782207Y-58735104D01*
X205782207Y-58735104D02*
X205734588Y-58639866D01*
X205734588Y-58639866D02*
X205686969Y-58592247D01*
X205686969Y-58592247D02*
X205591731Y-58544628D01*
X205591731Y-58544628D02*
X205401255Y-58497009D01*
X205401255Y-58497009D02*
X205306017Y-58449390D01*
X205306017Y-58449390D02*
X205258398Y-58401771D01*
X205258398Y-58401771D02*
X205210779Y-58306533D01*
X205210779Y-58306533D02*
X205210779Y-58211295D01*
X205210779Y-58211295D02*
X205258398Y-58116057D01*
X205258398Y-58116057D02*
X205306017Y-58068438D01*
X205306017Y-58068438D02*
X205401255Y-58020819D01*
X205401255Y-58020819D02*
X205639350Y-58020819D01*
X205639350Y-58020819D02*
X205782207Y-58068438D01*
X206544112Y-58497009D02*
X206686969Y-58544628D01*
X206686969Y-58544628D02*
X206734588Y-58592247D01*
X206734588Y-58592247D02*
X206782207Y-58687485D01*
X206782207Y-58687485D02*
X206782207Y-58830342D01*
X206782207Y-58830342D02*
X206734588Y-58925580D01*
X206734588Y-58925580D02*
X206686969Y-58973200D01*
X206686969Y-58973200D02*
X206591731Y-59020819D01*
X206591731Y-59020819D02*
X206210779Y-59020819D01*
X206210779Y-59020819D02*
X206210779Y-58020819D01*
X206210779Y-58020819D02*
X206544112Y-58020819D01*
X206544112Y-58020819D02*
X206639350Y-58068438D01*
X206639350Y-58068438D02*
X206686969Y-58116057D01*
X206686969Y-58116057D02*
X206734588Y-58211295D01*
X206734588Y-58211295D02*
X206734588Y-58306533D01*
X206734588Y-58306533D02*
X206686969Y-58401771D01*
X206686969Y-58401771D02*
X206639350Y-58449390D01*
X206639350Y-58449390D02*
X206544112Y-58497009D01*
X206544112Y-58497009D02*
X206210779Y-58497009D01*
X233348580Y-88042792D02*
X233396200Y-88090411D01*
X233396200Y-88090411D02*
X233443819Y-88233268D01*
X233443819Y-88233268D02*
X233443819Y-88328506D01*
X233443819Y-88328506D02*
X233396200Y-88471363D01*
X233396200Y-88471363D02*
X233300961Y-88566601D01*
X233300961Y-88566601D02*
X233205723Y-88614220D01*
X233205723Y-88614220D02*
X233015247Y-88661839D01*
X233015247Y-88661839D02*
X232872390Y-88661839D01*
X232872390Y-88661839D02*
X232681914Y-88614220D01*
X232681914Y-88614220D02*
X232586676Y-88566601D01*
X232586676Y-88566601D02*
X232491438Y-88471363D01*
X232491438Y-88471363D02*
X232443819Y-88328506D01*
X232443819Y-88328506D02*
X232443819Y-88233268D01*
X232443819Y-88233268D02*
X232491438Y-88090411D01*
X232491438Y-88090411D02*
X232539057Y-88042792D01*
X233443819Y-87614220D02*
X232443819Y-87614220D01*
X233443819Y-87185649D02*
X232920009Y-87185649D01*
X232920009Y-87185649D02*
X232824771Y-87233268D01*
X232824771Y-87233268D02*
X232777152Y-87328506D01*
X232777152Y-87328506D02*
X232777152Y-87471363D01*
X232777152Y-87471363D02*
X232824771Y-87566601D01*
X232824771Y-87566601D02*
X232872390Y-87614220D01*
X233443819Y-86280887D02*
X232920009Y-86280887D01*
X232920009Y-86280887D02*
X232824771Y-86328506D01*
X232824771Y-86328506D02*
X232777152Y-86423744D01*
X232777152Y-86423744D02*
X232777152Y-86614220D01*
X232777152Y-86614220D02*
X232824771Y-86709458D01*
X233396200Y-86280887D02*
X233443819Y-86376125D01*
X233443819Y-86376125D02*
X233443819Y-86614220D01*
X233443819Y-86614220D02*
X233396200Y-86709458D01*
X233396200Y-86709458D02*
X233300961Y-86757077D01*
X233300961Y-86757077D02*
X233205723Y-86757077D01*
X233205723Y-86757077D02*
X233110485Y-86709458D01*
X233110485Y-86709458D02*
X233062866Y-86614220D01*
X233062866Y-86614220D02*
X233062866Y-86376125D01*
X233062866Y-86376125D02*
X233015247Y-86280887D01*
X233443819Y-85804696D02*
X232777152Y-85804696D01*
X232967628Y-85804696D02*
X232872390Y-85757077D01*
X232872390Y-85757077D02*
X232824771Y-85709458D01*
X232824771Y-85709458D02*
X232777152Y-85614220D01*
X232777152Y-85614220D02*
X232777152Y-85518982D01*
X232777152Y-84757077D02*
X233586676Y-84757077D01*
X233586676Y-84757077D02*
X233681914Y-84804696D01*
X233681914Y-84804696D02*
X233729533Y-84852315D01*
X233729533Y-84852315D02*
X233777152Y-84947553D01*
X233777152Y-84947553D02*
X233777152Y-85090410D01*
X233777152Y-85090410D02*
X233729533Y-85185648D01*
X233396200Y-84757077D02*
X233443819Y-84852315D01*
X233443819Y-84852315D02*
X233443819Y-85042791D01*
X233443819Y-85042791D02*
X233396200Y-85138029D01*
X233396200Y-85138029D02*
X233348580Y-85185648D01*
X233348580Y-85185648D02*
X233253342Y-85233267D01*
X233253342Y-85233267D02*
X232967628Y-85233267D01*
X232967628Y-85233267D02*
X232872390Y-85185648D01*
X232872390Y-85185648D02*
X232824771Y-85138029D01*
X232824771Y-85138029D02*
X232777152Y-85042791D01*
X232777152Y-85042791D02*
X232777152Y-84852315D01*
X232777152Y-84852315D02*
X232824771Y-84757077D01*
X233396200Y-83899934D02*
X233443819Y-83995172D01*
X233443819Y-83995172D02*
X233443819Y-84185648D01*
X233443819Y-84185648D02*
X233396200Y-84280886D01*
X233396200Y-84280886D02*
X233300961Y-84328505D01*
X233300961Y-84328505D02*
X232920009Y-84328505D01*
X232920009Y-84328505D02*
X232824771Y-84280886D01*
X232824771Y-84280886D02*
X232777152Y-84185648D01*
X232777152Y-84185648D02*
X232777152Y-83995172D01*
X232777152Y-83995172D02*
X232824771Y-83899934D01*
X232824771Y-83899934D02*
X232920009Y-83852315D01*
X232920009Y-83852315D02*
X233015247Y-83852315D01*
X233015247Y-83852315D02*
X233110485Y-84328505D01*
X101915541Y-73120819D02*
X102582207Y-73120819D01*
X102582207Y-73120819D02*
X101915541Y-74120819D01*
X101915541Y-74120819D02*
X102582207Y-74120819D01*
X102963160Y-74120819D02*
X102963160Y-73454152D01*
X102963160Y-73120819D02*
X102915541Y-73168438D01*
X102915541Y-73168438D02*
X102963160Y-73216057D01*
X102963160Y-73216057D02*
X103010779Y-73168438D01*
X103010779Y-73168438D02*
X102963160Y-73120819D01*
X102963160Y-73120819D02*
X102963160Y-73216057D01*
X103867921Y-73454152D02*
X103867921Y-74263676D01*
X103867921Y-74263676D02*
X103820302Y-74358914D01*
X103820302Y-74358914D02*
X103772683Y-74406533D01*
X103772683Y-74406533D02*
X103677445Y-74454152D01*
X103677445Y-74454152D02*
X103534588Y-74454152D01*
X103534588Y-74454152D02*
X103439350Y-74406533D01*
X103867921Y-74073200D02*
X103772683Y-74120819D01*
X103772683Y-74120819D02*
X103582207Y-74120819D01*
X103582207Y-74120819D02*
X103486969Y-74073200D01*
X103486969Y-74073200D02*
X103439350Y-74025580D01*
X103439350Y-74025580D02*
X103391731Y-73930342D01*
X103391731Y-73930342D02*
X103391731Y-73644628D01*
X103391731Y-73644628D02*
X103439350Y-73549390D01*
X103439350Y-73549390D02*
X103486969Y-73501771D01*
X103486969Y-73501771D02*
X103582207Y-73454152D01*
X103582207Y-73454152D02*
X103772683Y-73454152D01*
X103772683Y-73454152D02*
X103867921Y-73501771D01*
X104344112Y-74120819D02*
X104344112Y-73120819D01*
X104344112Y-73501771D02*
X104439350Y-73454152D01*
X104439350Y-73454152D02*
X104629826Y-73454152D01*
X104629826Y-73454152D02*
X104725064Y-73501771D01*
X104725064Y-73501771D02*
X104772683Y-73549390D01*
X104772683Y-73549390D02*
X104820302Y-73644628D01*
X104820302Y-73644628D02*
X104820302Y-73930342D01*
X104820302Y-73930342D02*
X104772683Y-74025580D01*
X104772683Y-74025580D02*
X104725064Y-74073200D01*
X104725064Y-74073200D02*
X104629826Y-74120819D01*
X104629826Y-74120819D02*
X104439350Y-74120819D01*
X104439350Y-74120819D02*
X104344112Y-74073200D01*
X105629826Y-74073200D02*
X105534588Y-74120819D01*
X105534588Y-74120819D02*
X105344112Y-74120819D01*
X105344112Y-74120819D02*
X105248874Y-74073200D01*
X105248874Y-74073200D02*
X105201255Y-73977961D01*
X105201255Y-73977961D02*
X105201255Y-73597009D01*
X105201255Y-73597009D02*
X105248874Y-73501771D01*
X105248874Y-73501771D02*
X105344112Y-73454152D01*
X105344112Y-73454152D02*
X105534588Y-73454152D01*
X105534588Y-73454152D02*
X105629826Y-73501771D01*
X105629826Y-73501771D02*
X105677445Y-73597009D01*
X105677445Y-73597009D02*
X105677445Y-73692247D01*
X105677445Y-73692247D02*
X105201255Y-73787485D01*
X106486969Y-74073200D02*
X106391731Y-74120819D01*
X106391731Y-74120819D02*
X106201255Y-74120819D01*
X106201255Y-74120819D02*
X106106017Y-74073200D01*
X106106017Y-74073200D02*
X106058398Y-73977961D01*
X106058398Y-73977961D02*
X106058398Y-73597009D01*
X106058398Y-73597009D02*
X106106017Y-73501771D01*
X106106017Y-73501771D02*
X106201255Y-73454152D01*
X106201255Y-73454152D02*
X106391731Y-73454152D01*
X106391731Y-73454152D02*
X106486969Y-73501771D01*
X106486969Y-73501771D02*
X106534588Y-73597009D01*
X106534588Y-73597009D02*
X106534588Y-73692247D01*
X106534588Y-73692247D02*
X106058398Y-73787485D01*
X107725065Y-73120819D02*
X107725065Y-73930342D01*
X107725065Y-73930342D02*
X107772684Y-74025580D01*
X107772684Y-74025580D02*
X107820303Y-74073200D01*
X107820303Y-74073200D02*
X107915541Y-74120819D01*
X107915541Y-74120819D02*
X108106017Y-74120819D01*
X108106017Y-74120819D02*
X108201255Y-74073200D01*
X108201255Y-74073200D02*
X108248874Y-74025580D01*
X108248874Y-74025580D02*
X108296493Y-73930342D01*
X108296493Y-73930342D02*
X108296493Y-73120819D01*
X108772684Y-73597009D02*
X109106017Y-73597009D01*
X109248874Y-74120819D02*
X108772684Y-74120819D01*
X108772684Y-74120819D02*
X108772684Y-73120819D01*
X108772684Y-73120819D02*
X109248874Y-73120819D01*
X109582208Y-73120819D02*
X110248874Y-74120819D01*
X110248874Y-73120819D02*
X109582208Y-74120819D01*
X110486970Y-73120819D02*
X111058398Y-73120819D01*
X110772684Y-74120819D02*
X110772684Y-73120819D01*
X111543819Y-120142792D02*
X111067628Y-120476125D01*
X111543819Y-120714220D02*
X110543819Y-120714220D01*
X110543819Y-120714220D02*
X110543819Y-120333268D01*
X110543819Y-120333268D02*
X110591438Y-120238030D01*
X110591438Y-120238030D02*
X110639057Y-120190411D01*
X110639057Y-120190411D02*
X110734295Y-120142792D01*
X110734295Y-120142792D02*
X110877152Y-120142792D01*
X110877152Y-120142792D02*
X110972390Y-120190411D01*
X110972390Y-120190411D02*
X111020009Y-120238030D01*
X111020009Y-120238030D02*
X111067628Y-120333268D01*
X111067628Y-120333268D02*
X111067628Y-120714220D01*
X111020009Y-119714220D02*
X111020009Y-119380887D01*
X111543819Y-119238030D02*
X111543819Y-119714220D01*
X111543819Y-119714220D02*
X110543819Y-119714220D01*
X110543819Y-119714220D02*
X110543819Y-119238030D01*
X111496200Y-118857077D02*
X111543819Y-118714220D01*
X111543819Y-118714220D02*
X111543819Y-118476125D01*
X111543819Y-118476125D02*
X111496200Y-118380887D01*
X111496200Y-118380887D02*
X111448580Y-118333268D01*
X111448580Y-118333268D02*
X111353342Y-118285649D01*
X111353342Y-118285649D02*
X111258104Y-118285649D01*
X111258104Y-118285649D02*
X111162866Y-118333268D01*
X111162866Y-118333268D02*
X111115247Y-118380887D01*
X111115247Y-118380887D02*
X111067628Y-118476125D01*
X111067628Y-118476125D02*
X111020009Y-118666601D01*
X111020009Y-118666601D02*
X110972390Y-118761839D01*
X110972390Y-118761839D02*
X110924771Y-118809458D01*
X110924771Y-118809458D02*
X110829533Y-118857077D01*
X110829533Y-118857077D02*
X110734295Y-118857077D01*
X110734295Y-118857077D02*
X110639057Y-118809458D01*
X110639057Y-118809458D02*
X110591438Y-118761839D01*
X110591438Y-118761839D02*
X110543819Y-118666601D01*
X110543819Y-118666601D02*
X110543819Y-118428506D01*
X110543819Y-118428506D02*
X110591438Y-118285649D01*
X111020009Y-117857077D02*
X111020009Y-117523744D01*
X111543819Y-117380887D02*
X111543819Y-117857077D01*
X111543819Y-117857077D02*
X110543819Y-117857077D01*
X110543819Y-117857077D02*
X110543819Y-117380887D01*
X110543819Y-117095172D02*
X110543819Y-116523744D01*
X111543819Y-116809458D02*
X110543819Y-116809458D01*
X118610779Y-114920819D02*
X118610779Y-113920819D01*
X118610779Y-113920819D02*
X118848874Y-113920819D01*
X118848874Y-113920819D02*
X118991731Y-113968438D01*
X118991731Y-113968438D02*
X119086969Y-114063676D01*
X119086969Y-114063676D02*
X119134588Y-114158914D01*
X119134588Y-114158914D02*
X119182207Y-114349390D01*
X119182207Y-114349390D02*
X119182207Y-114492247D01*
X119182207Y-114492247D02*
X119134588Y-114682723D01*
X119134588Y-114682723D02*
X119086969Y-114777961D01*
X119086969Y-114777961D02*
X118991731Y-114873200D01*
X118991731Y-114873200D02*
X118848874Y-114920819D01*
X118848874Y-114920819D02*
X118610779Y-114920819D01*
X119991731Y-114873200D02*
X119896493Y-114920819D01*
X119896493Y-114920819D02*
X119706017Y-114920819D01*
X119706017Y-114920819D02*
X119610779Y-114873200D01*
X119610779Y-114873200D02*
X119563160Y-114777961D01*
X119563160Y-114777961D02*
X119563160Y-114397009D01*
X119563160Y-114397009D02*
X119610779Y-114301771D01*
X119610779Y-114301771D02*
X119706017Y-114254152D01*
X119706017Y-114254152D02*
X119896493Y-114254152D01*
X119896493Y-114254152D02*
X119991731Y-114301771D01*
X119991731Y-114301771D02*
X120039350Y-114397009D01*
X120039350Y-114397009D02*
X120039350Y-114492247D01*
X120039350Y-114492247D02*
X119563160Y-114587485D01*
X120467922Y-114920819D02*
X120467922Y-113920819D01*
X120467922Y-114301771D02*
X120563160Y-114254152D01*
X120563160Y-114254152D02*
X120753636Y-114254152D01*
X120753636Y-114254152D02*
X120848874Y-114301771D01*
X120848874Y-114301771D02*
X120896493Y-114349390D01*
X120896493Y-114349390D02*
X120944112Y-114444628D01*
X120944112Y-114444628D02*
X120944112Y-114730342D01*
X120944112Y-114730342D02*
X120896493Y-114825580D01*
X120896493Y-114825580D02*
X120848874Y-114873200D01*
X120848874Y-114873200D02*
X120753636Y-114920819D01*
X120753636Y-114920819D02*
X120563160Y-114920819D01*
X120563160Y-114920819D02*
X120467922Y-114873200D01*
X121801255Y-114254152D02*
X121801255Y-114920819D01*
X121372684Y-114254152D02*
X121372684Y-114777961D01*
X121372684Y-114777961D02*
X121420303Y-114873200D01*
X121420303Y-114873200D02*
X121515541Y-114920819D01*
X121515541Y-114920819D02*
X121658398Y-114920819D01*
X121658398Y-114920819D02*
X121753636Y-114873200D01*
X121753636Y-114873200D02*
X121801255Y-114825580D01*
X122706017Y-114254152D02*
X122706017Y-115063676D01*
X122706017Y-115063676D02*
X122658398Y-115158914D01*
X122658398Y-115158914D02*
X122610779Y-115206533D01*
X122610779Y-115206533D02*
X122515541Y-115254152D01*
X122515541Y-115254152D02*
X122372684Y-115254152D01*
X122372684Y-115254152D02*
X122277446Y-115206533D01*
X122706017Y-114873200D02*
X122610779Y-114920819D01*
X122610779Y-114920819D02*
X122420303Y-114920819D01*
X122420303Y-114920819D02*
X122325065Y-114873200D01*
X122325065Y-114873200D02*
X122277446Y-114825580D01*
X122277446Y-114825580D02*
X122229827Y-114730342D01*
X122229827Y-114730342D02*
X122229827Y-114444628D01*
X122229827Y-114444628D02*
X122277446Y-114349390D01*
X122277446Y-114349390D02*
X122325065Y-114301771D01*
X122325065Y-114301771D02*
X122420303Y-114254152D01*
X122420303Y-114254152D02*
X122610779Y-114254152D01*
X122610779Y-114254152D02*
X122706017Y-114301771D01*
X123610779Y-114254152D02*
X123610779Y-115063676D01*
X123610779Y-115063676D02*
X123563160Y-115158914D01*
X123563160Y-115158914D02*
X123515541Y-115206533D01*
X123515541Y-115206533D02*
X123420303Y-115254152D01*
X123420303Y-115254152D02*
X123277446Y-115254152D01*
X123277446Y-115254152D02*
X123182208Y-115206533D01*
X123610779Y-114873200D02*
X123515541Y-114920819D01*
X123515541Y-114920819D02*
X123325065Y-114920819D01*
X123325065Y-114920819D02*
X123229827Y-114873200D01*
X123229827Y-114873200D02*
X123182208Y-114825580D01*
X123182208Y-114825580D02*
X123134589Y-114730342D01*
X123134589Y-114730342D02*
X123134589Y-114444628D01*
X123134589Y-114444628D02*
X123182208Y-114349390D01*
X123182208Y-114349390D02*
X123229827Y-114301771D01*
X123229827Y-114301771D02*
X123325065Y-114254152D01*
X123325065Y-114254152D02*
X123515541Y-114254152D01*
X123515541Y-114254152D02*
X123610779Y-114301771D01*
X124467922Y-114873200D02*
X124372684Y-114920819D01*
X124372684Y-114920819D02*
X124182208Y-114920819D01*
X124182208Y-114920819D02*
X124086970Y-114873200D01*
X124086970Y-114873200D02*
X124039351Y-114777961D01*
X124039351Y-114777961D02*
X124039351Y-114397009D01*
X124039351Y-114397009D02*
X124086970Y-114301771D01*
X124086970Y-114301771D02*
X124182208Y-114254152D01*
X124182208Y-114254152D02*
X124372684Y-114254152D01*
X124372684Y-114254152D02*
X124467922Y-114301771D01*
X124467922Y-114301771D02*
X124515541Y-114397009D01*
X124515541Y-114397009D02*
X124515541Y-114492247D01*
X124515541Y-114492247D02*
X124039351Y-114587485D01*
X124944113Y-114920819D02*
X124944113Y-114254152D01*
X124944113Y-114444628D02*
X124991732Y-114349390D01*
X124991732Y-114349390D02*
X125039351Y-114301771D01*
X125039351Y-114301771D02*
X125134589Y-114254152D01*
X125134589Y-114254152D02*
X125229827Y-114254152D01*
X209678819Y-88843857D02*
X209202628Y-89177190D01*
X209678819Y-89415285D02*
X208678819Y-89415285D01*
X208678819Y-89415285D02*
X208678819Y-89034333D01*
X208678819Y-89034333D02*
X208726438Y-88939095D01*
X208726438Y-88939095D02*
X208774057Y-88891476D01*
X208774057Y-88891476D02*
X208869295Y-88843857D01*
X208869295Y-88843857D02*
X209012152Y-88843857D01*
X209012152Y-88843857D02*
X209107390Y-88891476D01*
X209107390Y-88891476D02*
X209155009Y-88939095D01*
X209155009Y-88939095D02*
X209202628Y-89034333D01*
X209202628Y-89034333D02*
X209202628Y-89415285D01*
X209678819Y-87891476D02*
X209678819Y-88462904D01*
X209678819Y-88177190D02*
X208678819Y-88177190D01*
X208678819Y-88177190D02*
X208821676Y-88272428D01*
X208821676Y-88272428D02*
X208916914Y-88367666D01*
X208916914Y-88367666D02*
X208964533Y-88462904D01*
X209678819Y-86939095D02*
X209678819Y-87510523D01*
X209678819Y-87224809D02*
X208678819Y-87224809D01*
X208678819Y-87224809D02*
X208821676Y-87320047D01*
X208821676Y-87320047D02*
X208916914Y-87415285D01*
X208916914Y-87415285D02*
X208964533Y-87510523D01*
X143231142Y-88760580D02*
X143183523Y-88808200D01*
X143183523Y-88808200D02*
X143040666Y-88855819D01*
X143040666Y-88855819D02*
X142945428Y-88855819D01*
X142945428Y-88855819D02*
X142802571Y-88808200D01*
X142802571Y-88808200D02*
X142707333Y-88712961D01*
X142707333Y-88712961D02*
X142659714Y-88617723D01*
X142659714Y-88617723D02*
X142612095Y-88427247D01*
X142612095Y-88427247D02*
X142612095Y-88284390D01*
X142612095Y-88284390D02*
X142659714Y-88093914D01*
X142659714Y-88093914D02*
X142707333Y-87998676D01*
X142707333Y-87998676D02*
X142802571Y-87903438D01*
X142802571Y-87903438D02*
X142945428Y-87855819D01*
X142945428Y-87855819D02*
X143040666Y-87855819D01*
X143040666Y-87855819D02*
X143183523Y-87903438D01*
X143183523Y-87903438D02*
X143231142Y-87951057D01*
X144183523Y-88855819D02*
X143612095Y-88855819D01*
X143897809Y-88855819D02*
X143897809Y-87855819D01*
X143897809Y-87855819D02*
X143802571Y-87998676D01*
X143802571Y-87998676D02*
X143707333Y-88093914D01*
X143707333Y-88093914D02*
X143612095Y-88141533D01*
X145135904Y-88855819D02*
X144564476Y-88855819D01*
X144850190Y-88855819D02*
X144850190Y-87855819D01*
X144850190Y-87855819D02*
X144754952Y-87998676D01*
X144754952Y-87998676D02*
X144659714Y-88093914D01*
X144659714Y-88093914D02*
X144564476Y-88141533D01*
X195542319Y-74569904D02*
X196351842Y-74569904D01*
X196351842Y-74569904D02*
X196447080Y-74522285D01*
X196447080Y-74522285D02*
X196494700Y-74474666D01*
X196494700Y-74474666D02*
X196542319Y-74379428D01*
X196542319Y-74379428D02*
X196542319Y-74188952D01*
X196542319Y-74188952D02*
X196494700Y-74093714D01*
X196494700Y-74093714D02*
X196447080Y-74046095D01*
X196447080Y-74046095D02*
X196351842Y-73998476D01*
X196351842Y-73998476D02*
X195542319Y-73998476D01*
X195542319Y-73617523D02*
X195542319Y-72950857D01*
X195542319Y-72950857D02*
X196542319Y-73379428D01*
X149233580Y-114072666D02*
X149281200Y-114120285D01*
X149281200Y-114120285D02*
X149328819Y-114263142D01*
X149328819Y-114263142D02*
X149328819Y-114358380D01*
X149328819Y-114358380D02*
X149281200Y-114501237D01*
X149281200Y-114501237D02*
X149185961Y-114596475D01*
X149185961Y-114596475D02*
X149090723Y-114644094D01*
X149090723Y-114644094D02*
X148900247Y-114691713D01*
X148900247Y-114691713D02*
X148757390Y-114691713D01*
X148757390Y-114691713D02*
X148566914Y-114644094D01*
X148566914Y-114644094D02*
X148471676Y-114596475D01*
X148471676Y-114596475D02*
X148376438Y-114501237D01*
X148376438Y-114501237D02*
X148328819Y-114358380D01*
X148328819Y-114358380D02*
X148328819Y-114263142D01*
X148328819Y-114263142D02*
X148376438Y-114120285D01*
X148376438Y-114120285D02*
X148424057Y-114072666D01*
X148328819Y-113739332D02*
X148328819Y-113072666D01*
X148328819Y-113072666D02*
X149328819Y-113501237D01*
X201371580Y-99119357D02*
X201419200Y-99166976D01*
X201419200Y-99166976D02*
X201466819Y-99309833D01*
X201466819Y-99309833D02*
X201466819Y-99405071D01*
X201466819Y-99405071D02*
X201419200Y-99547928D01*
X201419200Y-99547928D02*
X201323961Y-99643166D01*
X201323961Y-99643166D02*
X201228723Y-99690785D01*
X201228723Y-99690785D02*
X201038247Y-99738404D01*
X201038247Y-99738404D02*
X200895390Y-99738404D01*
X200895390Y-99738404D02*
X200704914Y-99690785D01*
X200704914Y-99690785D02*
X200609676Y-99643166D01*
X200609676Y-99643166D02*
X200514438Y-99547928D01*
X200514438Y-99547928D02*
X200466819Y-99405071D01*
X200466819Y-99405071D02*
X200466819Y-99309833D01*
X200466819Y-99309833D02*
X200514438Y-99166976D01*
X200514438Y-99166976D02*
X200562057Y-99119357D01*
X200562057Y-98738404D02*
X200514438Y-98690785D01*
X200514438Y-98690785D02*
X200466819Y-98595547D01*
X200466819Y-98595547D02*
X200466819Y-98357452D01*
X200466819Y-98357452D02*
X200514438Y-98262214D01*
X200514438Y-98262214D02*
X200562057Y-98214595D01*
X200562057Y-98214595D02*
X200657295Y-98166976D01*
X200657295Y-98166976D02*
X200752533Y-98166976D01*
X200752533Y-98166976D02*
X200895390Y-98214595D01*
X200895390Y-98214595D02*
X201466819Y-98786023D01*
X201466819Y-98786023D02*
X201466819Y-98166976D01*
X201466819Y-97214595D02*
X201466819Y-97786023D01*
X201466819Y-97500309D02*
X200466819Y-97500309D01*
X200466819Y-97500309D02*
X200609676Y-97595547D01*
X200609676Y-97595547D02*
X200704914Y-97690785D01*
X200704914Y-97690785D02*
X200752533Y-97786023D01*
X161554580Y-84529166D02*
X161602200Y-84576785D01*
X161602200Y-84576785D02*
X161649819Y-84719642D01*
X161649819Y-84719642D02*
X161649819Y-84814880D01*
X161649819Y-84814880D02*
X161602200Y-84957737D01*
X161602200Y-84957737D02*
X161506961Y-85052975D01*
X161506961Y-85052975D02*
X161411723Y-85100594D01*
X161411723Y-85100594D02*
X161221247Y-85148213D01*
X161221247Y-85148213D02*
X161078390Y-85148213D01*
X161078390Y-85148213D02*
X160887914Y-85100594D01*
X160887914Y-85100594D02*
X160792676Y-85052975D01*
X160792676Y-85052975D02*
X160697438Y-84957737D01*
X160697438Y-84957737D02*
X160649819Y-84814880D01*
X160649819Y-84814880D02*
X160649819Y-84719642D01*
X160649819Y-84719642D02*
X160697438Y-84576785D01*
X160697438Y-84576785D02*
X160745057Y-84529166D01*
X160649819Y-83672023D02*
X160649819Y-83862499D01*
X160649819Y-83862499D02*
X160697438Y-83957737D01*
X160697438Y-83957737D02*
X160745057Y-84005356D01*
X160745057Y-84005356D02*
X160887914Y-84100594D01*
X160887914Y-84100594D02*
X161078390Y-84148213D01*
X161078390Y-84148213D02*
X161459342Y-84148213D01*
X161459342Y-84148213D02*
X161554580Y-84100594D01*
X161554580Y-84100594D02*
X161602200Y-84052975D01*
X161602200Y-84052975D02*
X161649819Y-83957737D01*
X161649819Y-83957737D02*
X161649819Y-83767261D01*
X161649819Y-83767261D02*
X161602200Y-83672023D01*
X161602200Y-83672023D02*
X161554580Y-83624404D01*
X161554580Y-83624404D02*
X161459342Y-83576785D01*
X161459342Y-83576785D02*
X161221247Y-83576785D01*
X161221247Y-83576785D02*
X161126009Y-83624404D01*
X161126009Y-83624404D02*
X161078390Y-83672023D01*
X161078390Y-83672023D02*
X161030771Y-83767261D01*
X161030771Y-83767261D02*
X161030771Y-83957737D01*
X161030771Y-83957737D02*
X161078390Y-84052975D01*
X161078390Y-84052975D02*
X161126009Y-84100594D01*
X161126009Y-84100594D02*
X161221247Y-84148213D01*
X141083580Y-112900166D02*
X141131200Y-112947785D01*
X141131200Y-112947785D02*
X141178819Y-113090642D01*
X141178819Y-113090642D02*
X141178819Y-113185880D01*
X141178819Y-113185880D02*
X141131200Y-113328737D01*
X141131200Y-113328737D02*
X141035961Y-113423975D01*
X141035961Y-113423975D02*
X140940723Y-113471594D01*
X140940723Y-113471594D02*
X140750247Y-113519213D01*
X140750247Y-113519213D02*
X140607390Y-113519213D01*
X140607390Y-113519213D02*
X140416914Y-113471594D01*
X140416914Y-113471594D02*
X140321676Y-113423975D01*
X140321676Y-113423975D02*
X140226438Y-113328737D01*
X140226438Y-113328737D02*
X140178819Y-113185880D01*
X140178819Y-113185880D02*
X140178819Y-113090642D01*
X140178819Y-113090642D02*
X140226438Y-112947785D01*
X140226438Y-112947785D02*
X140274057Y-112900166D01*
X140178819Y-111995404D02*
X140178819Y-112471594D01*
X140178819Y-112471594D02*
X140655009Y-112519213D01*
X140655009Y-112519213D02*
X140607390Y-112471594D01*
X140607390Y-112471594D02*
X140559771Y-112376356D01*
X140559771Y-112376356D02*
X140559771Y-112138261D01*
X140559771Y-112138261D02*
X140607390Y-112043023D01*
X140607390Y-112043023D02*
X140655009Y-111995404D01*
X140655009Y-111995404D02*
X140750247Y-111947785D01*
X140750247Y-111947785D02*
X140988342Y-111947785D01*
X140988342Y-111947785D02*
X141083580Y-111995404D01*
X141083580Y-111995404D02*
X141131200Y-112043023D01*
X141131200Y-112043023D02*
X141178819Y-112138261D01*
X141178819Y-112138261D02*
X141178819Y-112376356D01*
X141178819Y-112376356D02*
X141131200Y-112471594D01*
X141131200Y-112471594D02*
X141083580Y-112519213D01*
X113870933Y-113966219D02*
X113537600Y-113490028D01*
X113299505Y-113966219D02*
X113299505Y-112966219D01*
X113299505Y-112966219D02*
X113680457Y-112966219D01*
X113680457Y-112966219D02*
X113775695Y-113013838D01*
X113775695Y-113013838D02*
X113823314Y-113061457D01*
X113823314Y-113061457D02*
X113870933Y-113156695D01*
X113870933Y-113156695D02*
X113870933Y-113299552D01*
X113870933Y-113299552D02*
X113823314Y-113394790D01*
X113823314Y-113394790D02*
X113775695Y-113442409D01*
X113775695Y-113442409D02*
X113680457Y-113490028D01*
X113680457Y-113490028D02*
X113299505Y-113490028D01*
X114728076Y-113299552D02*
X114728076Y-113966219D01*
X114489981Y-112918600D02*
X114251886Y-113632885D01*
X114251886Y-113632885D02*
X114870933Y-113632885D01*
X224078819Y-113962904D02*
X224888342Y-113962904D01*
X224888342Y-113962904D02*
X224983580Y-113915285D01*
X224983580Y-113915285D02*
X225031200Y-113867666D01*
X225031200Y-113867666D02*
X225078819Y-113772428D01*
X225078819Y-113772428D02*
X225078819Y-113581952D01*
X225078819Y-113581952D02*
X225031200Y-113486714D01*
X225031200Y-113486714D02*
X224983580Y-113439095D01*
X224983580Y-113439095D02*
X224888342Y-113391476D01*
X224888342Y-113391476D02*
X224078819Y-113391476D01*
X225078819Y-112867666D02*
X225078819Y-112677190D01*
X225078819Y-112677190D02*
X225031200Y-112581952D01*
X225031200Y-112581952D02*
X224983580Y-112534333D01*
X224983580Y-112534333D02*
X224840723Y-112439095D01*
X224840723Y-112439095D02*
X224650247Y-112391476D01*
X224650247Y-112391476D02*
X224269295Y-112391476D01*
X224269295Y-112391476D02*
X224174057Y-112439095D01*
X224174057Y-112439095D02*
X224126438Y-112486714D01*
X224126438Y-112486714D02*
X224078819Y-112581952D01*
X224078819Y-112581952D02*
X224078819Y-112772428D01*
X224078819Y-112772428D02*
X224126438Y-112867666D01*
X224126438Y-112867666D02*
X224174057Y-112915285D01*
X224174057Y-112915285D02*
X224269295Y-112962904D01*
X224269295Y-112962904D02*
X224507390Y-112962904D01*
X224507390Y-112962904D02*
X224602628Y-112915285D01*
X224602628Y-112915285D02*
X224650247Y-112867666D01*
X224650247Y-112867666D02*
X224697866Y-112772428D01*
X224697866Y-112772428D02*
X224697866Y-112581952D01*
X224697866Y-112581952D02*
X224650247Y-112486714D01*
X224650247Y-112486714D02*
X224602628Y-112439095D01*
X224602628Y-112439095D02*
X224507390Y-112391476D01*
X191118142Y-68225580D02*
X191070523Y-68273200D01*
X191070523Y-68273200D02*
X190927666Y-68320819D01*
X190927666Y-68320819D02*
X190832428Y-68320819D01*
X190832428Y-68320819D02*
X190689571Y-68273200D01*
X190689571Y-68273200D02*
X190594333Y-68177961D01*
X190594333Y-68177961D02*
X190546714Y-68082723D01*
X190546714Y-68082723D02*
X190499095Y-67892247D01*
X190499095Y-67892247D02*
X190499095Y-67749390D01*
X190499095Y-67749390D02*
X190546714Y-67558914D01*
X190546714Y-67558914D02*
X190594333Y-67463676D01*
X190594333Y-67463676D02*
X190689571Y-67368438D01*
X190689571Y-67368438D02*
X190832428Y-67320819D01*
X190832428Y-67320819D02*
X190927666Y-67320819D01*
X190927666Y-67320819D02*
X191070523Y-67368438D01*
X191070523Y-67368438D02*
X191118142Y-67416057D01*
X191499095Y-67416057D02*
X191546714Y-67368438D01*
X191546714Y-67368438D02*
X191641952Y-67320819D01*
X191641952Y-67320819D02*
X191880047Y-67320819D01*
X191880047Y-67320819D02*
X191975285Y-67368438D01*
X191975285Y-67368438D02*
X192022904Y-67416057D01*
X192022904Y-67416057D02*
X192070523Y-67511295D01*
X192070523Y-67511295D02*
X192070523Y-67606533D01*
X192070523Y-67606533D02*
X192022904Y-67749390D01*
X192022904Y-67749390D02*
X191451476Y-68320819D01*
X191451476Y-68320819D02*
X192070523Y-68320819D01*
X192689571Y-67320819D02*
X192784809Y-67320819D01*
X192784809Y-67320819D02*
X192880047Y-67368438D01*
X192880047Y-67368438D02*
X192927666Y-67416057D01*
X192927666Y-67416057D02*
X192975285Y-67511295D01*
X192975285Y-67511295D02*
X193022904Y-67701771D01*
X193022904Y-67701771D02*
X193022904Y-67939866D01*
X193022904Y-67939866D02*
X192975285Y-68130342D01*
X192975285Y-68130342D02*
X192927666Y-68225580D01*
X192927666Y-68225580D02*
X192880047Y-68273200D01*
X192880047Y-68273200D02*
X192784809Y-68320819D01*
X192784809Y-68320819D02*
X192689571Y-68320819D01*
X192689571Y-68320819D02*
X192594333Y-68273200D01*
X192594333Y-68273200D02*
X192546714Y-68225580D01*
X192546714Y-68225580D02*
X192499095Y-68130342D01*
X192499095Y-68130342D02*
X192451476Y-67939866D01*
X192451476Y-67939866D02*
X192451476Y-67701771D01*
X192451476Y-67701771D02*
X192499095Y-67511295D01*
X192499095Y-67511295D02*
X192546714Y-67416057D01*
X192546714Y-67416057D02*
X192594333Y-67368438D01*
X192594333Y-67368438D02*
X192689571Y-67320819D01*
X166306833Y-98256080D02*
X166259214Y-98303700D01*
X166259214Y-98303700D02*
X166116357Y-98351319D01*
X166116357Y-98351319D02*
X166021119Y-98351319D01*
X166021119Y-98351319D02*
X165878262Y-98303700D01*
X165878262Y-98303700D02*
X165783024Y-98208461D01*
X165783024Y-98208461D02*
X165735405Y-98113223D01*
X165735405Y-98113223D02*
X165687786Y-97922747D01*
X165687786Y-97922747D02*
X165687786Y-97779890D01*
X165687786Y-97779890D02*
X165735405Y-97589414D01*
X165735405Y-97589414D02*
X165783024Y-97494176D01*
X165783024Y-97494176D02*
X165878262Y-97398938D01*
X165878262Y-97398938D02*
X166021119Y-97351319D01*
X166021119Y-97351319D02*
X166116357Y-97351319D01*
X166116357Y-97351319D02*
X166259214Y-97398938D01*
X166259214Y-97398938D02*
X166306833Y-97446557D01*
X166687786Y-97446557D02*
X166735405Y-97398938D01*
X166735405Y-97398938D02*
X166830643Y-97351319D01*
X166830643Y-97351319D02*
X167068738Y-97351319D01*
X167068738Y-97351319D02*
X167163976Y-97398938D01*
X167163976Y-97398938D02*
X167211595Y-97446557D01*
X167211595Y-97446557D02*
X167259214Y-97541795D01*
X167259214Y-97541795D02*
X167259214Y-97637033D01*
X167259214Y-97637033D02*
X167211595Y-97779890D01*
X167211595Y-97779890D02*
X166640167Y-98351319D01*
X166640167Y-98351319D02*
X167259214Y-98351319D01*
X99766819Y-75917066D02*
X99290628Y-76250399D01*
X99766819Y-76488494D02*
X98766819Y-76488494D01*
X98766819Y-76488494D02*
X98766819Y-76107542D01*
X98766819Y-76107542D02*
X98814438Y-76012304D01*
X98814438Y-76012304D02*
X98862057Y-75964685D01*
X98862057Y-75964685D02*
X98957295Y-75917066D01*
X98957295Y-75917066D02*
X99100152Y-75917066D01*
X99100152Y-75917066D02*
X99195390Y-75964685D01*
X99195390Y-75964685D02*
X99243009Y-76012304D01*
X99243009Y-76012304D02*
X99290628Y-76107542D01*
X99290628Y-76107542D02*
X99290628Y-76488494D01*
X99766819Y-75440875D02*
X99766819Y-75250399D01*
X99766819Y-75250399D02*
X99719200Y-75155161D01*
X99719200Y-75155161D02*
X99671580Y-75107542D01*
X99671580Y-75107542D02*
X99528723Y-75012304D01*
X99528723Y-75012304D02*
X99338247Y-74964685D01*
X99338247Y-74964685D02*
X98957295Y-74964685D01*
X98957295Y-74964685D02*
X98862057Y-75012304D01*
X98862057Y-75012304D02*
X98814438Y-75059923D01*
X98814438Y-75059923D02*
X98766819Y-75155161D01*
X98766819Y-75155161D02*
X98766819Y-75345637D01*
X98766819Y-75345637D02*
X98814438Y-75440875D01*
X98814438Y-75440875D02*
X98862057Y-75488494D01*
X98862057Y-75488494D02*
X98957295Y-75536113D01*
X98957295Y-75536113D02*
X99195390Y-75536113D01*
X99195390Y-75536113D02*
X99290628Y-75488494D01*
X99290628Y-75488494D02*
X99338247Y-75440875D01*
X99338247Y-75440875D02*
X99385866Y-75345637D01*
X99385866Y-75345637D02*
X99385866Y-75155161D01*
X99385866Y-75155161D02*
X99338247Y-75059923D01*
X99338247Y-75059923D02*
X99290628Y-75012304D01*
X99290628Y-75012304D02*
X99195390Y-74964685D01*
X192381142Y-59555819D02*
X192047809Y-59079628D01*
X191809714Y-59555819D02*
X191809714Y-58555819D01*
X191809714Y-58555819D02*
X192190666Y-58555819D01*
X192190666Y-58555819D02*
X192285904Y-58603438D01*
X192285904Y-58603438D02*
X192333523Y-58651057D01*
X192333523Y-58651057D02*
X192381142Y-58746295D01*
X192381142Y-58746295D02*
X192381142Y-58889152D01*
X192381142Y-58889152D02*
X192333523Y-58984390D01*
X192333523Y-58984390D02*
X192285904Y-59032009D01*
X192285904Y-59032009D02*
X192190666Y-59079628D01*
X192190666Y-59079628D02*
X191809714Y-59079628D01*
X193333523Y-59555819D02*
X192762095Y-59555819D01*
X193047809Y-59555819D02*
X193047809Y-58555819D01*
X193047809Y-58555819D02*
X192952571Y-58698676D01*
X192952571Y-58698676D02*
X192857333Y-58793914D01*
X192857333Y-58793914D02*
X192762095Y-58841533D01*
X193809714Y-59555819D02*
X194000190Y-59555819D01*
X194000190Y-59555819D02*
X194095428Y-59508200D01*
X194095428Y-59508200D02*
X194143047Y-59460580D01*
X194143047Y-59460580D02*
X194238285Y-59317723D01*
X194238285Y-59317723D02*
X194285904Y-59127247D01*
X194285904Y-59127247D02*
X194285904Y-58746295D01*
X194285904Y-58746295D02*
X194238285Y-58651057D01*
X194238285Y-58651057D02*
X194190666Y-58603438D01*
X194190666Y-58603438D02*
X194095428Y-58555819D01*
X194095428Y-58555819D02*
X193904952Y-58555819D01*
X193904952Y-58555819D02*
X193809714Y-58603438D01*
X193809714Y-58603438D02*
X193762095Y-58651057D01*
X193762095Y-58651057D02*
X193714476Y-58746295D01*
X193714476Y-58746295D02*
X193714476Y-58984390D01*
X193714476Y-58984390D02*
X193762095Y-59079628D01*
X193762095Y-59079628D02*
X193809714Y-59127247D01*
X193809714Y-59127247D02*
X193904952Y-59174866D01*
X193904952Y-59174866D02*
X194095428Y-59174866D01*
X194095428Y-59174866D02*
X194190666Y-59127247D01*
X194190666Y-59127247D02*
X194238285Y-59079628D01*
X194238285Y-59079628D02*
X194285904Y-58984390D01*
X135428419Y-116110066D02*
X134952228Y-116443399D01*
X135428419Y-116681494D02*
X134428419Y-116681494D01*
X134428419Y-116681494D02*
X134428419Y-116300542D01*
X134428419Y-116300542D02*
X134476038Y-116205304D01*
X134476038Y-116205304D02*
X134523657Y-116157685D01*
X134523657Y-116157685D02*
X134618895Y-116110066D01*
X134618895Y-116110066D02*
X134761752Y-116110066D01*
X134761752Y-116110066D02*
X134856990Y-116157685D01*
X134856990Y-116157685D02*
X134904609Y-116205304D01*
X134904609Y-116205304D02*
X134952228Y-116300542D01*
X134952228Y-116300542D02*
X134952228Y-116681494D01*
X134856990Y-115538637D02*
X134809371Y-115633875D01*
X134809371Y-115633875D02*
X134761752Y-115681494D01*
X134761752Y-115681494D02*
X134666514Y-115729113D01*
X134666514Y-115729113D02*
X134618895Y-115729113D01*
X134618895Y-115729113D02*
X134523657Y-115681494D01*
X134523657Y-115681494D02*
X134476038Y-115633875D01*
X134476038Y-115633875D02*
X134428419Y-115538637D01*
X134428419Y-115538637D02*
X134428419Y-115348161D01*
X134428419Y-115348161D02*
X134476038Y-115252923D01*
X134476038Y-115252923D02*
X134523657Y-115205304D01*
X134523657Y-115205304D02*
X134618895Y-115157685D01*
X134618895Y-115157685D02*
X134666514Y-115157685D01*
X134666514Y-115157685D02*
X134761752Y-115205304D01*
X134761752Y-115205304D02*
X134809371Y-115252923D01*
X134809371Y-115252923D02*
X134856990Y-115348161D01*
X134856990Y-115348161D02*
X134856990Y-115538637D01*
X134856990Y-115538637D02*
X134904609Y-115633875D01*
X134904609Y-115633875D02*
X134952228Y-115681494D01*
X134952228Y-115681494D02*
X135047466Y-115729113D01*
X135047466Y-115729113D02*
X135237942Y-115729113D01*
X135237942Y-115729113D02*
X135333180Y-115681494D01*
X135333180Y-115681494D02*
X135380800Y-115633875D01*
X135380800Y-115633875D02*
X135428419Y-115538637D01*
X135428419Y-115538637D02*
X135428419Y-115348161D01*
X135428419Y-115348161D02*
X135380800Y-115252923D01*
X135380800Y-115252923D02*
X135333180Y-115205304D01*
X135333180Y-115205304D02*
X135237942Y-115157685D01*
X135237942Y-115157685D02*
X135047466Y-115157685D01*
X135047466Y-115157685D02*
X134952228Y-115205304D01*
X134952228Y-115205304D02*
X134904609Y-115252923D01*
X134904609Y-115252923D02*
X134856990Y-115348161D01*
X166306833Y-104606080D02*
X166259214Y-104653700D01*
X166259214Y-104653700D02*
X166116357Y-104701319D01*
X166116357Y-104701319D02*
X166021119Y-104701319D01*
X166021119Y-104701319D02*
X165878262Y-104653700D01*
X165878262Y-104653700D02*
X165783024Y-104558461D01*
X165783024Y-104558461D02*
X165735405Y-104463223D01*
X165735405Y-104463223D02*
X165687786Y-104272747D01*
X165687786Y-104272747D02*
X165687786Y-104129890D01*
X165687786Y-104129890D02*
X165735405Y-103939414D01*
X165735405Y-103939414D02*
X165783024Y-103844176D01*
X165783024Y-103844176D02*
X165878262Y-103748938D01*
X165878262Y-103748938D02*
X166021119Y-103701319D01*
X166021119Y-103701319D02*
X166116357Y-103701319D01*
X166116357Y-103701319D02*
X166259214Y-103748938D01*
X166259214Y-103748938D02*
X166306833Y-103796557D01*
X167259214Y-104701319D02*
X166687786Y-104701319D01*
X166973500Y-104701319D02*
X166973500Y-103701319D01*
X166973500Y-103701319D02*
X166878262Y-103844176D01*
X166878262Y-103844176D02*
X166783024Y-103939414D01*
X166783024Y-103939414D02*
X166687786Y-103987033D01*
X217166142Y-59965819D02*
X216832809Y-59489628D01*
X216594714Y-59965819D02*
X216594714Y-58965819D01*
X216594714Y-58965819D02*
X216975666Y-58965819D01*
X216975666Y-58965819D02*
X217070904Y-59013438D01*
X217070904Y-59013438D02*
X217118523Y-59061057D01*
X217118523Y-59061057D02*
X217166142Y-59156295D01*
X217166142Y-59156295D02*
X217166142Y-59299152D01*
X217166142Y-59299152D02*
X217118523Y-59394390D01*
X217118523Y-59394390D02*
X217070904Y-59442009D01*
X217070904Y-59442009D02*
X216975666Y-59489628D01*
X216975666Y-59489628D02*
X216594714Y-59489628D01*
X217547095Y-59061057D02*
X217594714Y-59013438D01*
X217594714Y-59013438D02*
X217689952Y-58965819D01*
X217689952Y-58965819D02*
X217928047Y-58965819D01*
X217928047Y-58965819D02*
X218023285Y-59013438D01*
X218023285Y-59013438D02*
X218070904Y-59061057D01*
X218070904Y-59061057D02*
X218118523Y-59156295D01*
X218118523Y-59156295D02*
X218118523Y-59251533D01*
X218118523Y-59251533D02*
X218070904Y-59394390D01*
X218070904Y-59394390D02*
X217499476Y-59965819D01*
X217499476Y-59965819D02*
X218118523Y-59965819D01*
X218737571Y-58965819D02*
X218832809Y-58965819D01*
X218832809Y-58965819D02*
X218928047Y-59013438D01*
X218928047Y-59013438D02*
X218975666Y-59061057D01*
X218975666Y-59061057D02*
X219023285Y-59156295D01*
X219023285Y-59156295D02*
X219070904Y-59346771D01*
X219070904Y-59346771D02*
X219070904Y-59584866D01*
X219070904Y-59584866D02*
X219023285Y-59775342D01*
X219023285Y-59775342D02*
X218975666Y-59870580D01*
X218975666Y-59870580D02*
X218928047Y-59918200D01*
X218928047Y-59918200D02*
X218832809Y-59965819D01*
X218832809Y-59965819D02*
X218737571Y-59965819D01*
X218737571Y-59965819D02*
X218642333Y-59918200D01*
X218642333Y-59918200D02*
X218594714Y-59870580D01*
X218594714Y-59870580D02*
X218547095Y-59775342D01*
X218547095Y-59775342D02*
X218499476Y-59584866D01*
X218499476Y-59584866D02*
X218499476Y-59346771D01*
X218499476Y-59346771D02*
X218547095Y-59156295D01*
X218547095Y-59156295D02*
X218594714Y-59061057D01*
X218594714Y-59061057D02*
X218642333Y-59013438D01*
X218642333Y-59013438D02*
X218737571Y-58965819D01*
X212242780Y-116007257D02*
X212290400Y-116054876D01*
X212290400Y-116054876D02*
X212338019Y-116197733D01*
X212338019Y-116197733D02*
X212338019Y-116292971D01*
X212338019Y-116292971D02*
X212290400Y-116435828D01*
X212290400Y-116435828D02*
X212195161Y-116531066D01*
X212195161Y-116531066D02*
X212099923Y-116578685D01*
X212099923Y-116578685D02*
X211909447Y-116626304D01*
X211909447Y-116626304D02*
X211766590Y-116626304D01*
X211766590Y-116626304D02*
X211576114Y-116578685D01*
X211576114Y-116578685D02*
X211480876Y-116531066D01*
X211480876Y-116531066D02*
X211385638Y-116435828D01*
X211385638Y-116435828D02*
X211338019Y-116292971D01*
X211338019Y-116292971D02*
X211338019Y-116197733D01*
X211338019Y-116197733D02*
X211385638Y-116054876D01*
X211385638Y-116054876D02*
X211433257Y-116007257D01*
X211433257Y-115626304D02*
X211385638Y-115578685D01*
X211385638Y-115578685D02*
X211338019Y-115483447D01*
X211338019Y-115483447D02*
X211338019Y-115245352D01*
X211338019Y-115245352D02*
X211385638Y-115150114D01*
X211385638Y-115150114D02*
X211433257Y-115102495D01*
X211433257Y-115102495D02*
X211528495Y-115054876D01*
X211528495Y-115054876D02*
X211623733Y-115054876D01*
X211623733Y-115054876D02*
X211766590Y-115102495D01*
X211766590Y-115102495D02*
X212338019Y-115673923D01*
X212338019Y-115673923D02*
X212338019Y-115054876D01*
X211671352Y-114197733D02*
X212338019Y-114197733D01*
X211290400Y-114435828D02*
X212004685Y-114673923D01*
X212004685Y-114673923D02*
X212004685Y-114054876D01*
X211492580Y-75145857D02*
X211540200Y-75193476D01*
X211540200Y-75193476D02*
X211587819Y-75336333D01*
X211587819Y-75336333D02*
X211587819Y-75431571D01*
X211587819Y-75431571D02*
X211540200Y-75574428D01*
X211540200Y-75574428D02*
X211444961Y-75669666D01*
X211444961Y-75669666D02*
X211349723Y-75717285D01*
X211349723Y-75717285D02*
X211159247Y-75764904D01*
X211159247Y-75764904D02*
X211016390Y-75764904D01*
X211016390Y-75764904D02*
X210825914Y-75717285D01*
X210825914Y-75717285D02*
X210730676Y-75669666D01*
X210730676Y-75669666D02*
X210635438Y-75574428D01*
X210635438Y-75574428D02*
X210587819Y-75431571D01*
X210587819Y-75431571D02*
X210587819Y-75336333D01*
X210587819Y-75336333D02*
X210635438Y-75193476D01*
X210635438Y-75193476D02*
X210683057Y-75145857D01*
X211587819Y-74193476D02*
X211587819Y-74764904D01*
X211587819Y-74479190D02*
X210587819Y-74479190D01*
X210587819Y-74479190D02*
X210730676Y-74574428D01*
X210730676Y-74574428D02*
X210825914Y-74669666D01*
X210825914Y-74669666D02*
X210873533Y-74764904D01*
X211587819Y-73717285D02*
X211587819Y-73526809D01*
X211587819Y-73526809D02*
X211540200Y-73431571D01*
X211540200Y-73431571D02*
X211492580Y-73383952D01*
X211492580Y-73383952D02*
X211349723Y-73288714D01*
X211349723Y-73288714D02*
X211159247Y-73241095D01*
X211159247Y-73241095D02*
X210778295Y-73241095D01*
X210778295Y-73241095D02*
X210683057Y-73288714D01*
X210683057Y-73288714D02*
X210635438Y-73336333D01*
X210635438Y-73336333D02*
X210587819Y-73431571D01*
X210587819Y-73431571D02*
X210587819Y-73622047D01*
X210587819Y-73622047D02*
X210635438Y-73717285D01*
X210635438Y-73717285D02*
X210683057Y-73764904D01*
X210683057Y-73764904D02*
X210778295Y-73812523D01*
X210778295Y-73812523D02*
X211016390Y-73812523D01*
X211016390Y-73812523D02*
X211111628Y-73764904D01*
X211111628Y-73764904D02*
X211159247Y-73717285D01*
X211159247Y-73717285D02*
X211206866Y-73622047D01*
X211206866Y-73622047D02*
X211206866Y-73431571D01*
X211206866Y-73431571D02*
X211159247Y-73336333D01*
X211159247Y-73336333D02*
X211111628Y-73288714D01*
X211111628Y-73288714D02*
X211016390Y-73241095D01*
X157090666Y-115052009D02*
X156757333Y-115052009D01*
X156757333Y-115575819D02*
X156757333Y-114575819D01*
X156757333Y-114575819D02*
X157233523Y-114575819D01*
X157947809Y-115052009D02*
X158090666Y-115099628D01*
X158090666Y-115099628D02*
X158138285Y-115147247D01*
X158138285Y-115147247D02*
X158185904Y-115242485D01*
X158185904Y-115242485D02*
X158185904Y-115385342D01*
X158185904Y-115385342D02*
X158138285Y-115480580D01*
X158138285Y-115480580D02*
X158090666Y-115528200D01*
X158090666Y-115528200D02*
X157995428Y-115575819D01*
X157995428Y-115575819D02*
X157614476Y-115575819D01*
X157614476Y-115575819D02*
X157614476Y-114575819D01*
X157614476Y-114575819D02*
X157947809Y-114575819D01*
X157947809Y-114575819D02*
X158043047Y-114623438D01*
X158043047Y-114623438D02*
X158090666Y-114671057D01*
X158090666Y-114671057D02*
X158138285Y-114766295D01*
X158138285Y-114766295D02*
X158138285Y-114861533D01*
X158138285Y-114861533D02*
X158090666Y-114956771D01*
X158090666Y-114956771D02*
X158043047Y-115004390D01*
X158043047Y-115004390D02*
X157947809Y-115052009D01*
X157947809Y-115052009D02*
X157614476Y-115052009D01*
X159138285Y-115575819D02*
X158566857Y-115575819D01*
X158852571Y-115575819D02*
X158852571Y-114575819D01*
X158852571Y-114575819D02*
X158757333Y-114718676D01*
X158757333Y-114718676D02*
X158662095Y-114813914D01*
X158662095Y-114813914D02*
X158566857Y-114861533D01*
X117546819Y-78933257D02*
X117070628Y-79266590D01*
X117546819Y-79504685D02*
X116546819Y-79504685D01*
X116546819Y-79504685D02*
X116546819Y-79123733D01*
X116546819Y-79123733D02*
X116594438Y-79028495D01*
X116594438Y-79028495D02*
X116642057Y-78980876D01*
X116642057Y-78980876D02*
X116737295Y-78933257D01*
X116737295Y-78933257D02*
X116880152Y-78933257D01*
X116880152Y-78933257D02*
X116975390Y-78980876D01*
X116975390Y-78980876D02*
X117023009Y-79028495D01*
X117023009Y-79028495D02*
X117070628Y-79123733D01*
X117070628Y-79123733D02*
X117070628Y-79504685D01*
X116642057Y-78552304D02*
X116594438Y-78504685D01*
X116594438Y-78504685D02*
X116546819Y-78409447D01*
X116546819Y-78409447D02*
X116546819Y-78171352D01*
X116546819Y-78171352D02*
X116594438Y-78076114D01*
X116594438Y-78076114D02*
X116642057Y-78028495D01*
X116642057Y-78028495D02*
X116737295Y-77980876D01*
X116737295Y-77980876D02*
X116832533Y-77980876D01*
X116832533Y-77980876D02*
X116975390Y-78028495D01*
X116975390Y-78028495D02*
X117546819Y-78599923D01*
X117546819Y-78599923D02*
X117546819Y-77980876D01*
X117546819Y-77028495D02*
X117546819Y-77599923D01*
X117546819Y-77314209D02*
X116546819Y-77314209D01*
X116546819Y-77314209D02*
X116689676Y-77409447D01*
X116689676Y-77409447D02*
X116784914Y-77504685D01*
X116784914Y-77504685D02*
X116832533Y-77599923D01*
X190078819Y-74793857D02*
X189602628Y-75127190D01*
X190078819Y-75365285D02*
X189078819Y-75365285D01*
X189078819Y-75365285D02*
X189078819Y-74984333D01*
X189078819Y-74984333D02*
X189126438Y-74889095D01*
X189126438Y-74889095D02*
X189174057Y-74841476D01*
X189174057Y-74841476D02*
X189269295Y-74793857D01*
X189269295Y-74793857D02*
X189412152Y-74793857D01*
X189412152Y-74793857D02*
X189507390Y-74841476D01*
X189507390Y-74841476D02*
X189555009Y-74889095D01*
X189555009Y-74889095D02*
X189602628Y-74984333D01*
X189602628Y-74984333D02*
X189602628Y-75365285D01*
X190078819Y-73841476D02*
X190078819Y-74412904D01*
X190078819Y-74127190D02*
X189078819Y-74127190D01*
X189078819Y-74127190D02*
X189221676Y-74222428D01*
X189221676Y-74222428D02*
X189316914Y-74317666D01*
X189316914Y-74317666D02*
X189364533Y-74412904D01*
X189412152Y-72984333D02*
X190078819Y-72984333D01*
X189031200Y-73222428D02*
X189745485Y-73460523D01*
X189745485Y-73460523D02*
X189745485Y-72841476D01*
X199335342Y-111611219D02*
X199002009Y-111135028D01*
X198763914Y-111611219D02*
X198763914Y-110611219D01*
X198763914Y-110611219D02*
X199144866Y-110611219D01*
X199144866Y-110611219D02*
X199240104Y-110658838D01*
X199240104Y-110658838D02*
X199287723Y-110706457D01*
X199287723Y-110706457D02*
X199335342Y-110801695D01*
X199335342Y-110801695D02*
X199335342Y-110944552D01*
X199335342Y-110944552D02*
X199287723Y-111039790D01*
X199287723Y-111039790D02*
X199240104Y-111087409D01*
X199240104Y-111087409D02*
X199144866Y-111135028D01*
X199144866Y-111135028D02*
X198763914Y-111135028D01*
X200287723Y-111611219D02*
X199716295Y-111611219D01*
X200002009Y-111611219D02*
X200002009Y-110611219D01*
X200002009Y-110611219D02*
X199906771Y-110754076D01*
X199906771Y-110754076D02*
X199811533Y-110849314D01*
X199811533Y-110849314D02*
X199716295Y-110896933D01*
X200859152Y-111039790D02*
X200763914Y-110992171D01*
X200763914Y-110992171D02*
X200716295Y-110944552D01*
X200716295Y-110944552D02*
X200668676Y-110849314D01*
X200668676Y-110849314D02*
X200668676Y-110801695D01*
X200668676Y-110801695D02*
X200716295Y-110706457D01*
X200716295Y-110706457D02*
X200763914Y-110658838D01*
X200763914Y-110658838D02*
X200859152Y-110611219D01*
X200859152Y-110611219D02*
X201049628Y-110611219D01*
X201049628Y-110611219D02*
X201144866Y-110658838D01*
X201144866Y-110658838D02*
X201192485Y-110706457D01*
X201192485Y-110706457D02*
X201240104Y-110801695D01*
X201240104Y-110801695D02*
X201240104Y-110849314D01*
X201240104Y-110849314D02*
X201192485Y-110944552D01*
X201192485Y-110944552D02*
X201144866Y-110992171D01*
X201144866Y-110992171D02*
X201049628Y-111039790D01*
X201049628Y-111039790D02*
X200859152Y-111039790D01*
X200859152Y-111039790D02*
X200763914Y-111087409D01*
X200763914Y-111087409D02*
X200716295Y-111135028D01*
X200716295Y-111135028D02*
X200668676Y-111230266D01*
X200668676Y-111230266D02*
X200668676Y-111420742D01*
X200668676Y-111420742D02*
X200716295Y-111515980D01*
X200716295Y-111515980D02*
X200763914Y-111563600D01*
X200763914Y-111563600D02*
X200859152Y-111611219D01*
X200859152Y-111611219D02*
X201049628Y-111611219D01*
X201049628Y-111611219D02*
X201144866Y-111563600D01*
X201144866Y-111563600D02*
X201192485Y-111515980D01*
X201192485Y-111515980D02*
X201240104Y-111420742D01*
X201240104Y-111420742D02*
X201240104Y-111230266D01*
X201240104Y-111230266D02*
X201192485Y-111135028D01*
X201192485Y-111135028D02*
X201144866Y-111087409D01*
X201144866Y-111087409D02*
X201049628Y-111039790D01*
X141808819Y-92617666D02*
X141332628Y-92950999D01*
X141808819Y-93189094D02*
X140808819Y-93189094D01*
X140808819Y-93189094D02*
X140808819Y-92808142D01*
X140808819Y-92808142D02*
X140856438Y-92712904D01*
X140856438Y-92712904D02*
X140904057Y-92665285D01*
X140904057Y-92665285D02*
X140999295Y-92617666D01*
X140999295Y-92617666D02*
X141142152Y-92617666D01*
X141142152Y-92617666D02*
X141237390Y-92665285D01*
X141237390Y-92665285D02*
X141285009Y-92712904D01*
X141285009Y-92712904D02*
X141332628Y-92808142D01*
X141332628Y-92808142D02*
X141332628Y-93189094D01*
X140904057Y-92236713D02*
X140856438Y-92189094D01*
X140856438Y-92189094D02*
X140808819Y-92093856D01*
X140808819Y-92093856D02*
X140808819Y-91855761D01*
X140808819Y-91855761D02*
X140856438Y-91760523D01*
X140856438Y-91760523D02*
X140904057Y-91712904D01*
X140904057Y-91712904D02*
X140999295Y-91665285D01*
X140999295Y-91665285D02*
X141094533Y-91665285D01*
X141094533Y-91665285D02*
X141237390Y-91712904D01*
X141237390Y-91712904D02*
X141808819Y-92284332D01*
X141808819Y-92284332D02*
X141808819Y-91665285D01*
X104385180Y-119292566D02*
X104432800Y-119340185D01*
X104432800Y-119340185D02*
X104480419Y-119483042D01*
X104480419Y-119483042D02*
X104480419Y-119578280D01*
X104480419Y-119578280D02*
X104432800Y-119721137D01*
X104432800Y-119721137D02*
X104337561Y-119816375D01*
X104337561Y-119816375D02*
X104242323Y-119863994D01*
X104242323Y-119863994D02*
X104051847Y-119911613D01*
X104051847Y-119911613D02*
X103908990Y-119911613D01*
X103908990Y-119911613D02*
X103718514Y-119863994D01*
X103718514Y-119863994D02*
X103623276Y-119816375D01*
X103623276Y-119816375D02*
X103528038Y-119721137D01*
X103528038Y-119721137D02*
X103480419Y-119578280D01*
X103480419Y-119578280D02*
X103480419Y-119483042D01*
X103480419Y-119483042D02*
X103528038Y-119340185D01*
X103528038Y-119340185D02*
X103575657Y-119292566D01*
X103908990Y-118721137D02*
X103861371Y-118816375D01*
X103861371Y-118816375D02*
X103813752Y-118863994D01*
X103813752Y-118863994D02*
X103718514Y-118911613D01*
X103718514Y-118911613D02*
X103670895Y-118911613D01*
X103670895Y-118911613D02*
X103575657Y-118863994D01*
X103575657Y-118863994D02*
X103528038Y-118816375D01*
X103528038Y-118816375D02*
X103480419Y-118721137D01*
X103480419Y-118721137D02*
X103480419Y-118530661D01*
X103480419Y-118530661D02*
X103528038Y-118435423D01*
X103528038Y-118435423D02*
X103575657Y-118387804D01*
X103575657Y-118387804D02*
X103670895Y-118340185D01*
X103670895Y-118340185D02*
X103718514Y-118340185D01*
X103718514Y-118340185D02*
X103813752Y-118387804D01*
X103813752Y-118387804D02*
X103861371Y-118435423D01*
X103861371Y-118435423D02*
X103908990Y-118530661D01*
X103908990Y-118530661D02*
X103908990Y-118721137D01*
X103908990Y-118721137D02*
X103956609Y-118816375D01*
X103956609Y-118816375D02*
X104004228Y-118863994D01*
X104004228Y-118863994D02*
X104099466Y-118911613D01*
X104099466Y-118911613D02*
X104289942Y-118911613D01*
X104289942Y-118911613D02*
X104385180Y-118863994D01*
X104385180Y-118863994D02*
X104432800Y-118816375D01*
X104432800Y-118816375D02*
X104480419Y-118721137D01*
X104480419Y-118721137D02*
X104480419Y-118530661D01*
X104480419Y-118530661D02*
X104432800Y-118435423D01*
X104432800Y-118435423D02*
X104385180Y-118387804D01*
X104385180Y-118387804D02*
X104289942Y-118340185D01*
X104289942Y-118340185D02*
X104099466Y-118340185D01*
X104099466Y-118340185D02*
X104004228Y-118387804D01*
X104004228Y-118387804D02*
X103956609Y-118435423D01*
X103956609Y-118435423D02*
X103908990Y-118530661D01*
X225312819Y-87108523D02*
X224312819Y-87108523D01*
X224312819Y-87108523D02*
X225312819Y-86537095D01*
X225312819Y-86537095D02*
X224312819Y-86537095D01*
X224312819Y-85870428D02*
X224312819Y-85679952D01*
X224312819Y-85679952D02*
X224360438Y-85584714D01*
X224360438Y-85584714D02*
X224455676Y-85489476D01*
X224455676Y-85489476D02*
X224646152Y-85441857D01*
X224646152Y-85441857D02*
X224979485Y-85441857D01*
X224979485Y-85441857D02*
X225169961Y-85489476D01*
X225169961Y-85489476D02*
X225265200Y-85584714D01*
X225265200Y-85584714D02*
X225312819Y-85679952D01*
X225312819Y-85679952D02*
X225312819Y-85870428D01*
X225312819Y-85870428D02*
X225265200Y-85965666D01*
X225265200Y-85965666D02*
X225169961Y-86060904D01*
X225169961Y-86060904D02*
X224979485Y-86108523D01*
X224979485Y-86108523D02*
X224646152Y-86108523D01*
X224646152Y-86108523D02*
X224455676Y-86060904D01*
X224455676Y-86060904D02*
X224360438Y-85965666D01*
X224360438Y-85965666D02*
X224312819Y-85870428D01*
X225312819Y-92164713D02*
X224312819Y-92164713D01*
X224312819Y-92164713D02*
X225312819Y-91593285D01*
X225312819Y-91593285D02*
X224312819Y-91593285D01*
X225217580Y-90545666D02*
X225265200Y-90593285D01*
X225265200Y-90593285D02*
X225312819Y-90736142D01*
X225312819Y-90736142D02*
X225312819Y-90831380D01*
X225312819Y-90831380D02*
X225265200Y-90974237D01*
X225265200Y-90974237D02*
X225169961Y-91069475D01*
X225169961Y-91069475D02*
X225074723Y-91117094D01*
X225074723Y-91117094D02*
X224884247Y-91164713D01*
X224884247Y-91164713D02*
X224741390Y-91164713D01*
X224741390Y-91164713D02*
X224550914Y-91117094D01*
X224550914Y-91117094D02*
X224455676Y-91069475D01*
X224455676Y-91069475D02*
X224360438Y-90974237D01*
X224360438Y-90974237D02*
X224312819Y-90831380D01*
X224312819Y-90831380D02*
X224312819Y-90736142D01*
X224312819Y-90736142D02*
X224360438Y-90593285D01*
X224360438Y-90593285D02*
X224408057Y-90545666D01*
X225217580Y-80909476D02*
X225265200Y-80957095D01*
X225265200Y-80957095D02*
X225312819Y-81099952D01*
X225312819Y-81099952D02*
X225312819Y-81195190D01*
X225312819Y-81195190D02*
X225265200Y-81338047D01*
X225265200Y-81338047D02*
X225169961Y-81433285D01*
X225169961Y-81433285D02*
X225074723Y-81480904D01*
X225074723Y-81480904D02*
X224884247Y-81528523D01*
X224884247Y-81528523D02*
X224741390Y-81528523D01*
X224741390Y-81528523D02*
X224550914Y-81480904D01*
X224550914Y-81480904D02*
X224455676Y-81433285D01*
X224455676Y-81433285D02*
X224360438Y-81338047D01*
X224360438Y-81338047D02*
X224312819Y-81195190D01*
X224312819Y-81195190D02*
X224312819Y-81099952D01*
X224312819Y-81099952D02*
X224360438Y-80957095D01*
X224360438Y-80957095D02*
X224408057Y-80909476D01*
X127662142Y-97117580D02*
X127614523Y-97165200D01*
X127614523Y-97165200D02*
X127471666Y-97212819D01*
X127471666Y-97212819D02*
X127376428Y-97212819D01*
X127376428Y-97212819D02*
X127233571Y-97165200D01*
X127233571Y-97165200D02*
X127138333Y-97069961D01*
X127138333Y-97069961D02*
X127090714Y-96974723D01*
X127090714Y-96974723D02*
X127043095Y-96784247D01*
X127043095Y-96784247D02*
X127043095Y-96641390D01*
X127043095Y-96641390D02*
X127090714Y-96450914D01*
X127090714Y-96450914D02*
X127138333Y-96355676D01*
X127138333Y-96355676D02*
X127233571Y-96260438D01*
X127233571Y-96260438D02*
X127376428Y-96212819D01*
X127376428Y-96212819D02*
X127471666Y-96212819D01*
X127471666Y-96212819D02*
X127614523Y-96260438D01*
X127614523Y-96260438D02*
X127662142Y-96308057D01*
X128614523Y-97212819D02*
X128043095Y-97212819D01*
X128328809Y-97212819D02*
X128328809Y-96212819D01*
X128328809Y-96212819D02*
X128233571Y-96355676D01*
X128233571Y-96355676D02*
X128138333Y-96450914D01*
X128138333Y-96450914D02*
X128043095Y-96498533D01*
X129233571Y-96212819D02*
X129328809Y-96212819D01*
X129328809Y-96212819D02*
X129424047Y-96260438D01*
X129424047Y-96260438D02*
X129471666Y-96308057D01*
X129471666Y-96308057D02*
X129519285Y-96403295D01*
X129519285Y-96403295D02*
X129566904Y-96593771D01*
X129566904Y-96593771D02*
X129566904Y-96831866D01*
X129566904Y-96831866D02*
X129519285Y-97022342D01*
X129519285Y-97022342D02*
X129471666Y-97117580D01*
X129471666Y-97117580D02*
X129424047Y-97165200D01*
X129424047Y-97165200D02*
X129328809Y-97212819D01*
X129328809Y-97212819D02*
X129233571Y-97212819D01*
X129233571Y-97212819D02*
X129138333Y-97165200D01*
X129138333Y-97165200D02*
X129090714Y-97117580D01*
X129090714Y-97117580D02*
X129043095Y-97022342D01*
X129043095Y-97022342D02*
X128995476Y-96831866D01*
X128995476Y-96831866D02*
X128995476Y-96593771D01*
X128995476Y-96593771D02*
X129043095Y-96403295D01*
X129043095Y-96403295D02*
X129090714Y-96308057D01*
X129090714Y-96308057D02*
X129138333Y-96260438D01*
X129138333Y-96260438D02*
X129233571Y-96212819D01*
X167374580Y-83894166D02*
X167422200Y-83941785D01*
X167422200Y-83941785D02*
X167469819Y-84084642D01*
X167469819Y-84084642D02*
X167469819Y-84179880D01*
X167469819Y-84179880D02*
X167422200Y-84322737D01*
X167422200Y-84322737D02*
X167326961Y-84417975D01*
X167326961Y-84417975D02*
X167231723Y-84465594D01*
X167231723Y-84465594D02*
X167041247Y-84513213D01*
X167041247Y-84513213D02*
X166898390Y-84513213D01*
X166898390Y-84513213D02*
X166707914Y-84465594D01*
X166707914Y-84465594D02*
X166612676Y-84417975D01*
X166612676Y-84417975D02*
X166517438Y-84322737D01*
X166517438Y-84322737D02*
X166469819Y-84179880D01*
X166469819Y-84179880D02*
X166469819Y-84084642D01*
X166469819Y-84084642D02*
X166517438Y-83941785D01*
X166517438Y-83941785D02*
X166565057Y-83894166D01*
X166803152Y-83037023D02*
X167469819Y-83037023D01*
X166422200Y-83275118D02*
X167136485Y-83513213D01*
X167136485Y-83513213D02*
X167136485Y-82894166D01*
X105849419Y-98469466D02*
X105373228Y-98802799D01*
X105849419Y-99040894D02*
X104849419Y-99040894D01*
X104849419Y-99040894D02*
X104849419Y-98659942D01*
X104849419Y-98659942D02*
X104897038Y-98564704D01*
X104897038Y-98564704D02*
X104944657Y-98517085D01*
X104944657Y-98517085D02*
X105039895Y-98469466D01*
X105039895Y-98469466D02*
X105182752Y-98469466D01*
X105182752Y-98469466D02*
X105277990Y-98517085D01*
X105277990Y-98517085D02*
X105325609Y-98564704D01*
X105325609Y-98564704D02*
X105373228Y-98659942D01*
X105373228Y-98659942D02*
X105373228Y-99040894D01*
X104849419Y-97564704D02*
X104849419Y-98040894D01*
X104849419Y-98040894D02*
X105325609Y-98088513D01*
X105325609Y-98088513D02*
X105277990Y-98040894D01*
X105277990Y-98040894D02*
X105230371Y-97945656D01*
X105230371Y-97945656D02*
X105230371Y-97707561D01*
X105230371Y-97707561D02*
X105277990Y-97612323D01*
X105277990Y-97612323D02*
X105325609Y-97564704D01*
X105325609Y-97564704D02*
X105420847Y-97517085D01*
X105420847Y-97517085D02*
X105658942Y-97517085D01*
X105658942Y-97517085D02*
X105754180Y-97564704D01*
X105754180Y-97564704D02*
X105801800Y-97612323D01*
X105801800Y-97612323D02*
X105849419Y-97707561D01*
X105849419Y-97707561D02*
X105849419Y-97945656D01*
X105849419Y-97945656D02*
X105801800Y-98040894D01*
X105801800Y-98040894D02*
X105754180Y-98088513D01*
X189854819Y-82003857D02*
X189378628Y-82337190D01*
X189854819Y-82575285D02*
X188854819Y-82575285D01*
X188854819Y-82575285D02*
X188854819Y-82194333D01*
X188854819Y-82194333D02*
X188902438Y-82099095D01*
X188902438Y-82099095D02*
X188950057Y-82051476D01*
X188950057Y-82051476D02*
X189045295Y-82003857D01*
X189045295Y-82003857D02*
X189188152Y-82003857D01*
X189188152Y-82003857D02*
X189283390Y-82051476D01*
X189283390Y-82051476D02*
X189331009Y-82099095D01*
X189331009Y-82099095D02*
X189378628Y-82194333D01*
X189378628Y-82194333D02*
X189378628Y-82575285D01*
X189854819Y-81051476D02*
X189854819Y-81622904D01*
X189854819Y-81337190D02*
X188854819Y-81337190D01*
X188854819Y-81337190D02*
X188997676Y-81432428D01*
X188997676Y-81432428D02*
X189092914Y-81527666D01*
X189092914Y-81527666D02*
X189140533Y-81622904D01*
X188854819Y-80194333D02*
X188854819Y-80384809D01*
X188854819Y-80384809D02*
X188902438Y-80480047D01*
X188902438Y-80480047D02*
X188950057Y-80527666D01*
X188950057Y-80527666D02*
X189092914Y-80622904D01*
X189092914Y-80622904D02*
X189283390Y-80670523D01*
X189283390Y-80670523D02*
X189664342Y-80670523D01*
X189664342Y-80670523D02*
X189759580Y-80622904D01*
X189759580Y-80622904D02*
X189807200Y-80575285D01*
X189807200Y-80575285D02*
X189854819Y-80480047D01*
X189854819Y-80480047D02*
X189854819Y-80289571D01*
X189854819Y-80289571D02*
X189807200Y-80194333D01*
X189807200Y-80194333D02*
X189759580Y-80146714D01*
X189759580Y-80146714D02*
X189664342Y-80099095D01*
X189664342Y-80099095D02*
X189426247Y-80099095D01*
X189426247Y-80099095D02*
X189331009Y-80146714D01*
X189331009Y-80146714D02*
X189283390Y-80194333D01*
X189283390Y-80194333D02*
X189235771Y-80289571D01*
X189235771Y-80289571D02*
X189235771Y-80480047D01*
X189235771Y-80480047D02*
X189283390Y-80575285D01*
X189283390Y-80575285D02*
X189331009Y-80622904D01*
X189331009Y-80622904D02*
X189426247Y-80670523D01*
X205609142Y-105138319D02*
X205275809Y-104662128D01*
X205037714Y-105138319D02*
X205037714Y-104138319D01*
X205037714Y-104138319D02*
X205418666Y-104138319D01*
X205418666Y-104138319D02*
X205513904Y-104185938D01*
X205513904Y-104185938D02*
X205561523Y-104233557D01*
X205561523Y-104233557D02*
X205609142Y-104328795D01*
X205609142Y-104328795D02*
X205609142Y-104471652D01*
X205609142Y-104471652D02*
X205561523Y-104566890D01*
X205561523Y-104566890D02*
X205513904Y-104614509D01*
X205513904Y-104614509D02*
X205418666Y-104662128D01*
X205418666Y-104662128D02*
X205037714Y-104662128D01*
X206561523Y-105138319D02*
X205990095Y-105138319D01*
X206275809Y-105138319D02*
X206275809Y-104138319D01*
X206275809Y-104138319D02*
X206180571Y-104281176D01*
X206180571Y-104281176D02*
X206085333Y-104376414D01*
X206085333Y-104376414D02*
X205990095Y-104424033D01*
X207466285Y-104138319D02*
X206990095Y-104138319D01*
X206990095Y-104138319D02*
X206942476Y-104614509D01*
X206942476Y-104614509D02*
X206990095Y-104566890D01*
X206990095Y-104566890D02*
X207085333Y-104519271D01*
X207085333Y-104519271D02*
X207323428Y-104519271D01*
X207323428Y-104519271D02*
X207418666Y-104566890D01*
X207418666Y-104566890D02*
X207466285Y-104614509D01*
X207466285Y-104614509D02*
X207513904Y-104709747D01*
X207513904Y-104709747D02*
X207513904Y-104947842D01*
X207513904Y-104947842D02*
X207466285Y-105043080D01*
X207466285Y-105043080D02*
X207418666Y-105090700D01*
X207418666Y-105090700D02*
X207323428Y-105138319D01*
X207323428Y-105138319D02*
X207085333Y-105138319D01*
X207085333Y-105138319D02*
X206990095Y-105090700D01*
X206990095Y-105090700D02*
X206942476Y-105043080D01*
X220349095Y-76349819D02*
X220349095Y-77159342D01*
X220349095Y-77159342D02*
X220396714Y-77254580D01*
X220396714Y-77254580D02*
X220444333Y-77302200D01*
X220444333Y-77302200D02*
X220539571Y-77349819D01*
X220539571Y-77349819D02*
X220730047Y-77349819D01*
X220730047Y-77349819D02*
X220825285Y-77302200D01*
X220825285Y-77302200D02*
X220872904Y-77254580D01*
X220872904Y-77254580D02*
X220920523Y-77159342D01*
X220920523Y-77159342D02*
X220920523Y-76349819D01*
X221825285Y-76349819D02*
X221634809Y-76349819D01*
X221634809Y-76349819D02*
X221539571Y-76397438D01*
X221539571Y-76397438D02*
X221491952Y-76445057D01*
X221491952Y-76445057D02*
X221396714Y-76587914D01*
X221396714Y-76587914D02*
X221349095Y-76778390D01*
X221349095Y-76778390D02*
X221349095Y-77159342D01*
X221349095Y-77159342D02*
X221396714Y-77254580D01*
X221396714Y-77254580D02*
X221444333Y-77302200D01*
X221444333Y-77302200D02*
X221539571Y-77349819D01*
X221539571Y-77349819D02*
X221730047Y-77349819D01*
X221730047Y-77349819D02*
X221825285Y-77302200D01*
X221825285Y-77302200D02*
X221872904Y-77254580D01*
X221872904Y-77254580D02*
X221920523Y-77159342D01*
X221920523Y-77159342D02*
X221920523Y-76921247D01*
X221920523Y-76921247D02*
X221872904Y-76826009D01*
X221872904Y-76826009D02*
X221825285Y-76778390D01*
X221825285Y-76778390D02*
X221730047Y-76730771D01*
X221730047Y-76730771D02*
X221539571Y-76730771D01*
X221539571Y-76730771D02*
X221444333Y-76778390D01*
X221444333Y-76778390D02*
X221396714Y-76826009D01*
X221396714Y-76826009D02*
X221349095Y-76921247D01*
X141878819Y-100467666D02*
X141402628Y-100800999D01*
X141878819Y-101039094D02*
X140878819Y-101039094D01*
X140878819Y-101039094D02*
X140878819Y-100658142D01*
X140878819Y-100658142D02*
X140926438Y-100562904D01*
X140926438Y-100562904D02*
X140974057Y-100515285D01*
X140974057Y-100515285D02*
X141069295Y-100467666D01*
X141069295Y-100467666D02*
X141212152Y-100467666D01*
X141212152Y-100467666D02*
X141307390Y-100515285D01*
X141307390Y-100515285D02*
X141355009Y-100562904D01*
X141355009Y-100562904D02*
X141402628Y-100658142D01*
X141402628Y-100658142D02*
X141402628Y-101039094D01*
X141878819Y-99515285D02*
X141878819Y-100086713D01*
X141878819Y-99800999D02*
X140878819Y-99800999D01*
X140878819Y-99800999D02*
X141021676Y-99896237D01*
X141021676Y-99896237D02*
X141116914Y-99991475D01*
X141116914Y-99991475D02*
X141164533Y-100086713D01*
X203431142Y-78560580D02*
X203383523Y-78608200D01*
X203383523Y-78608200D02*
X203240666Y-78655819D01*
X203240666Y-78655819D02*
X203145428Y-78655819D01*
X203145428Y-78655819D02*
X203002571Y-78608200D01*
X203002571Y-78608200D02*
X202907333Y-78512961D01*
X202907333Y-78512961D02*
X202859714Y-78417723D01*
X202859714Y-78417723D02*
X202812095Y-78227247D01*
X202812095Y-78227247D02*
X202812095Y-78084390D01*
X202812095Y-78084390D02*
X202859714Y-77893914D01*
X202859714Y-77893914D02*
X202907333Y-77798676D01*
X202907333Y-77798676D02*
X203002571Y-77703438D01*
X203002571Y-77703438D02*
X203145428Y-77655819D01*
X203145428Y-77655819D02*
X203240666Y-77655819D01*
X203240666Y-77655819D02*
X203383523Y-77703438D01*
X203383523Y-77703438D02*
X203431142Y-77751057D01*
X203812095Y-77751057D02*
X203859714Y-77703438D01*
X203859714Y-77703438D02*
X203954952Y-77655819D01*
X203954952Y-77655819D02*
X204193047Y-77655819D01*
X204193047Y-77655819D02*
X204288285Y-77703438D01*
X204288285Y-77703438D02*
X204335904Y-77751057D01*
X204335904Y-77751057D02*
X204383523Y-77846295D01*
X204383523Y-77846295D02*
X204383523Y-77941533D01*
X204383523Y-77941533D02*
X204335904Y-78084390D01*
X204335904Y-78084390D02*
X203764476Y-78655819D01*
X203764476Y-78655819D02*
X204383523Y-78655819D01*
X204764476Y-77751057D02*
X204812095Y-77703438D01*
X204812095Y-77703438D02*
X204907333Y-77655819D01*
X204907333Y-77655819D02*
X205145428Y-77655819D01*
X205145428Y-77655819D02*
X205240666Y-77703438D01*
X205240666Y-77703438D02*
X205288285Y-77751057D01*
X205288285Y-77751057D02*
X205335904Y-77846295D01*
X205335904Y-77846295D02*
X205335904Y-77941533D01*
X205335904Y-77941533D02*
X205288285Y-78084390D01*
X205288285Y-78084390D02*
X204716857Y-78655819D01*
X204716857Y-78655819D02*
X205335904Y-78655819D01*
X171978819Y-116567666D02*
X171502628Y-116900999D01*
X171978819Y-117139094D02*
X170978819Y-117139094D01*
X170978819Y-117139094D02*
X170978819Y-116758142D01*
X170978819Y-116758142D02*
X171026438Y-116662904D01*
X171026438Y-116662904D02*
X171074057Y-116615285D01*
X171074057Y-116615285D02*
X171169295Y-116567666D01*
X171169295Y-116567666D02*
X171312152Y-116567666D01*
X171312152Y-116567666D02*
X171407390Y-116615285D01*
X171407390Y-116615285D02*
X171455009Y-116662904D01*
X171455009Y-116662904D02*
X171502628Y-116758142D01*
X171502628Y-116758142D02*
X171502628Y-117139094D01*
X170978819Y-115710523D02*
X170978819Y-115900999D01*
X170978819Y-115900999D02*
X171026438Y-115996237D01*
X171026438Y-115996237D02*
X171074057Y-116043856D01*
X171074057Y-116043856D02*
X171216914Y-116139094D01*
X171216914Y-116139094D02*
X171407390Y-116186713D01*
X171407390Y-116186713D02*
X171788342Y-116186713D01*
X171788342Y-116186713D02*
X171883580Y-116139094D01*
X171883580Y-116139094D02*
X171931200Y-116091475D01*
X171931200Y-116091475D02*
X171978819Y-115996237D01*
X171978819Y-115996237D02*
X171978819Y-115805761D01*
X171978819Y-115805761D02*
X171931200Y-115710523D01*
X171931200Y-115710523D02*
X171883580Y-115662904D01*
X171883580Y-115662904D02*
X171788342Y-115615285D01*
X171788342Y-115615285D02*
X171550247Y-115615285D01*
X171550247Y-115615285D02*
X171455009Y-115662904D01*
X171455009Y-115662904D02*
X171407390Y-115710523D01*
X171407390Y-115710523D02*
X171359771Y-115805761D01*
X171359771Y-115805761D02*
X171359771Y-115996237D01*
X171359771Y-115996237D02*
X171407390Y-116091475D01*
X171407390Y-116091475D02*
X171455009Y-116139094D01*
X171455009Y-116139094D02*
X171550247Y-116186713D01*
X100128819Y-85943857D02*
X99652628Y-86277190D01*
X100128819Y-86515285D02*
X99128819Y-86515285D01*
X99128819Y-86515285D02*
X99128819Y-86134333D01*
X99128819Y-86134333D02*
X99176438Y-86039095D01*
X99176438Y-86039095D02*
X99224057Y-85991476D01*
X99224057Y-85991476D02*
X99319295Y-85943857D01*
X99319295Y-85943857D02*
X99462152Y-85943857D01*
X99462152Y-85943857D02*
X99557390Y-85991476D01*
X99557390Y-85991476D02*
X99605009Y-86039095D01*
X99605009Y-86039095D02*
X99652628Y-86134333D01*
X99652628Y-86134333D02*
X99652628Y-86515285D01*
X99224057Y-85562904D02*
X99176438Y-85515285D01*
X99176438Y-85515285D02*
X99128819Y-85420047D01*
X99128819Y-85420047D02*
X99128819Y-85181952D01*
X99128819Y-85181952D02*
X99176438Y-85086714D01*
X99176438Y-85086714D02*
X99224057Y-85039095D01*
X99224057Y-85039095D02*
X99319295Y-84991476D01*
X99319295Y-84991476D02*
X99414533Y-84991476D01*
X99414533Y-84991476D02*
X99557390Y-85039095D01*
X99557390Y-85039095D02*
X100128819Y-85610523D01*
X100128819Y-85610523D02*
X100128819Y-84991476D01*
X99224057Y-84610523D02*
X99176438Y-84562904D01*
X99176438Y-84562904D02*
X99128819Y-84467666D01*
X99128819Y-84467666D02*
X99128819Y-84229571D01*
X99128819Y-84229571D02*
X99176438Y-84134333D01*
X99176438Y-84134333D02*
X99224057Y-84086714D01*
X99224057Y-84086714D02*
X99319295Y-84039095D01*
X99319295Y-84039095D02*
X99414533Y-84039095D01*
X99414533Y-84039095D02*
X99557390Y-84086714D01*
X99557390Y-84086714D02*
X100128819Y-84658142D01*
X100128819Y-84658142D02*
X100128819Y-84039095D01*
X124906933Y-113966219D02*
X124573600Y-113490028D01*
X124335505Y-113966219D02*
X124335505Y-112966219D01*
X124335505Y-112966219D02*
X124716457Y-112966219D01*
X124716457Y-112966219D02*
X124811695Y-113013838D01*
X124811695Y-113013838D02*
X124859314Y-113061457D01*
X124859314Y-113061457D02*
X124906933Y-113156695D01*
X124906933Y-113156695D02*
X124906933Y-113299552D01*
X124906933Y-113299552D02*
X124859314Y-113394790D01*
X124859314Y-113394790D02*
X124811695Y-113442409D01*
X124811695Y-113442409D02*
X124716457Y-113490028D01*
X124716457Y-113490028D02*
X124335505Y-113490028D01*
X125240267Y-112966219D02*
X125906933Y-112966219D01*
X125906933Y-112966219D02*
X125478362Y-113966219D01*
X215515142Y-105055580D02*
X215467523Y-105103200D01*
X215467523Y-105103200D02*
X215324666Y-105150819D01*
X215324666Y-105150819D02*
X215229428Y-105150819D01*
X215229428Y-105150819D02*
X215086571Y-105103200D01*
X215086571Y-105103200D02*
X214991333Y-105007961D01*
X214991333Y-105007961D02*
X214943714Y-104912723D01*
X214943714Y-104912723D02*
X214896095Y-104722247D01*
X214896095Y-104722247D02*
X214896095Y-104579390D01*
X214896095Y-104579390D02*
X214943714Y-104388914D01*
X214943714Y-104388914D02*
X214991333Y-104293676D01*
X214991333Y-104293676D02*
X215086571Y-104198438D01*
X215086571Y-104198438D02*
X215229428Y-104150819D01*
X215229428Y-104150819D02*
X215324666Y-104150819D01*
X215324666Y-104150819D02*
X215467523Y-104198438D01*
X215467523Y-104198438D02*
X215515142Y-104246057D01*
X215896095Y-104246057D02*
X215943714Y-104198438D01*
X215943714Y-104198438D02*
X216038952Y-104150819D01*
X216038952Y-104150819D02*
X216277047Y-104150819D01*
X216277047Y-104150819D02*
X216372285Y-104198438D01*
X216372285Y-104198438D02*
X216419904Y-104246057D01*
X216419904Y-104246057D02*
X216467523Y-104341295D01*
X216467523Y-104341295D02*
X216467523Y-104436533D01*
X216467523Y-104436533D02*
X216419904Y-104579390D01*
X216419904Y-104579390D02*
X215848476Y-105150819D01*
X215848476Y-105150819D02*
X216467523Y-105150819D01*
X216800857Y-104150819D02*
X217419904Y-104150819D01*
X217419904Y-104150819D02*
X217086571Y-104531771D01*
X217086571Y-104531771D02*
X217229428Y-104531771D01*
X217229428Y-104531771D02*
X217324666Y-104579390D01*
X217324666Y-104579390D02*
X217372285Y-104627009D01*
X217372285Y-104627009D02*
X217419904Y-104722247D01*
X217419904Y-104722247D02*
X217419904Y-104960342D01*
X217419904Y-104960342D02*
X217372285Y-105055580D01*
X217372285Y-105055580D02*
X217324666Y-105103200D01*
X217324666Y-105103200D02*
X217229428Y-105150819D01*
X217229428Y-105150819D02*
X216943714Y-105150819D01*
X216943714Y-105150819D02*
X216848476Y-105103200D01*
X216848476Y-105103200D02*
X216800857Y-105055580D01*
X214885142Y-85243819D02*
X214551809Y-84767628D01*
X214313714Y-85243819D02*
X214313714Y-84243819D01*
X214313714Y-84243819D02*
X214694666Y-84243819D01*
X214694666Y-84243819D02*
X214789904Y-84291438D01*
X214789904Y-84291438D02*
X214837523Y-84339057D01*
X214837523Y-84339057D02*
X214885142Y-84434295D01*
X214885142Y-84434295D02*
X214885142Y-84577152D01*
X214885142Y-84577152D02*
X214837523Y-84672390D01*
X214837523Y-84672390D02*
X214789904Y-84720009D01*
X214789904Y-84720009D02*
X214694666Y-84767628D01*
X214694666Y-84767628D02*
X214313714Y-84767628D01*
X215837523Y-85243819D02*
X215266095Y-85243819D01*
X215551809Y-85243819D02*
X215551809Y-84243819D01*
X215551809Y-84243819D02*
X215456571Y-84386676D01*
X215456571Y-84386676D02*
X215361333Y-84481914D01*
X215361333Y-84481914D02*
X215266095Y-84529533D01*
X216218476Y-84339057D02*
X216266095Y-84291438D01*
X216266095Y-84291438D02*
X216361333Y-84243819D01*
X216361333Y-84243819D02*
X216599428Y-84243819D01*
X216599428Y-84243819D02*
X216694666Y-84291438D01*
X216694666Y-84291438D02*
X216742285Y-84339057D01*
X216742285Y-84339057D02*
X216789904Y-84434295D01*
X216789904Y-84434295D02*
X216789904Y-84529533D01*
X216789904Y-84529533D02*
X216742285Y-84672390D01*
X216742285Y-84672390D02*
X216170857Y-85243819D01*
X216170857Y-85243819D02*
X216789904Y-85243819D01*
X99262095Y-54036533D02*
X100785905Y-54036533D01*
X100024000Y-54798438D02*
X100024000Y-53274628D01*
X131068642Y-88760580D02*
X131021023Y-88808200D01*
X131021023Y-88808200D02*
X130878166Y-88855819D01*
X130878166Y-88855819D02*
X130782928Y-88855819D01*
X130782928Y-88855819D02*
X130640071Y-88808200D01*
X130640071Y-88808200D02*
X130544833Y-88712961D01*
X130544833Y-88712961D02*
X130497214Y-88617723D01*
X130497214Y-88617723D02*
X130449595Y-88427247D01*
X130449595Y-88427247D02*
X130449595Y-88284390D01*
X130449595Y-88284390D02*
X130497214Y-88093914D01*
X130497214Y-88093914D02*
X130544833Y-87998676D01*
X130544833Y-87998676D02*
X130640071Y-87903438D01*
X130640071Y-87903438D02*
X130782928Y-87855819D01*
X130782928Y-87855819D02*
X130878166Y-87855819D01*
X130878166Y-87855819D02*
X131021023Y-87903438D01*
X131021023Y-87903438D02*
X131068642Y-87951057D01*
X132021023Y-88855819D02*
X131449595Y-88855819D01*
X131735309Y-88855819D02*
X131735309Y-87855819D01*
X131735309Y-87855819D02*
X131640071Y-87998676D01*
X131640071Y-87998676D02*
X131544833Y-88093914D01*
X131544833Y-88093914D02*
X131449595Y-88141533D01*
X132401976Y-87951057D02*
X132449595Y-87903438D01*
X132449595Y-87903438D02*
X132544833Y-87855819D01*
X132544833Y-87855819D02*
X132782928Y-87855819D01*
X132782928Y-87855819D02*
X132878166Y-87903438D01*
X132878166Y-87903438D02*
X132925785Y-87951057D01*
X132925785Y-87951057D02*
X132973404Y-88046295D01*
X132973404Y-88046295D02*
X132973404Y-88141533D01*
X132973404Y-88141533D02*
X132925785Y-88284390D01*
X132925785Y-88284390D02*
X132354357Y-88855819D01*
X132354357Y-88855819D02*
X132973404Y-88855819D01*
X213610142Y-94305819D02*
X213276809Y-93829628D01*
X213038714Y-94305819D02*
X213038714Y-93305819D01*
X213038714Y-93305819D02*
X213419666Y-93305819D01*
X213419666Y-93305819D02*
X213514904Y-93353438D01*
X213514904Y-93353438D02*
X213562523Y-93401057D01*
X213562523Y-93401057D02*
X213610142Y-93496295D01*
X213610142Y-93496295D02*
X213610142Y-93639152D01*
X213610142Y-93639152D02*
X213562523Y-93734390D01*
X213562523Y-93734390D02*
X213514904Y-93782009D01*
X213514904Y-93782009D02*
X213419666Y-93829628D01*
X213419666Y-93829628D02*
X213038714Y-93829628D01*
X214562523Y-94305819D02*
X213991095Y-94305819D01*
X214276809Y-94305819D02*
X214276809Y-93305819D01*
X214276809Y-93305819D02*
X214181571Y-93448676D01*
X214181571Y-93448676D02*
X214086333Y-93543914D01*
X214086333Y-93543914D02*
X213991095Y-93591533D01*
X214895857Y-93305819D02*
X215562523Y-93305819D01*
X215562523Y-93305819D02*
X215133952Y-94305819D01*
X166268333Y-92922080D02*
X166220714Y-92969700D01*
X166220714Y-92969700D02*
X166077857Y-93017319D01*
X166077857Y-93017319D02*
X165982619Y-93017319D01*
X165982619Y-93017319D02*
X165839762Y-92969700D01*
X165839762Y-92969700D02*
X165744524Y-92874461D01*
X165744524Y-92874461D02*
X165696905Y-92779223D01*
X165696905Y-92779223D02*
X165649286Y-92588747D01*
X165649286Y-92588747D02*
X165649286Y-92445890D01*
X165649286Y-92445890D02*
X165696905Y-92255414D01*
X165696905Y-92255414D02*
X165744524Y-92160176D01*
X165744524Y-92160176D02*
X165839762Y-92064938D01*
X165839762Y-92064938D02*
X165982619Y-92017319D01*
X165982619Y-92017319D02*
X166077857Y-92017319D01*
X166077857Y-92017319D02*
X166220714Y-92064938D01*
X166220714Y-92064938D02*
X166268333Y-92112557D01*
X166601667Y-92017319D02*
X167220714Y-92017319D01*
X167220714Y-92017319D02*
X166887381Y-92398271D01*
X166887381Y-92398271D02*
X167030238Y-92398271D01*
X167030238Y-92398271D02*
X167125476Y-92445890D01*
X167125476Y-92445890D02*
X167173095Y-92493509D01*
X167173095Y-92493509D02*
X167220714Y-92588747D01*
X167220714Y-92588747D02*
X167220714Y-92826842D01*
X167220714Y-92826842D02*
X167173095Y-92922080D01*
X167173095Y-92922080D02*
X167125476Y-92969700D01*
X167125476Y-92969700D02*
X167030238Y-93017319D01*
X167030238Y-93017319D02*
X166744524Y-93017319D01*
X166744524Y-93017319D02*
X166649286Y-92969700D01*
X166649286Y-92969700D02*
X166601667Y-92922080D01*
X140308628Y-86168690D02*
X140784819Y-86168690D01*
X139784819Y-86502023D02*
X140308628Y-86168690D01*
X140308628Y-86168690D02*
X139784819Y-85835357D01*
X139880057Y-85549642D02*
X139832438Y-85502023D01*
X139832438Y-85502023D02*
X139784819Y-85406785D01*
X139784819Y-85406785D02*
X139784819Y-85168690D01*
X139784819Y-85168690D02*
X139832438Y-85073452D01*
X139832438Y-85073452D02*
X139880057Y-85025833D01*
X139880057Y-85025833D02*
X139975295Y-84978214D01*
X139975295Y-84978214D02*
X140070533Y-84978214D01*
X140070533Y-84978214D02*
X140213390Y-85025833D01*
X140213390Y-85025833D02*
X140784819Y-85597261D01*
X140784819Y-85597261D02*
X140784819Y-84978214D01*
X195581142Y-86005819D02*
X195247809Y-85529628D01*
X195009714Y-86005819D02*
X195009714Y-85005819D01*
X195009714Y-85005819D02*
X195390666Y-85005819D01*
X195390666Y-85005819D02*
X195485904Y-85053438D01*
X195485904Y-85053438D02*
X195533523Y-85101057D01*
X195533523Y-85101057D02*
X195581142Y-85196295D01*
X195581142Y-85196295D02*
X195581142Y-85339152D01*
X195581142Y-85339152D02*
X195533523Y-85434390D01*
X195533523Y-85434390D02*
X195485904Y-85482009D01*
X195485904Y-85482009D02*
X195390666Y-85529628D01*
X195390666Y-85529628D02*
X195009714Y-85529628D01*
X196533523Y-86005819D02*
X195962095Y-86005819D01*
X196247809Y-86005819D02*
X196247809Y-85005819D01*
X196247809Y-85005819D02*
X196152571Y-85148676D01*
X196152571Y-85148676D02*
X196057333Y-85243914D01*
X196057333Y-85243914D02*
X195962095Y-85291533D01*
X197152571Y-85005819D02*
X197247809Y-85005819D01*
X197247809Y-85005819D02*
X197343047Y-85053438D01*
X197343047Y-85053438D02*
X197390666Y-85101057D01*
X197390666Y-85101057D02*
X197438285Y-85196295D01*
X197438285Y-85196295D02*
X197485904Y-85386771D01*
X197485904Y-85386771D02*
X197485904Y-85624866D01*
X197485904Y-85624866D02*
X197438285Y-85815342D01*
X197438285Y-85815342D02*
X197390666Y-85910580D01*
X197390666Y-85910580D02*
X197343047Y-85958200D01*
X197343047Y-85958200D02*
X197247809Y-86005819D01*
X197247809Y-86005819D02*
X197152571Y-86005819D01*
X197152571Y-86005819D02*
X197057333Y-85958200D01*
X197057333Y-85958200D02*
X197009714Y-85910580D01*
X197009714Y-85910580D02*
X196962095Y-85815342D01*
X196962095Y-85815342D02*
X196914476Y-85624866D01*
X196914476Y-85624866D02*
X196914476Y-85386771D01*
X196914476Y-85386771D02*
X196962095Y-85196295D01*
X196962095Y-85196295D02*
X197009714Y-85101057D01*
X197009714Y-85101057D02*
X197057333Y-85053438D01*
X197057333Y-85053438D02*
X197152571Y-85005819D01*
X221484142Y-63983819D02*
X221150809Y-63507628D01*
X220912714Y-63983819D02*
X220912714Y-62983819D01*
X220912714Y-62983819D02*
X221293666Y-62983819D01*
X221293666Y-62983819D02*
X221388904Y-63031438D01*
X221388904Y-63031438D02*
X221436523Y-63079057D01*
X221436523Y-63079057D02*
X221484142Y-63174295D01*
X221484142Y-63174295D02*
X221484142Y-63317152D01*
X221484142Y-63317152D02*
X221436523Y-63412390D01*
X221436523Y-63412390D02*
X221388904Y-63460009D01*
X221388904Y-63460009D02*
X221293666Y-63507628D01*
X221293666Y-63507628D02*
X220912714Y-63507628D01*
X222436523Y-63983819D02*
X221865095Y-63983819D01*
X222150809Y-63983819D02*
X222150809Y-62983819D01*
X222150809Y-62983819D02*
X222055571Y-63126676D01*
X222055571Y-63126676D02*
X221960333Y-63221914D01*
X221960333Y-63221914D02*
X221865095Y-63269533D01*
X222769857Y-62983819D02*
X223388904Y-62983819D01*
X223388904Y-62983819D02*
X223055571Y-63364771D01*
X223055571Y-63364771D02*
X223198428Y-63364771D01*
X223198428Y-63364771D02*
X223293666Y-63412390D01*
X223293666Y-63412390D02*
X223341285Y-63460009D01*
X223341285Y-63460009D02*
X223388904Y-63555247D01*
X223388904Y-63555247D02*
X223388904Y-63793342D01*
X223388904Y-63793342D02*
X223341285Y-63888580D01*
X223341285Y-63888580D02*
X223293666Y-63936200D01*
X223293666Y-63936200D02*
X223198428Y-63983819D01*
X223198428Y-63983819D02*
X222912714Y-63983819D01*
X222912714Y-63983819D02*
X222817476Y-63936200D01*
X222817476Y-63936200D02*
X222769857Y-63888580D01*
X205312095Y-98005819D02*
X205312095Y-98815342D01*
X205312095Y-98815342D02*
X205359714Y-98910580D01*
X205359714Y-98910580D02*
X205407333Y-98958200D01*
X205407333Y-98958200D02*
X205502571Y-99005819D01*
X205502571Y-99005819D02*
X205693047Y-99005819D01*
X205693047Y-99005819D02*
X205788285Y-98958200D01*
X205788285Y-98958200D02*
X205835904Y-98910580D01*
X205835904Y-98910580D02*
X205883523Y-98815342D01*
X205883523Y-98815342D02*
X205883523Y-98005819D01*
X206502571Y-98434390D02*
X206407333Y-98386771D01*
X206407333Y-98386771D02*
X206359714Y-98339152D01*
X206359714Y-98339152D02*
X206312095Y-98243914D01*
X206312095Y-98243914D02*
X206312095Y-98196295D01*
X206312095Y-98196295D02*
X206359714Y-98101057D01*
X206359714Y-98101057D02*
X206407333Y-98053438D01*
X206407333Y-98053438D02*
X206502571Y-98005819D01*
X206502571Y-98005819D02*
X206693047Y-98005819D01*
X206693047Y-98005819D02*
X206788285Y-98053438D01*
X206788285Y-98053438D02*
X206835904Y-98101057D01*
X206835904Y-98101057D02*
X206883523Y-98196295D01*
X206883523Y-98196295D02*
X206883523Y-98243914D01*
X206883523Y-98243914D02*
X206835904Y-98339152D01*
X206835904Y-98339152D02*
X206788285Y-98386771D01*
X206788285Y-98386771D02*
X206693047Y-98434390D01*
X206693047Y-98434390D02*
X206502571Y-98434390D01*
X206502571Y-98434390D02*
X206407333Y-98482009D01*
X206407333Y-98482009D02*
X206359714Y-98529628D01*
X206359714Y-98529628D02*
X206312095Y-98624866D01*
X206312095Y-98624866D02*
X206312095Y-98815342D01*
X206312095Y-98815342D02*
X206359714Y-98910580D01*
X206359714Y-98910580D02*
X206407333Y-98958200D01*
X206407333Y-98958200D02*
X206502571Y-99005819D01*
X206502571Y-99005819D02*
X206693047Y-99005819D01*
X206693047Y-99005819D02*
X206788285Y-98958200D01*
X206788285Y-98958200D02*
X206835904Y-98910580D01*
X206835904Y-98910580D02*
X206883523Y-98815342D01*
X206883523Y-98815342D02*
X206883523Y-98624866D01*
X206883523Y-98624866D02*
X206835904Y-98529628D01*
X206835904Y-98529628D02*
X206788285Y-98482009D01*
X206788285Y-98482009D02*
X206693047Y-98434390D01*
X130402628Y-97770190D02*
X130878819Y-97770190D01*
X129878819Y-98103523D02*
X130402628Y-97770190D01*
X130402628Y-97770190D02*
X129878819Y-97436857D01*
X130878819Y-96579714D02*
X130878819Y-97151142D01*
X130878819Y-96865428D02*
X129878819Y-96865428D01*
X129878819Y-96865428D02*
X130021676Y-96960666D01*
X130021676Y-96960666D02*
X130116914Y-97055904D01*
X130116914Y-97055904D02*
X130164533Y-97151142D01*
X121107333Y-126055819D02*
X120774000Y-125579628D01*
X120535905Y-126055819D02*
X120535905Y-125055819D01*
X120535905Y-125055819D02*
X120916857Y-125055819D01*
X120916857Y-125055819D02*
X121012095Y-125103438D01*
X121012095Y-125103438D02*
X121059714Y-125151057D01*
X121059714Y-125151057D02*
X121107333Y-125246295D01*
X121107333Y-125246295D02*
X121107333Y-125389152D01*
X121107333Y-125389152D02*
X121059714Y-125484390D01*
X121059714Y-125484390D02*
X121012095Y-125532009D01*
X121012095Y-125532009D02*
X120916857Y-125579628D01*
X120916857Y-125579628D02*
X120535905Y-125579628D01*
X121440667Y-125055819D02*
X122059714Y-125055819D01*
X122059714Y-125055819D02*
X121726381Y-125436771D01*
X121726381Y-125436771D02*
X121869238Y-125436771D01*
X121869238Y-125436771D02*
X121964476Y-125484390D01*
X121964476Y-125484390D02*
X122012095Y-125532009D01*
X122012095Y-125532009D02*
X122059714Y-125627247D01*
X122059714Y-125627247D02*
X122059714Y-125865342D01*
X122059714Y-125865342D02*
X122012095Y-125960580D01*
X122012095Y-125960580D02*
X121964476Y-126008200D01*
X121964476Y-126008200D02*
X121869238Y-126055819D01*
X121869238Y-126055819D02*
X121583524Y-126055819D01*
X121583524Y-126055819D02*
X121488286Y-126008200D01*
X121488286Y-126008200D02*
X121440667Y-125960580D01*
X185730486Y-120080419D02*
X185730486Y-119080419D01*
X185730486Y-119080419D02*
X186301914Y-120080419D01*
X186301914Y-120080419D02*
X186301914Y-119080419D01*
X187349533Y-119985180D02*
X187301914Y-120032800D01*
X187301914Y-120032800D02*
X187159057Y-120080419D01*
X187159057Y-120080419D02*
X187063819Y-120080419D01*
X187063819Y-120080419D02*
X186920962Y-120032800D01*
X186920962Y-120032800D02*
X186825724Y-119937561D01*
X186825724Y-119937561D02*
X186778105Y-119842323D01*
X186778105Y-119842323D02*
X186730486Y-119651847D01*
X186730486Y-119651847D02*
X186730486Y-119508990D01*
X186730486Y-119508990D02*
X186778105Y-119318514D01*
X186778105Y-119318514D02*
X186825724Y-119223276D01*
X186825724Y-119223276D02*
X186920962Y-119128038D01*
X186920962Y-119128038D02*
X187063819Y-119080419D01*
X187063819Y-119080419D02*
X187159057Y-119080419D01*
X187159057Y-119080419D02*
X187301914Y-119128038D01*
X187301914Y-119128038D02*
X187349533Y-119175657D01*
X176665723Y-119985180D02*
X176618104Y-120032800D01*
X176618104Y-120032800D02*
X176475247Y-120080419D01*
X176475247Y-120080419D02*
X176380009Y-120080419D01*
X176380009Y-120080419D02*
X176237152Y-120032800D01*
X176237152Y-120032800D02*
X176141914Y-119937561D01*
X176141914Y-119937561D02*
X176094295Y-119842323D01*
X176094295Y-119842323D02*
X176046676Y-119651847D01*
X176046676Y-119651847D02*
X176046676Y-119508990D01*
X176046676Y-119508990D02*
X176094295Y-119318514D01*
X176094295Y-119318514D02*
X176141914Y-119223276D01*
X176141914Y-119223276D02*
X176237152Y-119128038D01*
X176237152Y-119128038D02*
X176380009Y-119080419D01*
X176380009Y-119080419D02*
X176475247Y-119080419D01*
X176475247Y-119080419D02*
X176618104Y-119128038D01*
X176618104Y-119128038D02*
X176665723Y-119175657D01*
X180626676Y-120080419D02*
X180626676Y-119080419D01*
X180626676Y-119080419D02*
X181198104Y-120080419D01*
X181198104Y-120080419D02*
X181198104Y-119080419D01*
X181864771Y-119080419D02*
X182055247Y-119080419D01*
X182055247Y-119080419D02*
X182150485Y-119128038D01*
X182150485Y-119128038D02*
X182245723Y-119223276D01*
X182245723Y-119223276D02*
X182293342Y-119413752D01*
X182293342Y-119413752D02*
X182293342Y-119747085D01*
X182293342Y-119747085D02*
X182245723Y-119937561D01*
X182245723Y-119937561D02*
X182150485Y-120032800D01*
X182150485Y-120032800D02*
X182055247Y-120080419D01*
X182055247Y-120080419D02*
X181864771Y-120080419D01*
X181864771Y-120080419D02*
X181769533Y-120032800D01*
X181769533Y-120032800D02*
X181674295Y-119937561D01*
X181674295Y-119937561D02*
X181626676Y-119747085D01*
X181626676Y-119747085D02*
X181626676Y-119413752D01*
X181626676Y-119413752D02*
X181674295Y-119223276D01*
X181674295Y-119223276D02*
X181769533Y-119128038D01*
X181769533Y-119128038D02*
X181864771Y-119080419D01*
X128138333Y-101943580D02*
X128090714Y-101991200D01*
X128090714Y-101991200D02*
X127947857Y-102038819D01*
X127947857Y-102038819D02*
X127852619Y-102038819D01*
X127852619Y-102038819D02*
X127709762Y-101991200D01*
X127709762Y-101991200D02*
X127614524Y-101895961D01*
X127614524Y-101895961D02*
X127566905Y-101800723D01*
X127566905Y-101800723D02*
X127519286Y-101610247D01*
X127519286Y-101610247D02*
X127519286Y-101467390D01*
X127519286Y-101467390D02*
X127566905Y-101276914D01*
X127566905Y-101276914D02*
X127614524Y-101181676D01*
X127614524Y-101181676D02*
X127709762Y-101086438D01*
X127709762Y-101086438D02*
X127852619Y-101038819D01*
X127852619Y-101038819D02*
X127947857Y-101038819D01*
X127947857Y-101038819D02*
X128090714Y-101086438D01*
X128090714Y-101086438D02*
X128138333Y-101134057D01*
X128614524Y-102038819D02*
X128805000Y-102038819D01*
X128805000Y-102038819D02*
X128900238Y-101991200D01*
X128900238Y-101991200D02*
X128947857Y-101943580D01*
X128947857Y-101943580D02*
X129043095Y-101800723D01*
X129043095Y-101800723D02*
X129090714Y-101610247D01*
X129090714Y-101610247D02*
X129090714Y-101229295D01*
X129090714Y-101229295D02*
X129043095Y-101134057D01*
X129043095Y-101134057D02*
X128995476Y-101086438D01*
X128995476Y-101086438D02*
X128900238Y-101038819D01*
X128900238Y-101038819D02*
X128709762Y-101038819D01*
X128709762Y-101038819D02*
X128614524Y-101086438D01*
X128614524Y-101086438D02*
X128566905Y-101134057D01*
X128566905Y-101134057D02*
X128519286Y-101229295D01*
X128519286Y-101229295D02*
X128519286Y-101467390D01*
X128519286Y-101467390D02*
X128566905Y-101562628D01*
X128566905Y-101562628D02*
X128614524Y-101610247D01*
X128614524Y-101610247D02*
X128709762Y-101657866D01*
X128709762Y-101657866D02*
X128900238Y-101657866D01*
X128900238Y-101657866D02*
X128995476Y-101610247D01*
X128995476Y-101610247D02*
X129043095Y-101562628D01*
X129043095Y-101562628D02*
X129090714Y-101467390D01*
X148848095Y-90179819D02*
X148848095Y-90989342D01*
X148848095Y-90989342D02*
X148895714Y-91084580D01*
X148895714Y-91084580D02*
X148943333Y-91132200D01*
X148943333Y-91132200D02*
X149038571Y-91179819D01*
X149038571Y-91179819D02*
X149229047Y-91179819D01*
X149229047Y-91179819D02*
X149324285Y-91132200D01*
X149324285Y-91132200D02*
X149371904Y-91084580D01*
X149371904Y-91084580D02*
X149419523Y-90989342D01*
X149419523Y-90989342D02*
X149419523Y-90179819D01*
X150419523Y-91179819D02*
X149848095Y-91179819D01*
X150133809Y-91179819D02*
X150133809Y-90179819D01*
X150133809Y-90179819D02*
X150038571Y-90322676D01*
X150038571Y-90322676D02*
X149943333Y-90417914D01*
X149943333Y-90417914D02*
X149848095Y-90465533D01*
D12*
X205273000Y-89775564D02*
X205273000Y-86721436D01*
X207993000Y-89775564D02*
X207993000Y-86721436D01*
X143156748Y-85638000D02*
X144579252Y-85638000D01*
X143156748Y-87458000D02*
X144579252Y-87458000D01*
X192677500Y-73108000D02*
X192677500Y-74508000D01*
X194997500Y-73098000D02*
X194997500Y-74508000D01*
X195277500Y-72968000D02*
X194947500Y-72728000D01*
X195277500Y-72488000D01*
X195277500Y-72968000D01*
G36*
X195277500Y-72968000D02*
G01*
X194947500Y-72728000D01*
X195277500Y-72488000D01*
X195277500Y-72968000D01*
G37*
X142614000Y-112490252D02*
X142614000Y-115321748D01*
X147834000Y-112490252D02*
X147834000Y-115321748D01*
X194752000Y-97060752D02*
X194752000Y-99892248D01*
X199972000Y-97060752D02*
X199972000Y-99892248D01*
X94934000Y-94211200D02*
X102934000Y-94211200D01*
X94934000Y-109811200D02*
X94934000Y-94211200D01*
X101914000Y-93961200D02*
X103184000Y-93961200D01*
X102934000Y-94211200D02*
X102934000Y-109811200D01*
X102934000Y-109811200D02*
X94934000Y-109811200D01*
X103184000Y-93961200D02*
X103184000Y-95231200D01*
X154935000Y-82946752D02*
X154935000Y-85778248D01*
X160155000Y-82946752D02*
X160155000Y-85778248D01*
X137964000Y-112022248D02*
X137964000Y-113444752D01*
X139784000Y-112022248D02*
X139784000Y-113444752D01*
X115564664Y-109871400D02*
X112510536Y-109871400D01*
X115564664Y-112591400D02*
X112510536Y-112591400D01*
X216473200Y-110066400D02*
X216473200Y-116486400D01*
X216473200Y-116486400D02*
X216743200Y-116486400D01*
X223373200Y-110066400D02*
X223373200Y-116486400D01*
X223373200Y-116486400D02*
X223103200Y-116486400D01*
X216783200Y-118216400D02*
X216313200Y-118556400D01*
X216313200Y-117876400D01*
X216783200Y-118216400D01*
G36*
X216783200Y-118216400D02*
G01*
X216313200Y-118556400D01*
X216313200Y-117876400D01*
X216783200Y-118216400D01*
G37*
X193176748Y-61606000D02*
X190345252Y-61606000D01*
X193176748Y-66826000D02*
X190345252Y-66826000D01*
X167184752Y-95136500D02*
X165762248Y-95136500D01*
X167184752Y-96956500D02*
X165762248Y-96956500D01*
X95672000Y-74223336D02*
X95672000Y-77277464D01*
X98392000Y-74223336D02*
X98392000Y-77277464D01*
X191516936Y-55236000D02*
X194571064Y-55236000D01*
X191516936Y-57956000D02*
X194571064Y-57956000D01*
X131333600Y-114416336D02*
X131333600Y-117470464D01*
X134053600Y-114416336D02*
X134053600Y-117470464D01*
X167184752Y-101486500D02*
X165762248Y-101486500D01*
X167184752Y-103306500D02*
X165762248Y-103306500D01*
X106975600Y-116633400D02*
X106975600Y-121033400D01*
X108475600Y-116633400D02*
X108575600Y-116633400D01*
X108475600Y-121033400D02*
X108575600Y-121033400D01*
X110075600Y-121033400D02*
X110075600Y-116633400D01*
X219336064Y-55871000D02*
X216281936Y-55871000D01*
X219336064Y-58591000D02*
X216281936Y-58591000D01*
X196303200Y-114711400D02*
X196303200Y-118771400D01*
X196303200Y-118771400D02*
X198573200Y-118771400D01*
X198573200Y-118771400D02*
X198573200Y-114711400D01*
X205623200Y-113948652D02*
X205623200Y-116780148D01*
X210843200Y-113948652D02*
X210843200Y-116780148D01*
D13*
G36*
X178709714Y-93221230D02*
G01*
X178917638Y-93239643D01*
X179025352Y-93273114D01*
X179063561Y-93334658D01*
X179066267Y-93372391D01*
X179049362Y-93447930D01*
X178978576Y-93491244D01*
X178823804Y-93514365D01*
X178689508Y-93522962D01*
X178474214Y-93539096D01*
X178346639Y-93574705D01*
X178263642Y-93653388D01*
X178182079Y-93798741D01*
X178180832Y-93801184D01*
X178048916Y-94059762D01*
X178312102Y-94059762D01*
X178485086Y-94071301D01*
X178561472Y-94116308D01*
X178575288Y-94183686D01*
X178534996Y-94298509D01*
X178403176Y-94363748D01*
X178163410Y-94386798D01*
X178123811Y-94387082D01*
X177951828Y-94403536D01*
X177848492Y-94477420D01*
X177771830Y-94612730D01*
X177664226Y-94838378D01*
X177972463Y-94858220D01*
X178163156Y-94879492D01*
X178255150Y-94921506D01*
X178280578Y-94999977D01*
X178280700Y-95008989D01*
X178268959Y-95073942D01*
X178216509Y-95114854D01*
X178097508Y-95138898D01*
X177886114Y-95153250D01*
X177740623Y-95158931D01*
X177470503Y-95164754D01*
X177306644Y-95156416D01*
X177224796Y-95130201D01*
X177200711Y-95082393D01*
X177200546Y-95076166D01*
X177228735Y-94983566D01*
X177306206Y-94798355D01*
X177422309Y-94544330D01*
X177566398Y-94245289D01*
X177625882Y-94125584D01*
X177803402Y-93775259D01*
X177941882Y-93525797D01*
X178060806Y-93360940D01*
X178179658Y-93264431D01*
X178317922Y-93220012D01*
X178495081Y-93211426D01*
X178709714Y-93221230D01*
G37*
G36*
X174856045Y-93222010D02*
G01*
X175048507Y-93253814D01*
X175110004Y-93276499D01*
X175215314Y-93398308D01*
X175229815Y-93580614D01*
X175155969Y-93792030D01*
X175058393Y-93934217D01*
X174919275Y-94165207D01*
X174899119Y-94326794D01*
X174866160Y-94577971D01*
X174734146Y-94825429D01*
X174528283Y-95024192D01*
X174496981Y-95044371D01*
X174333240Y-95109773D01*
X174111080Y-95154830D01*
X173863540Y-95178754D01*
X173623662Y-95180759D01*
X173424486Y-95160059D01*
X173299052Y-95115866D01*
X173272711Y-95073518D01*
X173302299Y-94965194D01*
X173352241Y-94845329D01*
X173728297Y-94845329D01*
X174002694Y-94845329D01*
X174230657Y-94816354D01*
X174392977Y-94740363D01*
X174396808Y-94736987D01*
X174491880Y-94590458D01*
X174516525Y-94475132D01*
X174500334Y-94375743D01*
X174427484Y-94331726D01*
X174261560Y-94321622D01*
X174256000Y-94321618D01*
X174086648Y-94333476D01*
X173981572Y-94391174D01*
X173890823Y-94527898D01*
X173861886Y-94583474D01*
X173728297Y-94845329D01*
X173352241Y-94845329D01*
X173382162Y-94773515D01*
X173498948Y-94524090D01*
X173639304Y-94242531D01*
X173782630Y-93968310D01*
X174210092Y-93968310D01*
X174298418Y-93992461D01*
X174408183Y-93994299D01*
X174626526Y-93948289D01*
X174743442Y-93865809D01*
X174825620Y-93714668D01*
X174788337Y-93598162D01*
X174642530Y-93539157D01*
X174585725Y-93536051D01*
X174421701Y-93569355D01*
X174309340Y-93692140D01*
X174289082Y-93729192D01*
X174211628Y-93890899D01*
X174210092Y-93968310D01*
X173782630Y-93968310D01*
X173789876Y-93954446D01*
X173937313Y-93685445D01*
X174068261Y-93461137D01*
X174169369Y-93307133D01*
X174223526Y-93249912D01*
X174387882Y-93218389D01*
X174617279Y-93209645D01*
X174856045Y-93222010D01*
G37*
G36*
X177625745Y-93233495D02*
G01*
X177658793Y-93275068D01*
X177629273Y-93372300D01*
X177549264Y-93555743D01*
X177431591Y-93801005D01*
X177289080Y-94083691D01*
X177134555Y-94379408D01*
X176980843Y-94663761D01*
X176840768Y-94912358D01*
X176727157Y-95100803D01*
X176652834Y-95204704D01*
X176637887Y-95216825D01*
X176509043Y-95232871D01*
X176464214Y-95149641D01*
X176503400Y-94966764D01*
X176626604Y-94683870D01*
X176639170Y-94658732D01*
X176749029Y-94435312D01*
X176831229Y-94258107D01*
X176871422Y-94158347D01*
X176873226Y-94149216D01*
X176830004Y-94171130D01*
X176714134Y-94267162D01*
X176546308Y-94419617D01*
X176447699Y-94513085D01*
X176250611Y-94691346D01*
X176082068Y-94823771D01*
X175967746Y-94891044D01*
X175940354Y-94894766D01*
X175888620Y-94816066D01*
X175846302Y-94633758D01*
X175825803Y-94455477D01*
X175793071Y-94043118D01*
X175531366Y-94581526D01*
X175349661Y-94920673D01*
X175193581Y-95139043D01*
X175065012Y-95234712D01*
X174965836Y-95205757D01*
X174946144Y-95179289D01*
X174960675Y-95103229D01*
X175024184Y-94930711D01*
X175127975Y-94682818D01*
X175263353Y-94380633D01*
X175366635Y-94159894D01*
X175539765Y-93799722D01*
X175669389Y-93542580D01*
X175765977Y-93372213D01*
X175840003Y-93272369D01*
X175901937Y-93226794D01*
X175962252Y-93219234D01*
X175971936Y-93220392D01*
X176045287Y-93240054D01*
X176091022Y-93291688D01*
X176117272Y-93402533D01*
X176132166Y-93599828D01*
X176139404Y-93781541D01*
X176153467Y-94028916D01*
X176174336Y-94216691D01*
X176198231Y-94314358D01*
X176206314Y-94321618D01*
X176268488Y-94277796D01*
X176402420Y-94158465D01*
X176588433Y-93981828D01*
X176806851Y-93766090D01*
X176807762Y-93765175D01*
X177108630Y-93476583D01*
X177333050Y-93292685D01*
X177482074Y-93212645D01*
X177510054Y-93208732D01*
X177625745Y-93233495D01*
G37*
G36*
X188539105Y-93221729D02*
G01*
X188926342Y-93224228D01*
X191177092Y-93241463D01*
X191177092Y-94190690D01*
X191177092Y-95139917D01*
X190571551Y-95158740D01*
X189966009Y-95177562D01*
X189966009Y-97163739D01*
X189965004Y-97746099D01*
X189961612Y-98210358D01*
X189955269Y-98569330D01*
X189945412Y-98835830D01*
X189931478Y-99022671D01*
X189912901Y-99142669D01*
X189889118Y-99208637D01*
X189875312Y-99225189D01*
X189770012Y-99258475D01*
X189547287Y-99278658D01*
X189202601Y-99285983D01*
X188811523Y-99282303D01*
X187838432Y-99264144D01*
X187821134Y-97218396D01*
X187803835Y-95172649D01*
X187510180Y-95172649D01*
X187329427Y-95166987D01*
X187243957Y-95133895D01*
X187218169Y-95049214D01*
X187216525Y-94973389D01*
X187216525Y-94774130D01*
X187691138Y-94793364D01*
X188165752Y-94812597D01*
X188183064Y-96825613D01*
X188200376Y-98838628D01*
X188854069Y-98838628D01*
X189507762Y-98838628D01*
X189507762Y-96935871D01*
X189510149Y-96342565D01*
X189517112Y-95838925D01*
X189528352Y-95433906D01*
X189543569Y-95136461D01*
X189562464Y-94955544D01*
X189575529Y-94906490D01*
X189623634Y-94845268D01*
X189706552Y-94807443D01*
X189852148Y-94787625D01*
X190088286Y-94780425D01*
X190230168Y-94779866D01*
X190817040Y-94779866D01*
X190817040Y-94223422D01*
X190817040Y-93666979D01*
X188890787Y-93666979D01*
X186964533Y-93666979D01*
X186943235Y-95712726D01*
X186936920Y-96286134D01*
X186930460Y-96744415D01*
X186922712Y-97103364D01*
X186912531Y-97378780D01*
X186898773Y-97586458D01*
X186880296Y-97742195D01*
X186855955Y-97861788D01*
X186824607Y-97961034D01*
X186785107Y-98055729D01*
X186771413Y-98085793D01*
X186500597Y-98525853D01*
X186136142Y-98877627D01*
X185683019Y-99138957D01*
X185146201Y-99307686D01*
X184530660Y-99381657D01*
X183841366Y-99358710D01*
X183838995Y-99358473D01*
X183281274Y-99254239D01*
X182818108Y-99061170D01*
X182445745Y-98776909D01*
X182160436Y-98399097D01*
X182086201Y-98256559D01*
X181881216Y-97823938D01*
X181881216Y-96554919D01*
X181882382Y-96110991D01*
X181886841Y-95780295D01*
X181896035Y-95545151D01*
X181911404Y-95387875D01*
X181934390Y-95290788D01*
X181966433Y-95236207D01*
X181990290Y-95216705D01*
X182118316Y-95186019D01*
X182203048Y-95233559D01*
X182241666Y-95283975D01*
X182269611Y-95373861D01*
X182288487Y-95521939D01*
X182299894Y-95746931D01*
X182305435Y-96067559D01*
X182306731Y-96445329D01*
X182312475Y-96976171D01*
X182332323Y-97395567D01*
X182370194Y-97722599D01*
X182430010Y-97976353D01*
X182515692Y-98175913D01*
X182631163Y-98340363D01*
X182714087Y-98427911D01*
X182969728Y-98640172D01*
X183244407Y-98788044D01*
X183566943Y-98880552D01*
X183966151Y-98926722D01*
X184337489Y-98936373D01*
X184668756Y-98934554D01*
X184905753Y-98924205D01*
X185085124Y-98898691D01*
X185243514Y-98851380D01*
X185417565Y-98775635D01*
X185531881Y-98720124D01*
X185917015Y-98485707D01*
X186193505Y-98207608D01*
X186381714Y-97864500D01*
X186403021Y-97807705D01*
X186429430Y-97698390D01*
X186450599Y-97526150D01*
X186466982Y-97279249D01*
X186479030Y-96945951D01*
X186487196Y-96514517D01*
X186491932Y-95973212D01*
X186493548Y-95458886D01*
X186495341Y-94856698D01*
X186499248Y-94373145D01*
X186505790Y-93995942D01*
X186515490Y-93712807D01*
X186528869Y-93511457D01*
X186546448Y-93379607D01*
X186568749Y-93304974D01*
X186586007Y-93281342D01*
X186658775Y-93259584D01*
X186823238Y-93242785D01*
X187086449Y-93230772D01*
X187455461Y-93223373D01*
X187937329Y-93220416D01*
X188539105Y-93221729D01*
G37*
G36*
X183402458Y-93210766D02*
G01*
X183654983Y-93216706D01*
X183820347Y-93230399D01*
X183920426Y-93254692D01*
X183977095Y-93292430D01*
X184006490Y-93335356D01*
X184027395Y-93441468D01*
X184044821Y-93669683D01*
X184058477Y-94011217D01*
X184068073Y-94457283D01*
X184073318Y-94999096D01*
X184074257Y-95384376D01*
X184074736Y-95960255D01*
X184077582Y-96418616D01*
X184084905Y-96772866D01*
X184098815Y-97036416D01*
X184121423Y-97222673D01*
X184154840Y-97345046D01*
X184201176Y-97416946D01*
X184262542Y-97451779D01*
X184341047Y-97462956D01*
X184401576Y-97463886D01*
X184511786Y-97457061D01*
X184594083Y-97425506D01*
X184652543Y-97352600D01*
X184691244Y-97221722D01*
X184714261Y-97016251D01*
X184725670Y-96719568D01*
X184729548Y-96315051D01*
X184729899Y-96125149D01*
X184733070Y-95740839D01*
X184741261Y-95399240D01*
X184753496Y-95122989D01*
X184768803Y-94934718D01*
X184784350Y-94859284D01*
X184851519Y-94819072D01*
X185001714Y-94796276D01*
X185252047Y-94789373D01*
X185519817Y-94793820D01*
X185824199Y-94803210D01*
X186021105Y-94815406D01*
X186133941Y-94836669D01*
X186186114Y-94873259D01*
X186201031Y-94931439D01*
X186201834Y-94976257D01*
X186195273Y-95058704D01*
X186157525Y-95108849D01*
X186061490Y-95136454D01*
X185880070Y-95151283D01*
X185694489Y-95159037D01*
X185187143Y-95178156D01*
X185187143Y-96224928D01*
X185182784Y-96688804D01*
X185168923Y-97038024D01*
X185144387Y-97288593D01*
X185108004Y-97456518D01*
X185094105Y-97494373D01*
X184934539Y-97720610D01*
X184697582Y-97864873D01*
X184414811Y-97917772D01*
X184117798Y-97869918D01*
X184000385Y-97819590D01*
X183894814Y-97757065D01*
X183810462Y-97680849D01*
X183744970Y-97576522D01*
X183695981Y-97429664D01*
X183661136Y-97225854D01*
X183638076Y-96950673D01*
X183624444Y-96589700D01*
X183617880Y-96128515D01*
X183616027Y-95552699D01*
X183616009Y-95469339D01*
X183616009Y-93666979D01*
X182968374Y-93666979D01*
X182632544Y-93673347D01*
X182415365Y-93693389D01*
X182305136Y-93728512D01*
X182287621Y-93748809D01*
X182182022Y-94004458D01*
X182040898Y-94338216D01*
X181870592Y-94735710D01*
X181677447Y-95182569D01*
X181467807Y-95664420D01*
X181248016Y-96166892D01*
X181024417Y-96675612D01*
X180803354Y-97176208D01*
X180591170Y-97654309D01*
X180394209Y-98095543D01*
X180218815Y-98485537D01*
X180071330Y-98809920D01*
X179958100Y-99054319D01*
X179885466Y-99204363D01*
X179860899Y-99246775D01*
X179770804Y-99264568D01*
X179580700Y-99278370D01*
X179319003Y-99288090D01*
X179014133Y-99293637D01*
X178694505Y-99294921D01*
X178388538Y-99291852D01*
X178124649Y-99284339D01*
X177931256Y-99272292D01*
X177836776Y-99255619D01*
X177833363Y-99253233D01*
X177806916Y-99207276D01*
X177801883Y-99133342D01*
X177822512Y-99020118D01*
X177873052Y-98856293D01*
X177957749Y-98630552D01*
X178080852Y-98331585D01*
X178246607Y-97948078D01*
X178459263Y-97468719D01*
X178723067Y-96882196D01*
X178726447Y-96874711D01*
X179657829Y-94812597D01*
X180278543Y-94812597D01*
X180566319Y-94813740D01*
X180747715Y-94821481D01*
X180847280Y-94842294D01*
X180889561Y-94882650D01*
X180899107Y-94949024D01*
X180899257Y-94976257D01*
X180891812Y-95061722D01*
X180850595Y-95112357D01*
X180747284Y-95139325D01*
X180553556Y-95153787D01*
X180435780Y-95158926D01*
X179972303Y-95177935D01*
X179156409Y-96991916D01*
X178340515Y-98805896D01*
X178959837Y-98824765D01*
X179281938Y-98828580D01*
X179491157Y-98815496D01*
X179604649Y-98783841D01*
X179631645Y-98759301D01*
X179667761Y-98683253D01*
X179750056Y-98499468D01*
X179873043Y-98220512D01*
X180031236Y-97858951D01*
X180219146Y-97427350D01*
X180431288Y-96938277D01*
X180662174Y-96404297D01*
X180840442Y-95990948D01*
X181081821Y-95433308D01*
X181309356Y-94912738D01*
X181517482Y-94441602D01*
X181700634Y-94032266D01*
X181853247Y-93697096D01*
X181969757Y-93448458D01*
X182044599Y-93298717D01*
X182069911Y-93258832D01*
X182159298Y-93241161D01*
X182353301Y-93226259D01*
X182625618Y-93215455D01*
X182949944Y-93210080D01*
X183040897Y-93209734D01*
X183402458Y-93210766D01*
G37*
D12*
X212073000Y-75214252D02*
X212073000Y-73791748D01*
X213893000Y-75214252D02*
X213893000Y-73791748D01*
X152814000Y-112001000D02*
X153054000Y-112001000D01*
X163034000Y-112001000D02*
X162794000Y-112001000D01*
X162794000Y-114121000D02*
X153054000Y-114121000D01*
X153054000Y-109881000D01*
X162794000Y-109881000D01*
X162794000Y-114121000D01*
X113452000Y-76763336D02*
X113452000Y-79817464D01*
X116172000Y-76763336D02*
X116172000Y-79817464D01*
X186660000Y-74849064D02*
X186660000Y-73394936D01*
X188480000Y-74849064D02*
X188480000Y-73394936D01*
X200705264Y-108416400D02*
X199251136Y-108416400D01*
X200705264Y-110236400D02*
X199251136Y-110236400D01*
X137714000Y-90923936D02*
X137714000Y-93978064D01*
X140434000Y-90923936D02*
X140434000Y-93978064D01*
X101265600Y-118414648D02*
X101265600Y-119837152D01*
X103085600Y-118414648D02*
X103085600Y-119837152D01*
X230128000Y-83619000D02*
X227588000Y-83619000D01*
X227588000Y-84819000D01*
X230128000Y-84819000D01*
X230128000Y-83619000D01*
X231906000Y-93157000D02*
X225810000Y-93157000D01*
X225810000Y-79441000D01*
X231906000Y-79441000D01*
X231906000Y-93157000D01*
X200788000Y-50371000D02*
X200788000Y-48471000D01*
X200788000Y-54271000D02*
X200788000Y-52271000D01*
X210188000Y-48471000D02*
X200788000Y-48471000D01*
X210188000Y-50371000D02*
X210188000Y-48471000D01*
X210188000Y-54271000D02*
X210188000Y-52271000D01*
X129016252Y-93998000D02*
X127593748Y-93998000D01*
X129016252Y-95818000D02*
X127593748Y-95818000D01*
X164255000Y-83016248D02*
X164255000Y-84438752D01*
X166075000Y-83016248D02*
X166075000Y-84438752D01*
X229628000Y-71887000D02*
X229628000Y-75947000D01*
X229628000Y-75947000D02*
X231898000Y-75947000D01*
X231898000Y-75947000D02*
X231898000Y-71887000D01*
X106314600Y-99829864D02*
X106314600Y-96775736D01*
X109034600Y-99829864D02*
X109034600Y-96775736D01*
X186660000Y-80633936D02*
X186660000Y-82088064D01*
X188480000Y-80633936D02*
X188480000Y-82088064D01*
X206979064Y-101943500D02*
X205524936Y-101943500D01*
X206979064Y-103763500D02*
X205524936Y-103763500D01*
X221011000Y-75605000D02*
X220211000Y-75605000D01*
X221011000Y-75605000D02*
X221811000Y-75605000D01*
X222011000Y-72385000D02*
X220211000Y-72385000D01*
X222551000Y-75885000D02*
X222071000Y-75885000D01*
X222311000Y-75555000D01*
X222551000Y-75885000D01*
G36*
X222551000Y-75885000D02*
G01*
X222071000Y-75885000D01*
X222311000Y-75555000D01*
X222551000Y-75885000D01*
G37*
X137714000Y-101828064D02*
X137714000Y-98773936D01*
X140434000Y-101828064D02*
X140434000Y-98773936D01*
X202664252Y-71766000D02*
X205495748Y-71766000D01*
X202664252Y-76986000D02*
X205495748Y-76986000D01*
X167764000Y-117928064D02*
X167764000Y-114873936D01*
X170484000Y-117928064D02*
X170484000Y-114873936D01*
X95672000Y-86802464D02*
X95672000Y-83748336D01*
X98392000Y-86802464D02*
X98392000Y-83748336D01*
X126600664Y-109871400D02*
X123546536Y-109871400D01*
X126600664Y-112591400D02*
X123546536Y-112591400D01*
X217573748Y-98436000D02*
X214742252Y-98436000D01*
X217573748Y-103656000D02*
X214742252Y-103656000D01*
X213995936Y-80509000D02*
X217050064Y-80509000D01*
X213995936Y-83229000D02*
X217050064Y-83229000D01*
X101134000Y-48196000D02*
X178914000Y-48196000D01*
X101134000Y-55371000D02*
X101134000Y-48196000D01*
X101134000Y-69566000D02*
X101134000Y-62391000D01*
X178914000Y-48196000D02*
X178914000Y-55371000D01*
X178914000Y-62391000D02*
X178914000Y-69566000D01*
X178914000Y-69566000D02*
X101134000Y-69566000D01*
X132422752Y-85641000D02*
X131000248Y-85641000D01*
X132422752Y-87461000D02*
X131000248Y-87461000D01*
X213525936Y-91148500D02*
X214980064Y-91148500D01*
X213525936Y-92968500D02*
X214980064Y-92968500D01*
X167146252Y-89802500D02*
X165723748Y-89802500D01*
X167146252Y-91622500D02*
X165723748Y-91622500D01*
X136910000Y-86575000D02*
X136910000Y-86885000D01*
X137510000Y-85705000D02*
X136910000Y-86575000D01*
X138210000Y-85705000D02*
X138810000Y-86575000D01*
X138810000Y-86575000D02*
X138810000Y-86885000D01*
X139150000Y-85705000D02*
X136570000Y-85705000D01*
X136570000Y-78685000D01*
X139150000Y-78685000D01*
X139150000Y-85705000D01*
X194691936Y-81271000D02*
X197746064Y-81271000D01*
X194691936Y-83991000D02*
X197746064Y-83991000D01*
X221399936Y-64449000D02*
X222854064Y-64449000D01*
X221399936Y-66269000D02*
X222854064Y-66269000D01*
X116643600Y-119269400D02*
X116643600Y-118089400D01*
X116708600Y-115639400D02*
X125818600Y-115639400D01*
X116708600Y-116501477D02*
X116708600Y-115639400D01*
X117453600Y-119269400D02*
X116643600Y-119269400D01*
X118263600Y-119269400D02*
X118263600Y-118756108D01*
X118263600Y-119269400D02*
X125818600Y-119269400D01*
X125818600Y-116501477D02*
X125818600Y-115639400D01*
X125818600Y-117771477D02*
X125818600Y-117137323D01*
X125818600Y-119269400D02*
X125818600Y-118407323D01*
X205355000Y-95515000D02*
X206765000Y-95515000D01*
X205365000Y-97835000D02*
X206765000Y-97835000D01*
X204985000Y-95565000D02*
X204745000Y-95235000D01*
X205225000Y-95235000D01*
X204985000Y-95565000D01*
G36*
X204985000Y-95565000D02*
G01*
X204745000Y-95235000D01*
X205225000Y-95235000D01*
X204985000Y-95565000D01*
G37*
X131585000Y-100419000D02*
X131585000Y-94169000D01*
X136455000Y-94169000D02*
X136455000Y-100419000D01*
X131585000Y-94169000D02*
G75*
G02*
X136455000Y-94169000I2435000J0D01*
G01*
X136455000Y-100419000D02*
G75*
G02*
X131585000Y-100419000I-2435000J0D01*
G01*
X119736536Y-121809400D02*
X122790664Y-121809400D01*
X119736536Y-124529400D02*
X122790664Y-124529400D01*
X103907000Y-74672400D02*
X105287000Y-74672400D01*
X103907000Y-76052400D02*
X103907000Y-74672400D01*
X103907000Y-77322400D02*
X103907000Y-87592400D01*
X103907000Y-77322400D02*
X106557000Y-77322400D01*
X103907000Y-87592400D02*
X109207000Y-87592400D01*
X106557000Y-74672400D02*
X109207000Y-74672400D01*
X106557000Y-77322400D02*
X106557000Y-74672400D01*
X109207000Y-74672400D02*
X109207000Y-87592400D01*
X178756200Y-114355600D02*
X179956200Y-114355600D01*
X179956200Y-116895600D01*
X178756200Y-116895600D01*
X178756200Y-114355600D01*
X188294200Y-112577600D02*
X174578200Y-112577600D01*
X174578200Y-118673600D01*
X188294200Y-118673600D01*
X188294200Y-112577600D01*
X129016252Y-98824000D02*
X127593748Y-98824000D01*
X129016252Y-100644000D02*
X127593748Y-100644000D01*
X144500000Y-93015000D02*
X144500000Y-93965000D01*
X144500000Y-103235000D02*
X144500000Y-102285000D01*
X145450000Y-93015000D02*
X144500000Y-93015000D01*
X145450000Y-103235000D02*
X144500000Y-103235000D01*
X153770000Y-93015000D02*
X154720000Y-93015000D01*
X153770000Y-103235000D02*
X154720000Y-103235000D01*
X154720000Y-93015000D02*
X154720000Y-93965000D01*
X154720000Y-103235000D02*
X154720000Y-102285000D01*
X143885000Y-93965000D02*
X143545000Y-93495000D01*
X144225000Y-93495000D01*
X143885000Y-93965000D01*
G36*
X143885000Y-93965000D02*
G01*
X143545000Y-93495000D01*
X144225000Y-93495000D01*
X143885000Y-93965000D01*
G37*
M02*
