G04 #@! TF.GenerationSoftware,KiCad,Pcbnew,9.0.6*
G04 #@! TF.CreationDate,2025-12-06T23:46:01+01:00*
G04 #@! TF.ProjectId,Aramkortervezes_projekt,4172616d-6b6f-4727-9465-7276657a6573,rev?*
G04 #@! TF.SameCoordinates,Original*
G04 #@! TF.FileFunction,Copper,L1,Top*
G04 #@! TF.FilePolarity,Positive*
%FSLAX46Y46*%
G04 Gerber Fmt 4.6, Leading zero omitted, Abs format (unit mm)*
G04 Created by KiCad (PCBNEW 9.0.6) date 2025-12-06 23:46:01*
%MOMM*%
%LPD*%
G01*
G04 APERTURE LIST*
G04 Aperture macros list*
%AMRoundRect*
0 Rectangle with rounded corners*
0 $1 Rounding radius*
0 $2 $3 $4 $5 $6 $7 $8 $9 X,Y pos of 4 corners*
0 Add a 4 corners polygon primitive as box body*
4,1,4,$2,$3,$4,$5,$6,$7,$8,$9,$2,$3,0*
0 Add four circle primitives for the rounded corners*
1,1,$1+$1,$2,$3*
1,1,$1+$1,$4,$5*
1,1,$1+$1,$6,$7*
1,1,$1+$1,$8,$9*
0 Add four rect primitives between the rounded corners*
20,1,$1+$1,$2,$3,$4,$5,0*
20,1,$1+$1,$4,$5,$6,$7,0*
20,1,$1+$1,$6,$7,$8,$9,0*
20,1,$1+$1,$8,$9,$2,$3,0*%
G04 Aperture macros list end*
G04 #@! TA.AperFunction,SMDPad,CuDef*
%ADD10RoundRect,0.249999X1.075001X-0.450001X1.075001X0.450001X-1.075001X0.450001X-1.075001X-0.450001X0*%
G04 #@! TD*
G04 #@! TA.AperFunction,SMDPad,CuDef*
%ADD11RoundRect,0.250000X-0.412500X-0.650000X0.412500X-0.650000X0.412500X0.650000X-0.412500X0.650000X0*%
G04 #@! TD*
G04 #@! TA.AperFunction,SMDPad,CuDef*
%ADD12RoundRect,0.100000X-0.100000X0.650000X-0.100000X-0.650000X0.100000X-0.650000X0.100000X0.650000X0*%
G04 #@! TD*
G04 #@! TA.AperFunction,SMDPad,CuDef*
%ADD13RoundRect,0.249999X-2.450001X0.737501X-2.450001X-0.737501X2.450001X-0.737501X2.450001X0.737501X0*%
G04 #@! TD*
G04 #@! TA.AperFunction,ComponentPad*
%ADD14R,1.500000X1.500000*%
G04 #@! TD*
G04 #@! TA.AperFunction,ComponentPad*
%ADD15C,1.500000*%
G04 #@! TD*
G04 #@! TA.AperFunction,SMDPad,CuDef*
%ADD16RoundRect,0.250000X-0.650000X0.412500X-0.650000X-0.412500X0.650000X-0.412500X0.650000X0.412500X0*%
G04 #@! TD*
G04 #@! TA.AperFunction,SMDPad,CuDef*
%ADD17RoundRect,0.249999X0.450001X1.075001X-0.450001X1.075001X-0.450001X-1.075001X0.450001X-1.075001X0*%
G04 #@! TD*
G04 #@! TA.AperFunction,SMDPad,CuDef*
%ADD18RoundRect,0.250000X0.350000X-0.850000X0.350000X0.850000X-0.350000X0.850000X-0.350000X-0.850000X0*%
G04 #@! TD*
G04 #@! TA.AperFunction,SMDPad,CuDef*
%ADD19RoundRect,0.249997X2.650003X-2.950003X2.650003X2.950003X-2.650003X2.950003X-2.650003X-2.950003X0*%
G04 #@! TD*
G04 #@! TA.AperFunction,SMDPad,CuDef*
%ADD20RoundRect,0.249999X0.737501X2.450001X-0.737501X2.450001X-0.737501X-2.450001X0.737501X-2.450001X0*%
G04 #@! TD*
G04 #@! TA.AperFunction,SMDPad,CuDef*
%ADD21RoundRect,0.250000X0.412500X0.650000X-0.412500X0.650000X-0.412500X-0.650000X0.412500X-0.650000X0*%
G04 #@! TD*
G04 #@! TA.AperFunction,SMDPad,CuDef*
%ADD22RoundRect,0.249999X-1.075001X0.450001X-1.075001X-0.450001X1.075001X-0.450001X1.075001X0.450001X0*%
G04 #@! TD*
G04 #@! TA.AperFunction,SMDPad,CuDef*
%ADD23RoundRect,0.249999X-0.450001X-1.075001X0.450001X-1.075001X0.450001X1.075001X-0.450001X1.075001X0*%
G04 #@! TD*
G04 #@! TA.AperFunction,SMDPad,CuDef*
%ADD24R,1.000000X0.900000*%
G04 #@! TD*
G04 #@! TA.AperFunction,SMDPad,CuDef*
%ADD25RoundRect,0.250001X0.624999X-0.462499X0.624999X0.462499X-0.624999X0.462499X-0.624999X-0.462499X0*%
G04 #@! TD*
G04 #@! TA.AperFunction,SMDPad,CuDef*
%ADD26RoundRect,0.250000X0.650000X-0.412500X0.650000X0.412500X-0.650000X0.412500X-0.650000X-0.412500X0*%
G04 #@! TD*
G04 #@! TA.AperFunction,ComponentPad*
%ADD27C,2.000000*%
G04 #@! TD*
G04 #@! TA.AperFunction,SMDPad,CuDef*
%ADD28RoundRect,0.250000X0.625000X-0.400000X0.625000X0.400000X-0.625000X0.400000X-0.625000X-0.400000X0*%
G04 #@! TD*
G04 #@! TA.AperFunction,SMDPad,CuDef*
%ADD29RoundRect,0.250000X0.400000X0.625000X-0.400000X0.625000X-0.400000X-0.625000X0.400000X-0.625000X0*%
G04 #@! TD*
G04 #@! TA.AperFunction,ComponentPad*
%ADD30R,2.000000X2.000000*%
G04 #@! TD*
G04 #@! TA.AperFunction,SMDPad,CuDef*
%ADD31R,0.600000X1.450000*%
G04 #@! TD*
G04 #@! TA.AperFunction,SMDPad,CuDef*
%ADD32R,0.300000X1.450000*%
G04 #@! TD*
G04 #@! TA.AperFunction,HeatsinkPad*
%ADD33O,1.000000X2.100000*%
G04 #@! TD*
G04 #@! TA.AperFunction,HeatsinkPad*
%ADD34O,1.000000X1.600000*%
G04 #@! TD*
G04 #@! TA.AperFunction,SMDPad,CuDef*
%ADD35RoundRect,0.250000X-0.625000X0.400000X-0.625000X-0.400000X0.625000X-0.400000X0.625000X0.400000X0*%
G04 #@! TD*
G04 #@! TA.AperFunction,SMDPad,CuDef*
%ADD36RoundRect,0.162500X0.617500X0.162500X-0.617500X0.162500X-0.617500X-0.162500X0.617500X-0.162500X0*%
G04 #@! TD*
G04 #@! TA.AperFunction,SMDPad,CuDef*
%ADD37RoundRect,0.249999X-0.737501X-2.450001X0.737501X-2.450001X0.737501X2.450001X-0.737501X2.450001X0*%
G04 #@! TD*
G04 #@! TA.AperFunction,SMDPad,CuDef*
%ADD38RoundRect,0.250003X-3.499997X-2.999997X3.499997X-2.999997X3.499997X2.999997X-3.499997X2.999997X0*%
G04 #@! TD*
G04 #@! TA.AperFunction,SMDPad,CuDef*
%ADD39RoundRect,0.250000X-0.400000X-0.625000X0.400000X-0.625000X0.400000X0.625000X-0.400000X0.625000X0*%
G04 #@! TD*
G04 #@! TA.AperFunction,ComponentPad*
%ADD40C,1.000000*%
G04 #@! TD*
G04 #@! TA.AperFunction,ComponentPad*
%ADD41R,1.000000X1.000000*%
G04 #@! TD*
G04 #@! TA.AperFunction,SMDPad,CuDef*
%ADD42RoundRect,0.100000X-0.650000X-0.100000X0.650000X-0.100000X0.650000X0.100000X-0.650000X0.100000X0*%
G04 #@! TD*
G04 #@! TA.AperFunction,ComponentPad*
%ADD43R,1.700000X1.700000*%
G04 #@! TD*
G04 #@! TA.AperFunction,ComponentPad*
%ADD44C,1.700000*%
G04 #@! TD*
G04 #@! TA.AperFunction,SMDPad,CuDef*
%ADD45RoundRect,0.075000X-0.700000X-0.075000X0.700000X-0.075000X0.700000X0.075000X-0.700000X0.075000X0*%
G04 #@! TD*
G04 #@! TA.AperFunction,SMDPad,CuDef*
%ADD46RoundRect,0.075000X-0.075000X-0.700000X0.075000X-0.700000X0.075000X0.700000X-0.075000X0.700000X0*%
G04 #@! TD*
G04 #@! TA.AperFunction,ViaPad*
%ADD47C,0.600000*%
G04 #@! TD*
G04 #@! TA.AperFunction,Conductor*
%ADD48C,0.500000*%
G04 #@! TD*
G04 #@! TA.AperFunction,Conductor*
%ADD49C,0.300000*%
G04 #@! TD*
G04 APERTURE END LIST*
D10*
X206633000Y-90648500D03*
X206633000Y-85848500D03*
D11*
X142305500Y-86548000D03*
X145430500Y-86548000D03*
D12*
X194487500Y-72478000D03*
X193837500Y-72478000D03*
X193187500Y-72478000D03*
X193187500Y-75138000D03*
X193837500Y-75138000D03*
X194487500Y-75138000D03*
D13*
X145224000Y-111268500D03*
X145224000Y-116543500D03*
X197362000Y-95839000D03*
X197362000Y-101114000D03*
D14*
X100334000Y-98201200D03*
D15*
X100334000Y-100741200D03*
X100334000Y-103281200D03*
X100334000Y-105821200D03*
D13*
X157545000Y-81725000D03*
X157545000Y-87000000D03*
D16*
X138874000Y-111171000D03*
X138874000Y-114296000D03*
D17*
X116437600Y-111231400D03*
X111637600Y-111231400D03*
D18*
X217643200Y-118216400D03*
X219923200Y-118216400D03*
D19*
X219923200Y-111916400D03*
D18*
X222203200Y-118216400D03*
D20*
X194398500Y-64216000D03*
X189123500Y-64216000D03*
D21*
X168036000Y-96046500D03*
X164911000Y-96046500D03*
D22*
X97032000Y-73350400D03*
X97032000Y-78150400D03*
D23*
X190644000Y-56596000D03*
X195444000Y-56596000D03*
D22*
X132693600Y-113543400D03*
X132693600Y-118343400D03*
D21*
X168036000Y-102396500D03*
X164911000Y-102396500D03*
D24*
X109325600Y-116783400D03*
X109325600Y-120883400D03*
X107725600Y-116783400D03*
X107725600Y-120883400D03*
D17*
X220209000Y-57231000D03*
X215409000Y-57231000D03*
D25*
X197438200Y-117798900D03*
X197438200Y-114823900D03*
D13*
X208233200Y-112726900D03*
X208233200Y-118001900D03*
D26*
X212983000Y-76065500D03*
X212983000Y-72940500D03*
D27*
X164274000Y-112001000D03*
X151574000Y-112001000D03*
D22*
X114812000Y-75890400D03*
X114812000Y-80690400D03*
D28*
X187570000Y-75672000D03*
X187570000Y-72572000D03*
D29*
X201528200Y-109326400D03*
X198428200Y-109326400D03*
D22*
X139074000Y-90051000D03*
X139074000Y-94851000D03*
D16*
X102175600Y-117563400D03*
X102175600Y-120688400D03*
D30*
X228858000Y-81219000D03*
D27*
X228858000Y-86299000D03*
X228858000Y-91379000D03*
D31*
X208738000Y-56416000D03*
X207938000Y-56416000D03*
D32*
X206738000Y-56416000D03*
X205738000Y-56416000D03*
X205238000Y-56416000D03*
X204238000Y-56416000D03*
D31*
X203038000Y-56416000D03*
X202238000Y-56416000D03*
X202238000Y-56416000D03*
X203038000Y-56416000D03*
D32*
X203738000Y-56416000D03*
X204738000Y-56416000D03*
X206238000Y-56416000D03*
X207238000Y-56416000D03*
D31*
X207938000Y-56416000D03*
X208738000Y-56416000D03*
D33*
X209808000Y-55501000D03*
D34*
X209808000Y-51321000D03*
D33*
X201168000Y-55501000D03*
D34*
X201168000Y-51321000D03*
D21*
X129867500Y-94908000D03*
X126742500Y-94908000D03*
D16*
X165165000Y-82165000D03*
X165165000Y-85290000D03*
D25*
X230763000Y-74974500D03*
X230763000Y-71999500D03*
D10*
X107674600Y-100702800D03*
X107674600Y-95902800D03*
D35*
X187570000Y-79811000D03*
X187570000Y-82911000D03*
D29*
X207802000Y-102853500D03*
X204702000Y-102853500D03*
D36*
X222461000Y-74945000D03*
X222461000Y-73995000D03*
X222461000Y-73045000D03*
X219761000Y-73045000D03*
X219761000Y-74945000D03*
D10*
X139074000Y-102701000D03*
X139074000Y-97901000D03*
D37*
X201442500Y-74376000D03*
X206717500Y-74376000D03*
D10*
X169124000Y-118801000D03*
X169124000Y-114001000D03*
X97032000Y-87675400D03*
X97032000Y-82875400D03*
D17*
X127473600Y-111231400D03*
X122673600Y-111231400D03*
D20*
X218795500Y-101046000D03*
X213520500Y-101046000D03*
D23*
X213123000Y-81869000D03*
X217923000Y-81869000D03*
D38*
X100334000Y-58881000D03*
X179714000Y-58881000D03*
D21*
X133274000Y-86551000D03*
X130149000Y-86551000D03*
D39*
X212703000Y-92058500D03*
X215803000Y-92058500D03*
D21*
X167997500Y-90712500D03*
X164872500Y-90712500D03*
D40*
X138810000Y-87445000D03*
X136910000Y-87445000D03*
D23*
X193819000Y-82631000D03*
X198619000Y-82631000D03*
D39*
X220577000Y-65359000D03*
X223677000Y-65359000D03*
D41*
X117453600Y-118089400D03*
D40*
X117453600Y-116819400D03*
X118723600Y-118089400D03*
X118723600Y-116819400D03*
X119993600Y-118089400D03*
X119993600Y-116819400D03*
X121263600Y-118089400D03*
X121263600Y-116819400D03*
X122533600Y-118089400D03*
X122533600Y-116819400D03*
X123803600Y-118089400D03*
X123803600Y-116819400D03*
X125073600Y-118089400D03*
X125073600Y-116819400D03*
D42*
X204735000Y-96025000D03*
X204735000Y-96675000D03*
X204735000Y-97325000D03*
X207395000Y-97325000D03*
X207395000Y-96675000D03*
X207395000Y-96025000D03*
D15*
X134020000Y-99734000D03*
X134020000Y-94854000D03*
D23*
X118863600Y-123169400D03*
X123663600Y-123169400D03*
D43*
X105287000Y-76052400D03*
D44*
X107827000Y-76052400D03*
X105287000Y-78592400D03*
X107827000Y-78592400D03*
X105287000Y-81132400D03*
X107827000Y-81132400D03*
X105287000Y-83672400D03*
X107827000Y-83672400D03*
X105287000Y-86212400D03*
X107827000Y-86212400D03*
D30*
X176356200Y-115625600D03*
D27*
X181436200Y-115625600D03*
X186516200Y-115625600D03*
D21*
X129867500Y-99734000D03*
X126742500Y-99734000D03*
D45*
X143935000Y-94375000D03*
X143935000Y-94875000D03*
X143935000Y-95375000D03*
X143935000Y-95875000D03*
X143935000Y-96375000D03*
X143935000Y-96875000D03*
X143935000Y-97375000D03*
X143935000Y-97875000D03*
X143935000Y-98375000D03*
X143935000Y-98875000D03*
X143935000Y-99375000D03*
X143935000Y-99875000D03*
X143935000Y-100375000D03*
X143935000Y-100875000D03*
X143935000Y-101375000D03*
X143935000Y-101875000D03*
D46*
X145860000Y-103800000D03*
X146360000Y-103800000D03*
X146860000Y-103800000D03*
X147360000Y-103800000D03*
X147860000Y-103800000D03*
X148360000Y-103800000D03*
X148860000Y-103800000D03*
X149360000Y-103800000D03*
X149860000Y-103800000D03*
X150360000Y-103800000D03*
X150860000Y-103800000D03*
X151360000Y-103800000D03*
X151860000Y-103800000D03*
X152360000Y-103800000D03*
X152860000Y-103800000D03*
X153360000Y-103800000D03*
D45*
X155285000Y-101875000D03*
X155285000Y-101375000D03*
X155285000Y-100875000D03*
X155285000Y-100375000D03*
X155285000Y-99875000D03*
X155285000Y-99375000D03*
X155285000Y-98875000D03*
X155285000Y-98375000D03*
X155285000Y-97875000D03*
X155285000Y-97375000D03*
X155285000Y-96875000D03*
X155285000Y-96375000D03*
X155285000Y-95875000D03*
X155285000Y-95375000D03*
X155285000Y-94875000D03*
X155285000Y-94375000D03*
D46*
X153360000Y-92450000D03*
X152860000Y-92450000D03*
X152360000Y-92450000D03*
X151860000Y-92450000D03*
X151360000Y-92450000D03*
X150860000Y-92450000D03*
X150360000Y-92450000D03*
X149860000Y-92450000D03*
X149360000Y-92450000D03*
X148860000Y-92450000D03*
X148360000Y-92450000D03*
X147860000Y-92450000D03*
X147360000Y-92450000D03*
X146860000Y-92450000D03*
X146360000Y-92450000D03*
X145860000Y-92450000D03*
D47*
X153824000Y-105551000D03*
X147274000Y-88351000D03*
X147224000Y-105701000D03*
X109774000Y-97851000D03*
X157524001Y-93231762D03*
X149724000Y-107401000D03*
X152174000Y-83451000D03*
X115774000Y-119851000D03*
X143624000Y-108601000D03*
X141374000Y-106151000D03*
X136524000Y-109251000D03*
X138174000Y-105351000D03*
X137774000Y-88751000D03*
X141074000Y-88801000D03*
X195424000Y-114351000D03*
X195174000Y-110751000D03*
X121999000Y-114626000D03*
X123424000Y-114851000D03*
X156474000Y-91501000D03*
X157124000Y-96851000D03*
X148524000Y-90102000D03*
X114174000Y-88701000D03*
X158174000Y-93751000D03*
X114974000Y-87001000D03*
X128924000Y-107000000D03*
X102524000Y-84101000D03*
X124324000Y-106901000D03*
X113474000Y-84501000D03*
X122424000Y-102351000D03*
X127224000Y-104701000D03*
X169124000Y-109201000D03*
X148374000Y-88601000D03*
X203224000Y-97101000D03*
X208024000Y-101101000D03*
X163374000Y-90951000D03*
X109774000Y-121851000D03*
X102774000Y-116351000D03*
X146724000Y-91051000D03*
X163424000Y-95651000D03*
X109774000Y-78851000D03*
X211524000Y-82051000D03*
X196874000Y-119901000D03*
X131024000Y-110551000D03*
X194024000Y-71101000D03*
X189274000Y-75901000D03*
X157024000Y-95201000D03*
X126824000Y-101251000D03*
X152624000Y-105201000D03*
X201674000Y-57851000D03*
X190874000Y-54201000D03*
X210074000Y-57801000D03*
X146674000Y-86751000D03*
X126774000Y-116851000D03*
X97274000Y-71851000D03*
X146124000Y-105401000D03*
X221824000Y-57401000D03*
X200974000Y-101501000D03*
X98274000Y-63851000D03*
X97274000Y-89351000D03*
X224074000Y-74001000D03*
X184585800Y-59034400D03*
X224540000Y-85679000D03*
X227842000Y-75595000D03*
X226318000Y-73995000D03*
D48*
X171824000Y-106801000D02*
X175074000Y-110051000D01*
X111912700Y-94212300D02*
X111912700Y-92989700D01*
X111912700Y-92989700D02*
X119124000Y-85778399D01*
X168036000Y-96039000D02*
X171824000Y-92251000D01*
X171824000Y-90001000D02*
X171824000Y-90651000D01*
X171824000Y-103101000D02*
X171824000Y-103051000D01*
X149974000Y-107651000D02*
X167274000Y-107651000D01*
X171824000Y-98601000D02*
X171824000Y-101701000D01*
X155174000Y-106901000D02*
X166624000Y-106901000D01*
D49*
X157524001Y-93400999D02*
X157524001Y-93231762D01*
D48*
X118723600Y-118796506D02*
X118723600Y-118089400D01*
X109774000Y-97851000D02*
X109774000Y-96351000D01*
X171824000Y-88501000D02*
X171824000Y-90001000D01*
X171824000Y-90651000D02*
X171824000Y-92251000D01*
X165165000Y-82165000D02*
X165165000Y-79642000D01*
D49*
X146860000Y-105337000D02*
X147224000Y-105701000D01*
D48*
X115774000Y-119851000D02*
X117669106Y-119851000D01*
X178924000Y-110051000D02*
X191674000Y-110051000D01*
X168036000Y-102389000D02*
X171824000Y-98601000D01*
X168012500Y-90712500D02*
X171824000Y-86901000D01*
X156774000Y-73551000D02*
X160674000Y-77451000D01*
X166624000Y-106901000D02*
X171824000Y-101701000D01*
X107788400Y-73551000D02*
X123624000Y-73551000D01*
X112036075Y-91901000D02*
X119124000Y-84813075D01*
X149724000Y-107401000D02*
X149974000Y-107651000D01*
X181436200Y-112563200D02*
X178924000Y-110051000D01*
X105624000Y-91901000D02*
X112036075Y-91901000D01*
X171824000Y-104451000D02*
X171824000Y-106801000D01*
X108999599Y-95902800D02*
X111912700Y-92989700D01*
X117669106Y-119851000D02*
X118723600Y-118796506D01*
D49*
X155285000Y-94375000D02*
X156550000Y-94375000D01*
X156550000Y-94375000D02*
X157524001Y-93400999D01*
D48*
X109774000Y-96351000D02*
X111912700Y-94212300D01*
X157524001Y-93231762D02*
X158304763Y-92451000D01*
X170024000Y-92451000D02*
X171824000Y-90651000D01*
X167274000Y-107651000D02*
X171824000Y-103101000D01*
X158124000Y-77451000D02*
X160674000Y-77451000D01*
X167997500Y-90712500D02*
X168012500Y-90712500D01*
X119124000Y-85778399D02*
X119124000Y-84813075D01*
X171824000Y-81201000D02*
X171824000Y-86901000D01*
X171824000Y-92251000D02*
X171824000Y-98601000D01*
D49*
X146860000Y-103800000D02*
X146860000Y-105337000D01*
D48*
X100334000Y-98201200D02*
X100334000Y-97191000D01*
X123624000Y-73551000D02*
X156774000Y-73551000D01*
X191674000Y-110051000D02*
X194349900Y-112726900D01*
X171824000Y-86901000D02*
X171824000Y-88501000D01*
X164274000Y-112001000D02*
X171824000Y-104451000D01*
X194349900Y-112726900D02*
X208233200Y-112726900D01*
X158304763Y-92451000D02*
X170024000Y-92451000D01*
D49*
X147274000Y-88351000D02*
X145860000Y-89765000D01*
D48*
X100334000Y-97191000D02*
X105624000Y-91901000D01*
X119124000Y-84813075D02*
X119124000Y-78051000D01*
X181436200Y-115625600D02*
X181436200Y-112563200D01*
D49*
X153360000Y-105087000D02*
X153824000Y-105551000D01*
D48*
X107674600Y-95902800D02*
X108999599Y-95902800D01*
X175074000Y-110051000D02*
X178924000Y-110051000D01*
X157545000Y-78030000D02*
X158124000Y-77451000D01*
X153824000Y-105551000D02*
X155174000Y-106901000D01*
X160674000Y-77451000D02*
X162974000Y-77451000D01*
X105287000Y-76052400D02*
X107788400Y-73551000D01*
D49*
X153360000Y-103800000D02*
X153360000Y-105087000D01*
X145860000Y-89765000D02*
X145860000Y-92450000D01*
D48*
X162974000Y-77451000D02*
X168074000Y-77451000D01*
X168074000Y-77451000D02*
X171824000Y-81201000D01*
X157545000Y-81725000D02*
X157545000Y-78030000D01*
X153900000Y-81725000D02*
X157545000Y-81725000D01*
X171824000Y-101701000D02*
X171824000Y-103051000D01*
X119124000Y-78051000D02*
X123624000Y-73551000D01*
X168036000Y-102396500D02*
X168036000Y-102389000D01*
X152174000Y-83451000D02*
X153900000Y-81725000D01*
X171824000Y-103051000D02*
X171824000Y-104451000D01*
X165165000Y-79642000D02*
X162974000Y-77451000D01*
X168036000Y-96046500D02*
X168036000Y-96039000D01*
D49*
X188752000Y-82911000D02*
X191012000Y-85171000D01*
X191012000Y-85171000D02*
X197616000Y-85171000D01*
X226953000Y-101046000D02*
X227588000Y-101681000D01*
X215803000Y-92058500D02*
X215803000Y-87102000D01*
X215803000Y-92058500D02*
X215803000Y-93452000D01*
X198619000Y-77199500D02*
X201442500Y-74376000D01*
X198619000Y-84168000D02*
X198619000Y-82631000D01*
X198619000Y-82631000D02*
X198619000Y-77199500D01*
X214549500Y-85848500D02*
X215396000Y-86695000D01*
X215803000Y-93452000D02*
X218795500Y-96444500D01*
X227588000Y-117683000D02*
X227054600Y-118216400D01*
X215803000Y-87102000D02*
X215396000Y-86695000D01*
X197616000Y-85171000D02*
X198619000Y-84168000D01*
X227054600Y-118216400D02*
X222203200Y-118216400D01*
X206633000Y-85848500D02*
X201836500Y-85848500D01*
X201836500Y-85848500D02*
X198619000Y-82631000D01*
X218795500Y-96444500D02*
X218795500Y-101046000D01*
X187570000Y-82911000D02*
X188752000Y-82911000D01*
X218795500Y-101046000D02*
X226953000Y-101046000D01*
X206633000Y-85848500D02*
X214549500Y-85848500D01*
X227588000Y-101681000D02*
X227588000Y-117683000D01*
D48*
X138954000Y-111171000D02*
X141524000Y-108601000D01*
X141524000Y-108601000D02*
X143624000Y-108601000D01*
X148174000Y-108601000D02*
X146124000Y-108601000D01*
D49*
X142674000Y-104851000D02*
X141374000Y-106151000D01*
D48*
X138874000Y-111171000D02*
X138976500Y-111171000D01*
X151574000Y-112001000D02*
X148174000Y-108601000D01*
D49*
X142900000Y-100375000D02*
X142674000Y-100601000D01*
D48*
X145224000Y-109501000D02*
X146124000Y-108601000D01*
X138874000Y-111171000D02*
X138954000Y-111171000D01*
X146124000Y-108601000D02*
X143624000Y-108601000D01*
X145224000Y-111268500D02*
X145224000Y-109501000D01*
D49*
X143935000Y-100375000D02*
X142900000Y-100375000D01*
X142674000Y-100601000D02*
X142674000Y-104851000D01*
D48*
X145224000Y-116543500D02*
X140174000Y-116543500D01*
D49*
X142550000Y-99875000D02*
X143935000Y-99875000D01*
D48*
X138874000Y-114296000D02*
X138874000Y-115243500D01*
X136524000Y-115251000D02*
X136524000Y-109251000D01*
D49*
X142173000Y-100252000D02*
X142550000Y-99875000D01*
X142173000Y-103702000D02*
X142173000Y-100252000D01*
D48*
X137816500Y-116543500D02*
X136524000Y-115251000D01*
D49*
X140524000Y-105351000D02*
X142173000Y-103702000D01*
X138174000Y-105351000D02*
X140524000Y-105351000D01*
D48*
X138874000Y-115243500D02*
X140174000Y-116543500D01*
X140174000Y-116543500D02*
X137816500Y-116543500D01*
D49*
X102175600Y-120688400D02*
X107530600Y-120688400D01*
X107725600Y-120883400D02*
X107725600Y-116783400D01*
X107725600Y-115143400D02*
X111637600Y-111231400D01*
X140824000Y-103532870D02*
X140824000Y-98701000D01*
X107530600Y-120688400D02*
X107725600Y-120883400D01*
X140824000Y-98701000D02*
X142150000Y-97375000D01*
X107725600Y-116783400D02*
X107725600Y-115143400D01*
X140305870Y-104051000D02*
X140824000Y-103532870D01*
X111637600Y-111231400D02*
X118818000Y-104051000D01*
X142150000Y-97375000D02*
X143935000Y-97375000D01*
X118818000Y-104051000D02*
X140305870Y-104051000D01*
X139274000Y-102701000D02*
X136987000Y-102701000D01*
X136987000Y-102701000D02*
X134020000Y-99734000D01*
X134020000Y-99734000D02*
X129867500Y-99734000D01*
X135541000Y-96375000D02*
X134020000Y-94854000D01*
X143935000Y-96375000D02*
X135541000Y-96375000D01*
X129921500Y-94854000D02*
X129867500Y-94908000D01*
X134020000Y-94854000D02*
X129921500Y-94854000D01*
X139074000Y-87709000D02*
X138810000Y-87445000D01*
X138810000Y-87445000D02*
X141408500Y-87445000D01*
X138810000Y-87445000D02*
X138810000Y-87637000D01*
X141408500Y-87445000D02*
X142305500Y-86548000D01*
X139074000Y-90051000D02*
X139074000Y-87709000D01*
X136910000Y-87445000D02*
X136910000Y-87887000D01*
X142848000Y-95375000D02*
X143935000Y-95375000D01*
X141074000Y-88801000D02*
X141874000Y-89601000D01*
X143055466Y-95375000D02*
X143935000Y-95375000D01*
X134168000Y-87445000D02*
X133274000Y-86551000D01*
X136910000Y-87445000D02*
X134168000Y-87445000D01*
X136910000Y-87887000D02*
X137774000Y-88751000D01*
X141874000Y-94401000D02*
X142848000Y-95375000D01*
X141874000Y-89601000D02*
X141874000Y-94401000D01*
X194487500Y-79409500D02*
X194487500Y-75138000D01*
X193819000Y-80078000D02*
X194487500Y-79409500D01*
X193819000Y-82631000D02*
X193819000Y-80078000D01*
X227842000Y-65359000D02*
X230763000Y-68280000D01*
X223677000Y-65359000D02*
X227842000Y-65359000D01*
X230763000Y-68280000D02*
X230763000Y-71999500D01*
X230733500Y-74945000D02*
X230763000Y-74974500D01*
X222461000Y-74945000D02*
X230733500Y-74945000D01*
X195424000Y-114351000D02*
X196965300Y-114351000D01*
X195998600Y-109326400D02*
X195174000Y-110151000D01*
X196965300Y-114351000D02*
X197438200Y-114823900D01*
X195174000Y-110151000D02*
X195174000Y-110751000D01*
X198428200Y-109326400D02*
X195998600Y-109326400D01*
X118604400Y-111231400D02*
X116437600Y-111231400D01*
X121999000Y-114626000D02*
X118604400Y-111231400D01*
X123803600Y-115230600D02*
X123424000Y-114851000D01*
X123803600Y-116819400D02*
X123803600Y-115230600D01*
X155474000Y-90501000D02*
X153824000Y-90501000D01*
X153360000Y-92450000D02*
X153360000Y-90965000D01*
X153360000Y-90965000D02*
X153824000Y-90501000D01*
X156474000Y-91501000D02*
X155474000Y-90501000D01*
X157074000Y-96251000D02*
X156198000Y-95375000D01*
X157124000Y-96851000D02*
X157074000Y-96801000D01*
X157074000Y-96801000D02*
X157074000Y-96251000D01*
X156198000Y-95375000D02*
X155285000Y-95375000D01*
X123803600Y-118089400D02*
X123803600Y-123029400D01*
X123803600Y-123029400D02*
X123663600Y-123169400D01*
X105287000Y-87764000D02*
X105724000Y-88201000D01*
X149225000Y-90102000D02*
X150360000Y-91237000D01*
X150360000Y-91237000D02*
X150360000Y-92450000D01*
X148524000Y-90102000D02*
X149225000Y-90102000D01*
X105287000Y-86212400D02*
X105287000Y-87764000D01*
X105724000Y-88201000D02*
X106224000Y-88701000D01*
X106224000Y-88701000D02*
X114174000Y-88701000D01*
X114185400Y-86212400D02*
X114974000Y-87001000D01*
X107827000Y-86212400D02*
X114185400Y-86212400D01*
X157350000Y-97875000D02*
X155285000Y-97875000D01*
X158174000Y-93751000D02*
X158174000Y-97051000D01*
X158174000Y-97051000D02*
X157350000Y-97875000D01*
X128924000Y-107000000D02*
X147566480Y-107000000D01*
X105287000Y-83672400D02*
X102952600Y-83672400D01*
X102952600Y-83672400D02*
X102524000Y-84101000D01*
X148360000Y-106206480D02*
X148360000Y-103800000D01*
X147566480Y-107000000D02*
X148360000Y-106206480D01*
X125074000Y-107651000D02*
X147624000Y-107651000D01*
X124324000Y-106901000D02*
X125074000Y-107651000D01*
X107827000Y-83672400D02*
X112645400Y-83672400D01*
X112645400Y-83672400D02*
X113474000Y-84501000D01*
X148860000Y-106415000D02*
X148860000Y-103800000D01*
X147624000Y-107651000D02*
X148860000Y-106415000D01*
X202696000Y-58755000D02*
X203738000Y-57713000D01*
X195444000Y-56596000D02*
X197603000Y-58755000D01*
X203738000Y-57713000D02*
X203738000Y-56416000D01*
X197603000Y-58755000D02*
X202696000Y-58755000D01*
X206738000Y-56416000D02*
X206738000Y-57463000D01*
X206738000Y-57463000D02*
X208538000Y-59263000D01*
X214888000Y-59263000D02*
X215409000Y-58742000D01*
X208538000Y-59263000D02*
X214888000Y-59263000D01*
X215409000Y-58742000D02*
X215409000Y-57231000D01*
X143935000Y-96875000D02*
X141900000Y-96875000D01*
X141900000Y-96875000D02*
X140874000Y-97901000D01*
X140874000Y-97901000D02*
X139274000Y-97901000D01*
X140098000Y-95875000D02*
X143935000Y-95875000D01*
X139074000Y-94851000D02*
X140098000Y-95875000D01*
X107636200Y-100741200D02*
X107674600Y-100702800D01*
X142450000Y-97875000D02*
X143935000Y-97875000D01*
X100334000Y-100741200D02*
X107636200Y-100741200D01*
X141324000Y-99001000D02*
X142450000Y-97875000D01*
X120775800Y-100702800D02*
X122424000Y-102351000D01*
X140364390Y-104701000D02*
X141324000Y-103741390D01*
X127224000Y-104701000D02*
X140364390Y-104701000D01*
X141324000Y-103741390D02*
X141324000Y-99001000D01*
X107674600Y-100702800D02*
X120775800Y-100702800D01*
X147860000Y-89115000D02*
X147860000Y-92450000D01*
X148374000Y-88601000D02*
X147860000Y-89115000D01*
X169124000Y-109201000D02*
X169124000Y-114001000D01*
X219761000Y-76742000D02*
X219761000Y-74945000D01*
X217923000Y-81869000D02*
X217923000Y-78580000D01*
X217923000Y-78580000D02*
X219761000Y-76742000D01*
X187570000Y-72572000D02*
X193093500Y-72572000D01*
X193093500Y-72572000D02*
X193187500Y-72478000D01*
X204735000Y-102820500D02*
X204702000Y-102853500D01*
X204735000Y-97325000D02*
X204735000Y-102820500D01*
X187570000Y-79811000D02*
X193324000Y-79811000D01*
X193837500Y-79297500D02*
X193837500Y-75138000D01*
X193324000Y-79811000D02*
X193837500Y-79297500D01*
X210496000Y-96675000D02*
X212703000Y-94468000D01*
X207395000Y-96675000D02*
X210496000Y-96675000D01*
X212703000Y-94468000D02*
X212703000Y-92058500D01*
X125073600Y-118089400D02*
X128612400Y-118089400D01*
X132693600Y-118343400D02*
X128866400Y-118343400D01*
X128866400Y-118343400D02*
X128612400Y-118089400D01*
X122673600Y-116679400D02*
X122533600Y-116819400D01*
X122673600Y-111231400D02*
X122673600Y-116679400D01*
X102732600Y-78592400D02*
X105287000Y-78592400D01*
X97032000Y-78150400D02*
X102273400Y-78150400D01*
X102724000Y-78601000D02*
X102732600Y-78592400D01*
X102273400Y-78150400D02*
X102724000Y-78601000D01*
X110934600Y-80690400D02*
X114812000Y-80690400D01*
X107827000Y-81132400D02*
X110492600Y-81132400D01*
X110492600Y-81132400D02*
X110934600Y-80690400D01*
X100842600Y-81132400D02*
X105287000Y-81132400D01*
X97032000Y-82875400D02*
X99099600Y-82875400D01*
X99099600Y-82875400D02*
X100842600Y-81132400D01*
X207395000Y-91410500D02*
X207395000Y-96025000D01*
X206633000Y-90648500D02*
X207395000Y-91410500D01*
X146471000Y-86548000D02*
X146674000Y-86751000D01*
D48*
X126742500Y-101169500D02*
X126824000Y-101251000D01*
X187570000Y-75672000D02*
X189045000Y-75672000D01*
D49*
X204735000Y-96675000D02*
X203450000Y-96675000D01*
D48*
X206717500Y-74376000D02*
X208407000Y-76065500D01*
X102175600Y-117563400D02*
X102175600Y-116949400D01*
X126742500Y-93882500D02*
X130149000Y-90476000D01*
X164872500Y-90712500D02*
X163612500Y-90712500D01*
X109325600Y-121402600D02*
X109774000Y-121851000D01*
X210074000Y-57801000D02*
X208974000Y-57801000D01*
X163455000Y-87000000D02*
X165165000Y-85290000D01*
X208974000Y-57801000D02*
X208738000Y-57565000D01*
X164872500Y-85582500D02*
X165165000Y-85290000D01*
D49*
X156698000Y-94875000D02*
X157024000Y-95201000D01*
D48*
X164872500Y-90712500D02*
X164872500Y-85582500D01*
D49*
X146360000Y-105165000D02*
X146124000Y-105401000D01*
X203224000Y-96901000D02*
X203224000Y-97101000D01*
D48*
X208738000Y-57565000D02*
X208738000Y-56416000D01*
X133324000Y-112913000D02*
X132693600Y-113543400D01*
X208233200Y-118001900D02*
X217428700Y-118001900D01*
X207802000Y-101323000D02*
X208024000Y-101101000D01*
X217428700Y-118001900D02*
X217643200Y-118216400D01*
X109325600Y-120883400D02*
X109325600Y-121402600D01*
X97032000Y-87675400D02*
X97032000Y-89109000D01*
X126742500Y-99734000D02*
X126742500Y-94908000D01*
X107827000Y-76052400D02*
X114650000Y-76052400D01*
D49*
X145430500Y-86548000D02*
X146471000Y-86548000D01*
D48*
X126742400Y-116819400D02*
X126774000Y-116851000D01*
X109515400Y-78592400D02*
X109774000Y-78851000D01*
D49*
X193837500Y-72478000D02*
X193837500Y-71287500D01*
X146360000Y-103800000D02*
X146360000Y-105165000D01*
D48*
X211706000Y-81869000D02*
X211524000Y-82051000D01*
X213123000Y-81869000D02*
X213123000Y-76205500D01*
X224068000Y-73995000D02*
X224074000Y-74001000D01*
D49*
X203450000Y-96675000D02*
X203224000Y-96901000D01*
D48*
X221654000Y-57231000D02*
X221824000Y-57401000D01*
D49*
X155285000Y-94875000D02*
X156698000Y-94875000D01*
D48*
X109325600Y-116783400D02*
X109325600Y-120883400D01*
X126742500Y-94908000D02*
X126742500Y-93882500D01*
X208407000Y-76065500D02*
X212983000Y-76065500D01*
X190644000Y-56596000D02*
X190644000Y-54431000D01*
X163612500Y-90712500D02*
X163374000Y-90951000D01*
X130524000Y-111231400D02*
X130524000Y-111051000D01*
X97032000Y-73350400D02*
X97032000Y-72093000D01*
X213123000Y-76205500D02*
X212983000Y-76065500D01*
X132554400Y-111231400D02*
X133324000Y-112001000D01*
D49*
X152860000Y-103800000D02*
X152860000Y-104965000D01*
D48*
X189045000Y-75672000D02*
X189274000Y-75901000D01*
X197362000Y-101114000D02*
X200587000Y-101114000D01*
X107827000Y-78592400D02*
X109515400Y-78592400D01*
X164911000Y-96046500D02*
X163819500Y-96046500D01*
X133324000Y-112001000D02*
X133324000Y-112913000D01*
X102175600Y-116949400D02*
X102774000Y-116351000D01*
X197438200Y-119336800D02*
X196874000Y-119901000D01*
D49*
X146360000Y-91415000D02*
X146724000Y-91051000D01*
D48*
X130524000Y-111051000D02*
X131024000Y-110551000D01*
X100334000Y-58881000D02*
X100334000Y-61791000D01*
X130524000Y-111231400D02*
X132554400Y-111231400D01*
X119993600Y-122039400D02*
X119993600Y-118089400D01*
X222461000Y-73995000D02*
X224068000Y-73995000D01*
X207802000Y-102853500D02*
X211713000Y-102853500D01*
X207802000Y-102853500D02*
X207802000Y-101323000D01*
X163819500Y-96046500D02*
X163424000Y-95651000D01*
X126742500Y-99734000D02*
X126742500Y-101169500D01*
X197438200Y-117798900D02*
X197438200Y-119336800D01*
X118863600Y-123169400D02*
X119993600Y-122039400D01*
X164911000Y-96046500D02*
X164911000Y-102396500D01*
X125073600Y-116819400D02*
X126742400Y-116819400D01*
D49*
X146360000Y-92450000D02*
X146360000Y-91415000D01*
D48*
X190644000Y-54431000D02*
X190874000Y-54201000D01*
X208030200Y-117798900D02*
X208233200Y-118001900D01*
X220209000Y-57231000D02*
X221654000Y-57231000D01*
D49*
X152860000Y-104965000D02*
X152624000Y-105201000D01*
X132724000Y-113513000D02*
X132693600Y-113543400D01*
D48*
X100334000Y-61791000D02*
X98274000Y-63851000D01*
X97032000Y-72093000D02*
X97274000Y-71851000D01*
X200587000Y-101114000D02*
X200974000Y-101501000D01*
X202238000Y-57287000D02*
X201674000Y-57851000D01*
X130149000Y-90476000D02*
X130149000Y-86551000D01*
X202238000Y-56416000D02*
X202238000Y-57287000D01*
X157545000Y-87000000D02*
X163455000Y-87000000D01*
X114650000Y-76052400D02*
X114812000Y-75890400D01*
X189123500Y-64216000D02*
X189123500Y-58116500D01*
X127473600Y-111231400D02*
X130524000Y-111231400D01*
X97032000Y-89109000D02*
X97274000Y-89351000D01*
D49*
X193837500Y-71287500D02*
X194024000Y-71101000D01*
D48*
X197438200Y-117798900D02*
X208030200Y-117798900D01*
X189123500Y-58116500D02*
X190644000Y-56596000D01*
X213123000Y-81869000D02*
X211706000Y-81869000D01*
X211713000Y-102853500D02*
X213520500Y-101046000D01*
D49*
X184560400Y-59059800D02*
X184585800Y-59034400D01*
X179714000Y-58881000D02*
X183187800Y-58881000D01*
X225160000Y-86299000D02*
X224540000Y-85679000D01*
X183187800Y-58881000D02*
X183366600Y-59059800D01*
X228858000Y-86299000D02*
X225160000Y-86299000D01*
X183366600Y-59059800D02*
X184560400Y-59059800D01*
X197548000Y-96025000D02*
X197362000Y-95839000D01*
X204735000Y-96025000D02*
X197548000Y-96025000D01*
X228858000Y-76611000D02*
X228858000Y-81219000D01*
X227842000Y-75595000D02*
X228858000Y-76611000D01*
X225368000Y-73045000D02*
X226318000Y-73995000D01*
X222461000Y-73045000D02*
X225368000Y-73045000D01*
X176356200Y-115625600D02*
X174698600Y-115625600D01*
X174698600Y-115625600D02*
X171523200Y-118801000D01*
X171523200Y-118801000D02*
X169124000Y-118801000D01*
G04 #@! TA.AperFunction,Conductor*
G36*
X233233191Y-48369907D02*
G01*
X233269155Y-48419407D01*
X233274000Y-48450000D01*
X233274000Y-78252000D01*
X233255093Y-78310191D01*
X233205593Y-78346155D01*
X233175000Y-78351000D01*
X229407500Y-78351000D01*
X229349309Y-78332093D01*
X229313345Y-78282593D01*
X229308500Y-78252000D01*
X229308500Y-76551692D01*
X229307155Y-76546674D01*
X229277799Y-76437114D01*
X229277799Y-76437113D01*
X229277799Y-76437112D01*
X229218492Y-76334390D01*
X229218491Y-76334389D01*
X229218490Y-76334388D01*
X229218489Y-76334386D01*
X228471496Y-75587393D01*
X228470115Y-75584683D01*
X228467493Y-75583146D01*
X228462092Y-75568936D01*
X228443719Y-75532876D01*
X228442976Y-75527087D01*
X228442500Y-75522251D01*
X228442500Y-75515943D01*
X228441518Y-75512280D01*
X228440723Y-75504198D01*
X228445626Y-75481853D01*
X228446826Y-75459013D01*
X228452057Y-75452554D01*
X228453839Y-75444435D01*
X228470941Y-75429239D01*
X228485336Y-75411467D01*
X228493747Y-75408975D01*
X228499578Y-75403795D01*
X228517045Y-75402075D01*
X228539247Y-75395500D01*
X229489519Y-75395500D01*
X229547710Y-75414407D01*
X229583674Y-75463907D01*
X229587813Y-75482697D01*
X229598124Y-75568564D01*
X229653639Y-75709342D01*
X229745078Y-75829922D01*
X229865658Y-75921361D01*
X230006436Y-75976876D01*
X230094901Y-75987500D01*
X231431098Y-75987499D01*
X231519564Y-75976876D01*
X231660342Y-75921361D01*
X231780922Y-75829922D01*
X231872361Y-75709342D01*
X231927876Y-75568564D01*
X231938500Y-75480099D01*
X231938499Y-74468902D01*
X231927876Y-74380436D01*
X231872361Y-74239658D01*
X231780922Y-74119078D01*
X231660342Y-74027639D01*
X231519564Y-73972124D01*
X231431099Y-73961500D01*
X230094903Y-73961500D01*
X230094897Y-73961501D01*
X230006436Y-73972124D01*
X229865658Y-74027639D01*
X229865657Y-74027639D01*
X229865656Y-74027640D01*
X229745081Y-74119075D01*
X229745075Y-74119081D01*
X229653640Y-74239656D01*
X229598124Y-74380435D01*
X229594897Y-74407306D01*
X229569185Y-74462827D01*
X229515749Y-74492631D01*
X229496603Y-74494500D01*
X226894484Y-74494500D01*
X226836293Y-74475593D01*
X226800329Y-74426093D01*
X226800329Y-74364907D01*
X226808742Y-74346009D01*
X226877577Y-74226784D01*
X226918500Y-74074057D01*
X226918500Y-73915943D01*
X226877577Y-73763216D01*
X226798520Y-73626284D01*
X226686716Y-73514480D01*
X226549784Y-73435423D01*
X226397057Y-73394500D01*
X226397055Y-73394500D01*
X226395611Y-73394500D01*
X226394626Y-73394180D01*
X226390623Y-73393653D01*
X226390720Y-73392911D01*
X226337420Y-73375593D01*
X226325607Y-73365504D01*
X226001510Y-73041407D01*
X225644614Y-72684511D01*
X225644611Y-72684509D01*
X225644610Y-72684508D01*
X225644609Y-72684507D01*
X225541890Y-72625202D01*
X225541886Y-72625200D01*
X225517673Y-72618712D01*
X225517673Y-72618713D01*
X225427309Y-72594500D01*
X225427307Y-72594500D01*
X223491368Y-72594500D01*
X223433177Y-72575593D01*
X223411711Y-72554286D01*
X223409590Y-72551413D01*
X223409591Y-72551413D01*
X223409589Y-72551411D01*
X223297289Y-72468531D01*
X223297285Y-72468529D01*
X223165553Y-72422434D01*
X223165544Y-72422432D01*
X223134282Y-72419500D01*
X223134272Y-72419500D01*
X221787728Y-72419500D01*
X221787717Y-72419500D01*
X221756455Y-72422432D01*
X221756446Y-72422434D01*
X221624714Y-72468529D01*
X221624713Y-72468530D01*
X221624712Y-72468530D01*
X221624711Y-72468531D01*
X221512411Y-72551411D01*
X221457953Y-72625201D01*
X221429530Y-72663713D01*
X221429529Y-72663714D01*
X221383434Y-72795446D01*
X221383432Y-72795455D01*
X221380500Y-72826717D01*
X221380500Y-73263282D01*
X221383432Y-73294544D01*
X221383434Y-73294553D01*
X221429529Y-73426285D01*
X221429534Y-73426294D01*
X221455305Y-73461214D01*
X221474646Y-73519262D01*
X221456173Y-73577592D01*
X221455305Y-73578786D01*
X221429534Y-73613705D01*
X221429529Y-73613714D01*
X221383434Y-73745446D01*
X221383432Y-73745455D01*
X221380500Y-73776717D01*
X221380500Y-74213282D01*
X221383432Y-74244544D01*
X221383434Y-74244553D01*
X221429529Y-74376285D01*
X221429534Y-74376294D01*
X221455305Y-74411214D01*
X221474646Y-74469262D01*
X221456173Y-74527592D01*
X221455305Y-74528786D01*
X221429534Y-74563705D01*
X221429529Y-74563714D01*
X221383434Y-74695446D01*
X221383432Y-74695455D01*
X221380500Y-74726717D01*
X221380500Y-75163282D01*
X221383432Y-75194544D01*
X221383434Y-75194553D01*
X221429529Y-75326285D01*
X221429531Y-75326289D01*
X221512411Y-75438589D01*
X221624711Y-75521469D01*
X221756451Y-75567567D01*
X221785293Y-75570271D01*
X221787717Y-75570499D01*
X221787721Y-75570500D01*
X221787728Y-75570500D01*
X223134279Y-75570500D01*
X223134281Y-75570499D01*
X223165549Y-75567567D01*
X223297289Y-75521469D01*
X223409589Y-75438589D01*
X223411711Y-75435714D01*
X223414358Y-75433820D01*
X223414839Y-75433340D01*
X223414918Y-75433419D01*
X223461478Y-75400120D01*
X223491368Y-75395500D01*
X227144753Y-75395500D01*
X227202944Y-75414407D01*
X227238908Y-75463907D01*
X227240096Y-75509212D01*
X227242347Y-75509509D01*
X227241500Y-75515942D01*
X227241500Y-75515943D01*
X227241500Y-75674057D01*
X227282423Y-75826784D01*
X227361480Y-75963716D01*
X227473284Y-76075520D01*
X227610216Y-76154577D01*
X227762943Y-76195500D01*
X227764389Y-76195500D01*
X227765373Y-76195819D01*
X227769377Y-76196347D01*
X227769279Y-76197088D01*
X227822580Y-76214407D01*
X227834393Y-76224496D01*
X228378504Y-76768607D01*
X228406281Y-76823124D01*
X228407500Y-76838611D01*
X228407500Y-78252000D01*
X228388593Y-78310191D01*
X228339093Y-78346155D01*
X228308500Y-78351000D01*
X219028111Y-78351000D01*
X218969920Y-78332093D01*
X218933956Y-78282593D01*
X218933956Y-78221407D01*
X218958107Y-78181996D01*
X220121490Y-77018613D01*
X220180799Y-76915886D01*
X220211500Y-76801309D01*
X220211500Y-75669500D01*
X220230407Y-75611309D01*
X220279907Y-75575345D01*
X220310500Y-75570500D01*
X220434279Y-75570500D01*
X220434281Y-75570499D01*
X220465549Y-75567567D01*
X220597289Y-75521469D01*
X220709589Y-75438589D01*
X220792469Y-75326289D01*
X220838567Y-75194549D01*
X220841499Y-75163281D01*
X220841500Y-75163279D01*
X220841500Y-74726721D01*
X220841499Y-74726717D01*
X220838567Y-74695455D01*
X220838567Y-74695451D01*
X220792469Y-74563711D01*
X220709589Y-74451411D01*
X220597289Y-74368531D01*
X220597285Y-74368529D01*
X220465553Y-74322434D01*
X220465544Y-74322432D01*
X220434282Y-74319500D01*
X220434272Y-74319500D01*
X219087728Y-74319500D01*
X219087717Y-74319500D01*
X219056455Y-74322432D01*
X219056446Y-74322434D01*
X218924714Y-74368529D01*
X218924713Y-74368530D01*
X218924712Y-74368530D01*
X218924711Y-74368531D01*
X218812411Y-74451411D01*
X218729536Y-74563705D01*
X218729530Y-74563713D01*
X218729529Y-74563714D01*
X218683434Y-74695446D01*
X218683432Y-74695455D01*
X218680500Y-74726717D01*
X218680500Y-75163282D01*
X218683432Y-75194544D01*
X218683434Y-75194553D01*
X218729529Y-75326285D01*
X218729531Y-75326289D01*
X218812411Y-75438589D01*
X218924711Y-75521469D01*
X219056451Y-75567567D01*
X219085293Y-75570271D01*
X219087717Y-75570499D01*
X219087721Y-75570500D01*
X219087728Y-75570500D01*
X219211500Y-75570500D01*
X219269691Y-75589407D01*
X219305655Y-75638907D01*
X219310500Y-75669500D01*
X219310500Y-76514389D01*
X219291593Y-76572580D01*
X219281504Y-76584393D01*
X217562508Y-78303389D01*
X217558560Y-78308535D01*
X217557063Y-78307386D01*
X217518127Y-78342442D01*
X217477863Y-78351000D01*
X213772500Y-78351000D01*
X213714309Y-78332093D01*
X213678345Y-78282593D01*
X213673500Y-78252000D01*
X213673500Y-77116635D01*
X213692407Y-77058444D01*
X213741907Y-77022480D01*
X213760697Y-77018341D01*
X213764564Y-77017877D01*
X213905342Y-76962361D01*
X214025922Y-76870922D01*
X214117361Y-76750342D01*
X214172877Y-76609564D01*
X214183500Y-76521102D01*
X214183500Y-75609898D01*
X214172877Y-75521436D01*
X214117361Y-75380658D01*
X214025922Y-75260078D01*
X213905342Y-75168639D01*
X213905341Y-75168638D01*
X213905339Y-75168637D01*
X213764565Y-75113123D01*
X213676106Y-75102500D01*
X213676102Y-75102500D01*
X212289898Y-75102500D01*
X212289893Y-75102500D01*
X212201434Y-75113123D01*
X212060660Y-75168637D01*
X212060656Y-75168640D01*
X211940081Y-75260075D01*
X211940075Y-75260081D01*
X211848640Y-75380656D01*
X211848637Y-75380660D01*
X211820379Y-75452319D01*
X211781442Y-75499516D01*
X211728282Y-75515000D01*
X208676033Y-75515000D01*
X208617842Y-75496093D01*
X208606029Y-75486004D01*
X208034495Y-74914470D01*
X208006718Y-74859953D01*
X208005499Y-74844466D01*
X208005499Y-71882901D01*
X208005498Y-71882891D01*
X207994877Y-71794435D01*
X207939361Y-71653657D01*
X207847923Y-71533077D01*
X207727343Y-71441639D01*
X207691489Y-71427500D01*
X207586566Y-71386123D01*
X207498104Y-71375500D01*
X205936901Y-71375500D01*
X205936891Y-71375501D01*
X205848435Y-71386123D01*
X205848429Y-71386124D01*
X205707656Y-71441639D01*
X205587080Y-71533074D01*
X205587074Y-71533080D01*
X205495639Y-71653656D01*
X205440123Y-71794433D01*
X205429500Y-71882892D01*
X205429500Y-76869098D01*
X205429501Y-76869108D01*
X205440123Y-76957564D01*
X205440124Y-76957570D01*
X205495073Y-77096907D01*
X205495639Y-77098343D01*
X205587077Y-77218923D01*
X205707657Y-77310361D01*
X205848435Y-77365877D01*
X205936897Y-77376500D01*
X207498102Y-77376499D01*
X207586565Y-77365877D01*
X207727343Y-77310361D01*
X207847923Y-77218923D01*
X207939361Y-77098343D01*
X207994877Y-76957565D01*
X208005500Y-76869103D01*
X208005499Y-76640827D01*
X208008767Y-76630768D01*
X208007662Y-76620249D01*
X208018009Y-76602325D01*
X208024406Y-76582639D01*
X208032964Y-76576421D01*
X208038253Y-76567260D01*
X208057161Y-76558840D01*
X208073906Y-76546675D01*
X208084483Y-76546674D01*
X208094147Y-76542372D01*
X208114389Y-76546674D01*
X208135091Y-76546674D01*
X208153996Y-76555091D01*
X208156198Y-76556362D01*
X208176552Y-76568113D01*
X208194515Y-76578484D01*
X208334525Y-76616000D01*
X208334526Y-76616000D01*
X208479474Y-76616000D01*
X211728282Y-76616000D01*
X211786473Y-76634907D01*
X211820379Y-76678681D01*
X211848637Y-76750339D01*
X211848638Y-76750341D01*
X211848639Y-76750342D01*
X211940078Y-76870922D01*
X212060658Y-76962361D01*
X212060659Y-76962361D01*
X212060660Y-76962362D01*
X212131047Y-76990119D01*
X212201436Y-77017877D01*
X212289898Y-77028500D01*
X212473500Y-77028500D01*
X212531691Y-77047407D01*
X212567655Y-77096907D01*
X212572500Y-77127500D01*
X212572500Y-78252000D01*
X212553593Y-78310191D01*
X212504093Y-78346155D01*
X212473500Y-78351000D01*
X199168500Y-78351000D01*
X199110309Y-78332093D01*
X199074345Y-78282593D01*
X199069500Y-78252000D01*
X199069500Y-77427110D01*
X199088407Y-77368919D01*
X199098490Y-77357112D01*
X199985498Y-76470103D01*
X200040013Y-76442328D01*
X200100445Y-76451899D01*
X200143710Y-76495164D01*
X200154500Y-76540109D01*
X200154500Y-76869098D01*
X200154501Y-76869108D01*
X200165123Y-76957564D01*
X200165124Y-76957570D01*
X200220073Y-77096907D01*
X200220639Y-77098343D01*
X200312077Y-77218923D01*
X200432657Y-77310361D01*
X200573435Y-77365877D01*
X200661897Y-77376500D01*
X202223102Y-77376499D01*
X202311565Y-77365877D01*
X202452343Y-77310361D01*
X202572923Y-77218923D01*
X202664361Y-77098343D01*
X202719877Y-76957565D01*
X202730500Y-76869103D01*
X202730499Y-71882898D01*
X202719877Y-71794435D01*
X202664361Y-71653657D01*
X202572923Y-71533077D01*
X202452343Y-71441639D01*
X202416489Y-71427500D01*
X202311566Y-71386123D01*
X202223104Y-71375500D01*
X200661901Y-71375500D01*
X200661891Y-71375501D01*
X200573435Y-71386123D01*
X200573429Y-71386124D01*
X200432656Y-71441639D01*
X200312080Y-71533074D01*
X200312074Y-71533080D01*
X200220639Y-71653656D01*
X200165123Y-71794433D01*
X200154500Y-71882892D01*
X200154500Y-74985888D01*
X200135593Y-75044079D01*
X200125504Y-75055892D01*
X198258508Y-76922889D01*
X198258507Y-76922890D01*
X198199202Y-77025609D01*
X198199201Y-77025612D01*
X198192712Y-77049824D01*
X198192713Y-77049825D01*
X198168500Y-77140191D01*
X198168500Y-78252000D01*
X198149593Y-78310191D01*
X198100093Y-78346155D01*
X198069500Y-78351000D01*
X195037000Y-78351000D01*
X194978809Y-78332093D01*
X194942845Y-78282593D01*
X194938000Y-78252000D01*
X194938000Y-76006048D01*
X194948791Y-75961102D01*
X194973146Y-75913304D01*
X194988000Y-75819519D01*
X194987999Y-74456482D01*
X194987999Y-74456481D01*
X194987999Y-74456478D01*
X194987998Y-74456476D01*
X194973147Y-74362700D01*
X194973146Y-74362698D01*
X194973146Y-74362696D01*
X194915550Y-74249658D01*
X194825842Y-74159950D01*
X194712804Y-74102354D01*
X194712805Y-74102354D01*
X194619022Y-74087500D01*
X194355979Y-74087500D01*
X194355978Y-74087501D01*
X194262200Y-74102352D01*
X194262197Y-74102353D01*
X194207443Y-74130251D01*
X194147011Y-74139821D01*
X194117557Y-74130251D01*
X194086053Y-74114199D01*
X194062804Y-74102354D01*
X194031542Y-74097402D01*
X193969021Y-74087500D01*
X193705979Y-74087500D01*
X193705978Y-74087501D01*
X193612200Y-74102352D01*
X193612197Y-74102353D01*
X193557443Y-74130251D01*
X193497011Y-74139821D01*
X193467557Y-74130251D01*
X193436053Y-74114199D01*
X193412804Y-74102354D01*
X193381542Y-74097402D01*
X193319021Y-74087500D01*
X193055979Y-74087500D01*
X193055976Y-74087501D01*
X192962200Y-74102352D01*
X192962195Y-74102354D01*
X192849159Y-74159949D01*
X192759449Y-74249659D01*
X192701854Y-74362695D01*
X192687000Y-74456478D01*
X192687000Y-75819521D01*
X192687001Y-75819523D01*
X192701852Y-75913299D01*
X192701854Y-75913304D01*
X192759450Y-76026342D01*
X192849158Y-76116050D01*
X192962196Y-76173646D01*
X193055981Y-76188500D01*
X193288000Y-76188499D01*
X193346190Y-76207406D01*
X193382154Y-76256906D01*
X193387000Y-76287499D01*
X193387000Y-78252000D01*
X193368093Y-78310191D01*
X193318593Y-78346155D01*
X193288000Y-78351000D01*
X184373000Y-78351000D01*
X184314809Y-78332093D01*
X184278845Y-78282593D01*
X184274000Y-78252000D01*
X184274000Y-75228893D01*
X186394500Y-75228893D01*
X186394500Y-76115106D01*
X186405123Y-76203565D01*
X186460637Y-76344339D01*
X186460638Y-76344340D01*
X186460639Y-76344342D01*
X186552078Y-76464922D01*
X186672658Y-76556361D01*
X186672659Y-76556361D01*
X186672660Y-76556362D01*
X186702459Y-76568113D01*
X186813436Y-76611877D01*
X186901898Y-76622500D01*
X186901900Y-76622500D01*
X188238100Y-76622500D01*
X188238102Y-76622500D01*
X188326564Y-76611877D01*
X188467342Y-76556361D01*
X188587922Y-76464922D01*
X188679361Y-76344342D01*
X188679362Y-76344340D01*
X188682681Y-76338438D01*
X188685228Y-76339870D01*
X188716287Y-76302206D01*
X188775526Y-76286896D01*
X188832450Y-76309329D01*
X188839460Y-76315696D01*
X188905284Y-76381520D01*
X189042216Y-76460577D01*
X189194943Y-76501500D01*
X189194945Y-76501500D01*
X189353055Y-76501500D01*
X189353057Y-76501500D01*
X189505784Y-76460577D01*
X189642716Y-76381520D01*
X189754520Y-76269716D01*
X189833577Y-76132784D01*
X189874500Y-75980057D01*
X189874500Y-75821943D01*
X189833577Y-75669216D01*
X189754520Y-75532284D01*
X189642716Y-75420480D01*
X189505784Y-75341423D01*
X189505783Y-75341422D01*
X189505777Y-75341419D01*
X189502057Y-75339878D01*
X189469947Y-75318421D01*
X189383017Y-75231492D01*
X189383015Y-75231490D01*
X189257485Y-75159016D01*
X189257484Y-75159015D01*
X189257481Y-75159014D01*
X189188144Y-75140435D01*
X189188144Y-75140436D01*
X189117475Y-75121500D01*
X189117474Y-75121500D01*
X188794789Y-75121500D01*
X188736598Y-75102593D01*
X188702692Y-75058819D01*
X188679362Y-74999659D01*
X188587924Y-74879081D01*
X188587922Y-74879078D01*
X188467342Y-74787639D01*
X188467341Y-74787638D01*
X188467339Y-74787637D01*
X188326565Y-74732123D01*
X188238106Y-74721500D01*
X188238102Y-74721500D01*
X186901898Y-74721500D01*
X186901893Y-74721500D01*
X186813434Y-74732123D01*
X186672660Y-74787637D01*
X186672656Y-74787640D01*
X186552081Y-74879075D01*
X186552075Y-74879081D01*
X186460640Y-74999656D01*
X186460637Y-74999660D01*
X186405123Y-75140434D01*
X186394500Y-75228893D01*
X184274000Y-75228893D01*
X184274000Y-72128893D01*
X186394500Y-72128893D01*
X186394500Y-73015106D01*
X186405123Y-73103565D01*
X186460637Y-73244339D01*
X186460638Y-73244341D01*
X186460639Y-73244342D01*
X186552078Y-73364922D01*
X186672658Y-73456361D01*
X186672659Y-73456361D01*
X186672660Y-73456362D01*
X186743047Y-73484119D01*
X186813436Y-73511877D01*
X186901898Y-73522500D01*
X186901900Y-73522500D01*
X188238100Y-73522500D01*
X188238102Y-73522500D01*
X188326564Y-73511877D01*
X188467342Y-73456361D01*
X188587922Y-73364922D01*
X188679361Y-73244342D01*
X188734877Y-73103564D01*
X188734877Y-73103560D01*
X188736433Y-73097410D01*
X188739515Y-73098189D01*
X188759689Y-73054350D01*
X188813052Y-73024416D01*
X188832434Y-73022500D01*
X192588001Y-73022500D01*
X192646192Y-73041407D01*
X192682156Y-73090907D01*
X192687001Y-73121500D01*
X192687001Y-73159523D01*
X192701852Y-73253299D01*
X192701854Y-73253304D01*
X192759450Y-73366342D01*
X192849158Y-73456050D01*
X192962196Y-73513646D01*
X193055981Y-73528500D01*
X193319018Y-73528499D01*
X193319020Y-73528499D01*
X193319021Y-73528498D01*
X193377343Y-73519262D01*
X193412799Y-73513647D01*
X193412804Y-73513646D01*
X193448417Y-73495500D01*
X193467554Y-73485748D01*
X193527986Y-73476177D01*
X193557444Y-73485748D01*
X193612196Y-73513646D01*
X193705981Y-73528500D01*
X193969018Y-73528499D01*
X193969020Y-73528499D01*
X193969021Y-73528498D01*
X194027343Y-73519262D01*
X194062799Y-73513647D01*
X194062799Y-73513646D01*
X194062804Y-73513646D01*
X194175842Y-73456050D01*
X194265550Y-73366342D01*
X194323146Y-73253304D01*
X194338000Y-73159519D01*
X194337999Y-71796482D01*
X194337999Y-71796481D01*
X194337999Y-71796478D01*
X194322034Y-71695675D01*
X194331606Y-71635243D01*
X194370318Y-71594451D01*
X194378620Y-71589658D01*
X194392716Y-71581520D01*
X194504520Y-71469716D01*
X194583577Y-71332784D01*
X194624500Y-71180057D01*
X194624500Y-71021943D01*
X194583577Y-70869216D01*
X194504520Y-70732284D01*
X194392716Y-70620480D01*
X194255784Y-70541423D01*
X194103057Y-70500500D01*
X193944943Y-70500500D01*
X193792216Y-70541423D01*
X193655284Y-70620480D01*
X193543480Y-70732284D01*
X193464423Y-70869216D01*
X193451327Y-70918093D01*
X193423500Y-71021944D01*
X193423500Y-71078937D01*
X193420127Y-71104560D01*
X193417701Y-71113614D01*
X193387000Y-71228192D01*
X193387000Y-71328500D01*
X193368093Y-71386691D01*
X193318593Y-71422655D01*
X193288000Y-71427500D01*
X193055979Y-71427500D01*
X193055976Y-71427501D01*
X192962200Y-71442352D01*
X192962195Y-71442354D01*
X192849159Y-71499949D01*
X192759449Y-71589659D01*
X192701854Y-71702695D01*
X192687000Y-71796478D01*
X192687000Y-72022500D01*
X192668093Y-72080691D01*
X192618593Y-72116655D01*
X192588000Y-72121500D01*
X188832434Y-72121500D01*
X188774243Y-72102593D01*
X188738279Y-72053093D01*
X188736832Y-72046488D01*
X188736433Y-72046590D01*
X188734877Y-72040437D01*
X188679362Y-71899660D01*
X188679361Y-71899659D01*
X188679361Y-71899658D01*
X188587922Y-71779078D01*
X188467342Y-71687639D01*
X188467341Y-71687638D01*
X188467339Y-71687637D01*
X188326565Y-71632123D01*
X188238106Y-71621500D01*
X188238102Y-71621500D01*
X186901898Y-71621500D01*
X186901893Y-71621500D01*
X186813434Y-71632123D01*
X186672660Y-71687637D01*
X186672656Y-71687640D01*
X186552081Y-71779075D01*
X186552075Y-71779081D01*
X186460640Y-71899656D01*
X186460637Y-71899660D01*
X186405123Y-72040434D01*
X186394500Y-72128893D01*
X184274000Y-72128893D01*
X184274000Y-61722892D01*
X187835500Y-61722892D01*
X187835500Y-66709098D01*
X187835501Y-66709108D01*
X187846123Y-66797564D01*
X187846124Y-66797570D01*
X187901639Y-66938343D01*
X187993077Y-67058923D01*
X188113657Y-67150361D01*
X188254435Y-67205877D01*
X188342897Y-67216500D01*
X189904102Y-67216499D01*
X189992565Y-67205877D01*
X190133343Y-67150361D01*
X190253923Y-67058923D01*
X190345361Y-66938343D01*
X190400877Y-66797565D01*
X190411500Y-66709103D01*
X190411499Y-64690893D01*
X222726500Y-64690893D01*
X222726500Y-66027106D01*
X222737123Y-66115565D01*
X222792637Y-66256339D01*
X222792638Y-66256341D01*
X222792639Y-66256342D01*
X222884078Y-66376922D01*
X223004658Y-66468361D01*
X223004659Y-66468361D01*
X223004660Y-66468362D01*
X223075047Y-66496119D01*
X223145436Y-66523877D01*
X223233898Y-66534500D01*
X223233900Y-66534500D01*
X224120100Y-66534500D01*
X224120102Y-66534500D01*
X224208564Y-66523877D01*
X224349342Y-66468361D01*
X224469922Y-66376922D01*
X224561361Y-66256342D01*
X224616877Y-66115564D01*
X224627500Y-66027102D01*
X224627500Y-65908500D01*
X224646407Y-65850309D01*
X224695907Y-65814345D01*
X224726500Y-65809500D01*
X227614389Y-65809500D01*
X227672580Y-65828407D01*
X227684393Y-65838496D01*
X230283504Y-68437607D01*
X230311281Y-68492124D01*
X230312500Y-68507611D01*
X230312500Y-70887500D01*
X230293593Y-70945691D01*
X230244093Y-70981655D01*
X230213501Y-70986500D01*
X230094904Y-70986500D01*
X230094897Y-70986501D01*
X230006436Y-70997124D01*
X229865658Y-71052639D01*
X229865657Y-71052639D01*
X229865656Y-71052640D01*
X229745081Y-71144075D01*
X229745075Y-71144081D01*
X229653640Y-71264656D01*
X229598124Y-71405435D01*
X229587500Y-71493898D01*
X229587500Y-72505096D01*
X229587501Y-72505102D01*
X229593407Y-72554286D01*
X229598124Y-72593564D01*
X229653639Y-72734342D01*
X229745078Y-72854922D01*
X229865658Y-72946361D01*
X230006436Y-73001876D01*
X230094901Y-73012500D01*
X231431098Y-73012499D01*
X231519564Y-73001876D01*
X231660342Y-72946361D01*
X231780922Y-72854922D01*
X231872361Y-72734342D01*
X231927876Y-72593564D01*
X231938500Y-72505099D01*
X231938499Y-71493902D01*
X231927876Y-71405436D01*
X231872361Y-71264658D01*
X231780922Y-71144078D01*
X231660342Y-71052639D01*
X231519564Y-70997124D01*
X231431101Y-70986500D01*
X231431099Y-70986500D01*
X231312500Y-70986500D01*
X231254309Y-70967593D01*
X231218345Y-70918093D01*
X231213500Y-70887500D01*
X231213500Y-68220692D01*
X231182800Y-68106118D01*
X231182799Y-68106114D01*
X231182799Y-68106113D01*
X231123490Y-68003386D01*
X228118614Y-64998511D01*
X228118611Y-64998509D01*
X228118610Y-64998508D01*
X228118609Y-64998507D01*
X228015890Y-64939202D01*
X228015886Y-64939200D01*
X227991673Y-64932712D01*
X227991673Y-64932713D01*
X227901309Y-64908500D01*
X227901307Y-64908500D01*
X224726500Y-64908500D01*
X224668309Y-64889593D01*
X224632345Y-64840093D01*
X224627500Y-64809500D01*
X224627500Y-64690899D01*
X224627499Y-64690893D01*
X224616877Y-64602436D01*
X224561361Y-64461658D01*
X224469922Y-64341078D01*
X224349342Y-64249639D01*
X224349341Y-64249638D01*
X224349339Y-64249637D01*
X224208565Y-64194123D01*
X224120106Y-64183500D01*
X224120102Y-64183500D01*
X223233898Y-64183500D01*
X223233893Y-64183500D01*
X223145434Y-64194123D01*
X223004660Y-64249637D01*
X223004656Y-64249640D01*
X222884081Y-64341075D01*
X222884075Y-64341081D01*
X222792640Y-64461656D01*
X222792637Y-64461660D01*
X222737123Y-64602434D01*
X222726500Y-64690893D01*
X190411499Y-64690893D01*
X190411499Y-64194123D01*
X190411499Y-61722901D01*
X190411498Y-61722891D01*
X190400877Y-61634435D01*
X190345361Y-61493657D01*
X190253923Y-61373077D01*
X190133343Y-61281639D01*
X189992566Y-61226123D01*
X189904107Y-61215500D01*
X189904103Y-61215500D01*
X189773000Y-61215500D01*
X189714809Y-61196593D01*
X189678845Y-61147093D01*
X189674000Y-61116500D01*
X189674000Y-58385531D01*
X189676468Y-58377933D01*
X189675219Y-58370044D01*
X189685742Y-58349389D01*
X189692907Y-58327340D01*
X189702990Y-58315533D01*
X189833792Y-58184731D01*
X189888307Y-58156955D01*
X189940112Y-58162638D01*
X190062435Y-58210877D01*
X190150897Y-58221500D01*
X191137102Y-58221499D01*
X191225565Y-58210877D01*
X191366343Y-58155361D01*
X191486923Y-58063923D01*
X191578361Y-57943343D01*
X191633877Y-57802565D01*
X191644500Y-57714103D01*
X191644499Y-55477898D01*
X191644498Y-55477892D01*
X194443500Y-55477892D01*
X194443500Y-57714098D01*
X194443501Y-57714108D01*
X194454123Y-57802564D01*
X194454124Y-57802570D01*
X194494130Y-57904015D01*
X194509639Y-57943343D01*
X194601077Y-58063923D01*
X194721657Y-58155361D01*
X194862435Y-58210877D01*
X194950897Y-58221500D01*
X195937102Y-58221499D01*
X196025565Y-58210877D01*
X196166343Y-58155361D01*
X196211257Y-58121301D01*
X196269046Y-58101207D01*
X196327612Y-58118918D01*
X196341079Y-58130182D01*
X197326386Y-59115489D01*
X197326388Y-59115490D01*
X197326389Y-59115491D01*
X197326390Y-59115492D01*
X197429107Y-59174796D01*
X197429109Y-59174797D01*
X197429113Y-59174799D01*
X197453322Y-59181284D01*
X197453325Y-59181287D01*
X197453326Y-59181286D01*
X197543688Y-59205499D01*
X197543690Y-59205500D01*
X197543691Y-59205500D01*
X202755309Y-59205500D01*
X202845669Y-59181287D01*
X202845672Y-59181287D01*
X202858903Y-59177741D01*
X202869887Y-59174799D01*
X202972614Y-59115489D01*
X204098490Y-57989613D01*
X204157799Y-57886886D01*
X204164920Y-57860309D01*
X204188500Y-57772309D01*
X204188500Y-57540499D01*
X204207407Y-57482308D01*
X204256907Y-57446344D01*
X204287500Y-57441499D01*
X204432861Y-57441499D01*
X204432864Y-57441499D01*
X204457991Y-57438585D01*
X204457999Y-57438581D01*
X204462005Y-57437492D01*
X204513987Y-57437491D01*
X204518008Y-57438585D01*
X204522478Y-57439103D01*
X204543135Y-57441500D01*
X204932864Y-57441499D01*
X204957991Y-57438585D01*
X204957999Y-57438581D01*
X204962005Y-57437492D01*
X205013987Y-57437491D01*
X205018008Y-57438585D01*
X205022478Y-57439103D01*
X205043135Y-57441500D01*
X205432864Y-57441499D01*
X205457991Y-57438585D01*
X205457999Y-57438581D01*
X205462005Y-57437492D01*
X205513987Y-57437491D01*
X205518008Y-57438585D01*
X205522478Y-57439103D01*
X205543135Y-57441500D01*
X205932864Y-57441499D01*
X205957991Y-57438585D01*
X205957999Y-57438581D01*
X205962005Y-57437492D01*
X206013987Y-57437491D01*
X206018008Y-57438585D01*
X206022478Y-57439103D01*
X206043135Y-57441500D01*
X206190040Y-57441499D01*
X206248230Y-57460406D01*
X206284194Y-57509906D01*
X206285597Y-57516100D01*
X206285821Y-57516041D01*
X206287500Y-57522307D01*
X206287500Y-57522309D01*
X206311713Y-57612673D01*
X206311712Y-57612673D01*
X206318200Y-57636886D01*
X206318202Y-57636890D01*
X206377507Y-57739609D01*
X206377509Y-57739611D01*
X206377511Y-57739614D01*
X208261386Y-59623489D01*
X208281151Y-59634900D01*
X208364114Y-59682799D01*
X208478691Y-59713500D01*
X208478693Y-59713500D01*
X214947309Y-59713500D01*
X215037669Y-59689287D01*
X215037672Y-59689287D01*
X215050903Y-59685741D01*
X215061887Y-59682799D01*
X215164614Y-59623489D01*
X215769489Y-59018614D01*
X215769492Y-59018609D01*
X215832044Y-58910268D01*
X215833167Y-58910916D01*
X215868405Y-58869642D01*
X215908346Y-58855749D01*
X215990565Y-58845877D01*
X216131343Y-58790361D01*
X216251923Y-58698923D01*
X216343361Y-58578343D01*
X216398877Y-58437565D01*
X216409500Y-58349103D01*
X216409499Y-56112898D01*
X216409498Y-56112892D01*
X219208500Y-56112892D01*
X219208500Y-58349098D01*
X219208501Y-58349108D01*
X219219123Y-58437564D01*
X219219124Y-58437570D01*
X219264992Y-58553880D01*
X219274639Y-58578343D01*
X219366077Y-58698923D01*
X219486657Y-58790361D01*
X219627435Y-58845877D01*
X219715897Y-58856500D01*
X220702102Y-58856499D01*
X220790565Y-58845877D01*
X220931343Y-58790361D01*
X221051923Y-58698923D01*
X221143361Y-58578343D01*
X221198877Y-58437565D01*
X221209500Y-58349103D01*
X221209500Y-57880500D01*
X221214345Y-57865588D01*
X221214345Y-57849907D01*
X221223561Y-57837221D01*
X221228407Y-57822309D01*
X221241092Y-57813092D01*
X221250309Y-57800407D01*
X221265221Y-57795561D01*
X221277907Y-57786345D01*
X221308500Y-57781500D01*
X221314256Y-57781500D01*
X221372447Y-57800407D01*
X221384259Y-57810496D01*
X221423671Y-57849907D01*
X221455284Y-57881520D01*
X221592216Y-57960577D01*
X221744943Y-58001500D01*
X221744945Y-58001500D01*
X221903055Y-58001500D01*
X221903057Y-58001500D01*
X222055784Y-57960577D01*
X222192716Y-57881520D01*
X222304520Y-57769716D01*
X222383577Y-57632784D01*
X222424500Y-57480057D01*
X222424500Y-57321943D01*
X222383577Y-57169216D01*
X222304520Y-57032284D01*
X222192716Y-56920480D01*
X222055784Y-56841423D01*
X222055783Y-56841422D01*
X222055777Y-56841419D01*
X222052057Y-56839878D01*
X222019948Y-56818422D01*
X221992017Y-56790492D01*
X221992015Y-56790490D01*
X221866485Y-56718016D01*
X221726475Y-56680500D01*
X221726474Y-56680500D01*
X221308499Y-56680500D01*
X221250308Y-56661593D01*
X221214344Y-56612093D01*
X221209499Y-56581500D01*
X221209499Y-56112901D01*
X221209498Y-56112891D01*
X221209498Y-56112890D01*
X221198877Y-56024435D01*
X221143361Y-55883657D01*
X221051923Y-55763077D01*
X220931343Y-55671639D01*
X220866680Y-55646139D01*
X220790566Y-55616123D01*
X220702104Y-55605500D01*
X219715901Y-55605500D01*
X219715891Y-55605501D01*
X219627435Y-55616123D01*
X219627429Y-55616124D01*
X219486656Y-55671639D01*
X219366080Y-55763074D01*
X219366074Y-55763080D01*
X219274639Y-55883656D01*
X219219123Y-56024433D01*
X219208500Y-56112892D01*
X216409498Y-56112892D01*
X216398877Y-56024435D01*
X216343361Y-55883657D01*
X216251923Y-55763077D01*
X216131343Y-55671639D01*
X216066680Y-55646139D01*
X215990566Y-55616123D01*
X215902104Y-55605500D01*
X214915901Y-55605500D01*
X214915891Y-55605501D01*
X214827435Y-55616123D01*
X214827429Y-55616124D01*
X214686656Y-55671639D01*
X214566080Y-55763074D01*
X214566074Y-55763080D01*
X214474639Y-55883656D01*
X214419123Y-56024433D01*
X214408500Y-56112892D01*
X214408500Y-58349098D01*
X214408501Y-58349108D01*
X214419123Y-58437564D01*
X214419124Y-58437570D01*
X214474639Y-58578343D01*
X214531769Y-58653681D01*
X214551864Y-58711472D01*
X214534153Y-58770038D01*
X214485400Y-58807008D01*
X214452885Y-58812500D01*
X208765611Y-58812500D01*
X208707420Y-58793593D01*
X208695607Y-58783504D01*
X207485747Y-57573644D01*
X207457970Y-57519127D01*
X207467541Y-57458695D01*
X207510806Y-57415430D01*
X207515739Y-57413086D01*
X207560765Y-57393206D01*
X207640206Y-57313765D01*
X207685585Y-57210991D01*
X207688500Y-57185865D01*
X207688499Y-55646136D01*
X207685585Y-55621009D01*
X207640206Y-55518235D01*
X207560765Y-55438794D01*
X207457991Y-55393415D01*
X207457990Y-55393414D01*
X207457988Y-55393414D01*
X207432868Y-55390500D01*
X207043139Y-55390500D01*
X207043136Y-55390501D01*
X207018006Y-55393415D01*
X207013982Y-55394510D01*
X206962018Y-55394510D01*
X206957991Y-55393414D01*
X206932868Y-55390500D01*
X206543139Y-55390500D01*
X206543136Y-55390501D01*
X206518006Y-55393415D01*
X206513982Y-55394510D01*
X206462018Y-55394510D01*
X206457991Y-55393414D01*
X206432868Y-55390500D01*
X206043139Y-55390500D01*
X206043136Y-55390501D01*
X206018006Y-55393415D01*
X206013982Y-55394510D01*
X205962018Y-55394510D01*
X205957991Y-55393414D01*
X205932868Y-55390500D01*
X205543139Y-55390500D01*
X205543136Y-55390501D01*
X205518006Y-55393415D01*
X205513982Y-55394510D01*
X205462018Y-55394510D01*
X205457991Y-55393414D01*
X205432868Y-55390500D01*
X205043139Y-55390500D01*
X205043136Y-55390501D01*
X205018006Y-55393415D01*
X205013982Y-55394510D01*
X204962018Y-55394510D01*
X204957991Y-55393414D01*
X204932868Y-55390500D01*
X204543139Y-55390500D01*
X204543136Y-55390501D01*
X204518006Y-55393415D01*
X204513982Y-55394510D01*
X204462018Y-55394510D01*
X204457991Y-55393414D01*
X204432868Y-55390500D01*
X204043139Y-55390500D01*
X204043136Y-55390501D01*
X204018006Y-55393415D01*
X204013982Y-55394510D01*
X203962018Y-55394510D01*
X203957991Y-55393414D01*
X203932868Y-55390500D01*
X203543139Y-55390500D01*
X203543136Y-55390501D01*
X203518009Y-55393414D01*
X203415235Y-55438794D01*
X203335794Y-55518235D01*
X203290414Y-55621011D01*
X203287500Y-55646130D01*
X203287500Y-57485389D01*
X203268593Y-57543580D01*
X203258504Y-57555393D01*
X202538393Y-58275504D01*
X202534412Y-58277531D01*
X202532048Y-58281319D01*
X202507486Y-58291251D01*
X202483876Y-58303281D01*
X202479465Y-58302582D01*
X202475324Y-58304257D01*
X202468389Y-58304500D01*
X202277042Y-58304500D01*
X202218851Y-58285593D01*
X202182887Y-58236093D01*
X202182887Y-58174907D01*
X202191301Y-58156008D01*
X202233577Y-58082784D01*
X202233580Y-58082770D01*
X202235116Y-58079066D01*
X202256576Y-58046947D01*
X202678510Y-57625015D01*
X202750984Y-57499485D01*
X202767302Y-57438585D01*
X202788500Y-57359475D01*
X202788500Y-57328923D01*
X202790339Y-57319517D01*
X202793832Y-57313229D01*
X202796934Y-57298527D01*
X202835585Y-57210991D01*
X202838500Y-57185865D01*
X202838499Y-55646136D01*
X202835585Y-55621009D01*
X202828324Y-55604566D01*
X202822117Y-55543697D01*
X202852873Y-55490804D01*
X202869384Y-55478846D01*
X202951365Y-55431515D01*
X203058515Y-55324365D01*
X203134281Y-55193135D01*
X203173500Y-55046766D01*
X203173500Y-54895234D01*
X207802500Y-54895234D01*
X207802500Y-55046766D01*
X207824286Y-55128074D01*
X207841720Y-55193139D01*
X207917481Y-55324360D01*
X207917483Y-55324362D01*
X207917485Y-55324365D01*
X208024635Y-55431515D01*
X208106610Y-55478844D01*
X208147551Y-55524313D01*
X208153947Y-55585163D01*
X208147676Y-55604562D01*
X208142572Y-55616123D01*
X208140414Y-55621011D01*
X208137500Y-55646130D01*
X208137500Y-57185860D01*
X208137501Y-57185863D01*
X208140414Y-57210990D01*
X208153852Y-57241423D01*
X208179065Y-57298526D01*
X208187500Y-57338512D01*
X208187500Y-57637474D01*
X208211625Y-57727510D01*
X208211624Y-57727510D01*
X208225014Y-57777481D01*
X208225014Y-57777482D01*
X208225016Y-57777485D01*
X208297490Y-57903015D01*
X208635985Y-58241510D01*
X208635987Y-58241511D01*
X208739889Y-58301499D01*
X208739890Y-58301499D01*
X208739892Y-58301500D01*
X208761515Y-58313984D01*
X208901525Y-58351500D01*
X209800610Y-58351500D01*
X209838495Y-58359036D01*
X209842210Y-58360575D01*
X209842214Y-58360576D01*
X209842216Y-58360577D01*
X209994943Y-58401500D01*
X209994945Y-58401500D01*
X210153055Y-58401500D01*
X210153057Y-58401500D01*
X210305784Y-58360577D01*
X210442716Y-58281520D01*
X210554520Y-58169716D01*
X210633577Y-58032784D01*
X210674500Y-57880057D01*
X210674500Y-57721943D01*
X210633577Y-57569216D01*
X210554520Y-57432284D01*
X210442716Y-57320480D01*
X210305784Y-57241423D01*
X210153057Y-57200500D01*
X209994943Y-57200500D01*
X209923371Y-57219677D01*
X209842210Y-57241424D01*
X209838495Y-57242964D01*
X209800610Y-57250500D01*
X209437500Y-57250500D01*
X209379309Y-57231593D01*
X209343345Y-57182093D01*
X209338500Y-57151500D01*
X209338500Y-57032284D01*
X209338499Y-56871143D01*
X209357406Y-56812955D01*
X209406906Y-56776991D01*
X209468091Y-56776990D01*
X209475386Y-56779681D01*
X209574503Y-56820737D01*
X209729158Y-56851500D01*
X209729159Y-56851500D01*
X209886841Y-56851500D01*
X209886842Y-56851500D01*
X210041497Y-56820737D01*
X210187179Y-56760394D01*
X210318289Y-56672789D01*
X210429789Y-56561289D01*
X210517394Y-56430179D01*
X210577737Y-56284497D01*
X210608500Y-56129842D01*
X210608500Y-54872158D01*
X210577737Y-54717503D01*
X210536372Y-54617639D01*
X210517396Y-54571825D01*
X210517390Y-54571814D01*
X210482017Y-54518876D01*
X210429789Y-54440711D01*
X210318289Y-54329211D01*
X210244722Y-54280055D01*
X210187185Y-54241609D01*
X210187174Y-54241603D01*
X210041497Y-54181263D01*
X209886844Y-54150500D01*
X209886842Y-54150500D01*
X209729158Y-54150500D01*
X209729155Y-54150500D01*
X209574503Y-54181263D01*
X209574501Y-54181263D01*
X209428825Y-54241603D01*
X209428814Y-54241609D01*
X209297711Y-54329211D01*
X209297707Y-54329214D01*
X209186214Y-54440707D01*
X209186211Y-54440711D01*
X209098609Y-54571814D01*
X209098605Y-54571822D01*
X209055731Y-54675330D01*
X209015994Y-54721855D01*
X208956499Y-54736139D01*
X208899972Y-54712724D01*
X208878531Y-54686945D01*
X208838515Y-54617635D01*
X208731365Y-54510485D01*
X208731362Y-54510483D01*
X208731360Y-54510481D01*
X208600138Y-54434720D01*
X208600140Y-54434720D01*
X208543347Y-54419503D01*
X208453766Y-54395500D01*
X208302234Y-54395500D01*
X208212652Y-54419503D01*
X208155860Y-54434720D01*
X208024639Y-54510481D01*
X207917481Y-54617639D01*
X207841720Y-54748860D01*
X207841719Y-54748865D01*
X207802500Y-54895234D01*
X203173500Y-54895234D01*
X203134281Y-54748865D01*
X203134279Y-54748862D01*
X203134279Y-54748860D01*
X203058518Y-54617639D01*
X203058516Y-54617637D01*
X203058515Y-54617635D01*
X202951365Y-54510485D01*
X202951362Y-54510483D01*
X202951360Y-54510481D01*
X202820138Y-54434720D01*
X202820140Y-54434720D01*
X202763347Y-54419503D01*
X202673766Y-54395500D01*
X202522234Y-54395500D01*
X202432652Y-54419503D01*
X202375860Y-54434720D01*
X202244639Y-54510481D01*
X202137483Y-54617637D01*
X202097468Y-54686945D01*
X202051998Y-54727885D01*
X201991148Y-54734280D01*
X201938160Y-54703687D01*
X201920268Y-54675329D01*
X201877396Y-54571825D01*
X201877390Y-54571814D01*
X201842017Y-54518876D01*
X201789789Y-54440711D01*
X201678289Y-54329211D01*
X201604722Y-54280055D01*
X201547185Y-54241609D01*
X201547174Y-54241603D01*
X201401497Y-54181263D01*
X201246844Y-54150500D01*
X201246842Y-54150500D01*
X201089158Y-54150500D01*
X201089155Y-54150500D01*
X200934503Y-54181263D01*
X200934501Y-54181263D01*
X200788825Y-54241603D01*
X200788814Y-54241609D01*
X200657711Y-54329211D01*
X200657707Y-54329214D01*
X200546214Y-54440707D01*
X200546211Y-54440711D01*
X200458609Y-54571814D01*
X200458603Y-54571825D01*
X200398263Y-54717501D01*
X200398263Y-54717503D01*
X200367500Y-54872155D01*
X200367500Y-56129844D01*
X200398263Y-56284496D01*
X200398263Y-56284498D01*
X200458603Y-56430174D01*
X200458609Y-56430185D01*
X200511312Y-56509059D01*
X200546211Y-56561289D01*
X200657711Y-56672789D01*
X200725398Y-56718016D01*
X200788814Y-56760390D01*
X200788825Y-56760396D01*
X200828890Y-56776991D01*
X200934503Y-56820737D01*
X201089158Y-56851500D01*
X201089159Y-56851500D01*
X201246841Y-56851500D01*
X201246842Y-56851500D01*
X201401497Y-56820737D01*
X201500616Y-56779680D01*
X201504639Y-56779364D01*
X201507907Y-56776990D01*
X201534803Y-56776990D01*
X201561611Y-56774880D01*
X201565054Y-56776990D01*
X201569093Y-56776990D01*
X201590855Y-56792801D01*
X201613780Y-56806850D01*
X201615324Y-56810579D01*
X201618593Y-56812954D01*
X201626904Y-56838535D01*
X201637195Y-56863378D01*
X201637500Y-56871145D01*
X201637500Y-57067966D01*
X201618593Y-57126157D01*
X201608503Y-57137970D01*
X201478049Y-57268423D01*
X201445936Y-57289881D01*
X201442222Y-57291419D01*
X201324345Y-57359475D01*
X201305284Y-57370480D01*
X201193480Y-57482284D01*
X201114423Y-57619216D01*
X201073500Y-57771943D01*
X201073500Y-57930057D01*
X201114423Y-58082784D01*
X201156695Y-58156003D01*
X201169416Y-58215848D01*
X201144529Y-58271744D01*
X201091541Y-58302337D01*
X201070958Y-58304500D01*
X197830611Y-58304500D01*
X197772420Y-58285593D01*
X197760607Y-58275504D01*
X196473495Y-56988392D01*
X196445718Y-56933875D01*
X196444499Y-56918388D01*
X196444499Y-55477901D01*
X196444498Y-55477891D01*
X196444498Y-55477890D01*
X196433877Y-55389435D01*
X196378361Y-55248657D01*
X196286923Y-55128077D01*
X196166343Y-55036639D01*
X196166340Y-55036638D01*
X196025566Y-54981123D01*
X195937104Y-54970500D01*
X194950901Y-54970500D01*
X194950891Y-54970501D01*
X194862435Y-54981123D01*
X194862429Y-54981124D01*
X194721656Y-55036639D01*
X194601080Y-55128074D01*
X194601074Y-55128080D01*
X194509639Y-55248656D01*
X194454123Y-55389433D01*
X194443500Y-55477892D01*
X191644498Y-55477892D01*
X191633877Y-55389435D01*
X191578361Y-55248657D01*
X191486923Y-55128077D01*
X191483036Y-55125129D01*
X191366343Y-55036638D01*
X191257181Y-54993590D01*
X191235826Y-54975972D01*
X191213407Y-54959684D01*
X191212427Y-54956668D01*
X191209984Y-54954653D01*
X191194500Y-54901493D01*
X191194500Y-54766514D01*
X191213407Y-54708323D01*
X191238069Y-54686120D01*
X191237570Y-54685469D01*
X191242709Y-54681525D01*
X191242711Y-54681522D01*
X191242716Y-54681520D01*
X191354520Y-54569716D01*
X191433577Y-54432784D01*
X191474500Y-54280057D01*
X191474500Y-54121943D01*
X191433577Y-53969216D01*
X191354520Y-53832284D01*
X191242716Y-53720480D01*
X191105784Y-53641423D01*
X190953057Y-53600500D01*
X190794943Y-53600500D01*
X190642216Y-53641423D01*
X190505284Y-53720480D01*
X190393480Y-53832284D01*
X190314422Y-53969217D01*
X190312880Y-53972940D01*
X190291422Y-54005051D01*
X190203492Y-54092982D01*
X190131016Y-54218515D01*
X190093500Y-54358525D01*
X190093500Y-54901493D01*
X190074593Y-54959684D01*
X190030819Y-54993590D01*
X189921656Y-55036638D01*
X189801080Y-55128074D01*
X189801074Y-55128080D01*
X189709639Y-55248656D01*
X189654123Y-55389433D01*
X189643500Y-55477892D01*
X189643500Y-56776966D01*
X189624593Y-56835157D01*
X189614504Y-56846969D01*
X188682989Y-57778485D01*
X188622765Y-57882796D01*
X188622766Y-57882797D01*
X188610516Y-57904014D01*
X188573000Y-58044025D01*
X188573000Y-61116500D01*
X188554093Y-61174691D01*
X188504593Y-61210655D01*
X188474001Y-61215500D01*
X188342901Y-61215500D01*
X188342891Y-61215501D01*
X188254435Y-61226123D01*
X188254429Y-61226124D01*
X188113656Y-61281639D01*
X187993080Y-61373074D01*
X187993074Y-61373080D01*
X187901639Y-61493656D01*
X187846123Y-61634433D01*
X187835500Y-61722892D01*
X184274000Y-61722892D01*
X184274000Y-59701555D01*
X184292907Y-59643364D01*
X184342407Y-59607400D01*
X184398621Y-59605929D01*
X184506743Y-59634900D01*
X184506744Y-59634900D01*
X184664855Y-59634900D01*
X184664857Y-59634900D01*
X184817584Y-59593977D01*
X184954516Y-59514920D01*
X185066320Y-59403116D01*
X185145377Y-59266184D01*
X185186300Y-59113457D01*
X185186300Y-58955343D01*
X185145377Y-58802616D01*
X185066320Y-58665684D01*
X184954516Y-58553880D01*
X184817584Y-58474823D01*
X184664857Y-58433900D01*
X184506743Y-58433900D01*
X184398621Y-58462870D01*
X184337521Y-58459668D01*
X184289972Y-58421163D01*
X184274000Y-58367244D01*
X184274000Y-50942155D01*
X200367500Y-50942155D01*
X200367500Y-51699844D01*
X200398263Y-51854496D01*
X200398263Y-51854498D01*
X200458603Y-52000174D01*
X200458609Y-52000185D01*
X200511312Y-52079059D01*
X200546211Y-52131289D01*
X200657711Y-52242789D01*
X200735876Y-52295017D01*
X200788814Y-52330390D01*
X200788825Y-52330396D01*
X200842638Y-52352685D01*
X200934503Y-52390737D01*
X201089158Y-52421500D01*
X201089159Y-52421500D01*
X201246841Y-52421500D01*
X201246842Y-52421500D01*
X201401497Y-52390737D01*
X201547179Y-52330394D01*
X201678289Y-52242789D01*
X201789789Y-52131289D01*
X201877394Y-52000179D01*
X201937737Y-51854497D01*
X201968500Y-51699842D01*
X201968500Y-50942158D01*
X201968499Y-50942155D01*
X209007500Y-50942155D01*
X209007500Y-51699844D01*
X209038263Y-51854496D01*
X209038263Y-51854498D01*
X209098603Y-52000174D01*
X209098609Y-52000185D01*
X209151312Y-52079059D01*
X209186211Y-52131289D01*
X209297711Y-52242789D01*
X209375876Y-52295017D01*
X209428814Y-52330390D01*
X209428825Y-52330396D01*
X209482638Y-52352685D01*
X209574503Y-52390737D01*
X209729158Y-52421500D01*
X209729159Y-52421500D01*
X209886841Y-52421500D01*
X209886842Y-52421500D01*
X210041497Y-52390737D01*
X210187179Y-52330394D01*
X210318289Y-52242789D01*
X210429789Y-52131289D01*
X210517394Y-52000179D01*
X210577737Y-51854497D01*
X210608500Y-51699842D01*
X210608500Y-50942158D01*
X210577737Y-50787503D01*
X210517394Y-50641821D01*
X210517393Y-50641819D01*
X210517390Y-50641814D01*
X210482017Y-50588876D01*
X210429789Y-50510711D01*
X210318289Y-50399211D01*
X210266059Y-50364312D01*
X210187185Y-50311609D01*
X210187174Y-50311603D01*
X210041497Y-50251263D01*
X209886844Y-50220500D01*
X209886842Y-50220500D01*
X209729158Y-50220500D01*
X209729155Y-50220500D01*
X209574503Y-50251263D01*
X209574501Y-50251263D01*
X209428825Y-50311603D01*
X209428814Y-50311609D01*
X209297711Y-50399211D01*
X209297707Y-50399214D01*
X209186214Y-50510707D01*
X209186211Y-50510711D01*
X209098609Y-50641814D01*
X209098603Y-50641825D01*
X209038263Y-50787501D01*
X209038263Y-50787503D01*
X209007500Y-50942155D01*
X201968499Y-50942155D01*
X201937737Y-50787503D01*
X201877394Y-50641821D01*
X201877393Y-50641819D01*
X201877390Y-50641814D01*
X201842017Y-50588876D01*
X201789789Y-50510711D01*
X201678289Y-50399211D01*
X201626059Y-50364312D01*
X201547185Y-50311609D01*
X201547174Y-50311603D01*
X201401497Y-50251263D01*
X201246844Y-50220500D01*
X201246842Y-50220500D01*
X201089158Y-50220500D01*
X201089155Y-50220500D01*
X200934503Y-50251263D01*
X200934501Y-50251263D01*
X200788825Y-50311603D01*
X200788814Y-50311609D01*
X200657711Y-50399211D01*
X200657707Y-50399214D01*
X200546214Y-50510707D01*
X200546211Y-50510711D01*
X200458609Y-50641814D01*
X200458603Y-50641825D01*
X200398263Y-50787501D01*
X200398263Y-50787503D01*
X200367500Y-50942155D01*
X184274000Y-50942155D01*
X184274000Y-48450000D01*
X184292907Y-48391809D01*
X184342407Y-48355845D01*
X184373000Y-48351000D01*
X233175000Y-48351000D01*
X233233191Y-48369907D01*
G37*
G04 #@! TD.AperFunction*
G04 #@! TA.AperFunction,Conductor*
G36*
X226863000Y-105510962D02*
G01*
X226917538Y-105565500D01*
X226937500Y-105640000D01*
X226937500Y-117351836D01*
X226932423Y-117370783D01*
X226932423Y-117390400D01*
X226922615Y-117407387D01*
X226917538Y-117426336D01*
X226893859Y-117457195D01*
X226828795Y-117522259D01*
X226762000Y-117560823D01*
X226723436Y-117565900D01*
X223452699Y-117565900D01*
X223378199Y-117545938D01*
X223323661Y-117491400D01*
X223303699Y-117416900D01*
X223303699Y-117316396D01*
X223303699Y-117316392D01*
X223293199Y-117213603D01*
X223238014Y-117047066D01*
X223145912Y-116897744D01*
X223021856Y-116773688D01*
X222872534Y-116681586D01*
X222782000Y-116651586D01*
X222705998Y-116626401D01*
X222688865Y-116624650D01*
X222603209Y-116615900D01*
X222603204Y-116615900D01*
X221803196Y-116615900D01*
X221700402Y-116626401D01*
X221533866Y-116681586D01*
X221384543Y-116773688D01*
X221260486Y-116897745D01*
X221189722Y-117012472D01*
X221133621Y-117065401D01*
X221058572Y-117083188D01*
X220984685Y-117061067D01*
X220936089Y-117012472D01*
X220865519Y-116898059D01*
X220741540Y-116774080D01*
X220592321Y-116682042D01*
X220425897Y-116626894D01*
X220425888Y-116626892D01*
X220323189Y-116616400D01*
X220223200Y-116616400D01*
X220223200Y-119816399D01*
X220323174Y-119816399D01*
X220425896Y-119805905D01*
X220592321Y-119750757D01*
X220741540Y-119658719D01*
X220865522Y-119534737D01*
X220936089Y-119420328D01*
X220992189Y-119367399D01*
X221067238Y-119349611D01*
X221141126Y-119371731D01*
X221189723Y-119420327D01*
X221260488Y-119535056D01*
X221384544Y-119659112D01*
X221533866Y-119751214D01*
X221700403Y-119806399D01*
X221803191Y-119816900D01*
X222603208Y-119816899D01*
X222705997Y-119806399D01*
X222872534Y-119751214D01*
X223021856Y-119659112D01*
X223145912Y-119535056D01*
X223238014Y-119385734D01*
X223293199Y-119219197D01*
X223303700Y-119116409D01*
X223303700Y-119015900D01*
X223323662Y-118941400D01*
X223378200Y-118886862D01*
X223452700Y-118866900D01*
X227118665Y-118866900D01*
X227118669Y-118866900D01*
X227244344Y-118841901D01*
X227362727Y-118792865D01*
X227421119Y-118753849D01*
X227469269Y-118721677D01*
X228093277Y-118097669D01*
X228164466Y-117991126D01*
X228213470Y-117872818D01*
X228213501Y-117872744D01*
X228238500Y-117747069D01*
X228238500Y-105640000D01*
X228258462Y-105565500D01*
X228313000Y-105510962D01*
X228387500Y-105491000D01*
X229725000Y-105491000D01*
X229799500Y-105510962D01*
X229854038Y-105565500D01*
X229874000Y-105640000D01*
X229874000Y-123122000D01*
X229854038Y-123196500D01*
X229799500Y-123251038D01*
X229725000Y-123271000D01*
X194463000Y-123271000D01*
X194388500Y-123251038D01*
X194333962Y-123196500D01*
X194314000Y-123122000D01*
X194314000Y-117286392D01*
X196062700Y-117286392D01*
X196062700Y-118311408D01*
X196071450Y-118397065D01*
X196073201Y-118414198D01*
X196128387Y-118580736D01*
X196155011Y-118623900D01*
X196220489Y-118730055D01*
X196344545Y-118854111D01*
X196487858Y-118942508D01*
X196540785Y-118998608D01*
X196558572Y-119073657D01*
X196536451Y-119147545D01*
X196492416Y-119193211D01*
X196363714Y-119279208D01*
X196363707Y-119279214D01*
X196252214Y-119390707D01*
X196164604Y-119521823D01*
X196104263Y-119667501D01*
X196104262Y-119667505D01*
X196073500Y-119822157D01*
X196073500Y-119979842D01*
X196104262Y-120134494D01*
X196104263Y-120134498D01*
X196164604Y-120280176D01*
X196164605Y-120280177D01*
X196164606Y-120280179D01*
X196252211Y-120411289D01*
X196363711Y-120522789D01*
X196494821Y-120610394D01*
X196640503Y-120670737D01*
X196795158Y-120701500D01*
X196952842Y-120701500D01*
X197107497Y-120670737D01*
X197253179Y-120610394D01*
X197384289Y-120522789D01*
X197495789Y-120411289D01*
X197583394Y-120280179D01*
X197591287Y-120261121D01*
X197623584Y-120212781D01*
X198021151Y-119815216D01*
X198103284Y-119692295D01*
X198159858Y-119555713D01*
X198188700Y-119410718D01*
X198188700Y-119262883D01*
X198188700Y-119118037D01*
X198208662Y-119043537D01*
X198263200Y-118988999D01*
X198290826Y-118976602D01*
X198382534Y-118946214D01*
X198531855Y-118854111D01*
X198655911Y-118730055D01*
X198721389Y-118623900D01*
X198723685Y-118620178D01*
X198779786Y-118567250D01*
X198850501Y-118549400D01*
X204883700Y-118549400D01*
X204958200Y-118569362D01*
X205012738Y-118623900D01*
X205032700Y-118698400D01*
X205032700Y-118789410D01*
X205043201Y-118892198D01*
X205098386Y-119058735D01*
X205190488Y-119208056D01*
X205314544Y-119332112D01*
X205463865Y-119424214D01*
X205630402Y-119479399D01*
X205733190Y-119489900D01*
X205733194Y-119489900D01*
X210733206Y-119489900D01*
X210733210Y-119489900D01*
X210835998Y-119479399D01*
X211002535Y-119424214D01*
X211151856Y-119332112D01*
X211275912Y-119208056D01*
X211368014Y-119058735D01*
X211423199Y-118892198D01*
X211423200Y-118892192D01*
X211423807Y-118886254D01*
X211451239Y-118814169D01*
X211511038Y-118765458D01*
X211572035Y-118752400D01*
X216393701Y-118752400D01*
X216468201Y-118772362D01*
X216522739Y-118826900D01*
X216542701Y-118901400D01*
X216542701Y-119116408D01*
X216553201Y-119219197D01*
X216608386Y-119385734D01*
X216700488Y-119535056D01*
X216824544Y-119659112D01*
X216973866Y-119751214D01*
X217140403Y-119806399D01*
X217243191Y-119816900D01*
X218043208Y-119816899D01*
X218145997Y-119806399D01*
X218312534Y-119751214D01*
X218461856Y-119659112D01*
X218585912Y-119535056D01*
X218656676Y-119420327D01*
X218712776Y-119367399D01*
X218787825Y-119349611D01*
X218861713Y-119371731D01*
X218910310Y-119420327D01*
X218980880Y-119534740D01*
X219104859Y-119658719D01*
X219254078Y-119750757D01*
X219420502Y-119805905D01*
X219420511Y-119805907D01*
X219523215Y-119816399D01*
X219623199Y-119816398D01*
X219623200Y-119816398D01*
X219623200Y-116616400D01*
X219623199Y-116616399D01*
X219523226Y-116616400D01*
X219420503Y-116626894D01*
X219254078Y-116682042D01*
X219104859Y-116774080D01*
X218980880Y-116898059D01*
X218980875Y-116898065D01*
X218910309Y-117012472D01*
X218854209Y-117065401D01*
X218779160Y-117083188D01*
X218705272Y-117061067D01*
X218656676Y-117012472D01*
X218655587Y-117010706D01*
X218585912Y-116897744D01*
X218461856Y-116773688D01*
X218312534Y-116681586D01*
X218222000Y-116651586D01*
X218145998Y-116626401D01*
X218128865Y-116624650D01*
X218043209Y-116615900D01*
X218043204Y-116615900D01*
X217243196Y-116615900D01*
X217140402Y-116626401D01*
X216973866Y-116681586D01*
X216824543Y-116773688D01*
X216700488Y-116897743D01*
X216626892Y-117017063D01*
X216608386Y-117047066D01*
X216585032Y-117117546D01*
X216574520Y-117149268D01*
X216532137Y-117213707D01*
X216463213Y-117248322D01*
X216433083Y-117251400D01*
X211572035Y-117251400D01*
X211497535Y-117231438D01*
X211442997Y-117176900D01*
X211423807Y-117117546D01*
X211423200Y-117111607D01*
X211423198Y-117111600D01*
X211368014Y-116945065D01*
X211275912Y-116795744D01*
X211151856Y-116671688D01*
X211002535Y-116579586D01*
X210919266Y-116551993D01*
X210835999Y-116524401D01*
X210815440Y-116522300D01*
X210733210Y-116513900D01*
X205733190Y-116513900D01*
X205664664Y-116520900D01*
X205630400Y-116524401D01*
X205463865Y-116579586D01*
X205314545Y-116671687D01*
X205190487Y-116795745D01*
X205098385Y-116945066D01*
X205098384Y-116945069D01*
X205097988Y-116946266D01*
X205097432Y-116947110D01*
X205094719Y-116952930D01*
X205093866Y-116952532D01*
X205055606Y-117010706D01*
X204986682Y-117045322D01*
X204956551Y-117048400D01*
X198850501Y-117048400D01*
X198776001Y-117028438D01*
X198723685Y-116977622D01*
X198655910Y-116867744D01*
X198531855Y-116743689D01*
X198382536Y-116651587D01*
X198382535Y-116651586D01*
X198382534Y-116651586D01*
X198274841Y-116615900D01*
X198215998Y-116596401D01*
X198215999Y-116596401D01*
X198181734Y-116592900D01*
X198113208Y-116585900D01*
X196763192Y-116585900D01*
X196694666Y-116592900D01*
X196660401Y-116596401D01*
X196493863Y-116651587D01*
X196344544Y-116743689D01*
X196220489Y-116867744D01*
X196128387Y-117017063D01*
X196073201Y-117183601D01*
X196073201Y-117183603D01*
X196062700Y-117286392D01*
X194314000Y-117286392D01*
X194314000Y-114272157D01*
X194623500Y-114272157D01*
X194623500Y-114429842D01*
X194654262Y-114584494D01*
X194654263Y-114584498D01*
X194714604Y-114730176D01*
X194714605Y-114730178D01*
X194714606Y-114730179D01*
X194802211Y-114861289D01*
X194913711Y-114972789D01*
X195044821Y-115060394D01*
X195190503Y-115120737D01*
X195345158Y-115151500D01*
X195502842Y-115151500D01*
X195657497Y-115120737D01*
X195803179Y-115060394D01*
X195830919Y-115041859D01*
X195903953Y-115017066D01*
X195979600Y-115032112D01*
X196037588Y-115082966D01*
X196062381Y-115156000D01*
X196062700Y-115165747D01*
X196062700Y-115336408D01*
X196073201Y-115439197D01*
X196110169Y-115550760D01*
X196128387Y-115605736D01*
X196134964Y-115616399D01*
X196220489Y-115755055D01*
X196344545Y-115879111D01*
X196493866Y-115971214D01*
X196660403Y-116026399D01*
X196763192Y-116036900D01*
X196763196Y-116036900D01*
X198113204Y-116036900D01*
X198113208Y-116036900D01*
X198215997Y-116026399D01*
X198382534Y-115971214D01*
X198531855Y-115879111D01*
X198655911Y-115755055D01*
X198748014Y-115605734D01*
X198803199Y-115439197D01*
X198813700Y-115336408D01*
X198813700Y-114916375D01*
X216523201Y-114916375D01*
X216533694Y-115019098D01*
X216533695Y-115019101D01*
X216588837Y-115185515D01*
X216588839Y-115185520D01*
X216680879Y-115334741D01*
X216804858Y-115458720D01*
X216954079Y-115550760D01*
X216954084Y-115550762D01*
X217120503Y-115605906D01*
X217120504Y-115605907D01*
X217223213Y-115616399D01*
X219623200Y-115616399D01*
X220223200Y-115616399D01*
X222623176Y-115616399D01*
X222725898Y-115605905D01*
X222725901Y-115605904D01*
X222892315Y-115550762D01*
X222892320Y-115550760D01*
X223041541Y-115458720D01*
X223165520Y-115334741D01*
X223257560Y-115185520D01*
X223257562Y-115185515D01*
X223312706Y-115019096D01*
X223312707Y-115019095D01*
X223323199Y-114916391D01*
X223323200Y-114916381D01*
X223323200Y-112216400D01*
X220223200Y-112216400D01*
X220223200Y-115616399D01*
X219623200Y-115616399D01*
X219623200Y-112216400D01*
X216523201Y-112216400D01*
X216523201Y-114916375D01*
X198813700Y-114916375D01*
X198813700Y-114311392D01*
X198803199Y-114208603D01*
X198748014Y-114042066D01*
X198655911Y-113892745D01*
X198531855Y-113768689D01*
X198467852Y-113729211D01*
X198382536Y-113676587D01*
X198382535Y-113676586D01*
X198382534Y-113676586D01*
X198276966Y-113641604D01*
X198215998Y-113621401D01*
X198215999Y-113621401D01*
X198173867Y-113617097D01*
X198113208Y-113610900D01*
X196763192Y-113610900D01*
X196702533Y-113617097D01*
X196660401Y-113621401D01*
X196493864Y-113676586D01*
X196491061Y-113678316D01*
X196488532Y-113679072D01*
X196486000Y-113680254D01*
X196485827Y-113679883D01*
X196417174Y-113700437D01*
X196412839Y-113700500D01*
X195936519Y-113700500D01*
X195862019Y-113680538D01*
X195853739Y-113675389D01*
X195803180Y-113641606D01*
X195803177Y-113641605D01*
X195657498Y-113581263D01*
X195657494Y-113581262D01*
X195502842Y-113550500D01*
X195345158Y-113550500D01*
X195190505Y-113581262D01*
X195190501Y-113581263D01*
X195044823Y-113641604D01*
X194913707Y-113729214D01*
X194802214Y-113840707D01*
X194714604Y-113971823D01*
X194654263Y-114117501D01*
X194654262Y-114117505D01*
X194623500Y-114272157D01*
X194314000Y-114272157D01*
X194314000Y-113514373D01*
X205033201Y-113514373D01*
X205043694Y-113617096D01*
X205043695Y-113617102D01*
X205098836Y-113783512D01*
X205098840Y-113783521D01*
X205190883Y-113932744D01*
X205314855Y-114056716D01*
X205464078Y-114148759D01*
X205464087Y-114148763D01*
X205630502Y-114203906D01*
X205630506Y-114203907D01*
X205733215Y-114214399D01*
X207933200Y-114214399D01*
X208533200Y-114214399D01*
X210733174Y-114214399D01*
X210835896Y-114203905D01*
X210835902Y-114203904D01*
X211002312Y-114148763D01*
X211002321Y-114148759D01*
X211151544Y-114056716D01*
X211275516Y-113932744D01*
X211367559Y-113783521D01*
X211367563Y-113783512D01*
X211422706Y-113617097D01*
X211422707Y-113617093D01*
X211433199Y-113514389D01*
X211433200Y-113514379D01*
X211433200Y-113026900D01*
X208533200Y-113026900D01*
X208533200Y-114214399D01*
X207933200Y-114214399D01*
X207933200Y-113026900D01*
X205033201Y-113026900D01*
X205033201Y-113514373D01*
X194314000Y-113514373D01*
X194314000Y-111939410D01*
X205033200Y-111939410D01*
X205033200Y-112426900D01*
X207933200Y-112426900D01*
X208533200Y-112426900D01*
X211433199Y-112426900D01*
X211433199Y-111939426D01*
X211422705Y-111836703D01*
X211422704Y-111836697D01*
X211367563Y-111670287D01*
X211367559Y-111670278D01*
X211275516Y-111521055D01*
X211151544Y-111397083D01*
X211002321Y-111305040D01*
X211002312Y-111305036D01*
X210835897Y-111249893D01*
X210835893Y-111249892D01*
X210733189Y-111239400D01*
X208533200Y-111239400D01*
X208533200Y-112426900D01*
X207933200Y-112426900D01*
X207933200Y-111239400D01*
X205733226Y-111239400D01*
X205630503Y-111249894D01*
X205630497Y-111249895D01*
X205464087Y-111305036D01*
X205464078Y-111305040D01*
X205314855Y-111397083D01*
X205190883Y-111521055D01*
X205098840Y-111670278D01*
X205098836Y-111670287D01*
X205043693Y-111836702D01*
X205043692Y-111836706D01*
X205033200Y-111939410D01*
X194314000Y-111939410D01*
X194314000Y-111382796D01*
X194333962Y-111308296D01*
X194388500Y-111253758D01*
X194463000Y-111233796D01*
X194537500Y-111253758D01*
X194568359Y-111277437D01*
X194663711Y-111372789D01*
X194794821Y-111460394D01*
X194940503Y-111520737D01*
X195095158Y-111551500D01*
X195252842Y-111551500D01*
X195407497Y-111520737D01*
X195553179Y-111460394D01*
X195684289Y-111372789D01*
X195795789Y-111261289D01*
X195883394Y-111130179D01*
X195943737Y-110984497D01*
X195974500Y-110829842D01*
X195974500Y-110672158D01*
X195943737Y-110517503D01*
X195918485Y-110456538D01*
X195908418Y-110380070D01*
X195937934Y-110308813D01*
X195950775Y-110294169D01*
X196224405Y-110020541D01*
X196291200Y-109981977D01*
X196329764Y-109976900D01*
X197140643Y-109976900D01*
X197215143Y-109996862D01*
X197269681Y-110051400D01*
X197284320Y-110096707D01*
X197286498Y-110096241D01*
X197288201Y-110104197D01*
X197343386Y-110270734D01*
X197435488Y-110420056D01*
X197559544Y-110544112D01*
X197708866Y-110636214D01*
X197875403Y-110691399D01*
X197978191Y-110701900D01*
X198878208Y-110701899D01*
X198980997Y-110691399D01*
X199147534Y-110636214D01*
X199296856Y-110544112D01*
X199420912Y-110420056D01*
X199513014Y-110270734D01*
X199568199Y-110104197D01*
X199578700Y-110001409D01*
X199578700Y-110001373D01*
X200378201Y-110001373D01*
X200388694Y-110104096D01*
X200443842Y-110270521D01*
X200535880Y-110419740D01*
X200659859Y-110543719D01*
X200809078Y-110635757D01*
X200975502Y-110690905D01*
X200975511Y-110690907D01*
X201078215Y-110701399D01*
X201228200Y-110701399D01*
X201828200Y-110701399D01*
X201978174Y-110701399D01*
X202080896Y-110690905D01*
X202247321Y-110635757D01*
X202396540Y-110543719D01*
X202520519Y-110419740D01*
X202612557Y-110270521D01*
X202667705Y-110104097D01*
X202667707Y-110104088D01*
X202678199Y-110001389D01*
X202678200Y-110001379D01*
X202678200Y-109626400D01*
X201828200Y-109626400D01*
X201828200Y-110701399D01*
X201228200Y-110701399D01*
X201228200Y-109626400D01*
X200378201Y-109626400D01*
X200378201Y-110001373D01*
X199578700Y-110001373D01*
X199578699Y-108651410D01*
X200378200Y-108651410D01*
X200378200Y-109026400D01*
X201228200Y-109026400D01*
X201828200Y-109026400D01*
X202678199Y-109026400D01*
X202678199Y-108916408D01*
X216523200Y-108916408D01*
X216523200Y-111616400D01*
X219623200Y-111616400D01*
X220223200Y-111616400D01*
X223323199Y-111616400D01*
X223323199Y-108916424D01*
X223312705Y-108813701D01*
X223312704Y-108813698D01*
X223257562Y-108647284D01*
X223257560Y-108647279D01*
X223165520Y-108498058D01*
X223041541Y-108374079D01*
X222892320Y-108282039D01*
X222892315Y-108282037D01*
X222725896Y-108226893D01*
X222725895Y-108226892D01*
X222623191Y-108216400D01*
X220223200Y-108216400D01*
X220223200Y-111616400D01*
X219623200Y-111616400D01*
X219623200Y-108216400D01*
X217223224Y-108216400D01*
X217120501Y-108226894D01*
X217120498Y-108226895D01*
X216954084Y-108282037D01*
X216954079Y-108282039D01*
X216804858Y-108374079D01*
X216680879Y-108498058D01*
X216588839Y-108647279D01*
X216588837Y-108647284D01*
X216533693Y-108813703D01*
X216533692Y-108813704D01*
X216523200Y-108916408D01*
X202678199Y-108916408D01*
X202678199Y-108651426D01*
X202667705Y-108548703D01*
X202612557Y-108382278D01*
X202520519Y-108233059D01*
X202396540Y-108109080D01*
X202247321Y-108017042D01*
X202080897Y-107961894D01*
X202080888Y-107961892D01*
X201978189Y-107951400D01*
X201828200Y-107951400D01*
X201828200Y-109026400D01*
X201228200Y-109026400D01*
X201228200Y-107951400D01*
X201078226Y-107951400D01*
X200975503Y-107961894D01*
X200809078Y-108017042D01*
X200659859Y-108109080D01*
X200535880Y-108233059D01*
X200443842Y-108382278D01*
X200388694Y-108548702D01*
X200388692Y-108548711D01*
X200378200Y-108651410D01*
X199578699Y-108651410D01*
X199578699Y-108651392D01*
X199568199Y-108548603D01*
X199513014Y-108382066D01*
X199420912Y-108232744D01*
X199296856Y-108108688D01*
X199147534Y-108016586D01*
X199064265Y-107988993D01*
X198980998Y-107961401D01*
X198963865Y-107959650D01*
X198878209Y-107950900D01*
X198878204Y-107950900D01*
X197978196Y-107950900D01*
X197875402Y-107961401D01*
X197708866Y-108016586D01*
X197559543Y-108108688D01*
X197435488Y-108232743D01*
X197343386Y-108382066D01*
X197288201Y-108548601D01*
X197286498Y-108556558D01*
X197283590Y-108555935D01*
X197261418Y-108614159D01*
X197201608Y-108662856D01*
X197140642Y-108675900D01*
X195934527Y-108675900D01*
X195808856Y-108700898D01*
X195808854Y-108700899D01*
X195759820Y-108721210D01*
X195690482Y-108749930D01*
X195690476Y-108749932D01*
X195690474Y-108749934D01*
X195690471Y-108749935D01*
X195690471Y-108749936D01*
X195583932Y-108821122D01*
X195583930Y-108821123D01*
X194668723Y-109736330D01*
X194668722Y-109736332D01*
X194597531Y-109842878D01*
X194594405Y-109848728D01*
X194541680Y-109905020D01*
X194467873Y-109927408D01*
X194392760Y-109909893D01*
X194336468Y-109857168D01*
X194314080Y-109783361D01*
X194314000Y-109778488D01*
X194314000Y-105640000D01*
X194333962Y-105565500D01*
X194388500Y-105510962D01*
X194463000Y-105491000D01*
X226788500Y-105491000D01*
X226863000Y-105510962D01*
G37*
G04 #@! TD.AperFunction*
M02*
