G04 #@! TF.GenerationSoftware,KiCad,Pcbnew,9.0.8*
G04 #@! TF.CreationDate,2026-04-08T12:42:13+02:00*
G04 #@! TF.ProjectId,WindowOpener,57696e64-6f77-44f7-9065-6e65722e6b69,rev?*
G04 #@! TF.SameCoordinates,Original*
G04 #@! TF.FileFunction,Paste,Top*
G04 #@! TF.FilePolarity,Positive*
%FSLAX46Y46*%
G04 Gerber Fmt 4.6, Leading zero omitted, Abs format (unit mm)*
G04 Created by KiCad (PCBNEW 9.0.8) date 2026-04-08 12:42:13*
%MOMM*%
%LPD*%
G01*
G04 APERTURE LIST*
G04 Aperture macros list*
%AMRoundRect*
0 Rectangle with rounded corners*
0 $1 Rounding radius*
0 $2 $3 $4 $5 $6 $7 $8 $9 X,Y pos of 4 corners*
0 Add a 4 corners polygon primitive as box body*
4,1,4,$2,$3,$4,$5,$6,$7,$8,$9,$2,$3,0*
0 Add four circle primitives for the rounded corners*
1,1,$1+$1,$2,$3*
1,1,$1+$1,$4,$5*
1,1,$1+$1,$6,$7*
1,1,$1+$1,$8,$9*
0 Add four rect primitives between the rounded corners*
20,1,$1+$1,$2,$3,$4,$5,0*
20,1,$1+$1,$4,$5,$6,$7,0*
20,1,$1+$1,$6,$7,$8,$9,0*
20,1,$1+$1,$8,$9,$2,$3,0*%
G04 Aperture macros list end*
%ADD10RoundRect,0.249999X-0.450001X-1.075001X0.450001X-1.075001X0.450001X1.075001X-0.450001X1.075001X0*%
%ADD11RoundRect,0.250000X-0.412500X-0.650000X0.412500X-0.650000X0.412500X0.650000X-0.412500X0.650000X0*%
%ADD12RoundRect,0.249999X1.075001X-0.450001X1.075001X0.450001X-1.075001X0.450001X-1.075001X-0.450001X0*%
%ADD13RoundRect,0.249999X-2.450001X0.737501X-2.450001X-0.737501X2.450001X-0.737501X2.450001X0.737501X0*%
%ADD14RoundRect,0.250000X-0.400000X-1.075000X0.400000X-1.075000X0.400000X1.075000X-0.400000X1.075000X0*%
%ADD15RoundRect,0.250000X0.400000X1.075000X-0.400000X1.075000X-0.400000X-1.075000X0.400000X-1.075000X0*%
%ADD16RoundRect,0.250000X-0.400000X-0.625000X0.400000X-0.625000X0.400000X0.625000X-0.400000X0.625000X0*%
%ADD17RoundRect,0.250000X-0.650000X0.412500X-0.650000X-0.412500X0.650000X-0.412500X0.650000X0.412500X0*%
%ADD18RoundRect,0.250001X-0.462499X-0.624999X0.462499X-0.624999X0.462499X0.624999X-0.462499X0.624999X0*%
%ADD19RoundRect,0.249999X0.450001X1.075001X-0.450001X1.075001X-0.450001X-1.075001X0.450001X-1.075001X0*%
%ADD20RoundRect,0.250000X0.412500X0.650000X-0.412500X0.650000X-0.412500X-0.650000X0.412500X-0.650000X0*%
%ADD21RoundRect,0.250000X0.650000X-0.412500X0.650000X0.412500X-0.650000X0.412500X-0.650000X-0.412500X0*%
%ADD22RoundRect,0.249999X-1.075001X0.450001X-1.075001X-0.450001X1.075001X-0.450001X1.075001X0.450001X0*%
%ADD23RoundRect,0.250000X0.400000X0.625000X-0.400000X0.625000X-0.400000X-0.625000X0.400000X-0.625000X0*%
%ADD24R,1.000000X0.900000*%
%ADD25RoundRect,0.375000X-0.625000X-0.375000X0.625000X-0.375000X0.625000X0.375000X-0.625000X0.375000X0*%
%ADD26RoundRect,0.500000X-0.500000X-1.400000X0.500000X-1.400000X0.500000X1.400000X-0.500000X1.400000X0*%
%ADD27RoundRect,0.250001X-0.462499X-1.074999X0.462499X-1.074999X0.462499X1.074999X-0.462499X1.074999X0*%
%ADD28RoundRect,0.250003X-3.499997X-2.999997X3.499997X-2.999997X3.499997X2.999997X-3.499997X2.999997X0*%
%ADD29RoundRect,0.250003X3.499997X2.999997X-3.499997X2.999997X-3.499997X-2.999997X3.499997X-2.999997X0*%
%ADD30RoundRect,0.162500X-0.837500X-0.162500X0.837500X-0.162500X0.837500X0.162500X-0.837500X0.162500X0*%
%ADD31RoundRect,0.087500X-0.250000X-0.087500X0.250000X-0.087500X0.250000X0.087500X-0.250000X0.087500X0*%
%ADD32RoundRect,0.250001X0.462499X0.624999X-0.462499X0.624999X-0.462499X-0.624999X0.462499X-0.624999X0*%
%ADD33RoundRect,0.250003X-2.999997X3.499997X-2.999997X-3.499997X2.999997X-3.499997X2.999997X3.499997X0*%
%ADD34RoundRect,0.087500X0.250000X0.087500X-0.250000X0.087500X-0.250000X-0.087500X0.250000X-0.087500X0*%
%ADD35R,0.700000X1.200000*%
%ADD36RoundRect,0.075000X-0.700000X-0.075000X0.700000X-0.075000X0.700000X0.075000X-0.700000X0.075000X0*%
%ADD37RoundRect,0.075000X-0.075000X-0.700000X0.075000X-0.700000X0.075000X0.700000X-0.075000X0.700000X0*%
%ADD38RoundRect,0.162500X0.837500X0.162500X-0.837500X0.162500X-0.837500X-0.162500X0.837500X-0.162500X0*%
G04 APERTURE END LIST*
D10*
X66692500Y-137500000D03*
X71492500Y-137500000D03*
D11*
X188945500Y-112423000D03*
X192070500Y-112423000D03*
D12*
X301590000Y-132510000D03*
X301590000Y-127710000D03*
D13*
X191850000Y-137900000D03*
X191850000Y-143175000D03*
D14*
X129050000Y-117000000D03*
X132150000Y-117000000D03*
D15*
X345850000Y-147000000D03*
X342750000Y-147000000D03*
D16*
X273700000Y-138000000D03*
X276800000Y-138000000D03*
D17*
X204185000Y-108675000D03*
X204185000Y-111800000D03*
D16*
X271250000Y-115500000D03*
X274350000Y-115500000D03*
D17*
X184950000Y-137900000D03*
X184950000Y-141025000D03*
D16*
X106175000Y-120600000D03*
X109275000Y-120600000D03*
D18*
X99250000Y-126000000D03*
X102225000Y-126000000D03*
D19*
X163077600Y-137106400D03*
X158277600Y-137106400D03*
D18*
X290325000Y-143500000D03*
X293300000Y-143500000D03*
D20*
X283442500Y-110000000D03*
X280317500Y-110000000D03*
D21*
X146650000Y-130162500D03*
X146650000Y-127037500D03*
D20*
X214676000Y-121921500D03*
X211551000Y-121921500D03*
D22*
X224455000Y-116718000D03*
X224455000Y-121518000D03*
D12*
X301250000Y-112510000D03*
X301250000Y-107710000D03*
D18*
X221162500Y-107700000D03*
X224137500Y-107700000D03*
D23*
X329850000Y-147000000D03*
X326750000Y-147000000D03*
D22*
X179333600Y-139418400D03*
X179333600Y-144218400D03*
D10*
X81450000Y-147500000D03*
X86250000Y-147500000D03*
X135850000Y-123000000D03*
X140650000Y-123000000D03*
D20*
X214676000Y-128271500D03*
X211551000Y-128271500D03*
D24*
X155965600Y-142658400D03*
X155965600Y-146758400D03*
X154365600Y-142658400D03*
X154365600Y-146758400D03*
D11*
X58750000Y-120500000D03*
X61875000Y-120500000D03*
D14*
X231597500Y-107700000D03*
X234697500Y-107700000D03*
D16*
X67262500Y-120500000D03*
X70362500Y-120500000D03*
D12*
X307590000Y-112510000D03*
X307590000Y-107710000D03*
D25*
X146350000Y-116700000D03*
X146350000Y-119000000D03*
D26*
X152650000Y-119000000D03*
D25*
X146350000Y-121300000D03*
D22*
X242235000Y-119258000D03*
X242235000Y-124058000D03*
D16*
X273700000Y-143500000D03*
X276800000Y-143500000D03*
D27*
X49115000Y-120928213D03*
X52090000Y-120928213D03*
D19*
X107850000Y-141000000D03*
X103050000Y-141000000D03*
D28*
X230075000Y-91750000D03*
X309455000Y-91750000D03*
D22*
X184449972Y-115910479D03*
X184449972Y-120710479D03*
D29*
X123145000Y-91750000D03*
X43765000Y-91750000D03*
D21*
X152650000Y-130162500D03*
X152650000Y-127037500D03*
D11*
X58687500Y-126000000D03*
X61812500Y-126000000D03*
D17*
X148850000Y-143145900D03*
X148850000Y-146270900D03*
D10*
X135850000Y-129000000D03*
X140650000Y-129000000D03*
D30*
X287670000Y-115550000D03*
X287670000Y-116500000D03*
X287670000Y-117450000D03*
X291090000Y-117450000D03*
X291090000Y-115550000D03*
D16*
X81137500Y-126000000D03*
X84237500Y-126000000D03*
X87962500Y-111750000D03*
X91062500Y-111750000D03*
X106175000Y-126000000D03*
X109275000Y-126000000D03*
D28*
X229695000Y-65750000D03*
X309075000Y-65750000D03*
D14*
X298350000Y-149500000D03*
X301450000Y-149500000D03*
D10*
X270400000Y-127000000D03*
X275200000Y-127000000D03*
D20*
X173487500Y-120250000D03*
X170362500Y-120250000D03*
D31*
X288665000Y-128500000D03*
X288665000Y-129000000D03*
X288665000Y-129500000D03*
X290090000Y-129500000D03*
X290090000Y-129000000D03*
X290090000Y-128500000D03*
D16*
X298350000Y-143500000D03*
X301450000Y-143500000D03*
D17*
X211805000Y-108675000D03*
X211805000Y-111800000D03*
D14*
X79462500Y-111750000D03*
X82562500Y-111750000D03*
D19*
X119235000Y-142100000D03*
X114435000Y-142100000D03*
X107850000Y-147500000D03*
X103050000Y-147500000D03*
D12*
X307590000Y-122400000D03*
X307590000Y-117600000D03*
D23*
X274350000Y-110000000D03*
X271250000Y-110000000D03*
D16*
X129050000Y-122500000D03*
X132150000Y-122500000D03*
D18*
X70075000Y-111750000D03*
X73050000Y-111750000D03*
D19*
X96850000Y-141000000D03*
X92050000Y-141000000D03*
D12*
X184449972Y-128560479D03*
X184449972Y-123760479D03*
D19*
X96850000Y-147500000D03*
X92050000Y-147500000D03*
D28*
X136075000Y-91750000D03*
X215455000Y-91750000D03*
D15*
X276750000Y-149500000D03*
X273650000Y-149500000D03*
D27*
X287892500Y-110000000D03*
X290867500Y-110000000D03*
D12*
X215764000Y-144676000D03*
X215764000Y-139876000D03*
X224455000Y-131043000D03*
X224455000Y-126243000D03*
D10*
X135850000Y-117000000D03*
X140650000Y-117000000D03*
D32*
X91737500Y-126000000D03*
X88762500Y-126000000D03*
D19*
X174113600Y-136750000D03*
X169313600Y-136750000D03*
D16*
X271233480Y-121000000D03*
X274333480Y-121000000D03*
D32*
X355337500Y-147000000D03*
X352362500Y-147000000D03*
D29*
X123145000Y-65750000D03*
X43765000Y-65750000D03*
D33*
X356750000Y-58810000D03*
X356750000Y-138190000D03*
D10*
X81450000Y-141000000D03*
X86250000Y-141000000D03*
D14*
X106175000Y-131900000D03*
X109275000Y-131900000D03*
D16*
X129050000Y-127500000D03*
X132150000Y-127500000D03*
D34*
X51315000Y-142000000D03*
X51315000Y-141500000D03*
X51315000Y-141000000D03*
X49890000Y-141000000D03*
X49890000Y-141500000D03*
X49890000Y-142000000D03*
D20*
X175250000Y-114000000D03*
X172125000Y-114000000D03*
D16*
X239587500Y-107700000D03*
X242687500Y-107700000D03*
D20*
X214637500Y-116587500D03*
X211512500Y-116587500D03*
D16*
X248037500Y-107700000D03*
X251137500Y-107700000D03*
D18*
X129175000Y-133500000D03*
X132150000Y-133500000D03*
D16*
X298350000Y-138000000D03*
X301450000Y-138000000D03*
D35*
X287390000Y-122550000D03*
X291090000Y-122550000D03*
D16*
X67262500Y-126000000D03*
X70362500Y-126000000D03*
D12*
X307930000Y-132510000D03*
X307930000Y-127710000D03*
X301250000Y-122400000D03*
X301250000Y-117600000D03*
D23*
X337850000Y-147000000D03*
X334750000Y-147000000D03*
D16*
X95462500Y-111750000D03*
X98562500Y-111750000D03*
X67262500Y-131500000D03*
X70362500Y-131500000D03*
D33*
X328750000Y-58940000D03*
X328750000Y-138320000D03*
D11*
X280317500Y-115500000D03*
X283442500Y-115500000D03*
D10*
X165503600Y-149044400D03*
X170303600Y-149044400D03*
D15*
X84237500Y-131900000D03*
X81137500Y-131900000D03*
D35*
X48835701Y-133450382D03*
X52535701Y-133450382D03*
D29*
X215455000Y-65750000D03*
X136075000Y-65750000D03*
D18*
X282325000Y-143500000D03*
X285300000Y-143500000D03*
D16*
X81137500Y-120500000D03*
X84237500Y-120500000D03*
D20*
X173467500Y-126250000D03*
X170342500Y-126250000D03*
D36*
X190575000Y-120250000D03*
X190575000Y-120750000D03*
X190575000Y-121250000D03*
X190575000Y-121750000D03*
X190575000Y-122250000D03*
X190575000Y-122750000D03*
X190575000Y-123250000D03*
X190575000Y-123750000D03*
X190575000Y-124250000D03*
X190575000Y-124750000D03*
X190575000Y-125250000D03*
X190575000Y-125750000D03*
X190575000Y-126250000D03*
X190575000Y-126750000D03*
X190575000Y-127250000D03*
X190575000Y-127750000D03*
D37*
X192500000Y-129675000D03*
X193000000Y-129675000D03*
X193500000Y-129675000D03*
X194000000Y-129675000D03*
X194500000Y-129675000D03*
X195000000Y-129675000D03*
X195500000Y-129675000D03*
X196000000Y-129675000D03*
X196500000Y-129675000D03*
X197000000Y-129675000D03*
X197500000Y-129675000D03*
X198000000Y-129675000D03*
X198500000Y-129675000D03*
X199000000Y-129675000D03*
X199500000Y-129675000D03*
X200000000Y-129675000D03*
D36*
X201925000Y-127750000D03*
X201925000Y-127250000D03*
X201925000Y-126750000D03*
X201925000Y-126250000D03*
X201925000Y-125750000D03*
X201925000Y-125250000D03*
X201925000Y-124750000D03*
X201925000Y-124250000D03*
X201925000Y-123750000D03*
X201925000Y-123250000D03*
X201925000Y-122750000D03*
X201925000Y-122250000D03*
X201925000Y-121750000D03*
X201925000Y-121250000D03*
X201925000Y-120750000D03*
X201925000Y-120250000D03*
D37*
X200000000Y-118325000D03*
X199500000Y-118325000D03*
X199000000Y-118325000D03*
X198500000Y-118325000D03*
X198000000Y-118325000D03*
X197500000Y-118325000D03*
X197000000Y-118325000D03*
X196500000Y-118325000D03*
X196000000Y-118325000D03*
X195500000Y-118325000D03*
X195000000Y-118325000D03*
X194500000Y-118325000D03*
X194000000Y-118325000D03*
X193500000Y-118325000D03*
X193000000Y-118325000D03*
X192500000Y-118325000D03*
D38*
X52307569Y-128344778D03*
X52307569Y-127394778D03*
X52307569Y-126444778D03*
X48887569Y-126444778D03*
X48887569Y-128344778D03*
M02*
