M48
METRIC
T1C0.300
T2C0.500
T3C0.650
T4C0.800
T5C0.900
T6C1.000
T7C1.100
T8C2.390
T9C3.450
T10C5.300
%
G90
G05
T1
X41.75Y-98.0
X44.75Y-136.25
X46.5Y-138.0
X48.0Y-138.25
X48.625Y-141.125
X49.75Y-131.25
X52.25Y-140.5
X52.45Y-142.4
X52.75Y-139.0
X53.45Y-143.0
X54.25Y-127.5
X54.445Y-126.445
X54.75Y-121.5
X55.0Y-129.75
X56.015Y-140.935
X56.75Y-124.5
X57.0Y-129.0
X57.85Y-139.1
X63.75Y-120.0
X64.25Y-125.5
X68.25Y-112.5
X71.75Y-135.0
X89.0Y-142.0
X90.65Y-145.5
X92.75Y-128.5
X100.25Y-128.0
X102.5Y-114.25
X105.55Y-144.2
X105.969Y-144.881
X108.75Y-150.0
X114.05Y-155.8
X117.15Y-113.4
X125.75Y-141.0
X134.75Y-125.5
X142.25Y-125.6
X142.65Y-126.8
X142.85Y-118.4
X143.65Y-121.6
X144.85Y-124.0
X150.75Y-143.0
X155.25Y-126.5
X162.0Y-130.65
X165.65Y-140.8
X166.95Y-140.9
X168.35Y-141.3
X170.05Y-141.3
X171.95Y-131.3
X173.05Y-133.326
X173.414Y-142.726
X175.223Y-139.95
X175.711Y-140.6
X175.75Y-136.5
X181.75Y-139.0
X183.75Y-132.676
X184.415Y-132.026
X184.75Y-131.3
X187.5Y-120.25
X187.95Y-140.5
X188.9Y-126.699
X188.938Y-125.9
X188.964Y-121.436
X190.95Y-136.2
X192.25Y-115.0
X192.764Y-131.276
X194.75Y-133.8
X195.75Y-113.4
X195.92Y-143.6
X196.15Y-114.2
X196.75Y-112.1
X197.65Y-116.0
X197.95Y-131.6
X198.75Y-115.6
X198.77Y-134.55
X199.25Y-135.2
X199.264Y-131.076
X199.85Y-113.5
X201.75Y-111.0
X202.35Y-114.8
X203.25Y-129.6
X203.85Y-130.6
X205.01Y-132.8
X205.05Y-125.2
X205.95Y-132.5
X206.75Y-120.5
X206.85Y-119.0
X207.25Y-116.6
X207.45Y-125.2
X208.0Y-122.4
X210.25Y-127.5
X211.25Y-132.4
X211.75Y-115.0
X211.75Y-120.0
X213.65Y-124.3
X214.25Y-125.0
X214.519Y-132.55
X214.85Y-135.4
X215.764Y-137.8
X217.25Y-97.0
X222.05Y-115.0
X223.05Y-113.6
X225.631Y-133.2
X226.75Y-116.5
X246.55Y-144.0
X263.05Y-113.6
X263.85Y-114.2
X268.55Y-135.35
X274.25Y-134.7
X276.75Y-127.5
X279.15Y-120.2
X280.75Y-143.0
X283.75Y-117.0
X283.85Y-130.0
X285.65Y-128.3
X286.25Y-117.0
X286.53Y-129.0
X286.75Y-119.25
X287.35Y-128.3
X287.75Y-129.55
X288.026Y-106.376
X288.25Y-105.6
X288.25Y-143.0
X288.55Y-112.35
X288.85Y-124.9
X290.55Y-114.0
X291.35Y-128.875
X292.15Y-120.7
X295.05Y-135.9
X296.85Y-120.4
X297.35Y-125.9
X298.75Y-132.5
X299.05Y-114.2
X305.25Y-122.5
X306.55Y-115.2
X306.55Y-125.1
X310.75Y-98.5
X310.75Y-113.0
T2
X180.35Y-114.0
X182.25Y-114.0
T3
X164.094Y-142.694
X164.094Y-143.964
X165.364Y-142.694
X165.364Y-143.964
X166.634Y-142.694
X166.634Y-143.964
X167.904Y-142.694
X167.904Y-143.964
X169.174Y-142.694
X169.174Y-143.964
X170.444Y-142.694
X170.444Y-143.964
X171.714Y-142.694
X171.714Y-143.964
T4
X121.44Y-148.6
X123.98Y-148.6
X126.52Y-148.6
X129.06Y-148.6
X178.425Y-120.75
X178.425Y-125.63
T5
X196.57Y-149.4
X199.11Y-149.4
X201.65Y-149.4
T6
X41.693Y-121.137
X41.693Y-123.677
X198.214Y-137.876
X210.914Y-137.876
X232.71Y-119.42
X232.71Y-121.96
X232.71Y-124.5
X232.71Y-127.04
X232.71Y-129.58
X235.25Y-119.42
X235.25Y-121.96
X235.25Y-124.5
X235.25Y-127.04
X235.25Y-129.58
X367.6Y-146.0
X367.6Y-148.54
T7
X222.996Y-141.501
X228.076Y-141.501
X233.156Y-141.501
T8
X119.585Y-73.75
X119.585Y-99.75
X139.635Y-83.75
X211.895Y-73.75
X233.255Y-57.75
X233.635Y-83.75
X336.75Y-62.5
X364.75Y-62.37
T9
X55.835Y-73.75
X55.835Y-99.75
X111.075Y-57.75
X111.075Y-83.75
X148.145Y-73.75
X148.145Y-99.75
X203.385Y-57.75
X203.385Y-83.75
X241.765Y-73.75
X242.145Y-99.75
X297.005Y-57.75
X297.385Y-83.75
X320.75Y-71.01
X336.75Y-126.25
X348.75Y-70.88
X364.75Y-126.12
T10
X42.0Y-151.2
X129.2Y-54.5
X342.6Y-54.8
X360.5Y-151.9
M30
